<?xml version="1.0" encoding="UTF-8"?>
<svg xmlns="http://www.w3.org/2000/svg" xmlns:xlink="http://www.w3.org/1999/xlink" width="504pt" height="432pt" viewBox="0 0 504 432">
<defs>
<g>
<g id="glyph-0-0">
<path d="M 3.40625 -2.515625 L 5.8125 -6.40625 L 4.84375 -6.40625 L 3.015625 -3.296875 L 1.125 -6.40625 L 0.109375 -6.40625 L 2.59375 -2.515625 L 2.59375 0 L 3.40625 0 Z M 3.40625 -2.515625 "/>
</g>
<g id="glyph-0-1">
<path d="M 3.4375 -3.296875 L 5.609375 -6.40625 L 4.625 -6.40625 L 2.96875 -3.890625 L 1.328125 -6.40625 L 0.328125 -6.40625 L 2.46875 -3.296875 L 0.1875 0 L 1.1875 0 L 2.953125 -2.671875 L 4.703125 0 L 5.703125 0 Z M 3.4375 -3.296875 "/>
</g>
<g id="glyph-0-2">
<path d="M 0.46875 1.921875 L 1.21875 1.921875 L 1.21875 -0.484375 C 1.59375 -0.015625 2.03125 0.203125 2.625 0.203125 C 3.828125 0.203125 4.59375 -0.75 4.59375 -2.21875 C 4.59375 -3.78125 3.84375 -4.734375 2.625 -4.734375 C 2 -4.734375 1.5 -4.453125 1.15625 -3.921875 L 1.15625 -4.609375 L 0.46875 -4.609375 Z M 2.5 -4.0625 C 3.3125 -4.0625 3.828125 -3.34375 3.828125 -2.25 C 3.828125 -1.203125 3.296875 -0.484375 2.5 -0.484375 C 1.71875 -0.484375 1.21875 -1.1875 1.21875 -2.265625 C 1.21875 -3.359375 1.71875 -4.0625 2.5 -4.0625 Z M 2.5 -4.0625 "/>
</g>
<g id="glyph-0-3">
<path d="M 0.609375 -4.609375 L 0.609375 0 L 1.359375 0 L 1.359375 -2.546875 C 1.359375 -3.484375 1.84375 -4.09375 2.609375 -4.09375 C 3.1875 -4.09375 3.546875 -3.75 3.546875 -3.1875 L 3.546875 0 L 4.28125 0 L 4.28125 -3.484375 C 4.28125 -4.25 3.71875 -4.734375 2.828125 -4.734375 C 2.140625 -4.734375 1.703125 -4.484375 1.296875 -3.828125 L 1.296875 -4.609375 Z M 0.609375 -4.609375 "/>
</g>
<g id="glyph-0-4">
<path d="M 2.421875 -6.359375 C 1.84375 -6.359375 1.3125 -6.09375 0.984375 -5.671875 C 0.578125 -5.109375 0.375 -4.25 0.375 -3.078125 C 0.375 -0.9375 1.078125 0.203125 2.421875 0.203125 C 3.734375 0.203125 4.453125 -0.9375 4.453125 -3.03125 C 4.453125 -4.25 4.265625 -5.078125 3.859375 -5.671875 C 3.53125 -6.109375 3.015625 -6.359375 2.421875 -6.359375 Z M 2.421875 -5.671875 C 3.25 -5.671875 3.671875 -4.828125 3.671875 -3.09375 C 3.671875 -1.28125 3.265625 -0.4375 2.40625 -0.4375 C 1.578125 -0.4375 1.171875 -1.3125 1.171875 -3.0625 C 1.171875 -4.828125 1.578125 -5.671875 2.421875 -5.671875 Z M 2.421875 -5.671875 "/>
</g>
<g id="glyph-0-5">
<path d="M 2.28125 -4.53125 L 2.28125 0 L 3.046875 0 L 3.046875 -6.359375 L 2.546875 -6.359375 C 2.265625 -5.390625 2.09375 -5.25 0.890625 -5.09375 L 0.890625 -4.53125 Z M 2.28125 -4.53125 "/>
</g>
<g id="glyph-0-6">
<path d="M 4.453125 -0.765625 L 1.171875 -0.765625 C 1.25 -1.296875 1.53125 -1.625 2.296875 -2.09375 L 3.171875 -2.59375 C 4.046875 -3.0625 4.5 -3.71875 4.5 -4.5 C 4.5 -5.03125 4.28125 -5.53125 3.921875 -5.875 C 3.546875 -6.203125 3.09375 -6.359375 2.5 -6.359375 C 1.703125 -6.359375 1.125 -6.078125 0.78125 -5.53125 C 0.546875 -5.203125 0.453125 -4.796875 0.4375 -4.15625 L 1.21875 -4.15625 C 1.234375 -4.59375 1.296875 -4.84375 1.40625 -5.0625 C 1.59375 -5.4375 2 -5.6875 2.46875 -5.6875 C 3.171875 -5.6875 3.703125 -5.171875 3.703125 -4.484375 C 3.703125 -3.96875 3.40625 -3.53125 2.859375 -3.21875 L 2.046875 -2.75 C 0.75 -2 0.375 -1.40625 0.296875 -0.015625 L 4.453125 -0.015625 Z M 4.453125 -0.765625 "/>
</g>
<g id="glyph-0-7">
<path d="M 1.9375 -2.921875 L 2.359375 -2.921875 C 3.203125 -2.921875 3.65625 -2.53125 3.65625 -1.765625 C 3.65625 -0.96875 3.171875 -0.484375 2.375 -0.484375 C 1.515625 -0.484375 1.109375 -0.921875 1.0625 -1.84375 L 0.28125 -1.84375 C 0.3125 -1.34375 0.40625 -1 0.546875 -0.71875 C 0.875 -0.109375 1.484375 0.203125 2.34375 0.203125 C 3.625 0.203125 4.453125 -0.578125 4.453125 -1.78125 C 4.453125 -2.59375 4.140625 -3.03125 3.390625 -3.296875 C 3.96875 -3.53125 4.265625 -3.96875 4.265625 -4.609375 C 4.265625 -5.703125 3.546875 -6.359375 2.359375 -6.359375 C 1.109375 -6.359375 0.4375 -5.65625 0.40625 -4.3125 L 1.1875 -4.3125 C 1.203125 -4.703125 1.234375 -4.921875 1.328125 -5.109375 C 1.5 -5.46875 1.890625 -5.6875 2.375 -5.6875 C 3.0625 -5.6875 3.46875 -5.265625 3.46875 -4.578125 C 3.46875 -4.140625 3.3125 -3.859375 2.96875 -3.71875 C 2.765625 -3.625 2.484375 -3.59375 1.9375 -3.578125 Z M 1.9375 -2.921875 "/>
</g>
<g id="glyph-0-8">
<path d="M 2.875 -1.546875 L 2.875 0 L 3.65625 0 L 3.65625 -1.546875 L 4.578125 -1.546875 L 4.578125 -2.234375 L 3.65625 -2.234375 L 3.65625 -6.359375 L 3.078125 -6.359375 L 0.25 -2.359375 L 0.25 -1.546875 Z M 2.875 -2.234375 L 0.921875 -2.234375 L 2.875 -5.046875 Z M 2.875 -2.234375 "/>
</g>
<g id="glyph-0-9">
<path d="M 4.1875 -6.234375 L 0.96875 -6.234375 L 0.5 -2.84375 L 1.21875 -2.84375 C 1.578125 -3.265625 1.875 -3.421875 2.359375 -3.421875 C 3.203125 -3.421875 3.71875 -2.84375 3.71875 -1.921875 C 3.71875 -1.03125 3.203125 -0.484375 2.359375 -0.484375 C 1.6875 -0.484375 1.265625 -0.828125 1.078125 -1.53125 L 0.3125 -1.53125 C 0.40625 -1.015625 0.5 -0.78125 0.6875 -0.546875 C 1.03125 -0.078125 1.671875 0.203125 2.375 0.203125 C 3.640625 0.203125 4.515625 -0.71875 4.515625 -2.03125 C 4.515625 -3.265625 3.6875 -4.109375 2.5 -4.109375 C 2.0625 -4.109375 1.703125 -4 1.34375 -3.734375 L 1.59375 -5.46875 L 4.1875 -5.46875 Z M 4.1875 -6.234375 "/>
</g>
<g id="glyph-0-10">
<path d="M 4.578125 -6.234375 L 0.40625 -6.234375 L 0.40625 -5.46875 L 3.78125 -5.46875 C 2.28125 -3.359375 1.6875 -2.046875 1.21875 0 L 2.046875 0 C 2.390625 -2 3.171875 -3.71875 4.578125 -5.59375 Z M 4.578125 -6.234375 "/>
</g>
<g id="glyph-0-11">
<path d="M 1.6875 -0.921875 L 0.765625 -0.921875 L 0.765625 0 L 1.6875 0 Z M 1.6875 -0.921875 "/>
</g>
<g id="glyph-0-12">
<path d="M 3.4375 -3.359375 C 4.09375 -3.75 4.296875 -4.0625 4.296875 -4.65625 C 4.296875 -5.671875 3.53125 -6.359375 2.421875 -6.359375 C 1.3125 -6.359375 0.546875 -5.671875 0.546875 -4.671875 C 0.546875 -4.0625 0.75 -3.75 1.390625 -3.359375 C 0.671875 -2.984375 0.328125 -2.46875 0.328125 -1.765625 C 0.328125 -0.609375 1.171875 0.203125 2.421875 0.203125 C 3.65625 0.203125 4.515625 -0.609375 4.515625 -1.765625 C 4.515625 -2.46875 4.15625 -2.984375 3.4375 -3.359375 Z M 2.421875 -5.671875 C 3.078125 -5.671875 3.5 -5.28125 3.5 -4.640625 C 3.5 -4.046875 3.0625 -3.65625 2.421875 -3.65625 C 1.765625 -3.65625 1.34375 -4.046875 1.34375 -4.65625 C 1.34375 -5.28125 1.765625 -5.671875 2.421875 -5.671875 Z M 2.421875 -3 C 3.1875 -3 3.71875 -2.484375 3.71875 -1.75 C 3.71875 -0.984375 3.203125 -0.484375 2.40625 -0.484375 C 1.640625 -0.484375 1.125 -1 1.125 -1.734375 C 1.125 -2.5 1.640625 -3 2.421875 -3 Z M 2.421875 -3 "/>
</g>
<g id="glyph-0-13">
<path d="M 0.46875 -1.453125 C 0.609375 -0.40625 1.28125 0.203125 2.234375 0.203125 C 2.921875 0.203125 3.546875 -0.125 3.921875 -0.703125 C 4.296875 -1.328125 4.484375 -2.109375 4.484375 -3.25 C 4.484375 -4.328125 4.3125 -5 3.953125 -5.5625 C 3.609375 -6.09375 3.0625 -6.359375 2.375 -6.359375 C 1.1875 -6.359375 0.328125 -5.46875 0.328125 -4.234375 C 0.328125 -3.0625 1.125 -2.25 2.25 -2.25 C 2.84375 -2.25 3.28125 -2.453125 3.671875 -2.9375 C 3.671875 -1.359375 3.171875 -0.484375 2.28125 -0.484375 C 1.734375 -0.484375 1.359375 -0.828125 1.234375 -1.453125 Z M 2.359375 -5.6875 C 3.09375 -5.6875 3.640625 -5.078125 3.640625 -4.25 C 3.640625 -3.46875 3.109375 -2.921875 2.34375 -2.921875 C 1.59375 -2.921875 1.125 -3.453125 1.125 -4.296875 C 1.125 -5.109375 1.640625 -5.6875 2.359375 -5.6875 Z M 2.359375 -5.6875 "/>
</g>
<g id="glyph-1-0">
<path d="M 2.796875 -5.765625 L 1.84375 -5.765625 L 1.84375 -7.34375 L 0.9375 -7.34375 L 0.9375 -5.765625 L 0.15625 -5.765625 L 0.15625 -5.015625 L 0.9375 -5.015625 L 0.9375 -0.65625 C 0.9375 -0.0625 1.328125 0.25 2.046875 0.25 C 2.28125 0.25 2.484375 0.234375 2.796875 0.171875 L 2.796875 -0.59375 C 2.65625 -0.5625 2.546875 -0.546875 2.359375 -0.546875 C 1.953125 -0.546875 1.84375 -0.65625 1.84375 -1.0625 L 1.84375 -5.015625 L 2.796875 -5.015625 Z M 2.796875 -5.765625 "/>
</g>
<g id="glyph-1-1">
<path d="M 1.65625 -5.765625 L 0.734375 -5.765625 L 0.734375 0 L 1.65625 0 Z M 1.65625 -8.015625 L 0.71875 -8.015625 L 0.71875 -6.859375 L 1.65625 -6.859375 Z M 1.65625 -8.015625 "/>
</g>
<g id="glyph-1-2">
<path d="M 0.765625 -5.765625 L 0.765625 0 L 1.6875 0 L 1.6875 -3.625 C 1.6875 -4.453125 2.296875 -5.125 3.046875 -5.125 C 3.734375 -5.125 4.109375 -4.703125 4.109375 -3.96875 L 4.109375 0 L 5.03125 0 L 5.03125 -3.625 C 5.03125 -4.453125 5.640625 -5.125 6.390625 -5.125 C 7.0625 -5.125 7.453125 -4.703125 7.453125 -3.96875 L 7.453125 0 L 8.375 0 L 8.375 -4.328125 C 8.375 -5.359375 7.78125 -5.921875 6.703125 -5.921875 C 5.9375 -5.921875 5.484375 -5.703125 4.9375 -5.046875 C 4.59375 -5.671875 4.140625 -5.921875 3.390625 -5.921875 C 2.625 -5.921875 2.09375 -5.640625 1.609375 -4.953125 L 1.609375 -5.765625 Z M 0.765625 -5.765625 "/>
</g>
<g id="glyph-1-3">
<path d="M 5.640625 -2.578125 C 5.640625 -3.453125 5.578125 -3.984375 5.40625 -4.40625 C 5.03125 -5.359375 4.15625 -5.921875 3.078125 -5.921875 C 1.46875 -5.921875 0.4375 -4.703125 0.4375 -2.8125 C 0.4375 -0.90625 1.4375 0.25 3.0625 0.25 C 4.375 0.25 5.296875 -0.5 5.515625 -1.75 L 4.59375 -1.75 C 4.34375 -0.984375 3.828125 -0.59375 3.09375 -0.59375 C 2.515625 -0.59375 2.015625 -0.859375 1.703125 -1.34375 C 1.484375 -1.671875 1.40625 -2 1.390625 -2.578125 Z M 1.421875 -3.328125 C 1.5 -4.390625 2.140625 -5.078125 3.0625 -5.078125 C 4 -5.078125 4.65625 -4.359375 4.65625 -3.328125 Z M 1.421875 -3.328125 "/>
</g>
</g>
<clipPath id="clip-0">
<path clip-rule="nonzero" d="M 50.152344 23.246094 L 498.523438 23.246094 L 498.523438 99.460938 L 50.152344 99.460938 Z M 50.152344 23.246094 "/>
</clipPath>
<clipPath id="clip-1">
<path clip-rule="nonzero" d="M 50.152344 91 L 498.523438 91 L 498.523438 93 L 50.152344 93 Z M 50.152344 91 "/>
</clipPath>
<clipPath id="clip-2">
<path clip-rule="nonzero" d="M 50.152344 72 L 498.523438 72 L 498.523438 73 L 50.152344 73 Z M 50.152344 72 "/>
</clipPath>
<clipPath id="clip-3">
<path clip-rule="nonzero" d="M 50.152344 52 L 498.523438 52 L 498.523438 54 L 50.152344 54 Z M 50.152344 52 "/>
</clipPath>
<clipPath id="clip-4">
<path clip-rule="nonzero" d="M 50.152344 33 L 498.523438 33 L 498.523438 34 L 50.152344 34 Z M 50.152344 33 "/>
</clipPath>
<clipPath id="clip-5">
<path clip-rule="nonzero" d="M 121 23.246094 L 122 23.246094 L 122 99.460938 L 121 99.460938 Z M 121 23.246094 "/>
</clipPath>
<clipPath id="clip-6">
<path clip-rule="nonzero" d="M 223 23.246094 L 224 23.246094 L 224 99.460938 L 223 99.460938 Z M 223 23.246094 "/>
</clipPath>
<clipPath id="clip-7">
<path clip-rule="nonzero" d="M 325 23.246094 L 326 23.246094 L 326 99.460938 L 325 99.460938 Z M 325 23.246094 "/>
</clipPath>
<clipPath id="clip-8">
<path clip-rule="nonzero" d="M 426 23.246094 L 428 23.246094 L 428 99.460938 L 426 99.460938 Z M 426 23.246094 "/>
</clipPath>
<clipPath id="clip-9">
<path clip-rule="nonzero" d="M 50.152344 81 L 498.523438 81 L 498.523438 83 L 50.152344 83 Z M 50.152344 81 "/>
</clipPath>
<clipPath id="clip-10">
<path clip-rule="nonzero" d="M 50.152344 62 L 498.523438 62 L 498.523438 64 L 50.152344 64 Z M 50.152344 62 "/>
</clipPath>
<clipPath id="clip-11">
<path clip-rule="nonzero" d="M 50.152344 42 L 498.523438 42 L 498.523438 44 L 50.152344 44 Z M 50.152344 42 "/>
</clipPath>
<clipPath id="clip-12">
<path clip-rule="nonzero" d="M 50.152344 23.246094 L 498.523438 23.246094 L 498.523438 25 L 50.152344 25 Z M 50.152344 23.246094 "/>
</clipPath>
<clipPath id="clip-13">
<path clip-rule="nonzero" d="M 69 23.246094 L 72 23.246094 L 72 99.460938 L 69 99.460938 Z M 69 23.246094 "/>
</clipPath>
<clipPath id="clip-14">
<path clip-rule="nonzero" d="M 171 23.246094 L 173 23.246094 L 173 99.460938 L 171 99.460938 Z M 171 23.246094 "/>
</clipPath>
<clipPath id="clip-15">
<path clip-rule="nonzero" d="M 273 23.246094 L 275 23.246094 L 275 99.460938 L 273 99.460938 Z M 273 23.246094 "/>
</clipPath>
<clipPath id="clip-16">
<path clip-rule="nonzero" d="M 375 23.246094 L 377 23.246094 L 377 99.460938 L 375 99.460938 Z M 375 23.246094 "/>
</clipPath>
<clipPath id="clip-17">
<path clip-rule="nonzero" d="M 477 23.246094 L 479 23.246094 L 479 99.460938 L 477 99.460938 Z M 477 23.246094 "/>
</clipPath>
<clipPath id="clip-18">
<path clip-rule="nonzero" d="M 50.152344 23.246094 L 498.523438 23.246094 L 498.523438 99.460938 L 50.152344 99.460938 Z M 50.152344 23.246094 "/>
</clipPath>
<clipPath id="clip-19">
<path clip-rule="nonzero" d="M 50.152344 122.707031 L 498.523438 122.707031 L 498.523438 198.921875 L 50.152344 198.921875 Z M 50.152344 122.707031 "/>
</clipPath>
<clipPath id="clip-20">
<path clip-rule="nonzero" d="M 50.152344 197 L 498.523438 197 L 498.523438 198 L 50.152344 198 Z M 50.152344 197 "/>
</clipPath>
<clipPath id="clip-21">
<path clip-rule="nonzero" d="M 50.152344 181 L 498.523438 181 L 498.523438 183 L 50.152344 183 Z M 50.152344 181 "/>
</clipPath>
<clipPath id="clip-22">
<path clip-rule="nonzero" d="M 50.152344 165 L 498.523438 165 L 498.523438 167 L 50.152344 167 Z M 50.152344 165 "/>
</clipPath>
<clipPath id="clip-23">
<path clip-rule="nonzero" d="M 50.152344 150 L 498.523438 150 L 498.523438 151 L 50.152344 151 Z M 50.152344 150 "/>
</clipPath>
<clipPath id="clip-24">
<path clip-rule="nonzero" d="M 50.152344 134 L 498.523438 134 L 498.523438 136 L 50.152344 136 Z M 50.152344 134 "/>
</clipPath>
<clipPath id="clip-25">
<path clip-rule="nonzero" d="M 121 122.707031 L 122 122.707031 L 122 198.921875 L 121 198.921875 Z M 121 122.707031 "/>
</clipPath>
<clipPath id="clip-26">
<path clip-rule="nonzero" d="M 223 122.707031 L 224 122.707031 L 224 198.921875 L 223 198.921875 Z M 223 122.707031 "/>
</clipPath>
<clipPath id="clip-27">
<path clip-rule="nonzero" d="M 325 122.707031 L 326 122.707031 L 326 198.921875 L 325 198.921875 Z M 325 122.707031 "/>
</clipPath>
<clipPath id="clip-28">
<path clip-rule="nonzero" d="M 426 122.707031 L 428 122.707031 L 428 198.921875 L 426 198.921875 Z M 426 122.707031 "/>
</clipPath>
<clipPath id="clip-29">
<path clip-rule="nonzero" d="M 50.152344 189 L 498.523438 189 L 498.523438 191 L 50.152344 191 Z M 50.152344 189 "/>
</clipPath>
<clipPath id="clip-30">
<path clip-rule="nonzero" d="M 50.152344 173 L 498.523438 173 L 498.523438 175 L 50.152344 175 Z M 50.152344 173 "/>
</clipPath>
<clipPath id="clip-31">
<path clip-rule="nonzero" d="M 50.152344 157 L 498.523438 157 L 498.523438 159 L 50.152344 159 Z M 50.152344 157 "/>
</clipPath>
<clipPath id="clip-32">
<path clip-rule="nonzero" d="M 50.152344 142 L 498.523438 142 L 498.523438 144 L 50.152344 144 Z M 50.152344 142 "/>
</clipPath>
<clipPath id="clip-33">
<path clip-rule="nonzero" d="M 50.152344 126 L 498.523438 126 L 498.523438 128 L 50.152344 128 Z M 50.152344 126 "/>
</clipPath>
<clipPath id="clip-34">
<path clip-rule="nonzero" d="M 69 122.707031 L 72 122.707031 L 72 198.921875 L 69 198.921875 Z M 69 122.707031 "/>
</clipPath>
<clipPath id="clip-35">
<path clip-rule="nonzero" d="M 171 122.707031 L 173 122.707031 L 173 198.921875 L 171 198.921875 Z M 171 122.707031 "/>
</clipPath>
<clipPath id="clip-36">
<path clip-rule="nonzero" d="M 273 122.707031 L 275 122.707031 L 275 198.921875 L 273 198.921875 Z M 273 122.707031 "/>
</clipPath>
<clipPath id="clip-37">
<path clip-rule="nonzero" d="M 375 122.707031 L 377 122.707031 L 377 198.921875 L 375 198.921875 Z M 375 122.707031 "/>
</clipPath>
<clipPath id="clip-38">
<path clip-rule="nonzero" d="M 477 122.707031 L 479 122.707031 L 479 198.921875 L 477 198.921875 Z M 477 122.707031 "/>
</clipPath>
<clipPath id="clip-39">
<path clip-rule="nonzero" d="M 50.152344 122.707031 L 498.523438 122.707031 L 498.523438 198.921875 L 50.152344 198.921875 Z M 50.152344 122.707031 "/>
</clipPath>
<clipPath id="clip-40">
<path clip-rule="nonzero" d="M 50.152344 222.171875 L 498.523438 222.171875 L 498.523438 298.386719 L 50.152344 298.386719 Z M 50.152344 222.171875 "/>
</clipPath>
<clipPath id="clip-41">
<path clip-rule="nonzero" d="M 50.152344 291 L 498.523438 291 L 498.523438 293 L 50.152344 293 Z M 50.152344 291 "/>
</clipPath>
<clipPath id="clip-42">
<path clip-rule="nonzero" d="M 50.152344 277 L 498.523438 277 L 498.523438 279 L 50.152344 279 Z M 50.152344 277 "/>
</clipPath>
<clipPath id="clip-43">
<path clip-rule="nonzero" d="M 50.152344 263 L 498.523438 263 L 498.523438 264 L 50.152344 264 Z M 50.152344 263 "/>
</clipPath>
<clipPath id="clip-44">
<path clip-rule="nonzero" d="M 50.152344 249 L 498.523438 249 L 498.523438 250 L 50.152344 250 Z M 50.152344 249 "/>
</clipPath>
<clipPath id="clip-45">
<path clip-rule="nonzero" d="M 50.152344 235 L 498.523438 235 L 498.523438 236 L 50.152344 236 Z M 50.152344 235 "/>
</clipPath>
<clipPath id="clip-46">
<path clip-rule="nonzero" d="M 121 222.171875 L 122 222.171875 L 122 298.386719 L 121 298.386719 Z M 121 222.171875 "/>
</clipPath>
<clipPath id="clip-47">
<path clip-rule="nonzero" d="M 223 222.171875 L 224 222.171875 L 224 298.386719 L 223 298.386719 Z M 223 222.171875 "/>
</clipPath>
<clipPath id="clip-48">
<path clip-rule="nonzero" d="M 325 222.171875 L 326 222.171875 L 326 298.386719 L 325 298.386719 Z M 325 222.171875 "/>
</clipPath>
<clipPath id="clip-49">
<path clip-rule="nonzero" d="M 426 222.171875 L 428 222.171875 L 428 298.386719 L 426 298.386719 Z M 426 222.171875 "/>
</clipPath>
<clipPath id="clip-50">
<path clip-rule="nonzero" d="M 50.152344 284 L 498.523438 284 L 498.523438 286 L 50.152344 286 Z M 50.152344 284 "/>
</clipPath>
<clipPath id="clip-51">
<path clip-rule="nonzero" d="M 50.152344 270 L 498.523438 270 L 498.523438 272 L 50.152344 272 Z M 50.152344 270 "/>
</clipPath>
<clipPath id="clip-52">
<path clip-rule="nonzero" d="M 50.152344 256 L 498.523438 256 L 498.523438 258 L 50.152344 258 Z M 50.152344 256 "/>
</clipPath>
<clipPath id="clip-53">
<path clip-rule="nonzero" d="M 50.152344 241 L 498.523438 241 L 498.523438 243 L 50.152344 243 Z M 50.152344 241 "/>
</clipPath>
<clipPath id="clip-54">
<path clip-rule="nonzero" d="M 50.152344 227 L 498.523438 227 L 498.523438 229 L 50.152344 229 Z M 50.152344 227 "/>
</clipPath>
<clipPath id="clip-55">
<path clip-rule="nonzero" d="M 69 222.171875 L 72 222.171875 L 72 298.386719 L 69 298.386719 Z M 69 222.171875 "/>
</clipPath>
<clipPath id="clip-56">
<path clip-rule="nonzero" d="M 171 222.171875 L 173 222.171875 L 173 298.386719 L 171 298.386719 Z M 171 222.171875 "/>
</clipPath>
<clipPath id="clip-57">
<path clip-rule="nonzero" d="M 273 222.171875 L 275 222.171875 L 275 298.386719 L 273 298.386719 Z M 273 222.171875 "/>
</clipPath>
<clipPath id="clip-58">
<path clip-rule="nonzero" d="M 375 222.171875 L 377 222.171875 L 377 298.386719 L 375 298.386719 Z M 375 222.171875 "/>
</clipPath>
<clipPath id="clip-59">
<path clip-rule="nonzero" d="M 477 222.171875 L 479 222.171875 L 479 298.386719 L 477 298.386719 Z M 477 222.171875 "/>
</clipPath>
<clipPath id="clip-60">
<path clip-rule="nonzero" d="M 50.152344 222.171875 L 498.523438 222.171875 L 498.523438 298.386719 L 50.152344 298.386719 Z M 50.152344 222.171875 "/>
</clipPath>
<clipPath id="clip-61">
<path clip-rule="nonzero" d="M 50.152344 321.632812 L 498.523438 321.632812 L 498.523438 397.847656 L 50.152344 397.847656 Z M 50.152344 321.632812 "/>
</clipPath>
<clipPath id="clip-62">
<path clip-rule="nonzero" d="M 50.152344 390 L 498.523438 390 L 498.523438 391 L 50.152344 391 Z M 50.152344 390 "/>
</clipPath>
<clipPath id="clip-63">
<path clip-rule="nonzero" d="M 50.152344 370 L 498.523438 370 L 498.523438 371 L 50.152344 371 Z M 50.152344 370 "/>
</clipPath>
<clipPath id="clip-64">
<path clip-rule="nonzero" d="M 50.152344 350 L 498.523438 350 L 498.523438 351 L 50.152344 351 Z M 50.152344 350 "/>
</clipPath>
<clipPath id="clip-65">
<path clip-rule="nonzero" d="M 50.152344 330 L 498.523438 330 L 498.523438 331 L 50.152344 331 Z M 50.152344 330 "/>
</clipPath>
<clipPath id="clip-66">
<path clip-rule="nonzero" d="M 121 321.632812 L 122 321.632812 L 122 397.847656 L 121 397.847656 Z M 121 321.632812 "/>
</clipPath>
<clipPath id="clip-67">
<path clip-rule="nonzero" d="M 223 321.632812 L 224 321.632812 L 224 397.847656 L 223 397.847656 Z M 223 321.632812 "/>
</clipPath>
<clipPath id="clip-68">
<path clip-rule="nonzero" d="M 325 321.632812 L 326 321.632812 L 326 397.847656 L 325 397.847656 Z M 325 321.632812 "/>
</clipPath>
<clipPath id="clip-69">
<path clip-rule="nonzero" d="M 426 321.632812 L 428 321.632812 L 428 397.847656 L 426 397.847656 Z M 426 321.632812 "/>
</clipPath>
<clipPath id="clip-70">
<path clip-rule="nonzero" d="M 50.152344 379 L 498.523438 379 L 498.523438 382 L 50.152344 382 Z M 50.152344 379 "/>
</clipPath>
<clipPath id="clip-71">
<path clip-rule="nonzero" d="M 50.152344 359 L 498.523438 359 L 498.523438 362 L 50.152344 362 Z M 50.152344 359 "/>
</clipPath>
<clipPath id="clip-72">
<path clip-rule="nonzero" d="M 50.152344 340 L 498.523438 340 L 498.523438 342 L 50.152344 342 Z M 50.152344 340 "/>
</clipPath>
<clipPath id="clip-73">
<path clip-rule="nonzero" d="M 69 321.632812 L 72 321.632812 L 72 397.847656 L 69 397.847656 Z M 69 321.632812 "/>
</clipPath>
<clipPath id="clip-74">
<path clip-rule="nonzero" d="M 171 321.632812 L 173 321.632812 L 173 397.847656 L 171 397.847656 Z M 171 321.632812 "/>
</clipPath>
<clipPath id="clip-75">
<path clip-rule="nonzero" d="M 273 321.632812 L 275 321.632812 L 275 397.847656 L 273 397.847656 Z M 273 321.632812 "/>
</clipPath>
<clipPath id="clip-76">
<path clip-rule="nonzero" d="M 375 321.632812 L 377 321.632812 L 377 397.847656 L 375 397.847656 Z M 375 321.632812 "/>
</clipPath>
<clipPath id="clip-77">
<path clip-rule="nonzero" d="M 477 321.632812 L 479 321.632812 L 479 397.847656 L 477 397.847656 Z M 477 321.632812 "/>
</clipPath>
<clipPath id="clip-78">
<path clip-rule="nonzero" d="M 50.152344 321.632812 L 498.523438 321.632812 L 498.523438 397.847656 L 50.152344 397.847656 Z M 50.152344 321.632812 "/>
</clipPath>
<clipPath id="clip-79">
<path clip-rule="nonzero" d="M 50.152344 303.867188 L 498.523438 303.867188 L 498.523438 321.632812 L 50.152344 321.632812 Z M 50.152344 303.867188 "/>
</clipPath>
<clipPath id="clip-80">
<path clip-rule="nonzero" d="M 50.152344 204.402344 L 498.523438 204.402344 L 498.523438 222.167969 L 50.152344 222.167969 Z M 50.152344 204.402344 "/>
</clipPath>
<clipPath id="clip-81">
<path clip-rule="nonzero" d="M 50.152344 104.941406 L 498.523438 104.941406 L 498.523438 122.707031 L 50.152344 122.707031 Z M 50.152344 104.941406 "/>
</clipPath>
<clipPath id="clip-82">
<path clip-rule="nonzero" d="M 50.152344 5.480469 L 498.523438 5.480469 L 498.523438 23.246094 L 50.152344 23.246094 Z M 50.152344 5.480469 "/>
</clipPath>
</defs>
<rect x="-50.4" y="-43.2" width="604.8" height="518.4" fill="rgb(100%, 100%, 100%)" fill-opacity="1"/>
<rect x="-50.4" y="-43.2" width="604.8" height="518.4" fill="rgb(100%, 100%, 100%)" fill-opacity="1"/>
<path fill="none" stroke-width="1.066978" stroke-linecap="round" stroke-linejoin="round" stroke="rgb(100%, 100%, 100%)" stroke-opacity="1" stroke-miterlimit="10" d="M 0 432 L 504 432 L 504 0 L 0 0 Z M 0 432 "/>
<g clip-path="url(#clip-0)">
<path fill-rule="nonzero" fill="rgb(100%, 100%, 100%)" fill-opacity="1" d="M 50.152344 99.460938 L 498.523438 99.460938 L 498.523438 23.246094 L 50.152344 23.246094 Z M 50.152344 99.460938 "/>
</g>
<g clip-path="url(#clip-1)">
<path fill="none" stroke-width="0.533489" stroke-linecap="butt" stroke-linejoin="round" stroke="rgb(92.156863%, 92.156863%, 92.156863%)" stroke-opacity="1" stroke-miterlimit="10" d="M 50.152344 92.054688 L 498.519531 92.054688 "/>
</g>
<g clip-path="url(#clip-2)">
<path fill="none" stroke-width="0.533489" stroke-linecap="butt" stroke-linejoin="round" stroke="rgb(92.156863%, 92.156863%, 92.156863%)" stroke-opacity="1" stroke-miterlimit="10" d="M 50.152344 72.511719 L 498.519531 72.511719 "/>
</g>
<g clip-path="url(#clip-3)">
<path fill="none" stroke-width="0.533489" stroke-linecap="butt" stroke-linejoin="round" stroke="rgb(92.156863%, 92.156863%, 92.156863%)" stroke-opacity="1" stroke-miterlimit="10" d="M 50.152344 52.96875 L 498.519531 52.96875 "/>
</g>
<g clip-path="url(#clip-4)">
<path fill="none" stroke-width="0.533489" stroke-linecap="butt" stroke-linejoin="round" stroke="rgb(92.156863%, 92.156863%, 92.156863%)" stroke-opacity="1" stroke-miterlimit="10" d="M 50.152344 33.425781 L 498.519531 33.425781 "/>
</g>
<g clip-path="url(#clip-5)">
<path fill="none" stroke-width="0.533489" stroke-linecap="butt" stroke-linejoin="round" stroke="rgb(92.156863%, 92.156863%, 92.156863%)" stroke-opacity="1" stroke-miterlimit="10" d="M 121.480469 99.460938 L 121.480469 23.246094 "/>
</g>
<g clip-path="url(#clip-6)">
<path fill="none" stroke-width="0.533489" stroke-linecap="butt" stroke-linejoin="round" stroke="rgb(92.156863%, 92.156863%, 92.156863%)" stroke-opacity="1" stroke-miterlimit="10" d="M 223.382812 99.460938 L 223.382812 23.246094 "/>
</g>
<g clip-path="url(#clip-7)">
<path fill="none" stroke-width="0.533489" stroke-linecap="butt" stroke-linejoin="round" stroke="rgb(92.156863%, 92.156863%, 92.156863%)" stroke-opacity="1" stroke-miterlimit="10" d="M 325.285156 99.460938 L 325.285156 23.246094 "/>
</g>
<g clip-path="url(#clip-8)">
<path fill="none" stroke-width="0.533489" stroke-linecap="butt" stroke-linejoin="round" stroke="rgb(92.156863%, 92.156863%, 92.156863%)" stroke-opacity="1" stroke-miterlimit="10" d="M 427.1875 99.460938 L 427.1875 23.246094 "/>
</g>
<g clip-path="url(#clip-9)">
<path fill="none" stroke-width="1.066978" stroke-linecap="butt" stroke-linejoin="round" stroke="rgb(92.156863%, 92.156863%, 92.156863%)" stroke-opacity="1" stroke-miterlimit="10" d="M 50.152344 82.28125 L 498.519531 82.28125 "/>
</g>
<g clip-path="url(#clip-10)">
<path fill="none" stroke-width="1.066978" stroke-linecap="butt" stroke-linejoin="round" stroke="rgb(92.156863%, 92.156863%, 92.156863%)" stroke-opacity="1" stroke-miterlimit="10" d="M 50.152344 62.738281 L 498.519531 62.738281 "/>
</g>
<g clip-path="url(#clip-11)">
<path fill="none" stroke-width="1.066978" stroke-linecap="butt" stroke-linejoin="round" stroke="rgb(92.156863%, 92.156863%, 92.156863%)" stroke-opacity="1" stroke-miterlimit="10" d="M 50.152344 43.195312 L 498.519531 43.195312 "/>
</g>
<g clip-path="url(#clip-12)">
<path fill="none" stroke-width="1.066978" stroke-linecap="butt" stroke-linejoin="round" stroke="rgb(92.156863%, 92.156863%, 92.156863%)" stroke-opacity="1" stroke-miterlimit="10" d="M 50.152344 23.652344 L 498.519531 23.652344 "/>
</g>
<g clip-path="url(#clip-13)">
<path fill="none" stroke-width="1.066978" stroke-linecap="butt" stroke-linejoin="round" stroke="rgb(92.156863%, 92.156863%, 92.156863%)" stroke-opacity="1" stroke-miterlimit="10" d="M 70.53125 99.460938 L 70.53125 23.246094 "/>
</g>
<g clip-path="url(#clip-14)">
<path fill="none" stroke-width="1.066978" stroke-linecap="butt" stroke-linejoin="round" stroke="rgb(92.156863%, 92.156863%, 92.156863%)" stroke-opacity="1" stroke-miterlimit="10" d="M 172.433594 99.460938 L 172.433594 23.246094 "/>
</g>
<g clip-path="url(#clip-15)">
<path fill="none" stroke-width="1.066978" stroke-linecap="butt" stroke-linejoin="round" stroke="rgb(92.156863%, 92.156863%, 92.156863%)" stroke-opacity="1" stroke-miterlimit="10" d="M 274.335938 99.460938 L 274.335938 23.246094 "/>
</g>
<g clip-path="url(#clip-16)">
<path fill="none" stroke-width="1.066978" stroke-linecap="butt" stroke-linejoin="round" stroke="rgb(92.156863%, 92.156863%, 92.156863%)" stroke-opacity="1" stroke-miterlimit="10" d="M 376.238281 99.460938 L 376.238281 23.246094 "/>
</g>
<g clip-path="url(#clip-17)">
<path fill="none" stroke-width="1.066978" stroke-linecap="butt" stroke-linejoin="round" stroke="rgb(92.156863%, 92.156863%, 92.156863%)" stroke-opacity="1" stroke-miterlimit="10" d="M 478.140625 99.460938 L 478.140625 23.246094 "/>
</g>
<path fill="none" stroke-width="1.066978" stroke-linecap="butt" stroke-linejoin="round" stroke="rgb(0%, 0%, 0%)" stroke-opacity="1" stroke-miterlimit="10" d="M 70.53125 81.789062 L 71.550781 83.757812 L 72.570312 89.722656 L 73.589844 95.050781 L 74.605469 95.996094 L 75.625 93.800781 L 76.644531 91.546875 L 77.664062 84.839844 L 78.683594 70.234375 L 79.703125 52.8125 L 80.722656 44.425781 L 81.742188 35.082031 L 82.757812 36.917969 L 83.777344 26.710938 L 84.796875 35.855469 L 85.816406 35.894531 L 86.835938 37.386719 L 87.855469 29.039062 L 88.875 42.957031 L 89.890625 32.972656 L 90.910156 44.503906 L 91.929688 46.949219 L 92.949219 39.964844 L 93.96875 52.671875 L 94.988281 46.082031 L 96.007812 49.195312 L 97.027344 51.714844 L 98.042969 59.550781 L 99.0625 66.398438 L 100.082031 59.007812 L 101.101562 71.519531 L 102.121094 72.175781 L 103.140625 78.894531 L 104.160156 84.40625 L 105.179688 86.164062 L 106.195312 87.34375 L 107.214844 88.816406 L 108.234375 88.230469 L 109.253906 85.769531 L 110.273438 80.558594 L 111.292969 67.925781 L 112.3125 53.0625 L 113.328125 52.589844 L 114.347656 46.609375 L 115.367188 40.253906 L 116.386719 33.585938 L 117.40625 45.335938 L 118.425781 46.980469 L 119.445312 39.769531 L 120.464844 31.925781 L 121.480469 38.789062 L 122.5 44.441406 L 123.519531 40.28125 L 124.539062 61.722656 L 125.558594 51.078125 L 126.578125 64.710938 L 127.597656 72.5625 L 128.617188 74.570312 L 129.632812 80.097656 L 130.652344 85.015625 L 131.671875 89.6875 L 132.691406 89.394531 L 133.710938 91.15625 L 134.730469 89.503906 L 135.75 84.316406 L 136.769531 72.382812 L 137.785156 64.507812 L 138.804688 60.582031 L 139.824219 47.164062 L 140.84375 44.058594 L 141.863281 43.042969 L 142.882812 53.417969 L 143.902344 50.3125 L 144.917969 46.347656 L 145.9375 42.085938 L 146.957031 43.636719 L 147.976562 51.335938 L 148.996094 46.808594 L 150.015625 54.296875 L 151.035156 63.703125 L 152.054688 62.15625 L 153.070312 62.121094 L 154.089844 69.476562 L 155.109375 79.796875 L 156.128906 77.597656 L 157.148438 85.214844 L 158.167969 87.523438 L 159.1875 89.734375 L 160.207031 85.191406 L 161.222656 87.136719 L 162.242188 83.867188 L 163.261719 71.34375 L 164.28125 63.035156 L 165.300781 53.664062 L 166.320312 49.808594 L 167.339844 49.242188 L 168.355469 33.425781 L 169.375 51.902344 L 170.394531 43.605469 L 171.414062 43.53125 L 172.433594 48.410156 L 173.453125 46.21875 L 174.472656 48.996094 L 175.492188 58.050781 L 176.507812 52.777344 L 177.527344 62.929688 L 178.546875 64.089844 L 179.566406 71.242188 L 180.585938 73.570312 L 181.605469 73.589844 L 182.625 82.8125 L 183.644531 85.925781 L 184.660156 89.769531 L 185.679688 89.027344 L 186.699219 90.019531 L 187.71875 86.171875 L 188.738281 75.226562 L 189.757812 68.6875 L 190.777344 60.882812 L 191.792969 42.777344 L 192.8125 53.316406 L 193.832031 48.453125 L 194.851562 42.625 L 195.871094 34.691406 L 196.890625 42.636719 L 197.910156 41.507812 L 198.929688 35.738281 L 199.945312 53.867188 L 200.964844 58.972656 L 201.984375 53.753906 L 203.003906 63.625 L 204.023438 65.207031 L 205.042969 65.5 L 206.0625 73.695312 L 207.082031 71.746094 L 208.097656 76.847656 L 209.117188 82.601562 L 210.136719 88.898438 L 211.15625 89.101562 L 212.175781 89.980469 L 213.195312 88.753906 L 214.214844 84.882812 L 215.230469 73.160156 L 216.25 65.933594 L 217.269531 60.105469 L 218.289062 55.246094 L 219.308594 43.953125 L 220.328125 36.175781 L 221.347656 45.402344 L 222.367188 43.160156 L 223.382812 43.070312 L 224.402344 39.253906 L 225.421875 39.1875 L 226.441406 49.703125 L 227.460938 54.339844 L 228.480469 52.914062 L 229.5 59.167969 L 230.519531 62.996094 L 231.535156 65.269531 L 232.554688 76.234375 L 233.574219 76 L 234.59375 81.113281 L 235.613281 85.21875 L 236.632812 88.570312 L 237.652344 91.148438 L 238.667969 89.964844 L 239.6875 84.460938 L 240.707031 82.085938 L 241.726562 69.507812 L 242.746094 64.085938 L 243.765625 48.082031 L 244.785156 43.585938 L 245.804688 40.285156 L 246.820312 42.527344 L 247.839844 48.003906 L 248.859375 48.261719 L 249.878906 52.121094 L 250.898438 47.363281 L 251.917969 44.65625 L 252.9375 49.4375 L 253.957031 56.605469 L 254.972656 53.09375 L 255.992188 55.34375 L 257.011719 61.398438 L 258.03125 69.367188 L 259.050781 74.605469 L 260.070312 80.566406 L 261.089844 80.980469 L 262.105469 87.066406 L 263.125 88.1875 L 264.144531 90.628906 L 265.164062 86.320312 L 266.183594 86.941406 L 267.203125 80.183594 L 268.222656 68.363281 L 269.242188 54.714844 L 270.257812 59.691406 L 271.277344 50.367188 L 272.296875 48.242188 L 273.316406 42.691406 L 274.335938 32.636719 L 275.355469 36.71875 L 276.375 45.519531 L 277.394531 41.089844 L 278.410156 51.824219 L 279.429688 51.1875 L 280.449219 55.652344 L 281.46875 54.132812 L 282.488281 60.328125 L 283.507812 67.964844 L 284.527344 67.015625 L 285.542969 72.320312 L 286.5625 78.863281 L 287.582031 82.824219 L 288.601562 86.265625 L 289.621094 89.894531 L 290.640625 90.691406 L 291.660156 87.664062 L 292.679688 80.90625 L 293.695312 74.476562 L 294.714844 68.0625 L 295.734375 61.976562 L 296.753906 41.445312 L 297.773438 42.949219 L 298.792969 40.769531 L 299.8125 45.820312 L 300.832031 46.8125 L 301.847656 52.550781 L 302.867188 44.8125 L 303.886719 50.441406 L 304.90625 47.738281 L 305.925781 48.121094 L 306.945312 55.320312 L 307.964844 53.796875 L 308.980469 63.695312 L 310 69.355469 L 311.019531 69.789062 L 312.039062 76.875 L 313.058594 79.621094 L 314.078125 83.023438 L 315.097656 87.347656 L 316.117188 91.335938 L 317.132812 90.347656 L 318.152344 87.308594 L 319.171875 82.925781 L 320.191406 73.703125 L 321.210938 63.375 L 322.230469 53.875 L 323.25 47.867188 L 324.269531 30.78125 L 325.285156 45.539062 L 326.304688 37.71875 L 327.324219 37.160156 L 328.34375 36.652344 L 329.363281 31.164062 L 330.382812 48.667969 L 331.402344 42.082031 L 332.417969 46.398438 L 333.4375 54.382812 L 334.457031 60.816406 L 335.476562 63.203125 L 336.496094 76.171875 L 337.515625 71.976562 L 338.535156 77.820312 L 339.554688 80.835938 L 340.570312 81.636719 L 341.589844 86.730469 L 342.609375 89.96875 L 343.628906 88.496094 L 344.648438 89.125 L 345.667969 77.941406 L 346.6875 75.582031 L 347.707031 62.167969 L 348.722656 44.679688 L 349.742188 45.328125 L 350.761719 39.5 L 351.78125 27.28125 L 352.800781 45.355469 L 353.820312 35.753906 L 354.839844 42.402344 L 355.855469 47.335938 L 356.875 54.050781 L 357.894531 50.046875 L 358.914062 54.300781 L 359.933594 58.40625 L 360.953125 58.464844 L 361.972656 69.660156 L 362.992188 68.09375 L 364.007812 72.914062 L 365.027344 73.257812 L 366.046875 84.097656 L 367.066406 82.882812 L 368.085938 88.382812 L 369.105469 89.488281 L 370.125 88.796875 L 371.144531 82.988281 L 372.160156 79.28125 L 373.179688 69.914062 L 374.199219 64.882812 L 375.21875 46.621094 L 376.238281 52.667969 L 377.257812 37.570312 L 378.277344 37.785156 L 379.296875 39.59375 L 380.3125 51.644531 L 381.332031 41.167969 L 382.351562 43.886719 L 383.371094 48.53125 L 384.390625 48.15625 L 385.410156 62.078125 L 386.429688 57.898438 L 387.445312 56.722656 L 388.464844 63.488281 L 389.484375 70.058594 L 390.503906 75.722656 L 391.523438 78.839844 L 392.542969 84.285156 L 393.5625 86.886719 L 394.582031 90.789062 L 395.597656 90.464844 L 396.617188 90.140625 L 397.636719 85.371094 L 398.65625 74.292969 L 399.675781 65.902344 L 400.695312 49.878906 L 401.714844 54.289062 L 402.734375 36.066406 L 403.75 38.980469 L 404.769531 49.800781 L 405.789062 42.144531 L 406.808594 46.734375 L 407.828125 45.398438 L 408.847656 41.316406 L 409.867188 47.390625 L 410.882812 55.179688 L 411.902344 57.320312 L 412.921875 48.835938 L 413.941406 60.9375 L 414.960938 65.027344 L 415.980469 66.875 L 417 78.039062 L 418.019531 78.304688 L 419.035156 83.933594 L 420.054688 88.613281 L 421.074219 89.273438 L 422.09375 88.03125 L 423.113281 88.800781 L 424.132812 84.121094 L 425.152344 71.296875 L 426.171875 62.8125 L 427.1875 48.878906 L 428.207031 44.222656 L 429.226562 49.917969 L 430.246094 35.8125 L 431.265625 56.3125 L 432.285156 31.980469 L 433.304688 43.4375 L 434.320312 51.34375 L 435.339844 42.597656 L 436.359375 45.667969 L 437.378906 55.425781 L 438.398438 56.40625 L 439.417969 45.183594 L 440.4375 63.734375 L 441.457031 73.066406 L 442.472656 71.832031 L 443.492188 77.675781 L 444.511719 82.015625 L 445.53125 87.265625 L 446.550781 88.210938 L 447.570312 90.050781 L 448.589844 87.742188 L 449.609375 87.851562 L 450.625 80.613281 L 451.644531 74.273438 L 452.664062 55.910156 L 453.683594 49.019531 L 454.703125 49.980469 L 455.722656 39.84375 L 456.742188 46.285156 L 457.757812 43.5625 L 458.777344 37.546875 L 459.796875 40.976562 L 460.816406 46.699219 L 461.835938 48.019531 L 462.855469 56.265625 L 463.875 58.816406 L 464.894531 60.832031 L 465.910156 70.734375 L 466.929688 65.769531 L 467.949219 71.96875 L 468.96875 71.679688 L 469.988281 80.535156 L 471.007812 83.761719 L 472.027344 83.171875 L 473.046875 89.101562 L 474.0625 90.230469 L 475.082031 89.058594 L 476.101562 86.25 L 477.121094 78.96875 L 478.140625 64.429688 "/>
<g clip-path="url(#clip-18)">
<path fill="none" stroke-width="1.066978" stroke-linecap="round" stroke-linejoin="round" stroke="rgb(20%, 20%, 20%)" stroke-opacity="1" stroke-miterlimit="10" d="M 50.152344 99.460938 L 498.523438 99.460938 L 498.523438 23.246094 L 50.152344 23.246094 Z M 50.152344 99.460938 "/>
</g>
<g clip-path="url(#clip-19)">
<path fill-rule="nonzero" fill="rgb(100%, 100%, 100%)" fill-opacity="1" d="M 50.152344 198.925781 L 498.523438 198.925781 L 498.523438 122.710938 L 50.152344 122.710938 Z M 50.152344 198.925781 "/>
</g>
<g clip-path="url(#clip-20)">
<path fill="none" stroke-width="0.533489" stroke-linecap="butt" stroke-linejoin="round" stroke="rgb(92.156863%, 92.156863%, 92.156863%)" stroke-opacity="1" stroke-miterlimit="10" d="M 50.152344 197.40625 L 498.519531 197.40625 "/>
</g>
<g clip-path="url(#clip-21)">
<path fill="none" stroke-width="0.533489" stroke-linecap="butt" stroke-linejoin="round" stroke="rgb(92.156863%, 92.156863%, 92.156863%)" stroke-opacity="1" stroke-miterlimit="10" d="M 50.152344 181.738281 L 498.519531 181.738281 "/>
</g>
<g clip-path="url(#clip-22)">
<path fill="none" stroke-width="0.533489" stroke-linecap="butt" stroke-linejoin="round" stroke="rgb(92.156863%, 92.156863%, 92.156863%)" stroke-opacity="1" stroke-miterlimit="10" d="M 50.152344 166.074219 L 498.519531 166.074219 "/>
</g>
<g clip-path="url(#clip-23)">
<path fill="none" stroke-width="0.533489" stroke-linecap="butt" stroke-linejoin="round" stroke="rgb(92.156863%, 92.156863%, 92.156863%)" stroke-opacity="1" stroke-miterlimit="10" d="M 50.152344 150.40625 L 498.519531 150.40625 "/>
</g>
<g clip-path="url(#clip-24)">
<path fill="none" stroke-width="0.533489" stroke-linecap="butt" stroke-linejoin="round" stroke="rgb(92.156863%, 92.156863%, 92.156863%)" stroke-opacity="1" stroke-miterlimit="10" d="M 50.152344 134.742188 L 498.519531 134.742188 "/>
</g>
<g clip-path="url(#clip-25)">
<path fill="none" stroke-width="0.533489" stroke-linecap="butt" stroke-linejoin="round" stroke="rgb(92.156863%, 92.156863%, 92.156863%)" stroke-opacity="1" stroke-miterlimit="10" d="M 121.480469 198.925781 L 121.480469 122.707031 "/>
</g>
<g clip-path="url(#clip-26)">
<path fill="none" stroke-width="0.533489" stroke-linecap="butt" stroke-linejoin="round" stroke="rgb(92.156863%, 92.156863%, 92.156863%)" stroke-opacity="1" stroke-miterlimit="10" d="M 223.382812 198.925781 L 223.382812 122.707031 "/>
</g>
<g clip-path="url(#clip-27)">
<path fill="none" stroke-width="0.533489" stroke-linecap="butt" stroke-linejoin="round" stroke="rgb(92.156863%, 92.156863%, 92.156863%)" stroke-opacity="1" stroke-miterlimit="10" d="M 325.285156 198.925781 L 325.285156 122.707031 "/>
</g>
<g clip-path="url(#clip-28)">
<path fill="none" stroke-width="0.533489" stroke-linecap="butt" stroke-linejoin="round" stroke="rgb(92.156863%, 92.156863%, 92.156863%)" stroke-opacity="1" stroke-miterlimit="10" d="M 427.1875 198.925781 L 427.1875 122.707031 "/>
</g>
<g clip-path="url(#clip-29)">
<path fill="none" stroke-width="1.066978" stroke-linecap="butt" stroke-linejoin="round" stroke="rgb(92.156863%, 92.156863%, 92.156863%)" stroke-opacity="1" stroke-miterlimit="10" d="M 50.152344 189.574219 L 498.519531 189.574219 "/>
</g>
<g clip-path="url(#clip-30)">
<path fill="none" stroke-width="1.066978" stroke-linecap="butt" stroke-linejoin="round" stroke="rgb(92.156863%, 92.156863%, 92.156863%)" stroke-opacity="1" stroke-miterlimit="10" d="M 50.152344 173.90625 L 498.519531 173.90625 "/>
</g>
<g clip-path="url(#clip-31)">
<path fill="none" stroke-width="1.066978" stroke-linecap="butt" stroke-linejoin="round" stroke="rgb(92.156863%, 92.156863%, 92.156863%)" stroke-opacity="1" stroke-miterlimit="10" d="M 50.152344 158.238281 L 498.519531 158.238281 "/>
</g>
<g clip-path="url(#clip-32)">
<path fill="none" stroke-width="1.066978" stroke-linecap="butt" stroke-linejoin="round" stroke="rgb(92.156863%, 92.156863%, 92.156863%)" stroke-opacity="1" stroke-miterlimit="10" d="M 50.152344 142.574219 L 498.519531 142.574219 "/>
</g>
<g clip-path="url(#clip-33)">
<path fill="none" stroke-width="1.066978" stroke-linecap="butt" stroke-linejoin="round" stroke="rgb(92.156863%, 92.156863%, 92.156863%)" stroke-opacity="1" stroke-miterlimit="10" d="M 50.152344 126.90625 L 498.519531 126.90625 "/>
</g>
<g clip-path="url(#clip-34)">
<path fill="none" stroke-width="1.066978" stroke-linecap="butt" stroke-linejoin="round" stroke="rgb(92.156863%, 92.156863%, 92.156863%)" stroke-opacity="1" stroke-miterlimit="10" d="M 70.53125 198.925781 L 70.53125 122.707031 "/>
</g>
<g clip-path="url(#clip-35)">
<path fill="none" stroke-width="1.066978" stroke-linecap="butt" stroke-linejoin="round" stroke="rgb(92.156863%, 92.156863%, 92.156863%)" stroke-opacity="1" stroke-miterlimit="10" d="M 172.433594 198.925781 L 172.433594 122.707031 "/>
</g>
<g clip-path="url(#clip-36)">
<path fill="none" stroke-width="1.066978" stroke-linecap="butt" stroke-linejoin="round" stroke="rgb(92.156863%, 92.156863%, 92.156863%)" stroke-opacity="1" stroke-miterlimit="10" d="M 274.335938 198.925781 L 274.335938 122.707031 "/>
</g>
<g clip-path="url(#clip-37)">
<path fill="none" stroke-width="1.066978" stroke-linecap="butt" stroke-linejoin="round" stroke="rgb(92.156863%, 92.156863%, 92.156863%)" stroke-opacity="1" stroke-miterlimit="10" d="M 376.238281 198.925781 L 376.238281 122.707031 "/>
</g>
<g clip-path="url(#clip-38)">
<path fill="none" stroke-width="1.066978" stroke-linecap="butt" stroke-linejoin="round" stroke="rgb(92.156863%, 92.156863%, 92.156863%)" stroke-opacity="1" stroke-miterlimit="10" d="M 478.140625 198.925781 L 478.140625 122.707031 "/>
</g>
<path fill="none" stroke-width="1.066978" stroke-linecap="butt" stroke-linejoin="round" stroke="rgb(0%, 0%, 0%)" stroke-opacity="1" stroke-miterlimit="10" d="M 70.53125 144.703125 L 71.550781 139.742188 L 72.570312 154.019531 L 73.589844 162.515625 L 74.605469 177.136719 L 75.625 186.183594 L 76.644531 189.246094 L 77.664062 195.460938 L 78.683594 195.226562 L 79.703125 194.546875 L 80.722656 191.304688 L 81.742188 192.957031 L 82.757812 190.683594 L 83.777344 189.328125 L 84.796875 187.429688 L 85.816406 185.414062 L 86.835938 182.359375 L 87.855469 179.28125 L 88.875 178.15625 L 89.890625 174.089844 L 90.910156 176.832031 L 91.929688 168.796875 L 92.949219 172.207031 L 93.96875 168.160156 L 94.988281 157.386719 L 96.007812 147.652344 L 97.027344 158.882812 L 98.042969 143.75 L 99.0625 134.058594 L 100.082031 129.964844 L 101.101562 145.378906 L 102.121094 149.703125 L 103.140625 137.804688 L 104.160156 145.289062 L 105.179688 152.171875 L 106.195312 168.269531 L 107.214844 168.582031 L 108.234375 176.476562 L 109.253906 179.527344 L 110.273438 179.953125 L 111.292969 185.304688 L 112.3125 181.589844 L 113.328125 182.199219 L 114.347656 181.890625 L 115.367188 174.429688 L 116.386719 179.246094 L 117.40625 172.175781 L 118.425781 165.796875 L 119.445312 169.671875 L 120.464844 166.398438 L 121.480469 154.898438 L 122.5 158.050781 L 123.519531 146.292969 L 124.539062 153.808594 L 125.558594 149.8125 L 126.578125 153.015625 L 127.597656 149.125 L 128.617188 148.855469 L 129.632812 158.910156 L 130.652344 143.253906 L 131.671875 158.628906 L 132.691406 169.449219 L 133.710938 173.5 L 134.730469 185.414062 L 135.75 182.757812 L 136.769531 183.546875 L 137.785156 185.613281 L 138.804688 182.953125 L 139.824219 183.445312 L 140.84375 181.898438 L 141.863281 177.953125 L 142.882812 173.566406 L 143.902344 163.492188 L 144.917969 164.535156 L 145.9375 166.722656 L 146.957031 167.496094 L 147.976562 163.003906 L 148.996094 164.019531 L 150.015625 166.101562 L 151.035156 153.996094 L 152.054688 147.714844 L 153.070312 142.835938 L 154.089844 139.808594 L 155.109375 150.964844 L 156.128906 148.820312 L 157.148438 150.394531 L 158.167969 158.480469 L 159.1875 163.125 L 160.207031 181.351562 L 161.222656 175.5 L 162.242188 179.898438 L 163.261719 185.003906 L 164.28125 178.269531 L 165.300781 184.214844 L 166.320312 182.1875 L 167.339844 177.164062 L 168.355469 179.488281 L 169.375 172 L 170.394531 172.601562 L 171.414062 156.597656 L 172.433594 166.164062 L 173.453125 156.894531 L 174.472656 160.367188 L 175.492188 158.011719 L 176.507812 152.140625 L 177.527344 139.585938 L 178.546875 126.171875 L 179.566406 146.21875 L 180.585938 146.339844 L 181.605469 148.398438 L 182.625 149.519531 L 183.644531 157.933594 L 184.660156 162.667969 L 185.679688 175.910156 L 186.699219 177.484375 L 187.71875 182.632812 L 188.738281 183.328125 L 189.757812 181.960938 L 190.777344 182.730469 L 191.792969 185.671875 L 192.8125 183.96875 L 193.832031 178.472656 L 194.851562 176.023438 L 195.871094 172.367188 L 196.890625 171.78125 L 197.910156 167.984375 L 198.929688 160.03125 L 199.945312 160.972656 L 200.964844 162.785156 L 201.984375 154.21875 L 203.003906 149.21875 L 204.023438 156.46875 L 205.042969 141.230469 L 206.0625 156.082031 L 207.082031 146.371094 L 208.097656 150.03125 L 209.117188 153.785156 L 210.136719 155.828125 L 211.15625 167.605469 L 212.175781 167.382812 L 213.195312 179.714844 L 214.214844 183.140625 L 215.230469 185.527344 L 216.25 182.875 L 217.269531 183.980469 L 218.289062 183.027344 L 219.308594 176.941406 L 220.328125 180.585938 L 221.347656 171.851562 L 222.367188 174.050781 L 223.382812 171.089844 L 224.402344 164.613281 L 225.421875 170.683594 L 226.441406 154.042969 L 227.460938 155.988281 L 228.480469 149.808594 L 229.5 148.746094 L 230.519531 154.054688 L 231.535156 139.113281 L 232.554688 139.277344 L 233.574219 147.476562 L 234.59375 143.320312 L 235.613281 156.382812 L 236.632812 164.996094 L 237.652344 172.980469 L 238.667969 171.828125 L 239.6875 174.523438 L 240.707031 182.953125 L 241.726562 186.035156 L 242.746094 186.480469 L 243.765625 184.503906 L 244.785156 180.3125 L 245.804688 176.875 L 246.820312 177.292969 L 247.839844 176.375 L 248.859375 164.925781 L 249.878906 165.609375 L 250.898438 166.390625 L 251.917969 165.785156 L 252.9375 163.15625 L 253.957031 160.757812 L 254.972656 143.4375 L 255.992188 154.269531 L 257.011719 141.910156 L 258.03125 145.179688 L 259.050781 148.671875 L 260.070312 138.878906 L 261.089844 147.398438 L 262.105469 162.742188 L 263.125 169.054688 L 264.144531 170.128906 L 265.164062 175.933594 L 266.183594 180.054688 L 267.203125 184.855469 L 268.222656 188.109375 L 269.242188 184.175781 L 270.257812 180.046875 L 271.277344 179.976562 L 272.296875 176.378906 L 273.316406 174.675781 L 274.335938 172.480469 L 275.355469 171.933594 L 276.375 160.390625 L 277.394531 168.875 L 278.410156 162.816406 L 279.429688 162.722656 L 280.449219 157.378906 L 281.46875 146.082031 L 282.488281 151.40625 L 283.507812 149.03125 L 284.527344 147.539062 L 285.542969 154.585938 L 286.5625 154.433594 L 287.582031 151.417969 L 288.601562 158.898438 L 289.621094 163.699219 L 290.640625 173.203125 L 291.660156 179.105469 L 292.679688 182.183594 L 293.695312 181.960938 L 294.714844 184.230469 L 295.734375 186.566406 L 296.753906 180.941406 L 297.773438 180.496094 L 298.792969 178.503906 L 299.8125 175.410156 L 300.832031 178.042969 L 301.847656 172.785156 L 302.867188 162.117188 L 303.886719 161.695312 L 304.90625 159.980469 L 305.925781 149.328125 L 306.945312 152.882812 L 307.964844 154.082031 L 308.980469 151.828125 L 310 141.953125 L 311.019531 150.996094 L 312.039062 137.046875 L 313.058594 157.625 L 314.078125 152.6875 L 315.097656 158.945312 L 316.117188 171.613281 L 317.132812 171.195312 L 318.152344 173.828125 L 319.171875 186.539062 L 320.191406 178.84375 L 321.210938 182.707031 L 322.230469 184.8125 L 323.25 176.691406 L 324.269531 177.65625 L 325.285156 177.222656 L 326.304688 173.15625 L 327.324219 176.03125 L 328.34375 168.8125 L 329.363281 174.164062 L 330.382812 165.921875 L 331.402344 159.429688 L 332.417969 152.042969 L 333.4375 151.683594 L 334.457031 145.515625 L 335.476562 134.148438 L 336.496094 141.046875 L 337.515625 154.675781 L 338.535156 149.285156 L 339.554688 149.859375 L 340.570312 162.792969 L 341.589844 164 L 342.609375 169.105469 L 343.628906 175.070312 L 344.648438 179.800781 L 345.667969 184.367188 L 346.6875 185.730469 L 347.707031 182.960938 L 348.722656 184.070312 L 349.742188 182.75 L 350.761719 178.917969 L 351.78125 178.746094 L 352.800781 170.222656 L 353.820312 165.492188 L 354.839844 173.238281 L 355.855469 156.132812 L 356.875 164.90625 L 357.894531 153.820312 L 358.914062 162.011719 L 359.933594 143.945312 L 360.953125 148.222656 L 361.972656 140.175781 L 362.992188 152.796875 L 364.007812 145.953125 L 365.027344 148.402344 L 366.046875 147.597656 L 367.066406 158.179688 L 368.085938 162.9375 L 369.105469 167.8125 L 370.125 175.878906 L 371.144531 180.300781 L 372.160156 183.472656 L 373.179688 182.792969 L 374.199219 183.089844 L 375.21875 178.214844 L 376.238281 181.371094 L 377.257812 184.632812 L 378.277344 171.160156 L 379.296875 168.777344 L 380.3125 172.691406 L 381.332031 162.40625 L 382.351562 160.558594 L 383.371094 153.398438 L 384.390625 150.671875 L 385.410156 159.796875 L 386.429688 154.476562 L 387.445312 136.5625 L 388.464844 133.796875 L 389.484375 142.015625 L 390.503906 146.570312 L 391.523438 145.203125 L 392.542969 152.355469 L 393.5625 160.78125 L 394.582031 158.894531 L 395.597656 175.332031 L 396.617188 180.214844 L 397.636719 183.273438 L 398.65625 185.335938 L 399.675781 181.429688 L 400.695312 183.203125 L 401.714844 183.839844 L 402.734375 182.5625 L 403.75 176.976562 L 404.769531 173.847656 L 405.789062 175.3125 L 406.808594 172.03125 L 407.828125 167.90625 L 408.847656 156.925781 L 409.867188 162.660156 L 410.882812 155.8125 L 411.902344 150.085938 L 412.921875 148.824219 L 413.941406 135.355469 L 414.960938 144.375 L 415.980469 146.023438 L 417 148.207031 L 418.019531 144.4375 L 419.035156 157.199219 L 420.054688 160.925781 L 421.074219 168.835938 L 422.09375 178.070312 L 423.113281 180.949219 L 424.132812 184.726562 L 425.152344 186.929688 L 426.171875 183.347656 L 427.1875 184.734375 L 428.207031 182.589844 L 429.226562 180.671875 L 430.246094 181.398438 L 431.265625 173.546875 L 432.285156 171.566406 L 433.304688 171.019531 L 434.320312 167.980469 L 435.339844 159.039062 L 436.359375 157.367188 L 437.378906 152.6875 L 438.398438 157.402344 L 439.417969 144.660156 L 440.4375 153.527344 L 441.457031 155.96875 L 442.472656 135.410156 L 443.492188 147.960938 L 444.511719 153.546875 L 445.53125 162.796875 L 446.550781 160.808594 L 447.570312 171.375 L 448.589844 176.027344 L 449.609375 183.984375 L 450.625 183.800781 L 451.644531 179.335938 L 452.664062 187.945312 L 453.683594 183.296875 L 454.703125 180.425781 L 455.722656 178.273438 L 456.742188 178.523438 L 457.757812 171.679688 L 458.777344 173.484375 L 459.796875 167.988281 L 460.816406 168.617188 L 461.835938 159.304688 L 462.855469 158.375 L 463.875 152.566406 L 464.894531 145.210938 L 465.910156 147.230469 L 466.929688 143.699219 L 467.949219 157.554688 L 468.96875 145.746094 L 469.988281 140.644531 L 471.007812 146.5 L 472.027344 158.089844 L 473.046875 161.300781 L 474.0625 173.761719 L 475.082031 175.359375 L 476.101562 178.511719 L 477.121094 187.699219 L 478.140625 181.433594 "/>
<g clip-path="url(#clip-39)">
<path fill="none" stroke-width="1.066978" stroke-linecap="round" stroke-linejoin="round" stroke="rgb(20%, 20%, 20%)" stroke-opacity="1" stroke-miterlimit="10" d="M 50.152344 198.925781 L 498.523438 198.925781 L 498.523438 122.710938 L 50.152344 122.710938 Z M 50.152344 198.925781 "/>
</g>
<g clip-path="url(#clip-40)">
<path fill-rule="nonzero" fill="rgb(100%, 100%, 100%)" fill-opacity="1" d="M 50.152344 298.386719 L 498.523438 298.386719 L 498.523438 222.171875 L 50.152344 222.171875 Z M 50.152344 298.386719 "/>
</g>
<g clip-path="url(#clip-41)">
<path fill="none" stroke-width="0.533489" stroke-linecap="butt" stroke-linejoin="round" stroke="rgb(92.156863%, 92.156863%, 92.156863%)" stroke-opacity="1" stroke-miterlimit="10" d="M 50.152344 292.074219 L 498.519531 292.074219 "/>
</g>
<g clip-path="url(#clip-42)">
<path fill="none" stroke-width="0.533489" stroke-linecap="butt" stroke-linejoin="round" stroke="rgb(92.156863%, 92.156863%, 92.156863%)" stroke-opacity="1" stroke-miterlimit="10" d="M 50.152344 277.898438 L 498.519531 277.898438 "/>
</g>
<g clip-path="url(#clip-43)">
<path fill="none" stroke-width="0.533489" stroke-linecap="butt" stroke-linejoin="round" stroke="rgb(92.156863%, 92.156863%, 92.156863%)" stroke-opacity="1" stroke-miterlimit="10" d="M 50.152344 263.722656 L 498.519531 263.722656 "/>
</g>
<g clip-path="url(#clip-44)">
<path fill="none" stroke-width="0.533489" stroke-linecap="butt" stroke-linejoin="round" stroke="rgb(92.156863%, 92.156863%, 92.156863%)" stroke-opacity="1" stroke-miterlimit="10" d="M 50.152344 249.546875 L 498.519531 249.546875 "/>
</g>
<g clip-path="url(#clip-45)">
<path fill="none" stroke-width="0.533489" stroke-linecap="butt" stroke-linejoin="round" stroke="rgb(92.156863%, 92.156863%, 92.156863%)" stroke-opacity="1" stroke-miterlimit="10" d="M 50.152344 235.371094 L 498.519531 235.371094 "/>
</g>
<g clip-path="url(#clip-46)">
<path fill="none" stroke-width="0.533489" stroke-linecap="butt" stroke-linejoin="round" stroke="rgb(92.156863%, 92.156863%, 92.156863%)" stroke-opacity="1" stroke-miterlimit="10" d="M 121.480469 298.386719 L 121.480469 222.171875 "/>
</g>
<g clip-path="url(#clip-47)">
<path fill="none" stroke-width="0.533489" stroke-linecap="butt" stroke-linejoin="round" stroke="rgb(92.156863%, 92.156863%, 92.156863%)" stroke-opacity="1" stroke-miterlimit="10" d="M 223.382812 298.386719 L 223.382812 222.171875 "/>
</g>
<g clip-path="url(#clip-48)">
<path fill="none" stroke-width="0.533489" stroke-linecap="butt" stroke-linejoin="round" stroke="rgb(92.156863%, 92.156863%, 92.156863%)" stroke-opacity="1" stroke-miterlimit="10" d="M 325.285156 298.386719 L 325.285156 222.171875 "/>
</g>
<g clip-path="url(#clip-49)">
<path fill="none" stroke-width="0.533489" stroke-linecap="butt" stroke-linejoin="round" stroke="rgb(92.156863%, 92.156863%, 92.156863%)" stroke-opacity="1" stroke-miterlimit="10" d="M 427.1875 298.386719 L 427.1875 222.171875 "/>
</g>
<g clip-path="url(#clip-50)">
<path fill="none" stroke-width="1.066978" stroke-linecap="butt" stroke-linejoin="round" stroke="rgb(92.156863%, 92.156863%, 92.156863%)" stroke-opacity="1" stroke-miterlimit="10" d="M 50.152344 284.984375 L 498.519531 284.984375 "/>
</g>
<g clip-path="url(#clip-51)">
<path fill="none" stroke-width="1.066978" stroke-linecap="butt" stroke-linejoin="round" stroke="rgb(92.156863%, 92.156863%, 92.156863%)" stroke-opacity="1" stroke-miterlimit="10" d="M 50.152344 270.8125 L 498.519531 270.8125 "/>
</g>
<g clip-path="url(#clip-52)">
<path fill="none" stroke-width="1.066978" stroke-linecap="butt" stroke-linejoin="round" stroke="rgb(92.156863%, 92.156863%, 92.156863%)" stroke-opacity="1" stroke-miterlimit="10" d="M 50.152344 256.636719 L 498.519531 256.636719 "/>
</g>
<g clip-path="url(#clip-53)">
<path fill="none" stroke-width="1.066978" stroke-linecap="butt" stroke-linejoin="round" stroke="rgb(92.156863%, 92.156863%, 92.156863%)" stroke-opacity="1" stroke-miterlimit="10" d="M 50.152344 242.460938 L 498.519531 242.460938 "/>
</g>
<g clip-path="url(#clip-54)">
<path fill="none" stroke-width="1.066978" stroke-linecap="butt" stroke-linejoin="round" stroke="rgb(92.156863%, 92.156863%, 92.156863%)" stroke-opacity="1" stroke-miterlimit="10" d="M 50.152344 228.285156 L 498.519531 228.285156 "/>
</g>
<g clip-path="url(#clip-55)">
<path fill="none" stroke-width="1.066978" stroke-linecap="butt" stroke-linejoin="round" stroke="rgb(92.156863%, 92.156863%, 92.156863%)" stroke-opacity="1" stroke-miterlimit="10" d="M 70.53125 298.386719 L 70.53125 222.171875 "/>
</g>
<g clip-path="url(#clip-56)">
<path fill="none" stroke-width="1.066978" stroke-linecap="butt" stroke-linejoin="round" stroke="rgb(92.156863%, 92.156863%, 92.156863%)" stroke-opacity="1" stroke-miterlimit="10" d="M 172.433594 298.386719 L 172.433594 222.171875 "/>
</g>
<g clip-path="url(#clip-57)">
<path fill="none" stroke-width="1.066978" stroke-linecap="butt" stroke-linejoin="round" stroke="rgb(92.156863%, 92.156863%, 92.156863%)" stroke-opacity="1" stroke-miterlimit="10" d="M 274.335938 298.386719 L 274.335938 222.171875 "/>
</g>
<g clip-path="url(#clip-58)">
<path fill="none" stroke-width="1.066978" stroke-linecap="butt" stroke-linejoin="round" stroke="rgb(92.156863%, 92.156863%, 92.156863%)" stroke-opacity="1" stroke-miterlimit="10" d="M 376.238281 298.386719 L 376.238281 222.171875 "/>
</g>
<g clip-path="url(#clip-59)">
<path fill="none" stroke-width="1.066978" stroke-linecap="butt" stroke-linejoin="round" stroke="rgb(92.156863%, 92.156863%, 92.156863%)" stroke-opacity="1" stroke-miterlimit="10" d="M 478.140625 298.386719 L 478.140625 222.171875 "/>
</g>
<path fill="none" stroke-width="1.066978" stroke-linecap="butt" stroke-linejoin="round" stroke="rgb(0%, 0%, 0%)" stroke-opacity="1" stroke-miterlimit="10" d="M 70.53125 256.453125 L 71.550781 266.238281 L 72.570312 278.300781 L 73.589844 289.71875 L 74.605469 294.921875 L 75.625 291.015625 L 76.644531 279.746094 L 77.664062 264.796875 L 78.683594 250.058594 L 79.703125 238.582031 L 80.722656 231.425781 L 81.742188 227.800781 L 82.757812 226.207031 L 83.777344 225.679688 L 84.796875 225.636719 L 85.816406 225.835938 L 86.835938 226.179688 L 87.855469 226.613281 L 88.875 227.136719 L 89.890625 227.742188 L 90.910156 228.4375 L 91.929688 229.242188 L 92.949219 230.167969 L 93.96875 231.242188 L 94.988281 232.480469 L 96.007812 233.933594 L 97.027344 235.652344 L 98.042969 237.6875 L 99.0625 240.121094 L 100.082031 243.0625 L 101.101562 246.625 L 102.121094 250.992188 L 103.140625 256.324219 L 104.160156 262.507812 L 105.179688 269.097656 L 106.195312 274.277344 L 107.214844 276.046875 L 108.234375 273.234375 L 109.253906 265.96875 L 110.273438 256.378906 L 111.292969 246.6875 L 112.3125 238.855469 L 113.328125 233.640625 L 114.347656 230.789062 L 115.367188 229.332031 L 116.386719 229.058594 L 117.40625 229.472656 L 118.425781 229.980469 L 119.445312 230.765625 L 120.464844 231.78125 L 121.480469 233.03125 L 122.5 234.515625 L 123.519531 236.277344 L 124.539062 238.390625 L 125.558594 240.929688 L 126.578125 244.027344 L 127.597656 247.824219 L 128.617188 252.457031 L 129.632812 258.019531 L 130.652344 264.332031 L 131.671875 270.539062 L 132.691406 275.023438 L 133.710938 275.621094 L 134.730469 271.652344 L 135.75 263.664062 L 136.769531 253.742188 L 137.785156 244.328125 L 138.804688 237.167969 L 139.824219 232.628906 L 140.84375 230.304688 L 141.863281 229.234375 L 142.882812 228.941406 L 143.902344 229.546875 L 144.917969 230.25 L 145.9375 231.074219 L 146.957031 232.132812 L 147.976562 233.4375 L 148.996094 235 L 150.015625 236.851562 L 151.035156 239.066406 L 152.054688 241.746094 L 153.070312 244.996094 L 154.089844 248.996094 L 155.109375 253.878906 L 156.128906 259.71875 L 157.148438 266.199219 L 158.167969 272.027344 L 159.1875 275.542969 L 160.207031 274.804688 L 161.222656 269.4375 L 162.242188 260.878906 L 163.261719 250.898438 L 164.28125 242.042969 L 165.300781 235.699219 L 166.320312 231.804688 L 167.339844 229.988281 L 168.355469 229.273438 L 169.375 229.25 L 170.394531 229.707031 L 171.414062 230.410156 L 172.433594 231.347656 L 173.453125 232.503906 L 174.472656 233.902344 L 175.492188 235.5625 L 176.507812 237.535156 L 177.527344 239.90625 L 178.546875 242.761719 L 179.566406 246.257812 L 180.585938 250.554688 L 181.605469 255.761719 L 182.625 261.882812 L 183.644531 268.285156 L 184.660156 273.632812 L 185.679688 275.945312 L 186.699219 273.59375 L 187.71875 267.058594 L 188.738281 257.597656 L 189.757812 247.742188 L 190.777344 239.605469 L 191.792969 234.046875 L 192.8125 231 L 193.832031 229.621094 L 194.851562 229.125 L 195.871094 229.351562 L 196.890625 229.878906 L 197.910156 230.65625 L 198.929688 231.660156 L 199.945312 232.890625 L 200.964844 234.359375 L 201.984375 236.097656 L 203.003906 238.179688 L 204.023438 240.679688 L 205.042969 243.714844 L 206.0625 247.441406 L 207.082031 251.992188 L 208.097656 257.46875 L 209.117188 263.742188 L 210.136719 270.023438 L 211.15625 274.761719 L 212.175781 275.757812 L 213.195312 272.203125 L 214.214844 264.53125 L 215.230469 254.671875 L 216.25 245.121094 L 217.269531 237.710938 L 218.289062 232.933594 L 219.308594 230.441406 L 220.328125 229.324219 L 221.347656 228.957031 L 222.367188 229.457031 L 223.382812 230.15625 L 224.402344 230.964844 L 225.421875 232.011719 L 226.441406 233.292969 L 227.460938 234.832031 L 228.480469 236.65625 L 229.5 238.832031 L 230.519531 241.464844 L 231.535156 244.652344 L 232.554688 248.574219 L 233.574219 253.371094 L 234.59375 259.113281 L 235.613281 265.59375 L 236.632812 271.558594 L 237.652344 275.367188 L 238.667969 275.109375 L 239.6875 270.101562 L 240.707031 261.785156 L 241.726562 251.839844 L 242.746094 242.785156 L 243.765625 236.1875 L 244.785156 232.078125 L 245.804688 230.082031 L 246.820312 229.316406 L 247.839844 229.226562 L 248.859375 229.648438 L 249.878906 230.332031 L 250.898438 231.246094 L 251.917969 232.378906 L 252.9375 233.753906 L 253.957031 235.386719 L 254.972656 237.328125 L 255.992188 239.65625 L 257.011719 242.457031 L 258.03125 245.882812 L 259.050781 250.097656 L 260.070312 255.207031 L 261.089844 261.265625 L 262.105469 267.695312 L 263.125 273.203125 L 264.144531 275.925781 L 265.164062 273.996094 L 266.183594 267.8125 L 267.203125 258.570312 L 268.222656 248.640625 L 269.242188 240.285156 L 270.257812 234.484375 L 271.277344 231.203125 L 272.296875 229.714844 L 273.316406 229.144531 L 274.335938 229.308594 L 275.355469 229.820312 L 276.375 230.574219 L 277.394531 231.554688 L 278.410156 232.765625 L 279.429688 234.210938 L 280.449219 235.921875 L 281.46875 237.972656 L 282.488281 240.425781 L 283.507812 243.410156 L 284.527344 247.066406 L 285.542969 251.535156 L 286.5625 256.921875 L 287.582031 263.140625 L 288.601562 269.476562 L 289.621094 274.453125 L 290.640625 275.859375 L 291.660156 272.730469 L 292.679688 265.375 L 293.695312 255.605469 L 294.714844 245.933594 L 295.734375 238.300781 L 296.753906 233.304688 L 297.773438 230.597656 L 298.792969 229.351562 L 299.8125 228.964844 L 300.832031 229.445312 L 301.847656 230.066406 L 302.867188 230.863281 L 303.886719 231.890625 L 304.90625 233.15625 L 305.925781 234.667969 L 306.945312 236.453125 L 307.964844 238.605469 L 308.980469 241.191406 L 310 244.339844 L 311.019531 248.203125 L 312.039062 252.90625 L 313.058594 258.53125 L 314.078125 264.875 L 315.097656 271.019531 L 316.117188 275.222656 L 317.132812 275.425781 L 318.152344 271.105469 L 319.171875 262.835938 L 320.191406 252.875 L 321.210938 243.609375 L 322.230469 236.714844 L 323.25 232.394531 L 324.269531 230.171875 L 325.285156 229.089844 L 326.304688 229.109375 L 327.324219 229.65625 L 328.34375 230.261719 L 329.363281 231.125 L 330.382812 232.21875 L 331.402344 233.550781 L 332.417969 235.128906 L 333.4375 237.007812 L 334.457031 239.273438 L 335.476562 241.996094 L 336.496094 245.332031 L 337.515625 249.417969 L 338.535156 254.378906 L 339.554688 260.261719 L 340.570312 266.671875 L 341.589844 272.480469 L 342.609375 275.742188 L 343.628906 274.671875 L 344.648438 269.121094 L 345.667969 260.117188 L 346.6875 250.128906 L 347.707031 241.410156 L 348.722656 235.246094 L 349.742188 231.582031 L 350.761719 229.824219 L 351.78125 229.023438 L 352.800781 229.167969 L 353.820312 229.800781 L 354.839844 230.484375 L 355.855469 231.414062 L 356.875 232.574219 L 357.894531 233.972656 L 358.914062 235.628906 L 359.933594 237.609375 L 360.953125 239.992188 L 361.972656 242.878906 L 362.992188 246.410156 L 364.007812 250.726562 L 365.027344 255.941406 L 366.046875 262.035156 L 367.066406 268.433594 L 368.085938 273.777344 L 369.105469 275.886719 L 370.125 273.5625 L 371.144531 266.835938 L 372.160156 257.300781 L 373.179688 247.457031 L 374.199219 239.417969 L 375.21875 233.996094 L 376.238281 230.941406 L 377.257812 229.441406 L 378.277344 229 L 379.296875 229.4375 L 380.3125 229.941406 L 381.332031 230.703125 L 382.351562 231.703125 L 383.371094 232.933594 L 384.390625 234.398438 L 385.410156 236.136719 L 386.429688 238.226562 L 387.445312 240.734375 L 388.464844 243.785156 L 389.484375 247.523438 L 390.503906 252.089844 L 391.523438 257.566406 L 393.5625 270.113281 L 394.582031 274.796875 L 395.597656 275.726562 L 396.617188 272.117188 L 397.636719 264.355469 L 398.65625 254.488281 L 399.675781 244.960938 L 400.695312 237.640625 L 401.714844 232.925781 L 402.734375 230.417969 L 403.75 229.179688 L 404.769531 229.042969 L 405.789062 229.582031 L 406.808594 230.140625 L 407.828125 230.964844 L 408.847656 232.023438 L 409.867188 233.316406 L 410.882812 234.851562 L 411.902344 236.671875 L 412.921875 238.871094 L 413.941406 241.511719 L 414.960938 244.734375 L 415.980469 248.6875 L 417 253.496094 L 418.019531 259.230469 L 419.035156 265.613281 L 420.054688 271.636719 L 421.074219 275.480469 L 422.09375 275.175781 L 423.113281 270.339844 L 424.132812 261.742188 L 425.152344 251.746094 L 426.171875 242.6875 L 427.1875 236.097656 L 428.207031 232.046875 L 429.226562 230.011719 L 430.246094 228.941406 L 431.265625 229.058594 L 432.285156 229.828125 L 433.304688 230.417969 L 434.320312 231.28125 L 435.339844 232.386719 L 436.359375 233.738281 L 437.378906 235.339844 L 438.398438 237.25 L 439.417969 239.554688 L 440.4375 242.332031 L 441.457031 245.730469 L 442.472656 249.902344 L 443.492188 254.96875 L 444.511719 260.953125 L 445.53125 267.347656 L 446.550781 272.945312 L 447.570312 275.8125 L 448.589844 274.171875 L 449.609375 268.199219 L 450.625 259.003906 L 451.644531 249.078125 L 452.664062 240.613281 L 453.683594 234.640625 L 454.703125 231.285156 L 455.722656 229.816406 L 456.742188 229.199219 L 457.757812 229.308594 L 458.777344 229.808594 L 459.796875 230.554688 L 460.816406 231.523438 L 461.835938 232.722656 L 462.855469 234.164062 L 463.875 235.867188 L 464.894531 237.898438 L 465.910156 240.34375 L 466.929688 243.296875 L 467.949219 246.921875 L 468.96875 251.363281 L 469.988281 256.734375 L 471.007812 262.96875 L 472.027344 269.296875 L 473.046875 274.300781 L 474.0625 275.882812 L 475.082031 272.785156 L 476.101562 265.628906 L 477.121094 255.921875 L 478.140625 246.230469 "/>
<g clip-path="url(#clip-60)">
<path fill="none" stroke-width="1.066978" stroke-linecap="round" stroke-linejoin="round" stroke="rgb(20%, 20%, 20%)" stroke-opacity="1" stroke-miterlimit="10" d="M 50.152344 298.386719 L 498.523438 298.386719 L 498.523438 222.171875 L 50.152344 222.171875 Z M 50.152344 298.386719 "/>
</g>
<g clip-path="url(#clip-61)">
<path fill-rule="nonzero" fill="rgb(100%, 100%, 100%)" fill-opacity="1" d="M 50.152344 397.847656 L 498.523438 397.847656 L 498.523438 321.632812 L 50.152344 321.632812 Z M 50.152344 397.847656 "/>
</g>
<g clip-path="url(#clip-62)">
<path fill="none" stroke-width="0.533489" stroke-linecap="butt" stroke-linejoin="round" stroke="rgb(92.156863%, 92.156863%, 92.156863%)" stroke-opacity="1" stroke-miterlimit="10" d="M 50.152344 390.511719 L 498.519531 390.511719 "/>
</g>
<g clip-path="url(#clip-63)">
<path fill="none" stroke-width="0.533489" stroke-linecap="butt" stroke-linejoin="round" stroke="rgb(92.156863%, 92.156863%, 92.156863%)" stroke-opacity="1" stroke-miterlimit="10" d="M 50.152344 370.523438 L 498.519531 370.523438 "/>
</g>
<g clip-path="url(#clip-64)">
<path fill="none" stroke-width="0.533489" stroke-linecap="butt" stroke-linejoin="round" stroke="rgb(92.156863%, 92.156863%, 92.156863%)" stroke-opacity="1" stroke-miterlimit="10" d="M 50.152344 350.535156 L 498.519531 350.535156 "/>
</g>
<g clip-path="url(#clip-65)">
<path fill="none" stroke-width="0.533489" stroke-linecap="butt" stroke-linejoin="round" stroke="rgb(92.156863%, 92.156863%, 92.156863%)" stroke-opacity="1" stroke-miterlimit="10" d="M 50.152344 330.546875 L 498.519531 330.546875 "/>
</g>
<g clip-path="url(#clip-66)">
<path fill="none" stroke-width="0.533489" stroke-linecap="butt" stroke-linejoin="round" stroke="rgb(92.156863%, 92.156863%, 92.156863%)" stroke-opacity="1" stroke-miterlimit="10" d="M 121.480469 397.847656 L 121.480469 321.632812 "/>
</g>
<g clip-path="url(#clip-67)">
<path fill="none" stroke-width="0.533489" stroke-linecap="butt" stroke-linejoin="round" stroke="rgb(92.156863%, 92.156863%, 92.156863%)" stroke-opacity="1" stroke-miterlimit="10" d="M 223.382812 397.847656 L 223.382812 321.632812 "/>
</g>
<g clip-path="url(#clip-68)">
<path fill="none" stroke-width="0.533489" stroke-linecap="butt" stroke-linejoin="round" stroke="rgb(92.156863%, 92.156863%, 92.156863%)" stroke-opacity="1" stroke-miterlimit="10" d="M 325.285156 397.847656 L 325.285156 321.632812 "/>
</g>
<g clip-path="url(#clip-69)">
<path fill="none" stroke-width="0.533489" stroke-linecap="butt" stroke-linejoin="round" stroke="rgb(92.156863%, 92.156863%, 92.156863%)" stroke-opacity="1" stroke-miterlimit="10" d="M 427.1875 397.847656 L 427.1875 321.632812 "/>
</g>
<g clip-path="url(#clip-70)">
<path fill="none" stroke-width="1.066978" stroke-linecap="butt" stroke-linejoin="round" stroke="rgb(92.156863%, 92.156863%, 92.156863%)" stroke-opacity="1" stroke-miterlimit="10" d="M 50.152344 380.515625 L 498.519531 380.515625 "/>
</g>
<g clip-path="url(#clip-71)">
<path fill="none" stroke-width="1.066978" stroke-linecap="butt" stroke-linejoin="round" stroke="rgb(92.156863%, 92.156863%, 92.156863%)" stroke-opacity="1" stroke-miterlimit="10" d="M 50.152344 360.527344 L 498.519531 360.527344 "/>
</g>
<g clip-path="url(#clip-72)">
<path fill="none" stroke-width="1.066978" stroke-linecap="butt" stroke-linejoin="round" stroke="rgb(92.156863%, 92.156863%, 92.156863%)" stroke-opacity="1" stroke-miterlimit="10" d="M 50.152344 340.539062 L 498.519531 340.539062 "/>
</g>
<g clip-path="url(#clip-73)">
<path fill="none" stroke-width="1.066978" stroke-linecap="butt" stroke-linejoin="round" stroke="rgb(92.156863%, 92.156863%, 92.156863%)" stroke-opacity="1" stroke-miterlimit="10" d="M 70.53125 397.847656 L 70.53125 321.632812 "/>
</g>
<g clip-path="url(#clip-74)">
<path fill="none" stroke-width="1.066978" stroke-linecap="butt" stroke-linejoin="round" stroke="rgb(92.156863%, 92.156863%, 92.156863%)" stroke-opacity="1" stroke-miterlimit="10" d="M 172.433594 397.847656 L 172.433594 321.632812 "/>
</g>
<g clip-path="url(#clip-75)">
<path fill="none" stroke-width="1.066978" stroke-linecap="butt" stroke-linejoin="round" stroke="rgb(92.156863%, 92.156863%, 92.156863%)" stroke-opacity="1" stroke-miterlimit="10" d="M 274.335938 397.847656 L 274.335938 321.632812 "/>
</g>
<g clip-path="url(#clip-76)">
<path fill="none" stroke-width="1.066978" stroke-linecap="butt" stroke-linejoin="round" stroke="rgb(92.156863%, 92.156863%, 92.156863%)" stroke-opacity="1" stroke-miterlimit="10" d="M 376.238281 397.847656 L 376.238281 321.632812 "/>
</g>
<g clip-path="url(#clip-77)">
<path fill="none" stroke-width="1.066978" stroke-linecap="butt" stroke-linejoin="round" stroke="rgb(92.156863%, 92.156863%, 92.156863%)" stroke-opacity="1" stroke-miterlimit="10" d="M 478.140625 397.847656 L 478.140625 321.632812 "/>
</g>
<path fill="none" stroke-width="1.066978" stroke-linecap="butt" stroke-linejoin="round" stroke="rgb(0%, 0%, 0%)" stroke-opacity="1" stroke-miterlimit="10" d="M 70.53125 325.097656 L 71.550781 328.398438 L 72.570312 335.09375 L 73.589844 345.921875 L 74.605469 359.828125 L 75.625 373.960938 L 76.644531 385.339844 L 77.664062 392.132812 L 78.683594 394.386719 L 79.703125 393.480469 L 80.722656 390.847656 L 81.742188 387.398438 L 82.757812 383.605469 L 83.777344 379.679688 L 84.796875 375.722656 L 85.816406 371.777344 L 86.835938 367.867188 L 87.855469 364.011719 L 88.875 360.214844 L 89.890625 356.496094 L 90.910156 352.863281 L 91.929688 349.335938 L 92.949219 345.929688 L 93.96875 342.667969 L 94.988281 339.582031 L 96.007812 336.699219 L 97.027344 334.070312 L 98.042969 331.753906 L 99.0625 329.839844 L 100.082031 328.429688 L 101.101562 327.671875 L 102.121094 327.78125 L 103.140625 329.046875 L 104.160156 331.824219 L 105.179688 336.550781 L 106.195312 343.164062 L 107.214844 350.902344 L 108.234375 358.53125 L 109.253906 364.5 L 110.273438 367.859375 L 111.292969 368.59375 L 112.3125 367.375 L 113.328125 364.964844 L 114.347656 361.921875 L 115.367188 358.582031 L 116.386719 355.097656 L 117.40625 351.601562 L 118.425781 348.195312 L 119.445312 344.886719 L 120.464844 341.707031 L 121.480469 338.699219 L 122.5 335.90625 L 123.519531 333.382812 L 124.539062 331.1875 L 125.558594 329.402344 L 126.578125 328.160156 L 127.597656 327.625 L 128.617188 328.039062 L 129.632812 329.71875 L 130.652344 333.054688 L 131.671875 338.230469 L 132.691406 345.144531 L 133.710938 353.011719 L 134.730469 360.285156 L 135.75 365.609375 L 136.769531 368.25 L 137.785156 368.40625 L 138.804688 366.816406 L 139.824219 364.183594 L 140.84375 361.003906 L 141.863281 357.613281 L 142.882812 354.140625 L 143.902344 350.636719 L 144.917969 347.242188 L 145.9375 343.976562 L 146.957031 340.847656 L 147.976562 337.898438 L 148.996094 335.171875 L 150.015625 332.734375 L 151.035156 330.652344 L 152.054688 329.015625 L 153.070312 327.949219 L 154.089844 327.648438 L 155.109375 328.367188 L 156.128906 330.445312 L 157.148438 334.304688 L 158.167969 340.050781 L 159.1875 347.304688 L 160.207031 355.136719 L 161.222656 361.921875 L 162.242188 366.4375 L 163.261719 368.292969 L 164.28125 367.871094 L 165.300781 365.921875 L 166.320312 363.117188 L 167.339844 359.855469 L 168.355469 356.429688 L 169.375 352.957031 L 170.394531 349.511719 L 171.414062 346.15625 L 172.433594 342.917969 L 173.453125 339.839844 L 174.472656 336.957031 L 175.492188 334.316406 L 176.507812 331.984375 L 177.527344 330.039062 L 178.546875 328.574219 L 179.566406 327.738281 L 180.585938 327.75 L 181.605469 328.890625 L 182.625 331.539062 L 183.644531 336.03125 L 184.660156 342.339844 L 185.679688 349.992188 L 186.699219 357.675781 L 187.71875 363.839844 L 188.738281 367.515625 L 189.757812 368.554688 L 190.777344 367.53125 L 191.792969 365.238281 L 192.8125 362.21875 L 193.832031 358.878906 L 194.851562 355.429688 L 195.871094 351.941406 L 196.890625 348.519531 L 197.910156 345.195312 L 198.929688 342 L 199.945312 338.972656 L 200.964844 336.15625 L 201.984375 333.601562 L 203.003906 331.371094 L 204.023438 329.546875 L 205.042969 328.25 L 206.0625 327.640625 L 207.082031 327.957031 L 208.097656 329.496094 L 209.117188 332.664062 L 210.136719 337.675781 L 211.15625 344.457031 L 212.175781 352.3125 L 213.195312 359.695312 L 214.214844 365.246094 L 215.230469 368.136719 L 216.25 368.5 L 217.269531 367.035156 L 218.289062 364.480469 L 219.308594 361.328125 L 220.328125 357.945312 L 221.347656 354.480469 L 222.367188 350.976562 L 223.382812 347.570312 L 224.402344 344.289062 L 225.421875 341.140625 L 226.441406 338.171875 L 227.460938 335.421875 L 228.480469 332.953125 L 229.5 330.832031 L 230.519531 329.144531 L 231.535156 328.019531 L 232.554688 327.636719 L 233.574219 328.242188 L 234.59375 330.171875 L 235.613281 333.851562 L 236.632812 339.429688 L 237.652344 346.574219 L 238.667969 354.417969 L 239.6875 361.375 L 240.707031 366.128906 L 241.726562 368.234375 L 242.746094 367.996094 L 243.765625 366.160156 L 244.785156 363.414062 L 245.804688 360.183594 L 246.820312 356.765625 L 247.839844 353.296875 L 248.859375 349.84375 L 249.878906 346.476562 L 250.898438 343.226562 L 251.917969 340.132812 L 252.9375 337.226562 L 253.957031 334.558594 L 254.972656 332.195312 L 255.992188 330.207031 L 257.011719 328.691406 L 258.03125 327.789062 L 259.050781 327.707031 L 260.070312 328.71875 L 261.089844 331.199219 L 262.105469 335.511719 L 263.125 341.664062 L 264.144531 349.214844 L 265.164062 356.976562 L 266.183594 363.332031 L 267.203125 367.265625 L 268.222656 368.535156 L 269.242188 367.679688 L 270.257812 365.476562 L 271.277344 362.515625 L 272.296875 359.191406 L 273.316406 355.75 L 274.335938 352.261719 L 275.355469 348.832031 L 276.375 345.496094 L 277.394531 342.289062 L 278.410156 339.242188 L 279.429688 336.40625 L 280.449219 333.824219 L 281.46875 331.5625 L 282.488281 329.695312 L 283.507812 328.34375 L 284.527344 327.664062 L 285.542969 327.882812 L 286.5625 329.292969 L 287.582031 332.296875 L 288.601562 337.132812 L 289.621094 343.765625 L 290.640625 351.582031 L 291.660156 359.074219 L 292.679688 364.847656 L 293.695312 367.988281 L 294.714844 368.5625 L 295.734375 367.230469 L 296.753906 364.746094 L 297.773438 361.644531 L 298.792969 358.277344 L 299.8125 354.808594 L 300.832031 351.300781 L 301.847656 347.894531 L 302.867188 344.59375 L 303.886719 341.433594 L 304.90625 338.445312 L 305.925781 335.671875 L 306.945312 333.175781 L 307.964844 331.015625 L 308.980469 329.277344 L 310 328.089844 L 311.019531 327.632812 L 312.039062 328.140625 L 313.058594 329.949219 L 314.078125 333.429688 L 315.097656 338.75 L 316.117188 345.824219 L 317.132812 353.683594 L 318.152344 360.828125 L 319.171875 365.933594 L 320.191406 368.339844 L 321.210938 368.3125 L 322.230469 366.597656 L 323.25 363.90625 L 324.269531 360.714844 L 325.285156 357.320312 L 326.304688 353.816406 L 327.324219 350.335938 L 328.34375 346.964844 L 329.363281 343.699219 L 330.382812 340.582031 L 331.402344 337.648438 L 332.417969 334.949219 L 333.4375 332.539062 L 334.457031 330.484375 L 335.476562 328.882812 L 336.496094 327.875 L 337.515625 327.660156 L 338.535156 328.492188 L 339.554688 330.734375 L 340.570312 334.730469 L 341.589844 340.566406 L 342.609375 347.992188 L 343.628906 355.808594 L 344.648438 362.503906 L 345.667969 366.871094 L 346.6875 368.546875 L 347.707031 367.964844 L 348.722656 365.921875 L 349.742188 363.046875 L 350.761719 359.765625 L 351.78125 356.339844 L 352.800781 352.839844 L 353.820312 349.375 L 354.839844 346.03125 L 355.855469 342.804688 L 356.875 339.734375 L 357.894531 336.859375 L 358.914062 334.234375 L 359.933594 331.917969 L 360.953125 329.980469 L 361.972656 328.535156 L 362.992188 327.730469 L 364.007812 327.78125 L 365.027344 328.96875 L 366.046875 331.675781 L 367.066406 336.179688 L 368.085938 342.527344 L 369.105469 350.230469 L 370.125 357.867188 L 371.144531 364.011719 L 372.160156 367.613281 L 373.179688 368.582031 L 374.199219 367.507812 L 375.21875 365.171875 L 376.238281 362.160156 L 377.257812 358.832031 L 378.277344 355.363281 L 379.296875 351.851562 L 380.3125 348.441406 L 381.332031 345.121094 L 382.351562 341.933594 L 383.371094 338.914062 L 384.390625 336.101562 L 385.410156 333.558594 L 386.429688 331.335938 L 387.445312 329.519531 L 388.464844 328.230469 L 389.484375 327.644531 L 390.503906 327.976562 L 391.523438 329.550781 L 392.542969 332.746094 L 393.5625 337.769531 L 394.582031 344.589844 L 395.597656 352.433594 L 396.617188 359.800781 L 397.636719 365.308594 L 398.65625 368.152344 L 399.675781 368.46875 L 400.695312 366.972656 L 401.714844 364.398438 L 402.734375 361.265625 L 403.75 357.890625 L 404.769531 354.398438 L 405.789062 350.898438 L 406.808594 347.515625 L 407.828125 344.230469 L 408.847656 341.085938 L 409.867188 338.117188 L 410.882812 335.375 L 411.902344 332.914062 L 412.921875 330.792969 L 413.941406 329.109375 L 414.960938 327.992188 L 415.980469 327.632812 L 417 328.269531 L 418.019531 330.25 L 419.035156 333.941406 L 420.054688 339.472656 L 421.074219 346.695312 L 422.09375 354.554688 L 423.113281 361.535156 L 424.132812 366.34375 L 425.152344 368.453125 L 426.171875 368.1875 L 427.1875 366.335938 L 428.207031 363.5625 L 429.226562 360.335938 L 430.246094 356.933594 L 431.265625 353.421875 L 432.285156 349.929688 L 433.304688 346.582031 L 434.320312 343.34375 L 435.339844 340.25 L 436.359375 337.339844 L 437.378906 334.671875 L 438.398438 332.296875 L 439.417969 330.292969 L 440.4375 328.75 L 441.457031 327.820312 L 442.472656 327.703125 L 443.492188 328.664062 L 444.511719 331.078125 L 445.53125 335.289062 L 446.550781 341.320312 L 447.570312 348.824219 L 448.589844 356.578125 L 449.609375 363.027344 L 450.625 367.085938 L 451.644531 368.476562 L 452.664062 367.695312 L 453.683594 365.554688 L 454.703125 362.609375 L 455.722656 359.285156 L 456.742188 355.851562 L 457.757812 352.371094 L 458.777344 348.9375 L 459.796875 345.601562 L 460.816406 342.390625 L 461.835938 339.339844 L 462.855469 336.492188 L 463.875 333.902344 L 464.894531 331.628906 L 465.910156 329.753906 L 466.929688 328.382812 L 467.949219 327.671875 L 468.96875 327.855469 L 469.988281 329.214844 L 471.007812 332.164062 L 472.027344 336.972656 L 473.046875 343.546875 L 474.0625 351.324219 L 475.082031 358.847656 L 476.101562 364.65625 L 477.121094 367.882812 L 478.140625 368.527344 "/>
<g clip-path="url(#clip-78)">
<path fill="none" stroke-width="1.066978" stroke-linecap="round" stroke-linejoin="round" stroke="rgb(20%, 20%, 20%)" stroke-opacity="1" stroke-miterlimit="10" d="M 50.152344 397.847656 L 498.523438 397.847656 L 498.523438 321.632812 L 50.152344 321.632812 Z M 50.152344 397.847656 "/>
</g>
<g clip-path="url(#clip-79)">
<path fill-rule="nonzero" fill="rgb(85.098039%, 85.098039%, 85.098039%)" fill-opacity="1" stroke-width="1.066978" stroke-linecap="round" stroke-linejoin="round" stroke="rgb(20%, 20%, 20%)" stroke-opacity="1" stroke-miterlimit="10" d="M 50.152344 321.632812 L 498.523438 321.632812 L 498.523438 303.867188 L 50.152344 303.867188 Z M 50.152344 321.632812 "/>
</g>
<g fill="rgb(10.196078%, 10.196078%, 10.196078%)" fill-opacity="1">
<use xlink:href="#glyph-0-0" x="271.335938" y="315.665039"/>
</g>
<g clip-path="url(#clip-80)">
<path fill-rule="nonzero" fill="rgb(85.098039%, 85.098039%, 85.098039%)" fill-opacity="1" stroke-width="1.066978" stroke-linecap="round" stroke-linejoin="round" stroke="rgb(20%, 20%, 20%)" stroke-opacity="1" stroke-miterlimit="10" d="M 50.152344 222.171875 L 498.523438 222.171875 L 498.523438 204.40625 L 50.152344 204.40625 Z M 50.152344 222.171875 "/>
</g>
<g fill="rgb(10.196078%, 10.196078%, 10.196078%)" fill-opacity="1">
<use xlink:href="#glyph-0-1" x="271.335938" y="216.204102"/>
</g>
<g clip-path="url(#clip-81)">
<path fill-rule="nonzero" fill="rgb(85.098039%, 85.098039%, 85.098039%)" fill-opacity="1" stroke-width="1.066978" stroke-linecap="round" stroke-linejoin="round" stroke="rgb(20%, 20%, 20%)" stroke-opacity="1" stroke-miterlimit="10" d="M 50.152344 122.707031 L 498.523438 122.707031 L 498.523438 104.941406 L 50.152344 104.941406 Z M 50.152344 122.707031 "/>
</g>
<g fill="rgb(10.196078%, 10.196078%, 10.196078%)" fill-opacity="1">
<use xlink:href="#glyph-0-2" x="271.835938" y="116.739258"/>
</g>
<g clip-path="url(#clip-82)">
<path fill-rule="nonzero" fill="rgb(85.098039%, 85.098039%, 85.098039%)" fill-opacity="1" stroke-width="1.066978" stroke-linecap="round" stroke-linejoin="round" stroke="rgb(20%, 20%, 20%)" stroke-opacity="1" stroke-miterlimit="10" d="M 50.152344 23.246094 L 498.523438 23.246094 L 498.523438 5.480469 L 50.152344 5.480469 Z M 50.152344 23.246094 "/>
</g>
<g fill="rgb(10.196078%, 10.196078%, 10.196078%)" fill-opacity="1">
<use xlink:href="#glyph-0-3" x="271.835938" y="17.27832"/>
</g>
<path fill="none" stroke-width="1.066978" stroke-linecap="butt" stroke-linejoin="round" stroke="rgb(20%, 20%, 20%)" stroke-opacity="1" stroke-miterlimit="10" d="M 70.53125 400.589844 L 70.53125 397.847656 "/>
<path fill="none" stroke-width="1.066978" stroke-linecap="butt" stroke-linejoin="round" stroke="rgb(20%, 20%, 20%)" stroke-opacity="1" stroke-miterlimit="10" d="M 172.433594 400.589844 L 172.433594 397.847656 "/>
<path fill="none" stroke-width="1.066978" stroke-linecap="butt" stroke-linejoin="round" stroke="rgb(20%, 20%, 20%)" stroke-opacity="1" stroke-miterlimit="10" d="M 274.335938 400.589844 L 274.335938 397.847656 "/>
<path fill="none" stroke-width="1.066978" stroke-linecap="butt" stroke-linejoin="round" stroke="rgb(20%, 20%, 20%)" stroke-opacity="1" stroke-miterlimit="10" d="M 376.238281 400.589844 L 376.238281 397.847656 "/>
<path fill="none" stroke-width="1.066978" stroke-linecap="butt" stroke-linejoin="round" stroke="rgb(20%, 20%, 20%)" stroke-opacity="1" stroke-miterlimit="10" d="M 478.140625 400.589844 L 478.140625 397.847656 "/>
<g fill="rgb(30.196078%, 30.196078%, 30.196078%)" fill-opacity="1">
<use xlink:href="#glyph-0-4" x="68.03125" y="409.196289"/>
</g>
<g fill="rgb(30.196078%, 30.196078%, 30.196078%)" fill-opacity="1">
<use xlink:href="#glyph-0-5" x="164.933594" y="409.196289"/>
<use xlink:href="#glyph-0-4" x="169.933594" y="409.196289"/>
<use xlink:href="#glyph-0-4" x="174.933594" y="409.196289"/>
</g>
<g fill="rgb(30.196078%, 30.196078%, 30.196078%)" fill-opacity="1">
<use xlink:href="#glyph-0-6" x="266.835938" y="409.196289"/>
<use xlink:href="#glyph-0-4" x="271.835938" y="409.196289"/>
<use xlink:href="#glyph-0-4" x="276.835938" y="409.196289"/>
</g>
<g fill="rgb(30.196078%, 30.196078%, 30.196078%)" fill-opacity="1">
<use xlink:href="#glyph-0-7" x="368.738281" y="409.196289"/>
<use xlink:href="#glyph-0-4" x="373.738281" y="409.196289"/>
<use xlink:href="#glyph-0-4" x="378.738281" y="409.196289"/>
</g>
<g fill="rgb(30.196078%, 30.196078%, 30.196078%)" fill-opacity="1">
<use xlink:href="#glyph-0-8" x="470.640625" y="409.196289"/>
<use xlink:href="#glyph-0-4" x="475.640625" y="409.196289"/>
<use xlink:href="#glyph-0-4" x="480.640625" y="409.196289"/>
</g>
<g fill="rgb(30.196078%, 30.196078%, 30.196078%)" fill-opacity="1">
<use xlink:href="#glyph-0-6" x="25.21875" y="85.196289"/>
<use xlink:href="#glyph-0-9" x="30.21875" y="85.196289"/>
<use xlink:href="#glyph-0-4" x="35.21875" y="85.196289"/>
<use xlink:href="#glyph-0-4" x="40.21875" y="85.196289"/>
</g>
<g fill="rgb(30.196078%, 30.196078%, 30.196078%)" fill-opacity="1">
<use xlink:href="#glyph-0-9" x="25.21875" y="65.65332"/>
<use xlink:href="#glyph-0-4" x="30.21875" y="65.65332"/>
<use xlink:href="#glyph-0-4" x="35.21875" y="65.65332"/>
<use xlink:href="#glyph-0-4" x="40.21875" y="65.65332"/>
</g>
<g fill="rgb(30.196078%, 30.196078%, 30.196078%)" fill-opacity="1">
<use xlink:href="#glyph-0-10" x="25.21875" y="46.110352"/>
<use xlink:href="#glyph-0-9" x="30.21875" y="46.110352"/>
<use xlink:href="#glyph-0-4" x="35.21875" y="46.110352"/>
<use xlink:href="#glyph-0-4" x="40.21875" y="46.110352"/>
</g>
<g fill="rgb(30.196078%, 30.196078%, 30.196078%)" fill-opacity="1">
<use xlink:href="#glyph-0-5" x="20.21875" y="26.567383"/>
<use xlink:href="#glyph-0-4" x="25.21875" y="26.567383"/>
<use xlink:href="#glyph-0-4" x="30.21875" y="26.567383"/>
<use xlink:href="#glyph-0-4" x="35.21875" y="26.567383"/>
<use xlink:href="#glyph-0-4" x="40.21875" y="26.567383"/>
</g>
<path fill="none" stroke-width="1.066978" stroke-linecap="butt" stroke-linejoin="round" stroke="rgb(20%, 20%, 20%)" stroke-opacity="1" stroke-miterlimit="10" d="M 47.410156 82.28125 L 50.152344 82.28125 "/>
<path fill="none" stroke-width="1.066978" stroke-linecap="butt" stroke-linejoin="round" stroke="rgb(20%, 20%, 20%)" stroke-opacity="1" stroke-miterlimit="10" d="M 47.410156 62.738281 L 50.152344 62.738281 "/>
<path fill="none" stroke-width="1.066978" stroke-linecap="butt" stroke-linejoin="round" stroke="rgb(20%, 20%, 20%)" stroke-opacity="1" stroke-miterlimit="10" d="M 47.410156 43.195312 L 50.152344 43.195312 "/>
<path fill="none" stroke-width="1.066978" stroke-linecap="butt" stroke-linejoin="round" stroke="rgb(20%, 20%, 20%)" stroke-opacity="1" stroke-miterlimit="10" d="M 47.410156 23.652344 L 50.152344 23.652344 "/>
<g fill="rgb(30.196078%, 30.196078%, 30.196078%)" fill-opacity="1">
<use xlink:href="#glyph-0-5" x="40.21875" y="192.489258"/>
</g>
<g fill="rgb(30.196078%, 30.196078%, 30.196078%)" fill-opacity="1">
<use xlink:href="#glyph-0-6" x="40.21875" y="176.821289"/>
</g>
<g fill="rgb(30.196078%, 30.196078%, 30.196078%)" fill-opacity="1">
<use xlink:href="#glyph-0-7" x="40.21875" y="161.15332"/>
</g>
<g fill="rgb(30.196078%, 30.196078%, 30.196078%)" fill-opacity="1">
<use xlink:href="#glyph-0-8" x="40.21875" y="145.489258"/>
</g>
<g fill="rgb(30.196078%, 30.196078%, 30.196078%)" fill-opacity="1">
<use xlink:href="#glyph-0-9" x="40.21875" y="129.821289"/>
</g>
<path fill="none" stroke-width="1.066978" stroke-linecap="butt" stroke-linejoin="round" stroke="rgb(20%, 20%, 20%)" stroke-opacity="1" stroke-miterlimit="10" d="M 47.410156 189.574219 L 50.152344 189.574219 "/>
<path fill="none" stroke-width="1.066978" stroke-linecap="butt" stroke-linejoin="round" stroke="rgb(20%, 20%, 20%)" stroke-opacity="1" stroke-miterlimit="10" d="M 47.410156 173.90625 L 50.152344 173.90625 "/>
<path fill="none" stroke-width="1.066978" stroke-linecap="butt" stroke-linejoin="round" stroke="rgb(20%, 20%, 20%)" stroke-opacity="1" stroke-miterlimit="10" d="M 47.410156 158.238281 L 50.152344 158.238281 "/>
<path fill="none" stroke-width="1.066978" stroke-linecap="butt" stroke-linejoin="round" stroke="rgb(20%, 20%, 20%)" stroke-opacity="1" stroke-miterlimit="10" d="M 47.410156 142.574219 L 50.152344 142.574219 "/>
<path fill="none" stroke-width="1.066978" stroke-linecap="butt" stroke-linejoin="round" stroke="rgb(20%, 20%, 20%)" stroke-opacity="1" stroke-miterlimit="10" d="M 47.410156 126.90625 L 50.152344 126.90625 "/>
<g fill="rgb(30.196078%, 30.196078%, 30.196078%)" fill-opacity="1">
<use xlink:href="#glyph-0-10" x="33.21875" y="287.899414"/>
<use xlink:href="#glyph-0-11" x="38.21875" y="287.899414"/>
<use xlink:href="#glyph-0-4" x="40.21875" y="287.899414"/>
</g>
<g fill="rgb(30.196078%, 30.196078%, 30.196078%)" fill-opacity="1">
<use xlink:href="#glyph-0-10" x="33.21875" y="273.727539"/>
<use xlink:href="#glyph-0-11" x="38.21875" y="273.727539"/>
<use xlink:href="#glyph-0-9" x="40.21875" y="273.727539"/>
</g>
<g fill="rgb(30.196078%, 30.196078%, 30.196078%)" fill-opacity="1">
<use xlink:href="#glyph-0-12" x="33.21875" y="259.551758"/>
<use xlink:href="#glyph-0-11" x="38.21875" y="259.551758"/>
<use xlink:href="#glyph-0-4" x="40.21875" y="259.551758"/>
</g>
<g fill="rgb(30.196078%, 30.196078%, 30.196078%)" fill-opacity="1">
<use xlink:href="#glyph-0-12" x="33.21875" y="245.375977"/>
<use xlink:href="#glyph-0-11" x="38.21875" y="245.375977"/>
<use xlink:href="#glyph-0-9" x="40.21875" y="245.375977"/>
</g>
<g fill="rgb(30.196078%, 30.196078%, 30.196078%)" fill-opacity="1">
<use xlink:href="#glyph-0-13" x="33.21875" y="231.200195"/>
<use xlink:href="#glyph-0-11" x="38.21875" y="231.200195"/>
<use xlink:href="#glyph-0-4" x="40.21875" y="231.200195"/>
</g>
<path fill="none" stroke-width="1.066978" stroke-linecap="butt" stroke-linejoin="round" stroke="rgb(20%, 20%, 20%)" stroke-opacity="1" stroke-miterlimit="10" d="M 47.410156 284.984375 L 50.152344 284.984375 "/>
<path fill="none" stroke-width="1.066978" stroke-linecap="butt" stroke-linejoin="round" stroke="rgb(20%, 20%, 20%)" stroke-opacity="1" stroke-miterlimit="10" d="M 47.410156 270.8125 L 50.152344 270.8125 "/>
<path fill="none" stroke-width="1.066978" stroke-linecap="butt" stroke-linejoin="round" stroke="rgb(20%, 20%, 20%)" stroke-opacity="1" stroke-miterlimit="10" d="M 47.410156 256.636719 L 50.152344 256.636719 "/>
<path fill="none" stroke-width="1.066978" stroke-linecap="butt" stroke-linejoin="round" stroke="rgb(20%, 20%, 20%)" stroke-opacity="1" stroke-miterlimit="10" d="M 47.410156 242.460938 L 50.152344 242.460938 "/>
<path fill="none" stroke-width="1.066978" stroke-linecap="butt" stroke-linejoin="round" stroke="rgb(20%, 20%, 20%)" stroke-opacity="1" stroke-miterlimit="10" d="M 47.410156 228.285156 L 50.152344 228.285156 "/>
<g fill="rgb(30.196078%, 30.196078%, 30.196078%)" fill-opacity="1">
<use xlink:href="#glyph-0-4" x="33.21875" y="383.430664"/>
<use xlink:href="#glyph-0-11" x="38.21875" y="383.430664"/>
<use xlink:href="#glyph-0-4" x="40.21875" y="383.430664"/>
</g>
<g fill="rgb(30.196078%, 30.196078%, 30.196078%)" fill-opacity="1">
<use xlink:href="#glyph-0-4" x="33.21875" y="363.442383"/>
<use xlink:href="#glyph-0-11" x="38.21875" y="363.442383"/>
<use xlink:href="#glyph-0-9" x="40.21875" y="363.442383"/>
</g>
<g fill="rgb(30.196078%, 30.196078%, 30.196078%)" fill-opacity="1">
<use xlink:href="#glyph-0-5" x="33.21875" y="343.454102"/>
<use xlink:href="#glyph-0-11" x="38.21875" y="343.454102"/>
<use xlink:href="#glyph-0-4" x="40.21875" y="343.454102"/>
</g>
<path fill="none" stroke-width="1.066978" stroke-linecap="butt" stroke-linejoin="round" stroke="rgb(20%, 20%, 20%)" stroke-opacity="1" stroke-miterlimit="10" d="M 47.410156 380.515625 L 50.152344 380.515625 "/>
<path fill="none" stroke-width="1.066978" stroke-linecap="butt" stroke-linejoin="round" stroke="rgb(20%, 20%, 20%)" stroke-opacity="1" stroke-miterlimit="10" d="M 47.410156 360.527344 L 50.152344 360.527344 "/>
<path fill="none" stroke-width="1.066978" stroke-linecap="butt" stroke-linejoin="round" stroke="rgb(20%, 20%, 20%)" stroke-opacity="1" stroke-miterlimit="10" d="M 47.410156 340.539062 L 50.152344 340.539062 "/>
<g fill="rgb(0%, 0%, 0%)" fill-opacity="1">
<use xlink:href="#glyph-1-0" x="264.335938" y="422.538086"/>
<use xlink:href="#glyph-1-1" x="267.335938" y="422.538086"/>
<use xlink:href="#glyph-1-2" x="269.335938" y="422.538086"/>
<use xlink:href="#glyph-1-3" x="278.335938" y="422.538086"/>
</g>
</svg>
