<?xml version="1.0" encoding="UTF-8"?>
<svg xmlns="http://www.w3.org/2000/svg" xmlns:xlink="http://www.w3.org/1999/xlink" width="504pt" height="432pt" viewBox="0 0 504 432">
<defs>
<g>
<g id="glyph-0-0">
<path d="M 3.40625 -2.515625 L 5.8125 -6.40625 L 4.84375 -6.40625 L 3.015625 -3.296875 L 1.125 -6.40625 L 0.109375 -6.40625 L 2.59375 -2.515625 L 2.59375 0 L 3.40625 0 Z M 3.40625 -2.515625 "/>
</g>
<g id="glyph-0-1">
<path d="M 3.4375 -3.296875 L 5.609375 -6.40625 L 4.625 -6.40625 L 2.96875 -3.890625 L 1.328125 -6.40625 L 0.328125 -6.40625 L 2.46875 -3.296875 L 0.1875 0 L 1.1875 0 L 2.953125 -2.671875 L 4.703125 0 L 5.703125 0 Z M 3.4375 -3.296875 "/>
</g>
<g id="glyph-0-2">
<path d="M 0.46875 1.921875 L 1.21875 1.921875 L 1.21875 -0.484375 C 1.59375 -0.015625 2.03125 0.203125 2.625 0.203125 C 3.828125 0.203125 4.59375 -0.75 4.59375 -2.21875 C 4.59375 -3.78125 3.84375 -4.734375 2.625 -4.734375 C 2 -4.734375 1.5 -4.453125 1.15625 -3.921875 L 1.15625 -4.609375 L 0.46875 -4.609375 Z M 2.5 -4.0625 C 3.3125 -4.0625 3.828125 -3.34375 3.828125 -2.25 C 3.828125 -1.203125 3.296875 -0.484375 2.5 -0.484375 C 1.71875 -0.484375 1.21875 -1.1875 1.21875 -2.265625 C 1.21875 -3.359375 1.71875 -4.0625 2.5 -4.0625 Z M 2.5 -4.0625 "/>
</g>
<g id="glyph-0-3">
<path d="M 0.609375 -4.609375 L 0.609375 0 L 1.359375 0 L 1.359375 -2.546875 C 1.359375 -3.484375 1.84375 -4.09375 2.609375 -4.09375 C 3.1875 -4.09375 3.546875 -3.75 3.546875 -3.1875 L 3.546875 0 L 4.28125 0 L 4.28125 -3.484375 C 4.28125 -4.25 3.71875 -4.734375 2.828125 -4.734375 C 2.140625 -4.734375 1.703125 -4.484375 1.296875 -3.828125 L 1.296875 -4.609375 Z M 0.609375 -4.609375 "/>
</g>
<g id="glyph-0-4">
<path d="M 2.421875 -6.359375 C 1.84375 -6.359375 1.3125 -6.09375 0.984375 -5.671875 C 0.578125 -5.109375 0.375 -4.25 0.375 -3.078125 C 0.375 -0.9375 1.078125 0.203125 2.421875 0.203125 C 3.734375 0.203125 4.453125 -0.9375 4.453125 -3.03125 C 4.453125 -4.25 4.265625 -5.078125 3.859375 -5.671875 C 3.53125 -6.109375 3.015625 -6.359375 2.421875 -6.359375 Z M 2.421875 -5.671875 C 3.25 -5.671875 3.671875 -4.828125 3.671875 -3.09375 C 3.671875 -1.28125 3.265625 -0.4375 2.40625 -0.4375 C 1.578125 -0.4375 1.171875 -1.3125 1.171875 -3.0625 C 1.171875 -4.828125 1.578125 -5.671875 2.421875 -5.671875 Z M 2.421875 -5.671875 "/>
</g>
<g id="glyph-0-5">
<path d="M 2.28125 -4.53125 L 2.28125 0 L 3.046875 0 L 3.046875 -6.359375 L 2.546875 -6.359375 C 2.265625 -5.390625 2.09375 -5.25 0.890625 -5.09375 L 0.890625 -4.53125 Z M 2.28125 -4.53125 "/>
</g>
<g id="glyph-0-6">
<path d="M 4.453125 -0.765625 L 1.171875 -0.765625 C 1.25 -1.296875 1.53125 -1.625 2.296875 -2.09375 L 3.171875 -2.59375 C 4.046875 -3.0625 4.5 -3.71875 4.5 -4.5 C 4.5 -5.03125 4.28125 -5.53125 3.921875 -5.875 C 3.546875 -6.203125 3.09375 -6.359375 2.5 -6.359375 C 1.703125 -6.359375 1.125 -6.078125 0.78125 -5.53125 C 0.546875 -5.203125 0.453125 -4.796875 0.4375 -4.15625 L 1.21875 -4.15625 C 1.234375 -4.59375 1.296875 -4.84375 1.40625 -5.0625 C 1.59375 -5.4375 2 -5.6875 2.46875 -5.6875 C 3.171875 -5.6875 3.703125 -5.171875 3.703125 -4.484375 C 3.703125 -3.96875 3.40625 -3.53125 2.859375 -3.21875 L 2.046875 -2.75 C 0.75 -2 0.375 -1.40625 0.296875 -0.015625 L 4.453125 -0.015625 Z M 4.453125 -0.765625 "/>
</g>
<g id="glyph-0-7">
<path d="M 1.9375 -2.921875 L 2.359375 -2.921875 C 3.203125 -2.921875 3.65625 -2.53125 3.65625 -1.765625 C 3.65625 -0.96875 3.171875 -0.484375 2.375 -0.484375 C 1.515625 -0.484375 1.109375 -0.921875 1.0625 -1.84375 L 0.28125 -1.84375 C 0.3125 -1.34375 0.40625 -1 0.546875 -0.71875 C 0.875 -0.109375 1.484375 0.203125 2.34375 0.203125 C 3.625 0.203125 4.453125 -0.578125 4.453125 -1.78125 C 4.453125 -2.59375 4.140625 -3.03125 3.390625 -3.296875 C 3.96875 -3.53125 4.265625 -3.96875 4.265625 -4.609375 C 4.265625 -5.703125 3.546875 -6.359375 2.359375 -6.359375 C 1.109375 -6.359375 0.4375 -5.65625 0.40625 -4.3125 L 1.1875 -4.3125 C 1.203125 -4.703125 1.234375 -4.921875 1.328125 -5.109375 C 1.5 -5.46875 1.890625 -5.6875 2.375 -5.6875 C 3.0625 -5.6875 3.46875 -5.265625 3.46875 -4.578125 C 3.46875 -4.140625 3.3125 -3.859375 2.96875 -3.71875 C 2.765625 -3.625 2.484375 -3.59375 1.9375 -3.578125 Z M 1.9375 -2.921875 "/>
</g>
<g id="glyph-0-8">
<path d="M 2.875 -1.546875 L 2.875 0 L 3.65625 0 L 3.65625 -1.546875 L 4.578125 -1.546875 L 4.578125 -2.234375 L 3.65625 -2.234375 L 3.65625 -6.359375 L 3.078125 -6.359375 L 0.25 -2.359375 L 0.25 -1.546875 Z M 2.875 -2.234375 L 0.921875 -2.234375 L 2.875 -5.046875 Z M 2.875 -2.234375 "/>
</g>
<g id="glyph-0-9">
<path d="M 4.375 -4.703125 C 4.234375 -5.75 3.5625 -6.359375 2.609375 -6.359375 C 1.921875 -6.359375 1.3125 -6.03125 0.9375 -5.453125 C 0.546875 -4.828125 0.375 -4.0625 0.375 -2.90625 C 0.375 -1.828125 0.53125 -1.15625 0.90625 -0.59375 C 1.234375 -0.078125 1.78125 0.203125 2.46875 0.203125 C 3.65625 0.203125 4.515625 -0.6875 4.515625 -1.921875 C 4.515625 -3.09375 3.71875 -3.921875 2.609375 -3.921875 C 1.984375 -3.921875 1.5 -3.6875 1.171875 -3.234375 C 1.171875 -4.796875 1.671875 -5.671875 2.5625 -5.671875 C 3.109375 -5.671875 3.484375 -5.328125 3.609375 -4.703125 Z M 2.5 -3.234375 C 3.25 -3.234375 3.71875 -2.703125 3.71875 -1.859375 C 3.71875 -1.0625 3.1875 -0.484375 2.484375 -0.484375 C 1.765625 -0.484375 1.21875 -1.09375 1.21875 -1.90625 C 1.21875 -2.6875 1.734375 -3.234375 2.5 -3.234375 Z M 2.5 -3.234375 "/>
</g>
<g id="glyph-0-10">
<path d="M 0.46875 -1.453125 C 0.609375 -0.40625 1.28125 0.203125 2.234375 0.203125 C 2.921875 0.203125 3.546875 -0.125 3.921875 -0.703125 C 4.296875 -1.328125 4.484375 -2.109375 4.484375 -3.25 C 4.484375 -4.328125 4.3125 -5 3.953125 -5.5625 C 3.609375 -6.09375 3.0625 -6.359375 2.375 -6.359375 C 1.1875 -6.359375 0.328125 -5.46875 0.328125 -4.234375 C 0.328125 -3.0625 1.125 -2.25 2.25 -2.25 C 2.84375 -2.25 3.28125 -2.453125 3.671875 -2.9375 C 3.671875 -1.359375 3.171875 -0.484375 2.28125 -0.484375 C 1.734375 -0.484375 1.359375 -0.828125 1.234375 -1.453125 Z M 2.359375 -5.6875 C 3.09375 -5.6875 3.640625 -5.078125 3.640625 -4.25 C 3.640625 -3.46875 3.109375 -2.921875 2.34375 -2.921875 C 1.59375 -2.921875 1.125 -3.453125 1.125 -4.296875 C 1.125 -5.109375 1.640625 -5.6875 2.359375 -5.6875 Z M 2.359375 -5.6875 "/>
</g>
<g id="glyph-0-11">
<path d="M 4.578125 -6.234375 L 0.40625 -6.234375 L 0.40625 -5.46875 L 3.78125 -5.46875 C 2.28125 -3.359375 1.6875 -2.046875 1.21875 0 L 2.046875 0 C 2.390625 -2 3.171875 -3.71875 4.578125 -5.59375 Z M 4.578125 -6.234375 "/>
</g>
<g id="glyph-0-12">
<path d="M 1.6875 -0.921875 L 0.765625 -0.921875 L 0.765625 0 L 1.6875 0 Z M 1.6875 -0.921875 "/>
</g>
<g id="glyph-0-13">
<path d="M 4.1875 -6.234375 L 0.96875 -6.234375 L 0.5 -2.84375 L 1.21875 -2.84375 C 1.578125 -3.265625 1.875 -3.421875 2.359375 -3.421875 C 3.203125 -3.421875 3.71875 -2.84375 3.71875 -1.921875 C 3.71875 -1.03125 3.203125 -0.484375 2.359375 -0.484375 C 1.6875 -0.484375 1.265625 -0.828125 1.078125 -1.53125 L 0.3125 -1.53125 C 0.40625 -1.015625 0.5 -0.78125 0.6875 -0.546875 C 1.03125 -0.078125 1.671875 0.203125 2.375 0.203125 C 3.640625 0.203125 4.515625 -0.71875 4.515625 -2.03125 C 4.515625 -3.265625 3.6875 -4.109375 2.5 -4.109375 C 2.0625 -4.109375 1.703125 -4 1.34375 -3.734375 L 1.59375 -5.46875 L 4.1875 -5.46875 Z M 4.1875 -6.234375 "/>
</g>
<g id="glyph-0-14">
<path d="M 3.4375 -3.359375 C 4.09375 -3.75 4.296875 -4.0625 4.296875 -4.65625 C 4.296875 -5.671875 3.53125 -6.359375 2.421875 -6.359375 C 1.3125 -6.359375 0.546875 -5.671875 0.546875 -4.671875 C 0.546875 -4.0625 0.75 -3.75 1.390625 -3.359375 C 0.671875 -2.984375 0.328125 -2.46875 0.328125 -1.765625 C 0.328125 -0.609375 1.171875 0.203125 2.421875 0.203125 C 3.65625 0.203125 4.515625 -0.609375 4.515625 -1.765625 C 4.515625 -2.46875 4.15625 -2.984375 3.4375 -3.359375 Z M 2.421875 -5.671875 C 3.078125 -5.671875 3.5 -5.28125 3.5 -4.640625 C 3.5 -4.046875 3.0625 -3.65625 2.421875 -3.65625 C 1.765625 -3.65625 1.34375 -4.046875 1.34375 -4.65625 C 1.34375 -5.28125 1.765625 -5.671875 2.421875 -5.671875 Z M 2.421875 -3 C 3.1875 -3 3.71875 -2.484375 3.71875 -1.75 C 3.71875 -0.984375 3.203125 -0.484375 2.40625 -0.484375 C 1.640625 -0.484375 1.125 -1 1.125 -1.734375 C 1.125 -2.5 1.640625 -3 2.421875 -3 Z M 2.421875 -3 "/>
</g>
<g id="glyph-1-0">
<path d="M 2.796875 -5.765625 L 1.84375 -5.765625 L 1.84375 -7.34375 L 0.9375 -7.34375 L 0.9375 -5.765625 L 0.15625 -5.765625 L 0.15625 -5.015625 L 0.9375 -5.015625 L 0.9375 -0.65625 C 0.9375 -0.0625 1.328125 0.25 2.046875 0.25 C 2.28125 0.25 2.484375 0.234375 2.796875 0.171875 L 2.796875 -0.59375 C 2.65625 -0.5625 2.546875 -0.546875 2.359375 -0.546875 C 1.953125 -0.546875 1.84375 -0.65625 1.84375 -1.0625 L 1.84375 -5.015625 L 2.796875 -5.015625 Z M 2.796875 -5.765625 "/>
</g>
<g id="glyph-1-1">
<path d="M 1.65625 -5.765625 L 0.734375 -5.765625 L 0.734375 0 L 1.65625 0 Z M 1.65625 -8.015625 L 0.71875 -8.015625 L 0.71875 -6.859375 L 1.65625 -6.859375 Z M 1.65625 -8.015625 "/>
</g>
<g id="glyph-1-2">
<path d="M 0.765625 -5.765625 L 0.765625 0 L 1.6875 0 L 1.6875 -3.625 C 1.6875 -4.453125 2.296875 -5.125 3.046875 -5.125 C 3.734375 -5.125 4.109375 -4.703125 4.109375 -3.96875 L 4.109375 0 L 5.03125 0 L 5.03125 -3.625 C 5.03125 -4.453125 5.640625 -5.125 6.390625 -5.125 C 7.0625 -5.125 7.453125 -4.703125 7.453125 -3.96875 L 7.453125 0 L 8.375 0 L 8.375 -4.328125 C 8.375 -5.359375 7.78125 -5.921875 6.703125 -5.921875 C 5.9375 -5.921875 5.484375 -5.703125 4.9375 -5.046875 C 4.59375 -5.671875 4.140625 -5.921875 3.390625 -5.921875 C 2.625 -5.921875 2.09375 -5.640625 1.609375 -4.953125 L 1.609375 -5.765625 Z M 0.765625 -5.765625 "/>
</g>
<g id="glyph-1-3">
<path d="M 5.640625 -2.578125 C 5.640625 -3.453125 5.578125 -3.984375 5.40625 -4.40625 C 5.03125 -5.359375 4.15625 -5.921875 3.078125 -5.921875 C 1.46875 -5.921875 0.4375 -4.703125 0.4375 -2.8125 C 0.4375 -0.90625 1.4375 0.25 3.0625 0.25 C 4.375 0.25 5.296875 -0.5 5.515625 -1.75 L 4.59375 -1.75 C 4.34375 -0.984375 3.828125 -0.59375 3.09375 -0.59375 C 2.515625 -0.59375 2.015625 -0.859375 1.703125 -1.34375 C 1.484375 -1.671875 1.40625 -2 1.390625 -2.578125 Z M 1.421875 -3.328125 C 1.5 -4.390625 2.140625 -5.078125 3.0625 -5.078125 C 4 -5.078125 4.65625 -4.359375 4.65625 -3.328125 Z M 1.421875 -3.328125 "/>
</g>
</g>
<clipPath id="clip-0">
<path clip-rule="nonzero" d="M 45.152344 23.246094 L 498.523438 23.246094 L 498.523438 99.460938 L 45.152344 99.460938 Z M 45.152344 23.246094 "/>
</clipPath>
<clipPath id="clip-1">
<path clip-rule="nonzero" d="M 45.152344 90 L 498.523438 90 L 498.523438 92 L 45.152344 92 Z M 45.152344 90 "/>
</clipPath>
<clipPath id="clip-2">
<path clip-rule="nonzero" d="M 45.152344 70 L 498.523438 70 L 498.523438 71 L 45.152344 71 Z M 45.152344 70 "/>
</clipPath>
<clipPath id="clip-3">
<path clip-rule="nonzero" d="M 45.152344 49 L 498.523438 49 L 498.523438 51 L 45.152344 51 Z M 45.152344 49 "/>
</clipPath>
<clipPath id="clip-4">
<path clip-rule="nonzero" d="M 45.152344 28 L 498.523438 28 L 498.523438 30 L 45.152344 30 Z M 45.152344 28 "/>
</clipPath>
<clipPath id="clip-5">
<path clip-rule="nonzero" d="M 117 23.246094 L 118 23.246094 L 118 99.460938 L 117 99.460938 Z M 117 23.246094 "/>
</clipPath>
<clipPath id="clip-6">
<path clip-rule="nonzero" d="M 220 23.246094 L 221 23.246094 L 221 99.460938 L 220 99.460938 Z M 220 23.246094 "/>
</clipPath>
<clipPath id="clip-7">
<path clip-rule="nonzero" d="M 323 23.246094 L 324 23.246094 L 324 99.460938 L 323 99.460938 Z M 323 23.246094 "/>
</clipPath>
<clipPath id="clip-8">
<path clip-rule="nonzero" d="M 426 23.246094 L 427 23.246094 L 427 99.460938 L 426 99.460938 Z M 426 23.246094 "/>
</clipPath>
<clipPath id="clip-9">
<path clip-rule="nonzero" d="M 45.152344 80 L 498.523438 80 L 498.523438 82 L 45.152344 82 Z M 45.152344 80 "/>
</clipPath>
<clipPath id="clip-10">
<path clip-rule="nonzero" d="M 45.152344 59 L 498.523438 59 L 498.523438 61 L 45.152344 61 Z M 45.152344 59 "/>
</clipPath>
<clipPath id="clip-11">
<path clip-rule="nonzero" d="M 45.152344 38 L 498.523438 38 L 498.523438 41 L 45.152344 41 Z M 45.152344 38 "/>
</clipPath>
<clipPath id="clip-12">
<path clip-rule="nonzero" d="M 65 23.246094 L 67 23.246094 L 67 99.460938 L 65 99.460938 Z M 65 23.246094 "/>
</clipPath>
<clipPath id="clip-13">
<path clip-rule="nonzero" d="M 168 23.246094 L 170 23.246094 L 170 99.460938 L 168 99.460938 Z M 168 23.246094 "/>
</clipPath>
<clipPath id="clip-14">
<path clip-rule="nonzero" d="M 271 23.246094 L 273 23.246094 L 273 99.460938 L 271 99.460938 Z M 271 23.246094 "/>
</clipPath>
<clipPath id="clip-15">
<path clip-rule="nonzero" d="M 374 23.246094 L 376 23.246094 L 376 99.460938 L 374 99.460938 Z M 374 23.246094 "/>
</clipPath>
<clipPath id="clip-16">
<path clip-rule="nonzero" d="M 477 23.246094 L 479 23.246094 L 479 99.460938 L 477 99.460938 Z M 477 23.246094 "/>
</clipPath>
<clipPath id="clip-17">
<path clip-rule="nonzero" d="M 45.152344 23.246094 L 498.523438 23.246094 L 498.523438 99.460938 L 45.152344 99.460938 Z M 45.152344 23.246094 "/>
</clipPath>
<clipPath id="clip-18">
<path clip-rule="nonzero" d="M 45.152344 122.707031 L 498.523438 122.707031 L 498.523438 198.921875 L 45.152344 198.921875 Z M 45.152344 122.707031 "/>
</clipPath>
<clipPath id="clip-19">
<path clip-rule="nonzero" d="M 45.152344 197 L 498.523438 197 L 498.523438 198 L 45.152344 198 Z M 45.152344 197 "/>
</clipPath>
<clipPath id="clip-20">
<path clip-rule="nonzero" d="M 45.152344 180 L 498.523438 180 L 498.523438 182 L 45.152344 182 Z M 45.152344 180 "/>
</clipPath>
<clipPath id="clip-21">
<path clip-rule="nonzero" d="M 45.152344 163 L 498.523438 163 L 498.523438 165 L 45.152344 165 Z M 45.152344 163 "/>
</clipPath>
<clipPath id="clip-22">
<path clip-rule="nonzero" d="M 45.152344 146 L 498.523438 146 L 498.523438 148 L 45.152344 148 Z M 45.152344 146 "/>
</clipPath>
<clipPath id="clip-23">
<path clip-rule="nonzero" d="M 45.152344 129 L 498.523438 129 L 498.523438 131 L 45.152344 131 Z M 45.152344 129 "/>
</clipPath>
<clipPath id="clip-24">
<path clip-rule="nonzero" d="M 117 122.707031 L 118 122.707031 L 118 198.921875 L 117 198.921875 Z M 117 122.707031 "/>
</clipPath>
<clipPath id="clip-25">
<path clip-rule="nonzero" d="M 220 122.707031 L 221 122.707031 L 221 198.921875 L 220 198.921875 Z M 220 122.707031 "/>
</clipPath>
<clipPath id="clip-26">
<path clip-rule="nonzero" d="M 323 122.707031 L 324 122.707031 L 324 198.921875 L 323 198.921875 Z M 323 122.707031 "/>
</clipPath>
<clipPath id="clip-27">
<path clip-rule="nonzero" d="M 426 122.707031 L 427 122.707031 L 427 198.921875 L 426 198.921875 Z M 426 122.707031 "/>
</clipPath>
<clipPath id="clip-28">
<path clip-rule="nonzero" d="M 45.152344 188 L 498.523438 188 L 498.523438 190 L 45.152344 190 Z M 45.152344 188 "/>
</clipPath>
<clipPath id="clip-29">
<path clip-rule="nonzero" d="M 45.152344 171 L 498.523438 171 L 498.523438 173 L 45.152344 173 Z M 45.152344 171 "/>
</clipPath>
<clipPath id="clip-30">
<path clip-rule="nonzero" d="M 45.152344 154 L 498.523438 154 L 498.523438 156 L 45.152344 156 Z M 45.152344 154 "/>
</clipPath>
<clipPath id="clip-31">
<path clip-rule="nonzero" d="M 45.152344 137 L 498.523438 137 L 498.523438 139 L 45.152344 139 Z M 45.152344 137 "/>
</clipPath>
<clipPath id="clip-32">
<path clip-rule="nonzero" d="M 65 122.707031 L 67 122.707031 L 67 198.921875 L 65 198.921875 Z M 65 122.707031 "/>
</clipPath>
<clipPath id="clip-33">
<path clip-rule="nonzero" d="M 168 122.707031 L 170 122.707031 L 170 198.921875 L 168 198.921875 Z M 168 122.707031 "/>
</clipPath>
<clipPath id="clip-34">
<path clip-rule="nonzero" d="M 271 122.707031 L 273 122.707031 L 273 198.921875 L 271 198.921875 Z M 271 122.707031 "/>
</clipPath>
<clipPath id="clip-35">
<path clip-rule="nonzero" d="M 374 122.707031 L 376 122.707031 L 376 198.921875 L 374 198.921875 Z M 374 122.707031 "/>
</clipPath>
<clipPath id="clip-36">
<path clip-rule="nonzero" d="M 477 122.707031 L 479 122.707031 L 479 198.921875 L 477 198.921875 Z M 477 122.707031 "/>
</clipPath>
<clipPath id="clip-37">
<path clip-rule="nonzero" d="M 45.152344 122.707031 L 498.523438 122.707031 L 498.523438 198.921875 L 45.152344 198.921875 Z M 45.152344 122.707031 "/>
</clipPath>
<clipPath id="clip-38">
<path clip-rule="nonzero" d="M 45.152344 222.171875 L 498.523438 222.171875 L 498.523438 298.386719 L 45.152344 298.386719 Z M 45.152344 222.171875 "/>
</clipPath>
<clipPath id="clip-39">
<path clip-rule="nonzero" d="M 45.152344 291 L 498.523438 291 L 498.523438 293 L 45.152344 293 Z M 45.152344 291 "/>
</clipPath>
<clipPath id="clip-40">
<path clip-rule="nonzero" d="M 45.152344 277 L 498.523438 277 L 498.523438 279 L 45.152344 279 Z M 45.152344 277 "/>
</clipPath>
<clipPath id="clip-41">
<path clip-rule="nonzero" d="M 45.152344 263 L 498.523438 263 L 498.523438 264 L 45.152344 264 Z M 45.152344 263 "/>
</clipPath>
<clipPath id="clip-42">
<path clip-rule="nonzero" d="M 45.152344 249 L 498.523438 249 L 498.523438 250 L 45.152344 250 Z M 45.152344 249 "/>
</clipPath>
<clipPath id="clip-43">
<path clip-rule="nonzero" d="M 45.152344 235 L 498.523438 235 L 498.523438 236 L 45.152344 236 Z M 45.152344 235 "/>
</clipPath>
<clipPath id="clip-44">
<path clip-rule="nonzero" d="M 117 222.171875 L 118 222.171875 L 118 298.386719 L 117 298.386719 Z M 117 222.171875 "/>
</clipPath>
<clipPath id="clip-45">
<path clip-rule="nonzero" d="M 220 222.171875 L 221 222.171875 L 221 298.386719 L 220 298.386719 Z M 220 222.171875 "/>
</clipPath>
<clipPath id="clip-46">
<path clip-rule="nonzero" d="M 323 222.171875 L 324 222.171875 L 324 298.386719 L 323 298.386719 Z M 323 222.171875 "/>
</clipPath>
<clipPath id="clip-47">
<path clip-rule="nonzero" d="M 426 222.171875 L 427 222.171875 L 427 298.386719 L 426 298.386719 Z M 426 222.171875 "/>
</clipPath>
<clipPath id="clip-48">
<path clip-rule="nonzero" d="M 45.152344 284 L 498.523438 284 L 498.523438 286 L 45.152344 286 Z M 45.152344 284 "/>
</clipPath>
<clipPath id="clip-49">
<path clip-rule="nonzero" d="M 45.152344 270 L 498.523438 270 L 498.523438 272 L 45.152344 272 Z M 45.152344 270 "/>
</clipPath>
<clipPath id="clip-50">
<path clip-rule="nonzero" d="M 45.152344 256 L 498.523438 256 L 498.523438 258 L 45.152344 258 Z M 45.152344 256 "/>
</clipPath>
<clipPath id="clip-51">
<path clip-rule="nonzero" d="M 45.152344 241 L 498.523438 241 L 498.523438 243 L 45.152344 243 Z M 45.152344 241 "/>
</clipPath>
<clipPath id="clip-52">
<path clip-rule="nonzero" d="M 45.152344 227 L 498.523438 227 L 498.523438 229 L 45.152344 229 Z M 45.152344 227 "/>
</clipPath>
<clipPath id="clip-53">
<path clip-rule="nonzero" d="M 65 222.171875 L 67 222.171875 L 67 298.386719 L 65 298.386719 Z M 65 222.171875 "/>
</clipPath>
<clipPath id="clip-54">
<path clip-rule="nonzero" d="M 168 222.171875 L 170 222.171875 L 170 298.386719 L 168 298.386719 Z M 168 222.171875 "/>
</clipPath>
<clipPath id="clip-55">
<path clip-rule="nonzero" d="M 271 222.171875 L 273 222.171875 L 273 298.386719 L 271 298.386719 Z M 271 222.171875 "/>
</clipPath>
<clipPath id="clip-56">
<path clip-rule="nonzero" d="M 374 222.171875 L 376 222.171875 L 376 298.386719 L 374 298.386719 Z M 374 222.171875 "/>
</clipPath>
<clipPath id="clip-57">
<path clip-rule="nonzero" d="M 477 222.171875 L 479 222.171875 L 479 298.386719 L 477 298.386719 Z M 477 222.171875 "/>
</clipPath>
<clipPath id="clip-58">
<path clip-rule="nonzero" d="M 45.152344 222.171875 L 498.523438 222.171875 L 498.523438 298.386719 L 45.152344 298.386719 Z M 45.152344 222.171875 "/>
</clipPath>
<clipPath id="clip-59">
<path clip-rule="nonzero" d="M 45.152344 321.632812 L 498.523438 321.632812 L 498.523438 397.847656 L 45.152344 397.847656 Z M 45.152344 321.632812 "/>
</clipPath>
<clipPath id="clip-60">
<path clip-rule="nonzero" d="M 45.152344 390 L 498.523438 390 L 498.523438 391 L 45.152344 391 Z M 45.152344 390 "/>
</clipPath>
<clipPath id="clip-61">
<path clip-rule="nonzero" d="M 45.152344 370 L 498.523438 370 L 498.523438 371 L 45.152344 371 Z M 45.152344 370 "/>
</clipPath>
<clipPath id="clip-62">
<path clip-rule="nonzero" d="M 45.152344 350 L 498.523438 350 L 498.523438 351 L 45.152344 351 Z M 45.152344 350 "/>
</clipPath>
<clipPath id="clip-63">
<path clip-rule="nonzero" d="M 45.152344 330 L 498.523438 330 L 498.523438 331 L 45.152344 331 Z M 45.152344 330 "/>
</clipPath>
<clipPath id="clip-64">
<path clip-rule="nonzero" d="M 117 321.632812 L 118 321.632812 L 118 397.847656 L 117 397.847656 Z M 117 321.632812 "/>
</clipPath>
<clipPath id="clip-65">
<path clip-rule="nonzero" d="M 220 321.632812 L 221 321.632812 L 221 397.847656 L 220 397.847656 Z M 220 321.632812 "/>
</clipPath>
<clipPath id="clip-66">
<path clip-rule="nonzero" d="M 323 321.632812 L 324 321.632812 L 324 397.847656 L 323 397.847656 Z M 323 321.632812 "/>
</clipPath>
<clipPath id="clip-67">
<path clip-rule="nonzero" d="M 426 321.632812 L 427 321.632812 L 427 397.847656 L 426 397.847656 Z M 426 321.632812 "/>
</clipPath>
<clipPath id="clip-68">
<path clip-rule="nonzero" d="M 45.152344 379 L 498.523438 379 L 498.523438 382 L 45.152344 382 Z M 45.152344 379 "/>
</clipPath>
<clipPath id="clip-69">
<path clip-rule="nonzero" d="M 45.152344 359 L 498.523438 359 L 498.523438 362 L 45.152344 362 Z M 45.152344 359 "/>
</clipPath>
<clipPath id="clip-70">
<path clip-rule="nonzero" d="M 45.152344 340 L 498.523438 340 L 498.523438 342 L 45.152344 342 Z M 45.152344 340 "/>
</clipPath>
<clipPath id="clip-71">
<path clip-rule="nonzero" d="M 65 321.632812 L 67 321.632812 L 67 397.847656 L 65 397.847656 Z M 65 321.632812 "/>
</clipPath>
<clipPath id="clip-72">
<path clip-rule="nonzero" d="M 168 321.632812 L 170 321.632812 L 170 397.847656 L 168 397.847656 Z M 168 321.632812 "/>
</clipPath>
<clipPath id="clip-73">
<path clip-rule="nonzero" d="M 271 321.632812 L 273 321.632812 L 273 397.847656 L 271 397.847656 Z M 271 321.632812 "/>
</clipPath>
<clipPath id="clip-74">
<path clip-rule="nonzero" d="M 374 321.632812 L 376 321.632812 L 376 397.847656 L 374 397.847656 Z M 374 321.632812 "/>
</clipPath>
<clipPath id="clip-75">
<path clip-rule="nonzero" d="M 477 321.632812 L 479 321.632812 L 479 397.847656 L 477 397.847656 Z M 477 321.632812 "/>
</clipPath>
<clipPath id="clip-76">
<path clip-rule="nonzero" d="M 45.152344 321.632812 L 498.523438 321.632812 L 498.523438 397.847656 L 45.152344 397.847656 Z M 45.152344 321.632812 "/>
</clipPath>
<clipPath id="clip-77">
<path clip-rule="nonzero" d="M 45.152344 303.867188 L 498.523438 303.867188 L 498.523438 321.632812 L 45.152344 321.632812 Z M 45.152344 303.867188 "/>
</clipPath>
<clipPath id="clip-78">
<path clip-rule="nonzero" d="M 45.152344 204.402344 L 498.523438 204.402344 L 498.523438 222.167969 L 45.152344 222.167969 Z M 45.152344 204.402344 "/>
</clipPath>
<clipPath id="clip-79">
<path clip-rule="nonzero" d="M 45.152344 104.941406 L 498.523438 104.941406 L 498.523438 122.707031 L 45.152344 122.707031 Z M 45.152344 104.941406 "/>
</clipPath>
<clipPath id="clip-80">
<path clip-rule="nonzero" d="M 45.152344 5.480469 L 498.523438 5.480469 L 498.523438 23.246094 L 45.152344 23.246094 Z M 45.152344 5.480469 "/>
</clipPath>
</defs>
<rect x="-50.4" y="-43.2" width="604.8" height="518.4" fill="rgb(100%, 100%, 100%)" fill-opacity="1"/>
<rect x="-50.4" y="-43.2" width="604.8" height="518.4" fill="rgb(100%, 100%, 100%)" fill-opacity="1"/>
<path fill="none" stroke-width="1.066978" stroke-linecap="round" stroke-linejoin="round" stroke="rgb(100%, 100%, 100%)" stroke-opacity="1" stroke-miterlimit="10" d="M 0 432 L 504 432 L 504 0 L 0 0 Z M 0 432 "/>
<g clip-path="url(#clip-0)">
<path fill-rule="nonzero" fill="rgb(100%, 100%, 100%)" fill-opacity="1" d="M 45.152344 99.460938 L 498.523438 99.460938 L 498.523438 23.246094 L 45.152344 23.246094 Z M 45.152344 99.460938 "/>
</g>
<g clip-path="url(#clip-1)">
<path fill="none" stroke-width="0.533489" stroke-linecap="butt" stroke-linejoin="round" stroke="rgb(92.156863%, 92.156863%, 92.156863%)" stroke-opacity="1" stroke-miterlimit="10" d="M 45.152344 91.207031 L 498.519531 91.207031 "/>
</g>
<g clip-path="url(#clip-2)">
<path fill="none" stroke-width="0.533489" stroke-linecap="butt" stroke-linejoin="round" stroke="rgb(92.156863%, 92.156863%, 92.156863%)" stroke-opacity="1" stroke-miterlimit="10" d="M 45.152344 70.53125 L 498.519531 70.53125 "/>
</g>
<g clip-path="url(#clip-3)">
<path fill="none" stroke-width="0.533489" stroke-linecap="butt" stroke-linejoin="round" stroke="rgb(92.156863%, 92.156863%, 92.156863%)" stroke-opacity="1" stroke-miterlimit="10" d="M 45.152344 49.855469 L 498.519531 49.855469 "/>
</g>
<g clip-path="url(#clip-4)">
<path fill="none" stroke-width="0.533489" stroke-linecap="butt" stroke-linejoin="round" stroke="rgb(92.156863%, 92.156863%, 92.156863%)" stroke-opacity="1" stroke-miterlimit="10" d="M 45.152344 29.175781 L 498.519531 29.175781 "/>
</g>
<g clip-path="url(#clip-5)">
<path fill="none" stroke-width="0.533489" stroke-linecap="butt" stroke-linejoin="round" stroke="rgb(92.156863%, 92.156863%, 92.156863%)" stroke-opacity="1" stroke-miterlimit="10" d="M 117.277344 99.460938 L 117.277344 23.246094 "/>
</g>
<g clip-path="url(#clip-6)">
<path fill="none" stroke-width="0.533489" stroke-linecap="butt" stroke-linejoin="round" stroke="rgb(92.156863%, 92.156863%, 92.156863%)" stroke-opacity="1" stroke-miterlimit="10" d="M 220.316406 99.460938 L 220.316406 23.246094 "/>
</g>
<g clip-path="url(#clip-7)">
<path fill="none" stroke-width="0.533489" stroke-linecap="butt" stroke-linejoin="round" stroke="rgb(92.156863%, 92.156863%, 92.156863%)" stroke-opacity="1" stroke-miterlimit="10" d="M 323.355469 99.460938 L 323.355469 23.246094 "/>
</g>
<g clip-path="url(#clip-8)">
<path fill="none" stroke-width="0.533489" stroke-linecap="butt" stroke-linejoin="round" stroke="rgb(92.156863%, 92.156863%, 92.156863%)" stroke-opacity="1" stroke-miterlimit="10" d="M 426.394531 99.460938 L 426.394531 23.246094 "/>
</g>
<g clip-path="url(#clip-9)">
<path fill="none" stroke-width="1.066978" stroke-linecap="butt" stroke-linejoin="round" stroke="rgb(92.156863%, 92.156863%, 92.156863%)" stroke-opacity="1" stroke-miterlimit="10" d="M 45.152344 80.867188 L 498.519531 80.867188 "/>
</g>
<g clip-path="url(#clip-10)">
<path fill="none" stroke-width="1.066978" stroke-linecap="butt" stroke-linejoin="round" stroke="rgb(92.156863%, 92.156863%, 92.156863%)" stroke-opacity="1" stroke-miterlimit="10" d="M 45.152344 60.191406 L 498.519531 60.191406 "/>
</g>
<g clip-path="url(#clip-11)">
<path fill="none" stroke-width="1.066978" stroke-linecap="butt" stroke-linejoin="round" stroke="rgb(92.156863%, 92.156863%, 92.156863%)" stroke-opacity="1" stroke-miterlimit="10" d="M 45.152344 39.515625 L 498.519531 39.515625 "/>
</g>
<g clip-path="url(#clip-12)">
<path fill="none" stroke-width="1.066978" stroke-linecap="butt" stroke-linejoin="round" stroke="rgb(92.156863%, 92.156863%, 92.156863%)" stroke-opacity="1" stroke-miterlimit="10" d="M 65.757812 99.460938 L 65.757812 23.246094 "/>
</g>
<g clip-path="url(#clip-13)">
<path fill="none" stroke-width="1.066978" stroke-linecap="butt" stroke-linejoin="round" stroke="rgb(92.156863%, 92.156863%, 92.156863%)" stroke-opacity="1" stroke-miterlimit="10" d="M 168.796875 99.460938 L 168.796875 23.246094 "/>
</g>
<g clip-path="url(#clip-14)">
<path fill="none" stroke-width="1.066978" stroke-linecap="butt" stroke-linejoin="round" stroke="rgb(92.156863%, 92.156863%, 92.156863%)" stroke-opacity="1" stroke-miterlimit="10" d="M 271.835938 99.460938 L 271.835938 23.246094 "/>
</g>
<g clip-path="url(#clip-15)">
<path fill="none" stroke-width="1.066978" stroke-linecap="butt" stroke-linejoin="round" stroke="rgb(92.156863%, 92.156863%, 92.156863%)" stroke-opacity="1" stroke-miterlimit="10" d="M 374.875 99.460938 L 374.875 23.246094 "/>
</g>
<g clip-path="url(#clip-16)">
<path fill="none" stroke-width="1.066978" stroke-linecap="butt" stroke-linejoin="round" stroke="rgb(92.156863%, 92.156863%, 92.156863%)" stroke-opacity="1" stroke-miterlimit="10" d="M 477.914062 99.460938 L 477.914062 23.246094 "/>
</g>
<path fill="none" stroke-width="1.066978" stroke-linecap="butt" stroke-linejoin="round" stroke="rgb(0%, 0%, 0%)" stroke-opacity="1" stroke-miterlimit="10" d="M 65.757812 78.597656 L 66.789062 86.949219 L 67.820312 92.613281 L 68.847656 93.585938 L 69.878906 95.996094 L 70.910156 95.8125 L 71.941406 91.382812 L 72.972656 85.769531 L 74 73.613281 L 75.03125 54.855469 L 76.0625 42.851562 L 77.09375 45.136719 L 78.121094 44.375 L 79.152344 26.710938 L 80.183594 38.871094 L 81.214844 27.429688 L 82.246094 34.082031 L 83.273438 49.113281 L 84.304688 39.5 L 85.335938 43.847656 L 86.367188 47.8125 L 87.398438 32.910156 L 88.425781 56.9375 L 89.457031 55.195312 L 90.488281 43.53125 L 91.519531 49.144531 L 92.546875 51.160156 L 93.578125 57.929688 L 94.609375 63.402344 L 95.640625 68.703125 L 96.671875 70.921875 L 97.699219 75.617188 L 98.730469 80.78125 L 99.761719 83.625 L 100.792969 86.292969 L 101.820312 91.183594 L 102.851562 89.855469 L 103.882812 90.472656 L 104.914062 85.648438 L 105.945312 77.914062 L 106.972656 71.851562 L 108.003906 69.371094 L 109.035156 58.390625 L 110.066406 51.429688 L 111.09375 40.03125 L 112.125 52.542969 L 113.15625 50.136719 L 114.1875 49.203125 L 115.21875 43.625 L 116.246094 49.324219 L 117.277344 47.75 L 118.308594 52.894531 L 119.339844 58.074219 L 120.367188 64.820312 L 121.398438 60.535156 L 122.429688 66.292969 L 123.460938 73.84375 L 124.492188 76.675781 L 125.519531 83.914062 L 126.550781 86.988281 L 127.582031 87.160156 L 128.613281 89.890625 L 129.640625 92.507812 L 130.671875 88.410156 L 131.703125 86.679688 L 132.734375 75.53125 L 133.765625 72.367188 L 134.792969 61.214844 L 135.824219 44.992188 L 136.855469 55.578125 L 137.886719 45.589844 L 138.914062 46.628906 L 139.945312 57.460938 L 140.976562 57.523438 L 142.007812 43.984375 L 143.039062 51.246094 L 144.066406 48.488281 L 145.097656 51.796875 L 146.128906 58.753906 L 147.160156 64.195312 L 148.1875 67.15625 L 149.21875 68.972656 L 150.25 77.398438 L 151.28125 78.046875 L 152.3125 83.335938 L 153.339844 86.023438 L 154.371094 90.253906 L 155.402344 90.835938 L 156.433594 90.632812 L 157.460938 88.46875 L 158.492188 81.40625 L 159.523438 74.5625 L 160.554688 61.984375 L 161.585938 58.777344 L 162.613281 60.238281 L 163.644531 50.417969 L 164.675781 37.566406 L 165.707031 45.976562 L 166.734375 49.722656 L 167.765625 52.503906 L 168.796875 49.046875 L 169.828125 56.207031 L 170.859375 50.328125 L 171.886719 55.730469 L 172.917969 69.144531 L 173.949219 60.511719 L 174.980469 65.664062 L 176.007812 74.921875 L 177.039062 77.820312 L 178.070312 81.335938 L 179.101562 83.148438 L 180.132812 88.074219 L 181.160156 90.207031 L 182.191406 90.894531 L 183.222656 88.988281 L 184.253906 83.796875 L 185.28125 82.578125 L 186.3125 71.113281 L 187.34375 62.203125 L 188.375 61.320312 L 189.40625 50.222656 L 190.433594 45.867188 L 191.464844 44.453125 L 192.496094 46.910156 L 193.527344 42.710938 L 194.558594 44.832031 L 195.585938 47.203125 L 196.617188 51.78125 L 197.648438 62.472656 L 198.679688 53.945312 L 199.707031 60.246094 L 200.738281 71.167969 L 201.769531 60.824219 L 202.800781 71.316406 L 203.832031 76.664062 L 204.859375 81.578125 L 205.890625 83.378906 L 206.921875 89.515625 L 207.953125 91.164062 L 208.980469 92.265625 L 210.011719 90.828125 L 211.042969 85.214844 L 212.074219 77.046875 L 213.105469 69.660156 L 214.132812 57.316406 L 215.164062 56.242188 L 216.195312 59.710938 L 217.226562 38.9375 L 218.253906 51.457031 L 219.285156 56.546875 L 220.316406 46.957031 L 221.347656 47.996094 L 222.378906 54.503906 L 223.40625 54.5625 L 224.4375 56.414062 L 225.46875 58.417969 L 226.5 71.5 L 227.527344 63.539062 L 228.558594 71.625 L 229.589844 71.710938 L 230.621094 81.0625 L 231.652344 81.730469 L 232.679688 86.949219 L 233.710938 87.941406 L 234.742188 91.164062 L 235.773438 90.921875 L 236.800781 88.125 L 237.832031 82.578125 L 238.863281 75.710938 L 239.894531 66.960938 L 240.925781 62.414062 L 241.953125 54.769531 L 242.984375 50.027344 L 244.015625 38.257812 L 245.046875 41.382812 L 246.074219 45.257812 L 247.105469 44.570312 L 248.136719 53.070312 L 249.167969 54.972656 L 250.199219 53.191406 L 251.226562 64.589844 L 252.257812 60.863281 L 253.289062 59.253906 L 254.320312 63.8125 L 255.347656 67.242188 L 256.378906 75.410156 L 257.410156 80.585938 L 258.441406 80.9375 L 259.472656 88.148438 L 260.5 89.777344 L 261.53125 90.910156 L 262.5625 91.359375 L 263.59375 85.105469 L 264.621094 82.421875 L 265.652344 78.683594 L 266.683594 67.335938 L 267.714844 56.589844 L 268.746094 50.949219 L 269.773438 51.65625 L 270.804688 46.375 L 271.835938 57.199219 L 272.867188 48.074219 L 273.894531 50.632812 L 274.925781 56.917969 L 275.957031 52.117188 L 276.988281 54.230469 L 278.019531 61.488281 L 279.046875 64.324219 L 280.078125 72.558594 L 281.109375 65.46875 L 282.140625 71.132812 L 283.167969 77.347656 L 284.199219 82.445312 L 285.230469 87.332031 L 286.261719 87.421875 L 287.292969 90.984375 L 288.320312 91.675781 L 289.351562 89.546875 L 290.382812 85.636719 L 291.414062 80.851562 L 292.441406 74.675781 L 293.472656 66.5 L 294.503906 62.082031 L 295.535156 53.390625 L 296.566406 41.480469 L 297.59375 49.6875 L 298.625 49.679688 L 299.65625 53.15625 L 300.6875 48.203125 L 301.71875 63.828125 L 302.746094 57.722656 L 303.777344 42.921875 L 304.808594 59.816406 L 305.839844 66.539062 L 306.867188 66.417969 L 307.898438 68.101562 L 308.929688 73.941406 L 309.960938 77.710938 L 310.992188 81.707031 L 312.019531 86.550781 L 313.050781 88.851562 L 314.082031 91.015625 L 315.113281 92.046875 L 316.140625 88.324219 L 317.171875 83.984375 L 318.203125 76.800781 L 319.234375 62.835938 L 320.265625 53.148438 L 321.292969 52.535156 L 322.324219 44.871094 L 323.355469 54.503906 L 324.386719 33.109375 L 325.414062 49.417969 L 326.445312 49.355469 L 327.476562 53.589844 L 328.507812 46.847656 L 329.539062 55.820312 L 330.566406 58.082031 L 331.597656 57.019531 L 332.628906 65.847656 L 333.660156 64.597656 L 334.6875 73.261719 L 335.71875 75.410156 L 336.75 80.523438 L 337.78125 81.710938 L 338.8125 87.195312 L 339.839844 89.101562 L 340.871094 92.824219 L 341.902344 90.351562 L 342.933594 87.410156 L 343.960938 84.796875 L 344.992188 72.785156 L 346.023438 64.339844 L 347.054688 59.339844 L 348.085938 41.738281 L 349.113281 58.046875 L 350.144531 41.296875 L 351.175781 52.027344 L 352.207031 53.8125 L 353.234375 45.273438 L 354.265625 46.359375 L 355.296875 63.675781 L 356.328125 50.375 L 357.359375 59.199219 L 358.386719 64.863281 L 359.417969 57.503906 L 360.449219 71.335938 L 361.480469 67.878906 L 362.507812 73.515625 L 363.539062 79.980469 L 364.570312 83.375 L 365.601562 87.363281 L 366.632812 90.792969 L 367.660156 89.242188 L 368.691406 90.773438 L 369.722656 87.808594 L 370.753906 80.625 L 371.78125 69.765625 L 372.8125 61.550781 L 373.84375 49.242188 L 374.875 48.769531 L 375.90625 53.921875 L 376.933594 39.683594 L 377.964844 49.070312 L 378.996094 49.59375 L 380.027344 48.398438 L 381.054688 47.355469 L 382.085938 49.140625 L 383.117188 55.53125 L 384.148438 53.191406 L 385.179688 57.59375 L 386.207031 64.664062 L 387.238281 70.269531 L 388.269531 74.167969 L 389.300781 76.957031 L 390.328125 82.644531 L 391.359375 84.21875 L 392.390625 87.453125 L 393.421875 92.1875 L 394.453125 91.402344 L 395.480469 88.0625 L 396.511719 87.402344 L 397.542969 79.640625 L 398.574219 72.289062 L 399.601562 56.503906 L 400.632812 49.671875 L 401.664062 38.488281 L 402.695312 43.160156 L 403.726562 48.214844 L 404.753906 47.566406 L 405.785156 42.058594 L 406.816406 43.226562 L 407.847656 49.253906 L 408.878906 53.019531 L 409.90625 55.4375 L 410.9375 59.5625 L 411.96875 65.320312 L 413 66.613281 L 414.027344 69.476562 L 415.058594 72.007812 L 416.089844 77.703125 L 417.121094 83.46875 L 418.152344 86.886719 L 419.179688 90.027344 L 420.210938 91.558594 L 421.242188 90.167969 L 422.273438 88.003906 L 423.300781 83.761719 L 424.332031 78.6875 L 425.363281 66.445312 L 426.394531 60.496094 L 427.425781 57.53125 L 428.453125 52.589844 L 429.484375 52.089844 L 430.515625 51.867188 L 431.546875 48.242188 L 432.574219 50.140625 L 433.605469 54.359375 L 434.636719 53.660156 L 435.667969 53.988281 L 436.699219 53.324219 L 437.726562 61.679688 L 438.757812 61.917969 L 439.789062 72.429688 L 440.820312 64.5625 L 441.847656 79.054688 L 442.878906 82.699219 L 443.910156 79.296875 L 444.941406 86.421875 L 445.972656 90.117188 L 447 90.671875 L 448.03125 91.210938 L 449.0625 88.128906 L 450.09375 83.941406 L 451.121094 75.113281 L 452.152344 63 L 453.183594 54.132812 L 454.214844 51.738281 L 455.246094 50.042969 L 456.273438 44.140625 L 457.304688 60.5625 L 458.335938 51.738281 L 459.367188 55.617188 L 460.394531 48.589844 L 461.425781 57.925781 L 462.457031 54.9375 L 463.488281 57.648438 L 464.519531 56.144531 L 465.546875 67.601562 L 466.578125 65.972656 L 467.609375 70.90625 L 468.640625 75.277344 L 469.667969 77.933594 L 470.699219 85.324219 L 471.730469 90.292969 L 472.761719 90.839844 L 473.792969 91.023438 L 474.820312 88.402344 L 475.851562 87.203125 L 476.882812 77.316406 L 477.914062 74.835938 "/>
<g clip-path="url(#clip-17)">
<path fill="none" stroke-width="1.066978" stroke-linecap="round" stroke-linejoin="round" stroke="rgb(20%, 20%, 20%)" stroke-opacity="1" stroke-miterlimit="10" d="M 45.152344 99.460938 L 498.523438 99.460938 L 498.523438 23.246094 L 45.152344 23.246094 Z M 45.152344 99.460938 "/>
</g>
<g clip-path="url(#clip-18)">
<path fill-rule="nonzero" fill="rgb(100%, 100%, 100%)" fill-opacity="1" d="M 45.152344 198.925781 L 498.523438 198.925781 L 498.523438 122.710938 L 45.152344 122.710938 Z M 45.152344 198.925781 "/>
</g>
<g clip-path="url(#clip-19)">
<path fill="none" stroke-width="0.533489" stroke-linecap="butt" stroke-linejoin="round" stroke="rgb(92.156863%, 92.156863%, 92.156863%)" stroke-opacity="1" stroke-miterlimit="10" d="M 45.152344 197.722656 L 498.519531 197.722656 "/>
</g>
<g clip-path="url(#clip-20)">
<path fill="none" stroke-width="0.533489" stroke-linecap="butt" stroke-linejoin="round" stroke="rgb(92.156863%, 92.156863%, 92.156863%)" stroke-opacity="1" stroke-miterlimit="10" d="M 45.152344 180.769531 L 498.519531 180.769531 "/>
</g>
<g clip-path="url(#clip-21)">
<path fill="none" stroke-width="0.533489" stroke-linecap="butt" stroke-linejoin="round" stroke="rgb(92.156863%, 92.156863%, 92.156863%)" stroke-opacity="1" stroke-miterlimit="10" d="M 45.152344 163.820312 L 498.519531 163.820312 "/>
</g>
<g clip-path="url(#clip-22)">
<path fill="none" stroke-width="0.533489" stroke-linecap="butt" stroke-linejoin="round" stroke="rgb(92.156863%, 92.156863%, 92.156863%)" stroke-opacity="1" stroke-miterlimit="10" d="M 45.152344 146.867188 L 498.519531 146.867188 "/>
</g>
<g clip-path="url(#clip-23)">
<path fill="none" stroke-width="0.533489" stroke-linecap="butt" stroke-linejoin="round" stroke="rgb(92.156863%, 92.156863%, 92.156863%)" stroke-opacity="1" stroke-miterlimit="10" d="M 45.152344 129.917969 L 498.519531 129.917969 "/>
</g>
<g clip-path="url(#clip-24)">
<path fill="none" stroke-width="0.533489" stroke-linecap="butt" stroke-linejoin="round" stroke="rgb(92.156863%, 92.156863%, 92.156863%)" stroke-opacity="1" stroke-miterlimit="10" d="M 117.277344 198.925781 L 117.277344 122.707031 "/>
</g>
<g clip-path="url(#clip-25)">
<path fill="none" stroke-width="0.533489" stroke-linecap="butt" stroke-linejoin="round" stroke="rgb(92.156863%, 92.156863%, 92.156863%)" stroke-opacity="1" stroke-miterlimit="10" d="M 220.316406 198.925781 L 220.316406 122.707031 "/>
</g>
<g clip-path="url(#clip-26)">
<path fill="none" stroke-width="0.533489" stroke-linecap="butt" stroke-linejoin="round" stroke="rgb(92.156863%, 92.156863%, 92.156863%)" stroke-opacity="1" stroke-miterlimit="10" d="M 323.355469 198.925781 L 323.355469 122.707031 "/>
</g>
<g clip-path="url(#clip-27)">
<path fill="none" stroke-width="0.533489" stroke-linecap="butt" stroke-linejoin="round" stroke="rgb(92.156863%, 92.156863%, 92.156863%)" stroke-opacity="1" stroke-miterlimit="10" d="M 426.394531 198.925781 L 426.394531 122.707031 "/>
</g>
<g clip-path="url(#clip-28)">
<path fill="none" stroke-width="1.066978" stroke-linecap="butt" stroke-linejoin="round" stroke="rgb(92.156863%, 92.156863%, 92.156863%)" stroke-opacity="1" stroke-miterlimit="10" d="M 45.152344 189.246094 L 498.519531 189.246094 "/>
</g>
<g clip-path="url(#clip-29)">
<path fill="none" stroke-width="1.066978" stroke-linecap="butt" stroke-linejoin="round" stroke="rgb(92.156863%, 92.156863%, 92.156863%)" stroke-opacity="1" stroke-miterlimit="10" d="M 45.152344 172.296875 L 498.519531 172.296875 "/>
</g>
<g clip-path="url(#clip-30)">
<path fill="none" stroke-width="1.066978" stroke-linecap="butt" stroke-linejoin="round" stroke="rgb(92.156863%, 92.156863%, 92.156863%)" stroke-opacity="1" stroke-miterlimit="10" d="M 45.152344 155.34375 L 498.519531 155.34375 "/>
</g>
<g clip-path="url(#clip-31)">
<path fill="none" stroke-width="1.066978" stroke-linecap="butt" stroke-linejoin="round" stroke="rgb(92.156863%, 92.156863%, 92.156863%)" stroke-opacity="1" stroke-miterlimit="10" d="M 45.152344 138.394531 L 498.519531 138.394531 "/>
</g>
<g clip-path="url(#clip-32)">
<path fill="none" stroke-width="1.066978" stroke-linecap="butt" stroke-linejoin="round" stroke="rgb(92.156863%, 92.156863%, 92.156863%)" stroke-opacity="1" stroke-miterlimit="10" d="M 65.757812 198.925781 L 65.757812 122.707031 "/>
</g>
<g clip-path="url(#clip-33)">
<path fill="none" stroke-width="1.066978" stroke-linecap="butt" stroke-linejoin="round" stroke="rgb(92.156863%, 92.156863%, 92.156863%)" stroke-opacity="1" stroke-miterlimit="10" d="M 168.796875 198.925781 L 168.796875 122.707031 "/>
</g>
<g clip-path="url(#clip-34)">
<path fill="none" stroke-width="1.066978" stroke-linecap="butt" stroke-linejoin="round" stroke="rgb(92.156863%, 92.156863%, 92.156863%)" stroke-opacity="1" stroke-miterlimit="10" d="M 271.835938 198.925781 L 271.835938 122.707031 "/>
</g>
<g clip-path="url(#clip-35)">
<path fill="none" stroke-width="1.066978" stroke-linecap="butt" stroke-linejoin="round" stroke="rgb(92.156863%, 92.156863%, 92.156863%)" stroke-opacity="1" stroke-miterlimit="10" d="M 374.875 198.925781 L 374.875 122.707031 "/>
</g>
<g clip-path="url(#clip-36)">
<path fill="none" stroke-width="1.066978" stroke-linecap="butt" stroke-linejoin="round" stroke="rgb(92.156863%, 92.156863%, 92.156863%)" stroke-opacity="1" stroke-miterlimit="10" d="M 477.914062 198.925781 L 477.914062 122.707031 "/>
</g>
<path fill="none" stroke-width="1.066978" stroke-linecap="butt" stroke-linejoin="round" stroke="rgb(0%, 0%, 0%)" stroke-opacity="1" stroke-miterlimit="10" d="M 65.757812 140.90625 L 66.789062 141.058594 L 67.820312 156.167969 L 68.847656 160.757812 L 69.878906 177.917969 L 70.910156 186.101562 L 71.941406 192.257812 L 72.972656 195.460938 L 74 195.027344 L 75.03125 193.195312 L 76.0625 194.429688 L 77.09375 190.847656 L 78.121094 189.921875 L 79.152344 187.746094 L 80.183594 187.03125 L 81.214844 187.125 L 82.246094 184.835938 L 83.273438 180.632812 L 84.304688 176.019531 L 85.335938 174.628906 L 86.367188 176.261719 L 87.398438 167.371094 L 88.425781 167.789062 L 89.457031 170.535156 L 90.488281 148.601562 L 91.519531 155.316406 L 92.546875 149.503906 L 93.578125 161.332031 L 94.609375 139.085938 L 95.640625 142.28125 L 96.671875 146.144531 L 97.699219 146.796875 L 98.730469 147.933594 L 99.761719 137.59375 L 100.792969 150.546875 L 101.820312 165.242188 L 102.851562 170.574219 L 103.882812 173.851562 L 104.914062 180.363281 L 105.945312 184.421875 L 106.972656 183.515625 L 108.003906 182.984375 L 109.035156 185.851562 L 110.066406 176.097656 L 111.09375 174.707031 L 112.125 172.433594 L 113.15625 163.464844 L 114.1875 175.335938 L 115.21875 165.394531 L 116.246094 166.199219 L 117.277344 161.058594 L 118.308594 157.597656 L 119.339844 145.160156 L 120.367188 144.511719 L 121.398438 146.269531 L 122.429688 146.664062 L 123.460938 150.648438 L 124.492188 141.953125 L 125.519531 141.703125 L 126.550781 148.320312 L 127.582031 164.246094 L 128.613281 166.671875 L 129.640625 172.765625 L 130.671875 172.414062 L 131.703125 179.546875 L 132.734375 185.996094 L 133.765625 182.90625 L 134.792969 180.644531 L 135.824219 181.125 L 136.855469 179.878906 L 137.886719 173.472656 L 138.914062 173.25 L 139.945312 167.695312 L 140.976562 173.824219 L 142.007812 171.820312 L 143.039062 159.941406 L 144.066406 164.554688 L 145.097656 153.929688 L 146.128906 148.453125 L 147.160156 152.59375 L 148.1875 146.769531 L 149.21875 145.914062 L 150.25 141.96875 L 151.28125 136.921875 L 152.3125 148.292969 L 153.339844 157.078125 L 154.371094 161.414062 L 155.402344 170.453125 L 156.433594 178.589844 L 157.460938 179.464844 L 158.492188 181.226562 L 159.523438 182.707031 L 160.554688 185.539062 L 161.585938 185.074219 L 162.613281 182.898438 L 163.644531 176.253906 L 164.675781 173.519531 L 165.707031 169.125 L 166.734375 172.582031 L 167.765625 168.34375 L 168.796875 162.238281 L 169.828125 159.285156 L 170.859375 149.007812 L 171.886719 145.855469 L 172.917969 151.082031 L 173.949219 132.765625 L 174.980469 148.96875 L 176.007812 133.164062 L 177.039062 148.863281 L 178.070312 136.636719 L 179.101562 154.882812 L 180.132812 158.496094 L 181.160156 160.589844 L 182.191406 175.214844 L 183.222656 174.21875 L 184.253906 177.449219 L 185.28125 185.964844 L 186.3125 184.117188 L 187.34375 179.757812 L 188.375 181.566406 L 189.40625 180.308594 L 190.433594 178.105469 L 191.464844 175.789062 L 192.496094 171.851562 L 193.527344 165.867188 L 194.558594 166.898438 L 195.585938 152.449219 L 196.617188 157.847656 L 197.648438 155.683594 L 198.679688 139.167969 L 199.707031 141.742188 L 200.738281 140.601562 L 201.769531 140.234375 L 202.800781 144.171875 L 203.832031 144.605469 L 204.859375 151.125 L 205.890625 151.109375 L 206.921875 159.640625 L 207.953125 160.613281 L 208.980469 169.402344 L 210.011719 177.304688 L 211.042969 183.070312 L 212.074219 182.515625 L 213.105469 182.203125 L 214.132812 181.015625 L 215.164062 183.5 L 216.195312 183.984375 L 217.226562 174.042969 L 218.253906 173.925781 L 219.285156 173.59375 L 220.316406 171.429688 L 221.347656 163.648438 L 222.378906 159.0625 L 223.40625 154.167969 L 224.4375 144.429688 L 225.46875 148.398438 L 226.5 145.671875 L 227.527344 143.421875 L 228.558594 149.347656 L 229.589844 143.984375 L 230.621094 140.183594 L 231.652344 144.875 L 232.679688 148.457031 L 233.710938 157.675781 L 234.742188 173.25 L 235.773438 173.792969 L 236.800781 182.378906 L 237.832031 177.726562 L 238.863281 182.371094 L 239.894531 187.164062 L 240.925781 181.40625 L 241.953125 183.269531 L 242.984375 176.574219 L 244.015625 172.492188 L 245.046875 165.453125 L 246.074219 170.921875 L 247.105469 173.03125 L 248.136719 163.621094 L 249.167969 164.617188 L 250.199219 156.832031 L 251.226562 159.320312 L 252.257812 147.984375 L 253.289062 140.472656 L 254.320312 149.121094 L 255.347656 143.292969 L 256.378906 140.457031 L 257.410156 145.480469 L 258.441406 139.105469 L 259.472656 161.792969 L 260.5 168.441406 L 261.53125 167.425781 L 262.5625 172.847656 L 263.59375 174.613281 L 264.621094 185.554688 L 265.652344 185.492188 L 266.683594 181.796875 L 267.714844 176.648438 L 268.746094 182.871094 L 269.773438 173.488281 L 270.804688 172.609375 L 271.835938 167.726562 L 272.867188 170.058594 L 273.894531 160.234375 L 274.925781 162.1875 L 275.957031 152.847656 L 276.988281 160.457031 L 278.019531 139.90625 L 279.046875 147.742188 L 280.078125 154.859375 L 281.109375 134.558594 L 282.140625 134.78125 L 283.167969 148.058594 L 284.199219 131.609375 L 285.230469 152.972656 L 286.261719 157.199219 L 287.292969 164.007812 L 288.320312 167.34375 L 289.351562 182.804688 L 290.382812 179.808594 L 291.414062 177.703125 L 292.441406 184.5 L 293.472656 182.296875 L 294.503906 182.238281 L 295.535156 180.15625 L 296.566406 177.109375 L 297.59375 173.972656 L 298.625 162.316406 L 299.65625 169.320312 L 300.6875 170.953125 L 301.71875 162.023438 L 302.746094 152.148438 L 303.777344 151.179688 L 304.808594 149.089844 L 305.839844 142.792969 L 306.867188 145.527344 L 307.898438 146.460938 L 308.929688 139.789062 L 309.960938 143.167969 L 310.992188 145.523438 L 312.019531 143.925781 L 313.050781 159.238281 L 314.082031 164.585938 L 315.113281 177.695312 L 316.140625 176.523438 L 317.171875 179.550781 L 318.203125 184.007812 L 319.234375 183.289062 L 320.265625 178.492188 L 321.292969 181.640625 L 322.324219 176.03125 L 323.355469 178.390625 L 324.386719 173.972656 L 325.414062 166.84375 L 326.445312 167.578125 L 327.476562 168.59375 L 328.507812 160.5625 L 329.539062 153.507812 L 330.566406 152.078125 L 331.597656 148.386719 L 332.628906 156.167969 L 333.660156 156.019531 L 334.6875 126.171875 L 335.71875 145.765625 L 336.75 135.972656 L 337.78125 146.757812 L 338.8125 155.976562 L 339.839844 154.441406 L 340.871094 175.785156 L 341.902344 176.238281 L 342.933594 175.433594 L 343.960938 178.726562 L 344.992188 179.207031 L 346.023438 184.746094 L 347.054688 183.046875 L 348.085938 180.382812 L 349.113281 174.789062 L 350.144531 176.183594 L 351.175781 169.996094 L 352.207031 166.457031 L 353.234375 166.566406 L 354.265625 163.984375 L 355.296875 152.421875 L 356.328125 157.859375 L 357.359375 147.761719 L 358.386719 153.1875 L 359.417969 143.074219 L 360.449219 144.65625 L 361.480469 136.644531 L 362.507812 146.6875 L 363.539062 135.320312 L 364.570312 143.316406 L 365.601562 153.984375 L 366.632812 162.371094 L 367.660156 172.171875 L 368.691406 165.214844 L 369.722656 184.664062 L 370.753906 183.167969 L 371.78125 186.769531 L 372.8125 181.140625 L 373.84375 185.679688 L 374.875 182.148438 L 375.90625 178.59375 L 376.933594 176.5625 L 377.964844 173.8125 L 378.996094 165.53125 L 380.027344 165.800781 L 381.054688 158.027344 L 382.085938 154.078125 L 383.117188 151.171875 L 384.148438 166.5625 L 385.179688 153.144531 L 386.207031 141.058594 L 387.238281 138.851562 L 388.269531 138.113281 L 389.300781 144.386719 L 390.328125 142.214844 L 391.359375 155.382812 L 392.390625 165.722656 L 393.421875 162.417969 L 394.453125 174.140625 L 395.480469 175.601562 L 396.511719 182.25 L 397.542969 183.386719 L 398.574219 182.699219 L 399.601562 182.363281 L 400.632812 175.234375 L 401.664062 173.59375 L 402.695312 176.238281 L 403.726562 179.3125 L 404.753906 176.257812 L 405.785156 168.484375 L 406.816406 169.488281 L 407.847656 166.15625 L 408.878906 149.1875 L 409.90625 152.742188 L 410.9375 155.246094 L 411.96875 146.554688 L 413 151.136719 L 414.027344 143.835938 L 415.058594 150.527344 L 416.089844 135.113281 L 417.121094 147.042969 L 418.152344 159.53125 L 419.179688 163.652344 L 420.210938 172.570312 L 421.242188 166.671875 L 422.273438 179.097656 L 423.300781 189.277344 L 424.332031 184.476562 L 425.363281 185.714844 L 426.394531 181.085938 L 427.425781 176.621094 L 428.453125 177.578125 L 429.484375 172.082031 L 430.515625 177.710938 L 431.546875 170.101562 L 432.574219 167.675781 L 433.605469 166.679688 L 434.636719 161.601562 L 435.667969 153.988281 L 436.699219 157.734375 L 437.726562 143.433594 L 438.757812 150.246094 L 439.789062 133.203125 L 440.820312 145.851562 L 441.847656 145.109375 L 442.878906 149.9375 L 443.910156 143.261719 L 444.941406 153.355469 L 445.972656 163.578125 L 447 173.273438 L 448.03125 170.90625 L 449.0625 179.496094 L 450.09375 186.125 L 451.121094 185.035156 L 452.152344 180.570312 L 453.183594 174.515625 L 454.214844 180.269531 L 455.246094 177.433594 L 456.273438 178.148438 L 457.304688 178 L 458.335938 171.011719 L 459.367188 169.25 L 460.394531 165.3125 L 461.425781 158.203125 L 462.457031 157.136719 L 463.488281 153.707031 L 464.519531 141.601562 L 465.546875 137.046875 L 466.578125 144.367188 L 467.609375 153.78125 L 468.640625 137.773438 L 469.667969 156.957031 L 470.699219 144.058594 L 471.730469 162.964844 L 472.761719 161.125 L 473.792969 173.496094 L 474.820312 179.882812 L 475.851562 182.515625 L 476.882812 184.074219 L 477.914062 183.972656 "/>
<g clip-path="url(#clip-37)">
<path fill="none" stroke-width="1.066978" stroke-linecap="round" stroke-linejoin="round" stroke="rgb(20%, 20%, 20%)" stroke-opacity="1" stroke-miterlimit="10" d="M 45.152344 198.925781 L 498.523438 198.925781 L 498.523438 122.710938 L 45.152344 122.710938 Z M 45.152344 198.925781 "/>
</g>
<g clip-path="url(#clip-38)">
<path fill-rule="nonzero" fill="rgb(100%, 100%, 100%)" fill-opacity="1" d="M 45.152344 298.386719 L 498.523438 298.386719 L 498.523438 222.171875 L 45.152344 222.171875 Z M 45.152344 298.386719 "/>
</g>
<g clip-path="url(#clip-39)">
<path fill="none" stroke-width="0.533489" stroke-linecap="butt" stroke-linejoin="round" stroke="rgb(92.156863%, 92.156863%, 92.156863%)" stroke-opacity="1" stroke-miterlimit="10" d="M 45.152344 292.074219 L 498.519531 292.074219 "/>
</g>
<g clip-path="url(#clip-40)">
<path fill="none" stroke-width="0.533489" stroke-linecap="butt" stroke-linejoin="round" stroke="rgb(92.156863%, 92.156863%, 92.156863%)" stroke-opacity="1" stroke-miterlimit="10" d="M 45.152344 277.898438 L 498.519531 277.898438 "/>
</g>
<g clip-path="url(#clip-41)">
<path fill="none" stroke-width="0.533489" stroke-linecap="butt" stroke-linejoin="round" stroke="rgb(92.156863%, 92.156863%, 92.156863%)" stroke-opacity="1" stroke-miterlimit="10" d="M 45.152344 263.722656 L 498.519531 263.722656 "/>
</g>
<g clip-path="url(#clip-42)">
<path fill="none" stroke-width="0.533489" stroke-linecap="butt" stroke-linejoin="round" stroke="rgb(92.156863%, 92.156863%, 92.156863%)" stroke-opacity="1" stroke-miterlimit="10" d="M 45.152344 249.546875 L 498.519531 249.546875 "/>
</g>
<g clip-path="url(#clip-43)">
<path fill="none" stroke-width="0.533489" stroke-linecap="butt" stroke-linejoin="round" stroke="rgb(92.156863%, 92.156863%, 92.156863%)" stroke-opacity="1" stroke-miterlimit="10" d="M 45.152344 235.371094 L 498.519531 235.371094 "/>
</g>
<g clip-path="url(#clip-44)">
<path fill="none" stroke-width="0.533489" stroke-linecap="butt" stroke-linejoin="round" stroke="rgb(92.156863%, 92.156863%, 92.156863%)" stroke-opacity="1" stroke-miterlimit="10" d="M 117.277344 298.386719 L 117.277344 222.171875 "/>
</g>
<g clip-path="url(#clip-45)">
<path fill="none" stroke-width="0.533489" stroke-linecap="butt" stroke-linejoin="round" stroke="rgb(92.156863%, 92.156863%, 92.156863%)" stroke-opacity="1" stroke-miterlimit="10" d="M 220.316406 298.386719 L 220.316406 222.171875 "/>
</g>
<g clip-path="url(#clip-46)">
<path fill="none" stroke-width="0.533489" stroke-linecap="butt" stroke-linejoin="round" stroke="rgb(92.156863%, 92.156863%, 92.156863%)" stroke-opacity="1" stroke-miterlimit="10" d="M 323.355469 298.386719 L 323.355469 222.171875 "/>
</g>
<g clip-path="url(#clip-47)">
<path fill="none" stroke-width="0.533489" stroke-linecap="butt" stroke-linejoin="round" stroke="rgb(92.156863%, 92.156863%, 92.156863%)" stroke-opacity="1" stroke-miterlimit="10" d="M 426.394531 298.386719 L 426.394531 222.171875 "/>
</g>
<g clip-path="url(#clip-48)">
<path fill="none" stroke-width="1.066978" stroke-linecap="butt" stroke-linejoin="round" stroke="rgb(92.156863%, 92.156863%, 92.156863%)" stroke-opacity="1" stroke-miterlimit="10" d="M 45.152344 284.984375 L 498.519531 284.984375 "/>
</g>
<g clip-path="url(#clip-49)">
<path fill="none" stroke-width="1.066978" stroke-linecap="butt" stroke-linejoin="round" stroke="rgb(92.156863%, 92.156863%, 92.156863%)" stroke-opacity="1" stroke-miterlimit="10" d="M 45.152344 270.8125 L 498.519531 270.8125 "/>
</g>
<g clip-path="url(#clip-50)">
<path fill="none" stroke-width="1.066978" stroke-linecap="butt" stroke-linejoin="round" stroke="rgb(92.156863%, 92.156863%, 92.156863%)" stroke-opacity="1" stroke-miterlimit="10" d="M 45.152344 256.636719 L 498.519531 256.636719 "/>
</g>
<g clip-path="url(#clip-51)">
<path fill="none" stroke-width="1.066978" stroke-linecap="butt" stroke-linejoin="round" stroke="rgb(92.156863%, 92.156863%, 92.156863%)" stroke-opacity="1" stroke-miterlimit="10" d="M 45.152344 242.460938 L 498.519531 242.460938 "/>
</g>
<g clip-path="url(#clip-52)">
<path fill="none" stroke-width="1.066978" stroke-linecap="butt" stroke-linejoin="round" stroke="rgb(92.156863%, 92.156863%, 92.156863%)" stroke-opacity="1" stroke-miterlimit="10" d="M 45.152344 228.285156 L 498.519531 228.285156 "/>
</g>
<g clip-path="url(#clip-53)">
<path fill="none" stroke-width="1.066978" stroke-linecap="butt" stroke-linejoin="round" stroke="rgb(92.156863%, 92.156863%, 92.156863%)" stroke-opacity="1" stroke-miterlimit="10" d="M 65.757812 298.386719 L 65.757812 222.171875 "/>
</g>
<g clip-path="url(#clip-54)">
<path fill="none" stroke-width="1.066978" stroke-linecap="butt" stroke-linejoin="round" stroke="rgb(92.156863%, 92.156863%, 92.156863%)" stroke-opacity="1" stroke-miterlimit="10" d="M 168.796875 298.386719 L 168.796875 222.171875 "/>
</g>
<g clip-path="url(#clip-55)">
<path fill="none" stroke-width="1.066978" stroke-linecap="butt" stroke-linejoin="round" stroke="rgb(92.156863%, 92.156863%, 92.156863%)" stroke-opacity="1" stroke-miterlimit="10" d="M 271.835938 298.386719 L 271.835938 222.171875 "/>
</g>
<g clip-path="url(#clip-56)">
<path fill="none" stroke-width="1.066978" stroke-linecap="butt" stroke-linejoin="round" stroke="rgb(92.156863%, 92.156863%, 92.156863%)" stroke-opacity="1" stroke-miterlimit="10" d="M 374.875 298.386719 L 374.875 222.171875 "/>
</g>
<g clip-path="url(#clip-57)">
<path fill="none" stroke-width="1.066978" stroke-linecap="butt" stroke-linejoin="round" stroke="rgb(92.156863%, 92.156863%, 92.156863%)" stroke-opacity="1" stroke-miterlimit="10" d="M 477.914062 298.386719 L 477.914062 222.171875 "/>
</g>
<path fill="none" stroke-width="1.066978" stroke-linecap="butt" stroke-linejoin="round" stroke="rgb(0%, 0%, 0%)" stroke-opacity="1" stroke-miterlimit="10" d="M 65.757812 256.453125 L 66.789062 266.238281 L 67.820312 278.300781 L 68.847656 289.71875 L 69.878906 294.921875 L 70.910156 291.015625 L 71.941406 279.746094 L 72.972656 264.796875 L 74 250.058594 L 75.03125 238.582031 L 76.0625 231.425781 L 77.09375 227.800781 L 78.121094 226.207031 L 79.152344 225.679688 L 80.183594 225.636719 L 81.214844 225.835938 L 82.246094 226.179688 L 83.273438 226.613281 L 84.304688 227.136719 L 85.335938 227.742188 L 86.367188 228.4375 L 87.398438 229.242188 L 88.425781 230.167969 L 89.457031 231.242188 L 90.488281 232.480469 L 91.519531 233.933594 L 92.546875 235.652344 L 93.578125 237.6875 L 94.609375 240.121094 L 95.640625 243.0625 L 96.671875 246.625 L 97.699219 250.992188 L 98.730469 256.324219 L 99.761719 262.507812 L 100.792969 269.097656 L 101.820312 274.277344 L 102.851562 276.046875 L 103.882812 273.234375 L 104.914062 265.96875 L 105.945312 256.378906 L 106.972656 246.6875 L 108.003906 238.855469 L 109.035156 233.640625 L 110.066406 230.789062 L 111.09375 229.332031 L 112.125 229.058594 L 113.15625 229.472656 L 114.1875 229.980469 L 115.21875 230.765625 L 116.246094 231.78125 L 117.277344 233.03125 L 118.308594 234.515625 L 119.339844 236.277344 L 120.367188 238.390625 L 121.398438 240.929688 L 122.429688 244.027344 L 123.460938 247.824219 L 124.492188 252.457031 L 125.519531 258.019531 L 126.550781 264.332031 L 127.582031 270.539062 L 128.613281 275.023438 L 129.640625 275.621094 L 130.671875 271.652344 L 131.703125 263.664062 L 132.734375 253.742188 L 133.765625 244.328125 L 134.792969 237.167969 L 135.824219 232.628906 L 136.855469 230.304688 L 137.886719 229.234375 L 138.914062 228.941406 L 139.945312 229.546875 L 140.976562 230.25 L 142.007812 231.074219 L 143.039062 232.132812 L 144.066406 233.4375 L 145.097656 235 L 146.128906 236.851562 L 147.160156 239.066406 L 148.1875 241.746094 L 149.21875 244.996094 L 150.25 248.996094 L 151.28125 253.878906 L 152.3125 259.71875 L 153.339844 266.199219 L 154.371094 272.027344 L 155.402344 275.542969 L 156.433594 274.804688 L 157.460938 269.4375 L 158.492188 260.878906 L 159.523438 250.898438 L 160.554688 242.042969 L 161.585938 235.699219 L 162.613281 231.804688 L 163.644531 229.988281 L 164.675781 229.273438 L 165.707031 229.25 L 166.734375 229.707031 L 167.765625 230.410156 L 168.796875 231.347656 L 169.828125 232.503906 L 170.859375 233.902344 L 171.886719 235.5625 L 172.917969 237.535156 L 173.949219 239.90625 L 174.980469 242.761719 L 176.007812 246.257812 L 177.039062 250.554688 L 178.070312 255.761719 L 179.101562 261.882812 L 180.132812 268.285156 L 181.160156 273.632812 L 182.191406 275.945312 L 183.222656 273.59375 L 184.253906 267.058594 L 185.28125 257.597656 L 186.3125 247.742188 L 187.34375 239.605469 L 188.375 234.046875 L 189.40625 231 L 190.433594 229.621094 L 191.464844 229.125 L 192.496094 229.351562 L 193.527344 229.878906 L 194.558594 230.65625 L 195.585938 231.660156 L 196.617188 232.890625 L 197.648438 234.359375 L 198.679688 236.097656 L 199.707031 238.179688 L 200.738281 240.679688 L 201.769531 243.714844 L 202.800781 247.441406 L 203.832031 251.992188 L 204.859375 257.46875 L 205.890625 263.742188 L 206.921875 270.023438 L 207.953125 274.761719 L 208.980469 275.757812 L 210.011719 272.203125 L 211.042969 264.53125 L 212.074219 254.671875 L 213.105469 245.121094 L 214.132812 237.710938 L 215.164062 232.933594 L 216.195312 230.441406 L 217.226562 229.324219 L 218.253906 228.957031 L 219.285156 229.457031 L 220.316406 230.15625 L 221.347656 230.964844 L 222.378906 232.011719 L 223.40625 233.292969 L 224.4375 234.832031 L 225.46875 236.65625 L 226.5 238.832031 L 227.527344 241.464844 L 228.558594 244.652344 L 229.589844 248.574219 L 230.621094 253.371094 L 231.652344 259.113281 L 232.679688 265.59375 L 233.710938 271.558594 L 234.742188 275.367188 L 235.773438 275.109375 L 236.800781 270.101562 L 237.832031 261.785156 L 238.863281 251.839844 L 239.894531 242.785156 L 240.925781 236.1875 L 241.953125 232.078125 L 242.984375 230.082031 L 244.015625 229.316406 L 245.046875 229.226562 L 246.074219 229.648438 L 247.105469 230.332031 L 248.136719 231.246094 L 249.167969 232.378906 L 250.199219 233.753906 L 251.226562 235.386719 L 252.257812 237.328125 L 253.289062 239.65625 L 254.320312 242.457031 L 255.347656 245.882812 L 256.378906 250.097656 L 257.410156 255.207031 L 258.441406 261.265625 L 259.472656 267.695312 L 260.5 273.203125 L 261.53125 275.925781 L 262.5625 273.996094 L 263.59375 267.8125 L 264.621094 258.570312 L 265.652344 248.640625 L 266.683594 240.285156 L 267.714844 234.484375 L 268.746094 231.203125 L 269.773438 229.714844 L 270.804688 229.144531 L 271.835938 229.308594 L 272.867188 229.820312 L 273.894531 230.574219 L 274.925781 231.554688 L 275.957031 232.765625 L 276.988281 234.210938 L 278.019531 235.921875 L 279.046875 237.972656 L 280.078125 240.425781 L 281.109375 243.410156 L 282.140625 247.066406 L 283.167969 251.535156 L 284.199219 256.921875 L 285.230469 263.140625 L 286.261719 269.476562 L 287.292969 274.453125 L 288.320312 275.859375 L 289.351562 272.730469 L 290.382812 265.375 L 291.414062 255.605469 L 292.441406 245.933594 L 293.472656 238.300781 L 294.503906 233.304688 L 295.535156 230.597656 L 296.566406 229.351562 L 297.59375 228.964844 L 298.625 229.445312 L 299.65625 230.066406 L 300.6875 230.863281 L 301.71875 231.890625 L 302.746094 233.15625 L 303.777344 234.667969 L 304.808594 236.453125 L 305.839844 238.605469 L 306.867188 241.191406 L 307.898438 244.339844 L 308.929688 248.203125 L 309.960938 252.90625 L 310.992188 258.53125 L 312.019531 264.875 L 313.050781 271.019531 L 314.082031 275.222656 L 315.113281 275.425781 L 316.140625 271.105469 L 317.171875 262.835938 L 318.203125 252.875 L 319.234375 243.609375 L 320.265625 236.714844 L 321.292969 232.394531 L 322.324219 230.171875 L 323.355469 229.089844 L 324.386719 229.109375 L 325.414062 229.65625 L 326.445312 230.261719 L 327.476562 231.125 L 328.507812 232.21875 L 329.539062 233.550781 L 330.566406 235.128906 L 331.597656 237.007812 L 332.628906 239.273438 L 333.660156 241.996094 L 334.6875 245.332031 L 335.71875 249.417969 L 336.75 254.378906 L 337.78125 260.261719 L 338.8125 266.671875 L 339.839844 272.480469 L 340.871094 275.742188 L 341.902344 274.671875 L 342.933594 269.121094 L 343.960938 260.117188 L 344.992188 250.128906 L 346.023438 241.410156 L 347.054688 235.246094 L 348.085938 231.582031 L 349.113281 229.824219 L 350.144531 229.023438 L 351.175781 229.167969 L 352.207031 229.800781 L 353.234375 230.484375 L 354.265625 231.414062 L 355.296875 232.574219 L 356.328125 233.972656 L 357.359375 235.628906 L 358.386719 237.609375 L 359.417969 239.992188 L 360.449219 242.878906 L 361.480469 246.410156 L 362.507812 250.726562 L 363.539062 255.941406 L 364.570312 262.035156 L 365.601562 268.433594 L 366.632812 273.777344 L 367.660156 275.886719 L 368.691406 273.5625 L 369.722656 266.835938 L 370.753906 257.300781 L 371.78125 247.457031 L 372.8125 239.417969 L 373.84375 233.996094 L 374.875 230.941406 L 375.90625 229.441406 L 376.933594 229 L 377.964844 229.4375 L 378.996094 229.941406 L 380.027344 230.703125 L 381.054688 231.703125 L 382.085938 232.933594 L 383.117188 234.398438 L 384.148438 236.136719 L 385.179688 238.226562 L 386.207031 240.734375 L 387.238281 243.785156 L 388.269531 247.523438 L 389.300781 252.089844 L 390.328125 257.566406 L 392.390625 270.113281 L 393.421875 274.796875 L 394.453125 275.726562 L 395.480469 272.117188 L 396.511719 264.355469 L 397.542969 254.488281 L 398.574219 244.960938 L 399.601562 237.640625 L 400.632812 232.925781 L 401.664062 230.417969 L 402.695312 229.179688 L 403.726562 229.042969 L 404.753906 229.582031 L 405.785156 230.140625 L 406.816406 230.964844 L 407.847656 232.023438 L 408.878906 233.316406 L 409.90625 234.851562 L 410.9375 236.671875 L 411.96875 238.871094 L 413 241.511719 L 414.027344 244.734375 L 415.058594 248.6875 L 416.089844 253.496094 L 417.121094 259.230469 L 418.152344 265.613281 L 419.179688 271.636719 L 420.210938 275.480469 L 421.242188 275.175781 L 422.273438 270.339844 L 423.300781 261.742188 L 424.332031 251.746094 L 425.363281 242.6875 L 426.394531 236.097656 L 427.425781 232.046875 L 428.453125 230.011719 L 429.484375 228.941406 L 430.515625 229.058594 L 431.546875 229.828125 L 432.574219 230.417969 L 433.605469 231.28125 L 434.636719 232.386719 L 435.667969 233.738281 L 436.699219 235.339844 L 437.726562 237.25 L 438.757812 239.554688 L 439.789062 242.332031 L 440.820312 245.730469 L 441.847656 249.902344 L 442.878906 254.96875 L 443.910156 260.953125 L 444.941406 267.347656 L 445.972656 272.945312 L 447 275.8125 L 448.03125 274.171875 L 449.0625 268.199219 L 450.09375 259.003906 L 451.121094 249.078125 L 452.152344 240.613281 L 453.183594 234.640625 L 454.214844 231.285156 L 455.246094 229.816406 L 456.273438 229.199219 L 457.304688 229.308594 L 458.335938 229.808594 L 459.367188 230.554688 L 460.394531 231.523438 L 461.425781 232.722656 L 462.457031 234.164062 L 463.488281 235.867188 L 464.519531 237.898438 L 465.546875 240.34375 L 466.578125 243.296875 L 467.609375 246.921875 L 468.640625 251.363281 L 469.667969 256.734375 L 470.699219 262.96875 L 471.730469 269.296875 L 472.761719 274.300781 L 473.792969 275.882812 L 474.820312 272.785156 L 475.851562 265.628906 L 476.882812 255.921875 L 477.914062 246.230469 "/>
<g clip-path="url(#clip-58)">
<path fill="none" stroke-width="1.066978" stroke-linecap="round" stroke-linejoin="round" stroke="rgb(20%, 20%, 20%)" stroke-opacity="1" stroke-miterlimit="10" d="M 45.152344 298.386719 L 498.523438 298.386719 L 498.523438 222.171875 L 45.152344 222.171875 Z M 45.152344 298.386719 "/>
</g>
<g clip-path="url(#clip-59)">
<path fill-rule="nonzero" fill="rgb(100%, 100%, 100%)" fill-opacity="1" d="M 45.152344 397.847656 L 498.523438 397.847656 L 498.523438 321.632812 L 45.152344 321.632812 Z M 45.152344 397.847656 "/>
</g>
<g clip-path="url(#clip-60)">
<path fill="none" stroke-width="0.533489" stroke-linecap="butt" stroke-linejoin="round" stroke="rgb(92.156863%, 92.156863%, 92.156863%)" stroke-opacity="1" stroke-miterlimit="10" d="M 45.152344 390.511719 L 498.519531 390.511719 "/>
</g>
<g clip-path="url(#clip-61)">
<path fill="none" stroke-width="0.533489" stroke-linecap="butt" stroke-linejoin="round" stroke="rgb(92.156863%, 92.156863%, 92.156863%)" stroke-opacity="1" stroke-miterlimit="10" d="M 45.152344 370.523438 L 498.519531 370.523438 "/>
</g>
<g clip-path="url(#clip-62)">
<path fill="none" stroke-width="0.533489" stroke-linecap="butt" stroke-linejoin="round" stroke="rgb(92.156863%, 92.156863%, 92.156863%)" stroke-opacity="1" stroke-miterlimit="10" d="M 45.152344 350.535156 L 498.519531 350.535156 "/>
</g>
<g clip-path="url(#clip-63)">
<path fill="none" stroke-width="0.533489" stroke-linecap="butt" stroke-linejoin="round" stroke="rgb(92.156863%, 92.156863%, 92.156863%)" stroke-opacity="1" stroke-miterlimit="10" d="M 45.152344 330.546875 L 498.519531 330.546875 "/>
</g>
<g clip-path="url(#clip-64)">
<path fill="none" stroke-width="0.533489" stroke-linecap="butt" stroke-linejoin="round" stroke="rgb(92.156863%, 92.156863%, 92.156863%)" stroke-opacity="1" stroke-miterlimit="10" d="M 117.277344 397.847656 L 117.277344 321.632812 "/>
</g>
<g clip-path="url(#clip-65)">
<path fill="none" stroke-width="0.533489" stroke-linecap="butt" stroke-linejoin="round" stroke="rgb(92.156863%, 92.156863%, 92.156863%)" stroke-opacity="1" stroke-miterlimit="10" d="M 220.316406 397.847656 L 220.316406 321.632812 "/>
</g>
<g clip-path="url(#clip-66)">
<path fill="none" stroke-width="0.533489" stroke-linecap="butt" stroke-linejoin="round" stroke="rgb(92.156863%, 92.156863%, 92.156863%)" stroke-opacity="1" stroke-miterlimit="10" d="M 323.355469 397.847656 L 323.355469 321.632812 "/>
</g>
<g clip-path="url(#clip-67)">
<path fill="none" stroke-width="0.533489" stroke-linecap="butt" stroke-linejoin="round" stroke="rgb(92.156863%, 92.156863%, 92.156863%)" stroke-opacity="1" stroke-miterlimit="10" d="M 426.394531 397.847656 L 426.394531 321.632812 "/>
</g>
<g clip-path="url(#clip-68)">
<path fill="none" stroke-width="1.066978" stroke-linecap="butt" stroke-linejoin="round" stroke="rgb(92.156863%, 92.156863%, 92.156863%)" stroke-opacity="1" stroke-miterlimit="10" d="M 45.152344 380.515625 L 498.519531 380.515625 "/>
</g>
<g clip-path="url(#clip-69)">
<path fill="none" stroke-width="1.066978" stroke-linecap="butt" stroke-linejoin="round" stroke="rgb(92.156863%, 92.156863%, 92.156863%)" stroke-opacity="1" stroke-miterlimit="10" d="M 45.152344 360.527344 L 498.519531 360.527344 "/>
</g>
<g clip-path="url(#clip-70)">
<path fill="none" stroke-width="1.066978" stroke-linecap="butt" stroke-linejoin="round" stroke="rgb(92.156863%, 92.156863%, 92.156863%)" stroke-opacity="1" stroke-miterlimit="10" d="M 45.152344 340.539062 L 498.519531 340.539062 "/>
</g>
<g clip-path="url(#clip-71)">
<path fill="none" stroke-width="1.066978" stroke-linecap="butt" stroke-linejoin="round" stroke="rgb(92.156863%, 92.156863%, 92.156863%)" stroke-opacity="1" stroke-miterlimit="10" d="M 65.757812 397.847656 L 65.757812 321.632812 "/>
</g>
<g clip-path="url(#clip-72)">
<path fill="none" stroke-width="1.066978" stroke-linecap="butt" stroke-linejoin="round" stroke="rgb(92.156863%, 92.156863%, 92.156863%)" stroke-opacity="1" stroke-miterlimit="10" d="M 168.796875 397.847656 L 168.796875 321.632812 "/>
</g>
<g clip-path="url(#clip-73)">
<path fill="none" stroke-width="1.066978" stroke-linecap="butt" stroke-linejoin="round" stroke="rgb(92.156863%, 92.156863%, 92.156863%)" stroke-opacity="1" stroke-miterlimit="10" d="M 271.835938 397.847656 L 271.835938 321.632812 "/>
</g>
<g clip-path="url(#clip-74)">
<path fill="none" stroke-width="1.066978" stroke-linecap="butt" stroke-linejoin="round" stroke="rgb(92.156863%, 92.156863%, 92.156863%)" stroke-opacity="1" stroke-miterlimit="10" d="M 374.875 397.847656 L 374.875 321.632812 "/>
</g>
<g clip-path="url(#clip-75)">
<path fill="none" stroke-width="1.066978" stroke-linecap="butt" stroke-linejoin="round" stroke="rgb(92.156863%, 92.156863%, 92.156863%)" stroke-opacity="1" stroke-miterlimit="10" d="M 477.914062 397.847656 L 477.914062 321.632812 "/>
</g>
<path fill="none" stroke-width="1.066978" stroke-linecap="butt" stroke-linejoin="round" stroke="rgb(0%, 0%, 0%)" stroke-opacity="1" stroke-miterlimit="10" d="M 65.757812 325.097656 L 66.789062 328.398438 L 67.820312 335.09375 L 68.847656 345.921875 L 69.878906 359.828125 L 70.910156 373.960938 L 71.941406 385.339844 L 72.972656 392.132812 L 74 394.386719 L 75.03125 393.480469 L 76.0625 390.847656 L 77.09375 387.398438 L 78.121094 383.605469 L 79.152344 379.679688 L 80.183594 375.722656 L 81.214844 371.777344 L 82.246094 367.867188 L 83.273438 364.011719 L 84.304688 360.214844 L 85.335938 356.496094 L 86.367188 352.863281 L 87.398438 349.335938 L 88.425781 345.929688 L 89.457031 342.667969 L 90.488281 339.582031 L 91.519531 336.699219 L 92.546875 334.070312 L 93.578125 331.753906 L 94.609375 329.839844 L 95.640625 328.429688 L 96.671875 327.671875 L 97.699219 327.78125 L 98.730469 329.046875 L 99.761719 331.824219 L 100.792969 336.550781 L 101.820312 343.164062 L 102.851562 350.902344 L 103.882812 358.53125 L 104.914062 364.5 L 105.945312 367.859375 L 106.972656 368.59375 L 108.003906 367.375 L 109.035156 364.964844 L 110.066406 361.921875 L 111.09375 358.582031 L 112.125 355.097656 L 113.15625 351.601562 L 114.1875 348.195312 L 115.21875 344.886719 L 116.246094 341.707031 L 117.277344 338.699219 L 118.308594 335.90625 L 119.339844 333.382812 L 120.367188 331.1875 L 121.398438 329.402344 L 122.429688 328.160156 L 123.460938 327.625 L 124.492188 328.039062 L 125.519531 329.71875 L 126.550781 333.054688 L 127.582031 338.230469 L 128.613281 345.144531 L 129.640625 353.011719 L 130.671875 360.285156 L 131.703125 365.609375 L 132.734375 368.25 L 133.765625 368.40625 L 134.792969 366.816406 L 135.824219 364.183594 L 136.855469 361.003906 L 137.886719 357.613281 L 138.914062 354.140625 L 139.945312 350.636719 L 140.976562 347.242188 L 142.007812 343.976562 L 143.039062 340.847656 L 144.066406 337.898438 L 145.097656 335.171875 L 146.128906 332.734375 L 147.160156 330.652344 L 148.1875 329.015625 L 149.21875 327.949219 L 150.25 327.648438 L 151.28125 328.367188 L 152.3125 330.445312 L 153.339844 334.304688 L 154.371094 340.050781 L 155.402344 347.304688 L 156.433594 355.136719 L 157.460938 361.921875 L 158.492188 366.4375 L 159.523438 368.292969 L 160.554688 367.871094 L 161.585938 365.921875 L 162.613281 363.117188 L 163.644531 359.855469 L 164.675781 356.429688 L 165.707031 352.957031 L 166.734375 349.511719 L 167.765625 346.15625 L 168.796875 342.917969 L 169.828125 339.839844 L 170.859375 336.957031 L 171.886719 334.316406 L 172.917969 331.984375 L 173.949219 330.039062 L 174.980469 328.574219 L 176.007812 327.738281 L 177.039062 327.75 L 178.070312 328.890625 L 179.101562 331.539062 L 180.132812 336.03125 L 181.160156 342.339844 L 182.191406 349.992188 L 183.222656 357.675781 L 184.253906 363.839844 L 185.28125 367.515625 L 186.3125 368.554688 L 187.34375 367.53125 L 188.375 365.238281 L 189.40625 362.21875 L 190.433594 358.878906 L 191.464844 355.429688 L 192.496094 351.941406 L 193.527344 348.519531 L 194.558594 345.195312 L 195.585938 342 L 196.617188 338.972656 L 197.648438 336.15625 L 198.679688 333.601562 L 199.707031 331.371094 L 200.738281 329.546875 L 201.769531 328.25 L 202.800781 327.640625 L 203.832031 327.957031 L 204.859375 329.496094 L 205.890625 332.664062 L 206.921875 337.675781 L 207.953125 344.457031 L 208.980469 352.3125 L 210.011719 359.695312 L 211.042969 365.246094 L 212.074219 368.136719 L 213.105469 368.5 L 214.132812 367.035156 L 215.164062 364.480469 L 216.195312 361.328125 L 217.226562 357.945312 L 218.253906 354.480469 L 219.285156 350.976562 L 220.316406 347.570312 L 221.347656 344.289062 L 222.378906 341.140625 L 223.40625 338.171875 L 224.4375 335.421875 L 225.46875 332.953125 L 226.5 330.832031 L 227.527344 329.144531 L 228.558594 328.019531 L 229.589844 327.636719 L 230.621094 328.242188 L 231.652344 330.171875 L 232.679688 333.851562 L 233.710938 339.429688 L 234.742188 346.574219 L 235.773438 354.417969 L 236.800781 361.375 L 237.832031 366.128906 L 238.863281 368.234375 L 239.894531 367.996094 L 240.925781 366.160156 L 241.953125 363.414062 L 242.984375 360.183594 L 244.015625 356.765625 L 245.046875 353.296875 L 246.074219 349.84375 L 247.105469 346.476562 L 248.136719 343.226562 L 249.167969 340.132812 L 250.199219 337.226562 L 251.226562 334.558594 L 252.257812 332.195312 L 253.289062 330.207031 L 254.320312 328.691406 L 255.347656 327.789062 L 256.378906 327.707031 L 257.410156 328.71875 L 258.441406 331.199219 L 259.472656 335.511719 L 260.5 341.664062 L 261.53125 349.214844 L 262.5625 356.976562 L 263.59375 363.332031 L 264.621094 367.265625 L 265.652344 368.535156 L 266.683594 367.679688 L 267.714844 365.476562 L 268.746094 362.515625 L 269.773438 359.191406 L 270.804688 355.75 L 271.835938 352.261719 L 272.867188 348.832031 L 273.894531 345.496094 L 274.925781 342.289062 L 275.957031 339.242188 L 276.988281 336.40625 L 278.019531 333.824219 L 279.046875 331.5625 L 280.078125 329.695312 L 281.109375 328.34375 L 282.140625 327.664062 L 283.167969 327.882812 L 284.199219 329.292969 L 285.230469 332.296875 L 286.261719 337.132812 L 287.292969 343.765625 L 288.320312 351.582031 L 289.351562 359.074219 L 290.382812 364.847656 L 291.414062 367.988281 L 292.441406 368.5625 L 293.472656 367.230469 L 294.503906 364.746094 L 295.535156 361.644531 L 296.566406 358.277344 L 297.59375 354.808594 L 298.625 351.300781 L 299.65625 347.894531 L 300.6875 344.59375 L 301.71875 341.433594 L 302.746094 338.445312 L 303.777344 335.671875 L 304.808594 333.175781 L 305.839844 331.015625 L 306.867188 329.277344 L 307.898438 328.089844 L 308.929688 327.632812 L 309.960938 328.140625 L 310.992188 329.949219 L 312.019531 333.429688 L 313.050781 338.75 L 314.082031 345.824219 L 315.113281 353.683594 L 316.140625 360.828125 L 317.171875 365.933594 L 318.203125 368.339844 L 319.234375 368.3125 L 320.265625 366.597656 L 321.292969 363.90625 L 322.324219 360.714844 L 323.355469 357.320312 L 324.386719 353.816406 L 325.414062 350.335938 L 326.445312 346.964844 L 327.476562 343.699219 L 328.507812 340.582031 L 329.539062 337.648438 L 330.566406 334.949219 L 331.597656 332.539062 L 332.628906 330.484375 L 333.660156 328.882812 L 334.6875 327.875 L 335.71875 327.660156 L 336.75 328.492188 L 337.78125 330.734375 L 338.8125 334.730469 L 339.839844 340.566406 L 340.871094 347.992188 L 341.902344 355.808594 L 342.933594 362.503906 L 343.960938 366.871094 L 344.992188 368.546875 L 346.023438 367.964844 L 347.054688 365.921875 L 348.085938 363.046875 L 349.113281 359.765625 L 350.144531 356.339844 L 351.175781 352.839844 L 352.207031 349.375 L 353.234375 346.03125 L 354.265625 342.804688 L 355.296875 339.734375 L 356.328125 336.859375 L 357.359375 334.234375 L 358.386719 331.917969 L 359.417969 329.980469 L 360.449219 328.535156 L 361.480469 327.730469 L 362.507812 327.78125 L 363.539062 328.96875 L 364.570312 331.675781 L 365.601562 336.179688 L 366.632812 342.527344 L 367.660156 350.230469 L 368.691406 357.867188 L 369.722656 364.011719 L 370.753906 367.613281 L 371.78125 368.582031 L 372.8125 367.507812 L 373.84375 365.171875 L 374.875 362.160156 L 375.90625 358.832031 L 376.933594 355.363281 L 377.964844 351.851562 L 378.996094 348.441406 L 380.027344 345.121094 L 381.054688 341.933594 L 382.085938 338.914062 L 383.117188 336.101562 L 384.148438 333.558594 L 385.179688 331.335938 L 386.207031 329.519531 L 387.238281 328.230469 L 388.269531 327.644531 L 389.300781 327.976562 L 390.328125 329.550781 L 391.359375 332.746094 L 392.390625 337.769531 L 393.421875 344.589844 L 394.453125 352.433594 L 395.480469 359.800781 L 396.511719 365.308594 L 397.542969 368.152344 L 398.574219 368.46875 L 399.601562 366.972656 L 400.632812 364.398438 L 401.664062 361.265625 L 402.695312 357.890625 L 403.726562 354.398438 L 404.753906 350.898438 L 405.785156 347.515625 L 406.816406 344.230469 L 407.847656 341.085938 L 408.878906 338.117188 L 409.90625 335.375 L 410.9375 332.914062 L 411.96875 330.792969 L 413 329.109375 L 414.027344 327.992188 L 415.058594 327.632812 L 416.089844 328.269531 L 417.121094 330.25 L 418.152344 333.941406 L 419.179688 339.472656 L 420.210938 346.695312 L 421.242188 354.554688 L 422.273438 361.535156 L 423.300781 366.34375 L 424.332031 368.453125 L 425.363281 368.1875 L 426.394531 366.335938 L 427.425781 363.5625 L 428.453125 360.335938 L 429.484375 356.933594 L 430.515625 353.421875 L 431.546875 349.929688 L 432.574219 346.582031 L 433.605469 343.34375 L 434.636719 340.25 L 435.667969 337.339844 L 436.699219 334.671875 L 437.726562 332.296875 L 438.757812 330.292969 L 439.789062 328.75 L 440.820312 327.820312 L 441.847656 327.703125 L 442.878906 328.664062 L 443.910156 331.078125 L 444.941406 335.289062 L 445.972656 341.320312 L 447 348.824219 L 448.03125 356.578125 L 449.0625 363.027344 L 450.09375 367.085938 L 451.121094 368.476562 L 452.152344 367.695312 L 453.183594 365.554688 L 454.214844 362.609375 L 455.246094 359.285156 L 456.273438 355.851562 L 457.304688 352.371094 L 458.335938 348.9375 L 459.367188 345.601562 L 460.394531 342.390625 L 461.425781 339.339844 L 462.457031 336.492188 L 463.488281 333.902344 L 464.519531 331.628906 L 465.546875 329.753906 L 466.578125 328.382812 L 467.609375 327.671875 L 468.640625 327.855469 L 469.667969 329.214844 L 470.699219 332.164062 L 471.730469 336.972656 L 472.761719 343.546875 L 473.792969 351.324219 L 474.820312 358.847656 L 475.851562 364.65625 L 476.882812 367.882812 L 477.914062 368.527344 "/>
<g clip-path="url(#clip-76)">
<path fill="none" stroke-width="1.066978" stroke-linecap="round" stroke-linejoin="round" stroke="rgb(20%, 20%, 20%)" stroke-opacity="1" stroke-miterlimit="10" d="M 45.152344 397.847656 L 498.523438 397.847656 L 498.523438 321.632812 L 45.152344 321.632812 Z M 45.152344 397.847656 "/>
</g>
<g clip-path="url(#clip-77)">
<path fill-rule="nonzero" fill="rgb(85.098039%, 85.098039%, 85.098039%)" fill-opacity="1" stroke-width="1.066978" stroke-linecap="round" stroke-linejoin="round" stroke="rgb(20%, 20%, 20%)" stroke-opacity="1" stroke-miterlimit="10" d="M 45.152344 321.632812 L 498.523438 321.632812 L 498.523438 303.867188 L 45.152344 303.867188 Z M 45.152344 321.632812 "/>
</g>
<g fill="rgb(10.196078%, 10.196078%, 10.196078%)" fill-opacity="1">
<use xlink:href="#glyph-0-0" x="268.835938" y="315.665039"/>
</g>
<g clip-path="url(#clip-78)">
<path fill-rule="nonzero" fill="rgb(85.098039%, 85.098039%, 85.098039%)" fill-opacity="1" stroke-width="1.066978" stroke-linecap="round" stroke-linejoin="round" stroke="rgb(20%, 20%, 20%)" stroke-opacity="1" stroke-miterlimit="10" d="M 45.152344 222.171875 L 498.523438 222.171875 L 498.523438 204.40625 L 45.152344 204.40625 Z M 45.152344 222.171875 "/>
</g>
<g fill="rgb(10.196078%, 10.196078%, 10.196078%)" fill-opacity="1">
<use xlink:href="#glyph-0-1" x="268.835938" y="216.204102"/>
</g>
<g clip-path="url(#clip-79)">
<path fill-rule="nonzero" fill="rgb(85.098039%, 85.098039%, 85.098039%)" fill-opacity="1" stroke-width="1.066978" stroke-linecap="round" stroke-linejoin="round" stroke="rgb(20%, 20%, 20%)" stroke-opacity="1" stroke-miterlimit="10" d="M 45.152344 122.707031 L 498.523438 122.707031 L 498.523438 104.941406 L 45.152344 104.941406 Z M 45.152344 122.707031 "/>
</g>
<g fill="rgb(10.196078%, 10.196078%, 10.196078%)" fill-opacity="1">
<use xlink:href="#glyph-0-2" x="269.335938" y="116.739258"/>
</g>
<g clip-path="url(#clip-80)">
<path fill-rule="nonzero" fill="rgb(85.098039%, 85.098039%, 85.098039%)" fill-opacity="1" stroke-width="1.066978" stroke-linecap="round" stroke-linejoin="round" stroke="rgb(20%, 20%, 20%)" stroke-opacity="1" stroke-miterlimit="10" d="M 45.152344 23.246094 L 498.523438 23.246094 L 498.523438 5.480469 L 45.152344 5.480469 Z M 45.152344 23.246094 "/>
</g>
<g fill="rgb(10.196078%, 10.196078%, 10.196078%)" fill-opacity="1">
<use xlink:href="#glyph-0-3" x="269.335938" y="17.27832"/>
</g>
<path fill="none" stroke-width="1.066978" stroke-linecap="butt" stroke-linejoin="round" stroke="rgb(20%, 20%, 20%)" stroke-opacity="1" stroke-miterlimit="10" d="M 65.757812 400.589844 L 65.757812 397.847656 "/>
<path fill="none" stroke-width="1.066978" stroke-linecap="butt" stroke-linejoin="round" stroke="rgb(20%, 20%, 20%)" stroke-opacity="1" stroke-miterlimit="10" d="M 168.796875 400.589844 L 168.796875 397.847656 "/>
<path fill="none" stroke-width="1.066978" stroke-linecap="butt" stroke-linejoin="round" stroke="rgb(20%, 20%, 20%)" stroke-opacity="1" stroke-miterlimit="10" d="M 271.835938 400.589844 L 271.835938 397.847656 "/>
<path fill="none" stroke-width="1.066978" stroke-linecap="butt" stroke-linejoin="round" stroke="rgb(20%, 20%, 20%)" stroke-opacity="1" stroke-miterlimit="10" d="M 374.875 400.589844 L 374.875 397.847656 "/>
<path fill="none" stroke-width="1.066978" stroke-linecap="butt" stroke-linejoin="round" stroke="rgb(20%, 20%, 20%)" stroke-opacity="1" stroke-miterlimit="10" d="M 477.914062 400.589844 L 477.914062 397.847656 "/>
<g fill="rgb(30.196078%, 30.196078%, 30.196078%)" fill-opacity="1">
<use xlink:href="#glyph-0-4" x="63.257812" y="409.196289"/>
</g>
<g fill="rgb(30.196078%, 30.196078%, 30.196078%)" fill-opacity="1">
<use xlink:href="#glyph-0-5" x="161.296875" y="409.196289"/>
<use xlink:href="#glyph-0-4" x="166.296875" y="409.196289"/>
<use xlink:href="#glyph-0-4" x="171.296875" y="409.196289"/>
</g>
<g fill="rgb(30.196078%, 30.196078%, 30.196078%)" fill-opacity="1">
<use xlink:href="#glyph-0-6" x="264.335938" y="409.196289"/>
<use xlink:href="#glyph-0-4" x="269.335938" y="409.196289"/>
<use xlink:href="#glyph-0-4" x="274.335938" y="409.196289"/>
</g>
<g fill="rgb(30.196078%, 30.196078%, 30.196078%)" fill-opacity="1">
<use xlink:href="#glyph-0-7" x="367.375" y="409.196289"/>
<use xlink:href="#glyph-0-4" x="372.375" y="409.196289"/>
<use xlink:href="#glyph-0-4" x="377.375" y="409.196289"/>
</g>
<g fill="rgb(30.196078%, 30.196078%, 30.196078%)" fill-opacity="1">
<use xlink:href="#glyph-0-8" x="470.414062" y="409.196289"/>
<use xlink:href="#glyph-0-4" x="475.414062" y="409.196289"/>
<use xlink:href="#glyph-0-4" x="480.414062" y="409.196289"/>
</g>
<g fill="rgb(30.196078%, 30.196078%, 30.196078%)" fill-opacity="1">
<use xlink:href="#glyph-0-7" x="20.21875" y="83.782227"/>
<use xlink:href="#glyph-0-4" x="25.21875" y="83.782227"/>
<use xlink:href="#glyph-0-4" x="30.21875" y="83.782227"/>
<use xlink:href="#glyph-0-4" x="35.21875" y="83.782227"/>
</g>
<g fill="rgb(30.196078%, 30.196078%, 30.196078%)" fill-opacity="1">
<use xlink:href="#glyph-0-9" x="20.21875" y="63.106445"/>
<use xlink:href="#glyph-0-4" x="25.21875" y="63.106445"/>
<use xlink:href="#glyph-0-4" x="30.21875" y="63.106445"/>
<use xlink:href="#glyph-0-4" x="35.21875" y="63.106445"/>
</g>
<g fill="rgb(30.196078%, 30.196078%, 30.196078%)" fill-opacity="1">
<use xlink:href="#glyph-0-10" x="20.21875" y="42.430664"/>
<use xlink:href="#glyph-0-4" x="25.21875" y="42.430664"/>
<use xlink:href="#glyph-0-4" x="30.21875" y="42.430664"/>
<use xlink:href="#glyph-0-4" x="35.21875" y="42.430664"/>
</g>
<path fill="none" stroke-width="1.066978" stroke-linecap="butt" stroke-linejoin="round" stroke="rgb(20%, 20%, 20%)" stroke-opacity="1" stroke-miterlimit="10" d="M 42.410156 80.867188 L 45.152344 80.867188 "/>
<path fill="none" stroke-width="1.066978" stroke-linecap="butt" stroke-linejoin="round" stroke="rgb(20%, 20%, 20%)" stroke-opacity="1" stroke-miterlimit="10" d="M 42.410156 60.191406 L 45.152344 60.191406 "/>
<path fill="none" stroke-width="1.066978" stroke-linecap="butt" stroke-linejoin="round" stroke="rgb(20%, 20%, 20%)" stroke-opacity="1" stroke-miterlimit="10" d="M 42.410156 39.515625 L 45.152344 39.515625 "/>
<g fill="rgb(30.196078%, 30.196078%, 30.196078%)" fill-opacity="1">
<use xlink:href="#glyph-0-5" x="35.21875" y="192.161133"/>
</g>
<g fill="rgb(30.196078%, 30.196078%, 30.196078%)" fill-opacity="1">
<use xlink:href="#glyph-0-6" x="35.21875" y="175.211914"/>
</g>
<g fill="rgb(30.196078%, 30.196078%, 30.196078%)" fill-opacity="1">
<use xlink:href="#glyph-0-7" x="35.21875" y="158.258789"/>
</g>
<g fill="rgb(30.196078%, 30.196078%, 30.196078%)" fill-opacity="1">
<use xlink:href="#glyph-0-8" x="35.21875" y="141.30957"/>
</g>
<path fill="none" stroke-width="1.066978" stroke-linecap="butt" stroke-linejoin="round" stroke="rgb(20%, 20%, 20%)" stroke-opacity="1" stroke-miterlimit="10" d="M 42.410156 189.246094 L 45.152344 189.246094 "/>
<path fill="none" stroke-width="1.066978" stroke-linecap="butt" stroke-linejoin="round" stroke="rgb(20%, 20%, 20%)" stroke-opacity="1" stroke-miterlimit="10" d="M 42.410156 172.296875 L 45.152344 172.296875 "/>
<path fill="none" stroke-width="1.066978" stroke-linecap="butt" stroke-linejoin="round" stroke="rgb(20%, 20%, 20%)" stroke-opacity="1" stroke-miterlimit="10" d="M 42.410156 155.34375 L 45.152344 155.34375 "/>
<path fill="none" stroke-width="1.066978" stroke-linecap="butt" stroke-linejoin="round" stroke="rgb(20%, 20%, 20%)" stroke-opacity="1" stroke-miterlimit="10" d="M 42.410156 138.394531 L 45.152344 138.394531 "/>
<g fill="rgb(30.196078%, 30.196078%, 30.196078%)" fill-opacity="1">
<use xlink:href="#glyph-0-11" x="28.21875" y="287.899414"/>
<use xlink:href="#glyph-0-12" x="33.21875" y="287.899414"/>
<use xlink:href="#glyph-0-4" x="35.21875" y="287.899414"/>
</g>
<g fill="rgb(30.196078%, 30.196078%, 30.196078%)" fill-opacity="1">
<use xlink:href="#glyph-0-11" x="28.21875" y="273.727539"/>
<use xlink:href="#glyph-0-12" x="33.21875" y="273.727539"/>
<use xlink:href="#glyph-0-13" x="35.21875" y="273.727539"/>
</g>
<g fill="rgb(30.196078%, 30.196078%, 30.196078%)" fill-opacity="1">
<use xlink:href="#glyph-0-14" x="28.21875" y="259.551758"/>
<use xlink:href="#glyph-0-12" x="33.21875" y="259.551758"/>
<use xlink:href="#glyph-0-4" x="35.21875" y="259.551758"/>
</g>
<g fill="rgb(30.196078%, 30.196078%, 30.196078%)" fill-opacity="1">
<use xlink:href="#glyph-0-14" x="28.21875" y="245.375977"/>
<use xlink:href="#glyph-0-12" x="33.21875" y="245.375977"/>
<use xlink:href="#glyph-0-13" x="35.21875" y="245.375977"/>
</g>
<g fill="rgb(30.196078%, 30.196078%, 30.196078%)" fill-opacity="1">
<use xlink:href="#glyph-0-10" x="28.21875" y="231.200195"/>
<use xlink:href="#glyph-0-12" x="33.21875" y="231.200195"/>
<use xlink:href="#glyph-0-4" x="35.21875" y="231.200195"/>
</g>
<path fill="none" stroke-width="1.066978" stroke-linecap="butt" stroke-linejoin="round" stroke="rgb(20%, 20%, 20%)" stroke-opacity="1" stroke-miterlimit="10" d="M 42.410156 284.984375 L 45.152344 284.984375 "/>
<path fill="none" stroke-width="1.066978" stroke-linecap="butt" stroke-linejoin="round" stroke="rgb(20%, 20%, 20%)" stroke-opacity="1" stroke-miterlimit="10" d="M 42.410156 270.8125 L 45.152344 270.8125 "/>
<path fill="none" stroke-width="1.066978" stroke-linecap="butt" stroke-linejoin="round" stroke="rgb(20%, 20%, 20%)" stroke-opacity="1" stroke-miterlimit="10" d="M 42.410156 256.636719 L 45.152344 256.636719 "/>
<path fill="none" stroke-width="1.066978" stroke-linecap="butt" stroke-linejoin="round" stroke="rgb(20%, 20%, 20%)" stroke-opacity="1" stroke-miterlimit="10" d="M 42.410156 242.460938 L 45.152344 242.460938 "/>
<path fill="none" stroke-width="1.066978" stroke-linecap="butt" stroke-linejoin="round" stroke="rgb(20%, 20%, 20%)" stroke-opacity="1" stroke-miterlimit="10" d="M 42.410156 228.285156 L 45.152344 228.285156 "/>
<g fill="rgb(30.196078%, 30.196078%, 30.196078%)" fill-opacity="1">
<use xlink:href="#glyph-0-4" x="28.21875" y="383.430664"/>
<use xlink:href="#glyph-0-12" x="33.21875" y="383.430664"/>
<use xlink:href="#glyph-0-4" x="35.21875" y="383.430664"/>
</g>
<g fill="rgb(30.196078%, 30.196078%, 30.196078%)" fill-opacity="1">
<use xlink:href="#glyph-0-4" x="28.21875" y="363.442383"/>
<use xlink:href="#glyph-0-12" x="33.21875" y="363.442383"/>
<use xlink:href="#glyph-0-13" x="35.21875" y="363.442383"/>
</g>
<g fill="rgb(30.196078%, 30.196078%, 30.196078%)" fill-opacity="1">
<use xlink:href="#glyph-0-5" x="28.21875" y="343.454102"/>
<use xlink:href="#glyph-0-12" x="33.21875" y="343.454102"/>
<use xlink:href="#glyph-0-4" x="35.21875" y="343.454102"/>
</g>
<path fill="none" stroke-width="1.066978" stroke-linecap="butt" stroke-linejoin="round" stroke="rgb(20%, 20%, 20%)" stroke-opacity="1" stroke-miterlimit="10" d="M 42.410156 380.515625 L 45.152344 380.515625 "/>
<path fill="none" stroke-width="1.066978" stroke-linecap="butt" stroke-linejoin="round" stroke="rgb(20%, 20%, 20%)" stroke-opacity="1" stroke-miterlimit="10" d="M 42.410156 360.527344 L 45.152344 360.527344 "/>
<path fill="none" stroke-width="1.066978" stroke-linecap="butt" stroke-linejoin="round" stroke="rgb(20%, 20%, 20%)" stroke-opacity="1" stroke-miterlimit="10" d="M 42.410156 340.539062 L 45.152344 340.539062 "/>
<g fill="rgb(0%, 0%, 0%)" fill-opacity="1">
<use xlink:href="#glyph-1-0" x="261.835938" y="422.538086"/>
<use xlink:href="#glyph-1-1" x="264.835938" y="422.538086"/>
<use xlink:href="#glyph-1-2" x="266.835938" y="422.538086"/>
<use xlink:href="#glyph-1-3" x="275.835938" y="422.538086"/>
</g>
</svg>
