<?xml version="1.0" encoding="UTF-8"?>
<svg xmlns="http://www.w3.org/2000/svg" xmlns:xlink="http://www.w3.org/1999/xlink" width="504pt" height="432pt" viewBox="0 0 504 432">
<defs>
<g>
<g id="glyph-0-0">
<path d="M 3.40625 -2.515625 L 5.8125 -6.40625 L 4.84375 -6.40625 L 3.015625 -3.296875 L 1.125 -6.40625 L 0.109375 -6.40625 L 2.59375 -2.515625 L 2.59375 0 L 3.40625 0 Z M 3.40625 -2.515625 "/>
</g>
<g id="glyph-0-1">
<path d="M 3.4375 -3.296875 L 5.609375 -6.40625 L 4.625 -6.40625 L 2.96875 -3.890625 L 1.328125 -6.40625 L 0.328125 -6.40625 L 2.46875 -3.296875 L 0.1875 0 L 1.1875 0 L 2.953125 -2.671875 L 4.703125 0 L 5.703125 0 Z M 3.4375 -3.296875 "/>
</g>
<g id="glyph-0-2">
<path d="M 0.46875 1.921875 L 1.21875 1.921875 L 1.21875 -0.484375 C 1.59375 -0.015625 2.03125 0.203125 2.625 0.203125 C 3.828125 0.203125 4.59375 -0.75 4.59375 -2.21875 C 4.59375 -3.78125 3.84375 -4.734375 2.625 -4.734375 C 2 -4.734375 1.5 -4.453125 1.15625 -3.921875 L 1.15625 -4.609375 L 0.46875 -4.609375 Z M 2.5 -4.0625 C 3.3125 -4.0625 3.828125 -3.34375 3.828125 -2.25 C 3.828125 -1.203125 3.296875 -0.484375 2.5 -0.484375 C 1.71875 -0.484375 1.21875 -1.1875 1.21875 -2.265625 C 1.21875 -3.359375 1.71875 -4.0625 2.5 -4.0625 Z M 2.5 -4.0625 "/>
</g>
<g id="glyph-0-3">
<path d="M 0.609375 -4.609375 L 0.609375 0 L 1.359375 0 L 1.359375 -2.546875 C 1.359375 -3.484375 1.84375 -4.09375 2.609375 -4.09375 C 3.1875 -4.09375 3.546875 -3.75 3.546875 -3.1875 L 3.546875 0 L 4.28125 0 L 4.28125 -3.484375 C 4.28125 -4.25 3.71875 -4.734375 2.828125 -4.734375 C 2.140625 -4.734375 1.703125 -4.484375 1.296875 -3.828125 L 1.296875 -4.609375 Z M 0.609375 -4.609375 "/>
</g>
<g id="glyph-0-4">
<path d="M 2.421875 -6.359375 C 1.84375 -6.359375 1.3125 -6.09375 0.984375 -5.671875 C 0.578125 -5.109375 0.375 -4.25 0.375 -3.078125 C 0.375 -0.9375 1.078125 0.203125 2.421875 0.203125 C 3.734375 0.203125 4.453125 -0.9375 4.453125 -3.03125 C 4.453125 -4.25 4.265625 -5.078125 3.859375 -5.671875 C 3.53125 -6.109375 3.015625 -6.359375 2.421875 -6.359375 Z M 2.421875 -5.671875 C 3.25 -5.671875 3.671875 -4.828125 3.671875 -3.09375 C 3.671875 -1.28125 3.265625 -0.4375 2.40625 -0.4375 C 1.578125 -0.4375 1.171875 -1.3125 1.171875 -3.0625 C 1.171875 -4.828125 1.578125 -5.671875 2.421875 -5.671875 Z M 2.421875 -5.671875 "/>
</g>
<g id="glyph-0-5">
<path d="M 2.28125 -4.53125 L 2.28125 0 L 3.046875 0 L 3.046875 -6.359375 L 2.546875 -6.359375 C 2.265625 -5.390625 2.09375 -5.25 0.890625 -5.09375 L 0.890625 -4.53125 Z M 2.28125 -4.53125 "/>
</g>
<g id="glyph-0-6">
<path d="M 4.453125 -0.765625 L 1.171875 -0.765625 C 1.25 -1.296875 1.53125 -1.625 2.296875 -2.09375 L 3.171875 -2.59375 C 4.046875 -3.0625 4.5 -3.71875 4.5 -4.5 C 4.5 -5.03125 4.28125 -5.53125 3.921875 -5.875 C 3.546875 -6.203125 3.09375 -6.359375 2.5 -6.359375 C 1.703125 -6.359375 1.125 -6.078125 0.78125 -5.53125 C 0.546875 -5.203125 0.453125 -4.796875 0.4375 -4.15625 L 1.21875 -4.15625 C 1.234375 -4.59375 1.296875 -4.84375 1.40625 -5.0625 C 1.59375 -5.4375 2 -5.6875 2.46875 -5.6875 C 3.171875 -5.6875 3.703125 -5.171875 3.703125 -4.484375 C 3.703125 -3.96875 3.40625 -3.53125 2.859375 -3.21875 L 2.046875 -2.75 C 0.75 -2 0.375 -1.40625 0.296875 -0.015625 L 4.453125 -0.015625 Z M 4.453125 -0.765625 "/>
</g>
<g id="glyph-0-7">
<path d="M 1.9375 -2.921875 L 2.359375 -2.921875 C 3.203125 -2.921875 3.65625 -2.53125 3.65625 -1.765625 C 3.65625 -0.96875 3.171875 -0.484375 2.375 -0.484375 C 1.515625 -0.484375 1.109375 -0.921875 1.0625 -1.84375 L 0.28125 -1.84375 C 0.3125 -1.34375 0.40625 -1 0.546875 -0.71875 C 0.875 -0.109375 1.484375 0.203125 2.34375 0.203125 C 3.625 0.203125 4.453125 -0.578125 4.453125 -1.78125 C 4.453125 -2.59375 4.140625 -3.03125 3.390625 -3.296875 C 3.96875 -3.53125 4.265625 -3.96875 4.265625 -4.609375 C 4.265625 -5.703125 3.546875 -6.359375 2.359375 -6.359375 C 1.109375 -6.359375 0.4375 -5.65625 0.40625 -4.3125 L 1.1875 -4.3125 C 1.203125 -4.703125 1.234375 -4.921875 1.328125 -5.109375 C 1.5 -5.46875 1.890625 -5.6875 2.375 -5.6875 C 3.0625 -5.6875 3.46875 -5.265625 3.46875 -4.578125 C 3.46875 -4.140625 3.3125 -3.859375 2.96875 -3.71875 C 2.765625 -3.625 2.484375 -3.59375 1.9375 -3.578125 Z M 1.9375 -2.921875 "/>
</g>
<g id="glyph-0-8">
<path d="M 2.875 -1.546875 L 2.875 0 L 3.65625 0 L 3.65625 -1.546875 L 4.578125 -1.546875 L 4.578125 -2.234375 L 3.65625 -2.234375 L 3.65625 -6.359375 L 3.078125 -6.359375 L 0.25 -2.359375 L 0.25 -1.546875 Z M 2.875 -2.234375 L 0.921875 -2.234375 L 2.875 -5.046875 Z M 2.875 -2.234375 "/>
</g>
<g id="glyph-0-9">
<path d="M 4.375 -4.703125 C 4.234375 -5.75 3.5625 -6.359375 2.609375 -6.359375 C 1.921875 -6.359375 1.3125 -6.03125 0.9375 -5.453125 C 0.546875 -4.828125 0.375 -4.0625 0.375 -2.90625 C 0.375 -1.828125 0.53125 -1.15625 0.90625 -0.59375 C 1.234375 -0.078125 1.78125 0.203125 2.46875 0.203125 C 3.65625 0.203125 4.515625 -0.6875 4.515625 -1.921875 C 4.515625 -3.09375 3.71875 -3.921875 2.609375 -3.921875 C 1.984375 -3.921875 1.5 -3.6875 1.171875 -3.234375 C 1.171875 -4.796875 1.671875 -5.671875 2.5625 -5.671875 C 3.109375 -5.671875 3.484375 -5.328125 3.609375 -4.703125 Z M 2.5 -3.234375 C 3.25 -3.234375 3.71875 -2.703125 3.71875 -1.859375 C 3.71875 -1.0625 3.1875 -0.484375 2.484375 -0.484375 C 1.765625 -0.484375 1.21875 -1.09375 1.21875 -1.90625 C 1.21875 -2.6875 1.734375 -3.234375 2.5 -3.234375 Z M 2.5 -3.234375 "/>
</g>
<g id="glyph-0-10">
<path d="M 0.46875 -1.453125 C 0.609375 -0.40625 1.28125 0.203125 2.234375 0.203125 C 2.921875 0.203125 3.546875 -0.125 3.921875 -0.703125 C 4.296875 -1.328125 4.484375 -2.109375 4.484375 -3.25 C 4.484375 -4.328125 4.3125 -5 3.953125 -5.5625 C 3.609375 -6.09375 3.0625 -6.359375 2.375 -6.359375 C 1.1875 -6.359375 0.328125 -5.46875 0.328125 -4.234375 C 0.328125 -3.0625 1.125 -2.25 2.25 -2.25 C 2.84375 -2.25 3.28125 -2.453125 3.671875 -2.9375 C 3.671875 -1.359375 3.171875 -0.484375 2.28125 -0.484375 C 1.734375 -0.484375 1.359375 -0.828125 1.234375 -1.453125 Z M 2.359375 -5.6875 C 3.09375 -5.6875 3.640625 -5.078125 3.640625 -4.25 C 3.640625 -3.46875 3.109375 -2.921875 2.34375 -2.921875 C 1.59375 -2.921875 1.125 -3.453125 1.125 -4.296875 C 1.125 -5.109375 1.640625 -5.6875 2.359375 -5.6875 Z M 2.359375 -5.6875 "/>
</g>
<g id="glyph-0-11">
<path d="M 4.578125 -6.234375 L 0.40625 -6.234375 L 0.40625 -5.46875 L 3.78125 -5.46875 C 2.28125 -3.359375 1.6875 -2.046875 1.21875 0 L 2.046875 0 C 2.390625 -2 3.171875 -3.71875 4.578125 -5.59375 Z M 4.578125 -6.234375 "/>
</g>
<g id="glyph-0-12">
<path d="M 1.6875 -0.921875 L 0.765625 -0.921875 L 0.765625 0 L 1.6875 0 Z M 1.6875 -0.921875 "/>
</g>
<g id="glyph-0-13">
<path d="M 4.1875 -6.234375 L 0.96875 -6.234375 L 0.5 -2.84375 L 1.21875 -2.84375 C 1.578125 -3.265625 1.875 -3.421875 2.359375 -3.421875 C 3.203125 -3.421875 3.71875 -2.84375 3.71875 -1.921875 C 3.71875 -1.03125 3.203125 -0.484375 2.359375 -0.484375 C 1.6875 -0.484375 1.265625 -0.828125 1.078125 -1.53125 L 0.3125 -1.53125 C 0.40625 -1.015625 0.5 -0.78125 0.6875 -0.546875 C 1.03125 -0.078125 1.671875 0.203125 2.375 0.203125 C 3.640625 0.203125 4.515625 -0.71875 4.515625 -2.03125 C 4.515625 -3.265625 3.6875 -4.109375 2.5 -4.109375 C 2.0625 -4.109375 1.703125 -4 1.34375 -3.734375 L 1.59375 -5.46875 L 4.1875 -5.46875 Z M 4.1875 -6.234375 "/>
</g>
<g id="glyph-0-14">
<path d="M 3.4375 -3.359375 C 4.09375 -3.75 4.296875 -4.0625 4.296875 -4.65625 C 4.296875 -5.671875 3.53125 -6.359375 2.421875 -6.359375 C 1.3125 -6.359375 0.546875 -5.671875 0.546875 -4.671875 C 0.546875 -4.0625 0.75 -3.75 1.390625 -3.359375 C 0.671875 -2.984375 0.328125 -2.46875 0.328125 -1.765625 C 0.328125 -0.609375 1.171875 0.203125 2.421875 0.203125 C 3.65625 0.203125 4.515625 -0.609375 4.515625 -1.765625 C 4.515625 -2.46875 4.15625 -2.984375 3.4375 -3.359375 Z M 2.421875 -5.671875 C 3.078125 -5.671875 3.5 -5.28125 3.5 -4.640625 C 3.5 -4.046875 3.0625 -3.65625 2.421875 -3.65625 C 1.765625 -3.65625 1.34375 -4.046875 1.34375 -4.65625 C 1.34375 -5.28125 1.765625 -5.671875 2.421875 -5.671875 Z M 2.421875 -3 C 3.1875 -3 3.71875 -2.484375 3.71875 -1.75 C 3.71875 -0.984375 3.203125 -0.484375 2.40625 -0.484375 C 1.640625 -0.484375 1.125 -1 1.125 -1.734375 C 1.125 -2.5 1.640625 -3 2.421875 -3 Z M 2.421875 -3 "/>
</g>
<g id="glyph-0-15">
<path d="M 2.5 -2.75 L 0.40625 -2.75 L 0.40625 -2.109375 L 2.5 -2.109375 Z M 2.5 -2.75 "/>
</g>
<g id="glyph-1-0">
<path d="M 2.796875 -5.765625 L 1.84375 -5.765625 L 1.84375 -7.34375 L 0.9375 -7.34375 L 0.9375 -5.765625 L 0.15625 -5.765625 L 0.15625 -5.015625 L 0.9375 -5.015625 L 0.9375 -0.65625 C 0.9375 -0.0625 1.328125 0.25 2.046875 0.25 C 2.28125 0.25 2.484375 0.234375 2.796875 0.171875 L 2.796875 -0.59375 C 2.65625 -0.5625 2.546875 -0.546875 2.359375 -0.546875 C 1.953125 -0.546875 1.84375 -0.65625 1.84375 -1.0625 L 1.84375 -5.015625 L 2.796875 -5.015625 Z M 2.796875 -5.765625 "/>
</g>
<g id="glyph-1-1">
<path d="M 1.65625 -5.765625 L 0.734375 -5.765625 L 0.734375 0 L 1.65625 0 Z M 1.65625 -8.015625 L 0.71875 -8.015625 L 0.71875 -6.859375 L 1.65625 -6.859375 Z M 1.65625 -8.015625 "/>
</g>
<g id="glyph-1-2">
<path d="M 0.765625 -5.765625 L 0.765625 0 L 1.6875 0 L 1.6875 -3.625 C 1.6875 -4.453125 2.296875 -5.125 3.046875 -5.125 C 3.734375 -5.125 4.109375 -4.703125 4.109375 -3.96875 L 4.109375 0 L 5.03125 0 L 5.03125 -3.625 C 5.03125 -4.453125 5.640625 -5.125 6.390625 -5.125 C 7.0625 -5.125 7.453125 -4.703125 7.453125 -3.96875 L 7.453125 0 L 8.375 0 L 8.375 -4.328125 C 8.375 -5.359375 7.78125 -5.921875 6.703125 -5.921875 C 5.9375 -5.921875 5.484375 -5.703125 4.9375 -5.046875 C 4.59375 -5.671875 4.140625 -5.921875 3.390625 -5.921875 C 2.625 -5.921875 2.09375 -5.640625 1.609375 -4.953125 L 1.609375 -5.765625 Z M 0.765625 -5.765625 "/>
</g>
<g id="glyph-1-3">
<path d="M 5.640625 -2.578125 C 5.640625 -3.453125 5.578125 -3.984375 5.40625 -4.40625 C 5.03125 -5.359375 4.15625 -5.921875 3.078125 -5.921875 C 1.46875 -5.921875 0.4375 -4.703125 0.4375 -2.8125 C 0.4375 -0.90625 1.4375 0.25 3.0625 0.25 C 4.375 0.25 5.296875 -0.5 5.515625 -1.75 L 4.59375 -1.75 C 4.34375 -0.984375 3.828125 -0.59375 3.09375 -0.59375 C 2.515625 -0.59375 2.015625 -0.859375 1.703125 -1.34375 C 1.484375 -1.671875 1.40625 -2 1.390625 -2.578125 Z M 1.421875 -3.328125 C 1.5 -4.390625 2.140625 -5.078125 3.0625 -5.078125 C 4 -5.078125 4.65625 -4.359375 4.65625 -3.328125 Z M 1.421875 -3.328125 "/>
</g>
</g>
<clipPath id="clip-0">
<path clip-rule="nonzero" d="M 50.152344 23.246094 L 498.523438 23.246094 L 498.523438 99.460938 L 50.152344 99.460938 Z M 50.152344 23.246094 "/>
</clipPath>
<clipPath id="clip-1">
<path clip-rule="nonzero" d="M 50.152344 91 L 498.523438 91 L 498.523438 92 L 50.152344 92 Z M 50.152344 91 "/>
</clipPath>
<clipPath id="clip-2">
<path clip-rule="nonzero" d="M 50.152344 72 L 498.523438 72 L 498.523438 73 L 50.152344 73 Z M 50.152344 72 "/>
</clipPath>
<clipPath id="clip-3">
<path clip-rule="nonzero" d="M 50.152344 53 L 498.523438 53 L 498.523438 54 L 50.152344 54 Z M 50.152344 53 "/>
</clipPath>
<clipPath id="clip-4">
<path clip-rule="nonzero" d="M 50.152344 34 L 498.523438 34 L 498.523438 35 L 50.152344 35 Z M 50.152344 34 "/>
</clipPath>
<clipPath id="clip-5">
<path clip-rule="nonzero" d="M 121 23.246094 L 122 23.246094 L 122 99.460938 L 121 99.460938 Z M 121 23.246094 "/>
</clipPath>
<clipPath id="clip-6">
<path clip-rule="nonzero" d="M 223 23.246094 L 224 23.246094 L 224 99.460938 L 223 99.460938 Z M 223 23.246094 "/>
</clipPath>
<clipPath id="clip-7">
<path clip-rule="nonzero" d="M 325 23.246094 L 326 23.246094 L 326 99.460938 L 325 99.460938 Z M 325 23.246094 "/>
</clipPath>
<clipPath id="clip-8">
<path clip-rule="nonzero" d="M 426 23.246094 L 428 23.246094 L 428 99.460938 L 426 99.460938 Z M 426 23.246094 "/>
</clipPath>
<clipPath id="clip-9">
<path clip-rule="nonzero" d="M 50.152344 81 L 498.523438 81 L 498.523438 83 L 50.152344 83 Z M 50.152344 81 "/>
</clipPath>
<clipPath id="clip-10">
<path clip-rule="nonzero" d="M 50.152344 62 L 498.523438 62 L 498.523438 64 L 50.152344 64 Z M 50.152344 62 "/>
</clipPath>
<clipPath id="clip-11">
<path clip-rule="nonzero" d="M 50.152344 43 L 498.523438 43 L 498.523438 45 L 50.152344 45 Z M 50.152344 43 "/>
</clipPath>
<clipPath id="clip-12">
<path clip-rule="nonzero" d="M 50.152344 24 L 498.523438 24 L 498.523438 26 L 50.152344 26 Z M 50.152344 24 "/>
</clipPath>
<clipPath id="clip-13">
<path clip-rule="nonzero" d="M 69 23.246094 L 72 23.246094 L 72 99.460938 L 69 99.460938 Z M 69 23.246094 "/>
</clipPath>
<clipPath id="clip-14">
<path clip-rule="nonzero" d="M 171 23.246094 L 173 23.246094 L 173 99.460938 L 171 99.460938 Z M 171 23.246094 "/>
</clipPath>
<clipPath id="clip-15">
<path clip-rule="nonzero" d="M 273 23.246094 L 275 23.246094 L 275 99.460938 L 273 99.460938 Z M 273 23.246094 "/>
</clipPath>
<clipPath id="clip-16">
<path clip-rule="nonzero" d="M 375 23.246094 L 377 23.246094 L 377 99.460938 L 375 99.460938 Z M 375 23.246094 "/>
</clipPath>
<clipPath id="clip-17">
<path clip-rule="nonzero" d="M 477 23.246094 L 479 23.246094 L 479 99.460938 L 477 99.460938 Z M 477 23.246094 "/>
</clipPath>
<clipPath id="clip-18">
<path clip-rule="nonzero" d="M 50.152344 23.246094 L 498.523438 23.246094 L 498.523438 99.460938 L 50.152344 99.460938 Z M 50.152344 23.246094 "/>
</clipPath>
<clipPath id="clip-19">
<path clip-rule="nonzero" d="M 50.152344 122.707031 L 498.523438 122.707031 L 498.523438 198.921875 L 50.152344 198.921875 Z M 50.152344 122.707031 "/>
</clipPath>
<clipPath id="clip-20">
<path clip-rule="nonzero" d="M 50.152344 194 L 498.523438 194 L 498.523438 195 L 50.152344 195 Z M 50.152344 194 "/>
</clipPath>
<clipPath id="clip-21">
<path clip-rule="nonzero" d="M 50.152344 177 L 498.523438 177 L 498.523438 179 L 50.152344 179 Z M 50.152344 177 "/>
</clipPath>
<clipPath id="clip-22">
<path clip-rule="nonzero" d="M 50.152344 161 L 498.523438 161 L 498.523438 162 L 50.152344 162 Z M 50.152344 161 "/>
</clipPath>
<clipPath id="clip-23">
<path clip-rule="nonzero" d="M 50.152344 144 L 498.523438 144 L 498.523438 146 L 50.152344 146 Z M 50.152344 144 "/>
</clipPath>
<clipPath id="clip-24">
<path clip-rule="nonzero" d="M 50.152344 128 L 498.523438 128 L 498.523438 129 L 50.152344 129 Z M 50.152344 128 "/>
</clipPath>
<clipPath id="clip-25">
<path clip-rule="nonzero" d="M 121 122.707031 L 122 122.707031 L 122 198.921875 L 121 198.921875 Z M 121 122.707031 "/>
</clipPath>
<clipPath id="clip-26">
<path clip-rule="nonzero" d="M 223 122.707031 L 224 122.707031 L 224 198.921875 L 223 198.921875 Z M 223 122.707031 "/>
</clipPath>
<clipPath id="clip-27">
<path clip-rule="nonzero" d="M 325 122.707031 L 326 122.707031 L 326 198.921875 L 325 198.921875 Z M 325 122.707031 "/>
</clipPath>
<clipPath id="clip-28">
<path clip-rule="nonzero" d="M 426 122.707031 L 428 122.707031 L 428 198.921875 L 426 198.921875 Z M 426 122.707031 "/>
</clipPath>
<clipPath id="clip-29">
<path clip-rule="nonzero" d="M 50.152344 185 L 498.523438 185 L 498.523438 187 L 50.152344 187 Z M 50.152344 185 "/>
</clipPath>
<clipPath id="clip-30">
<path clip-rule="nonzero" d="M 50.152344 169 L 498.523438 169 L 498.523438 171 L 50.152344 171 Z M 50.152344 169 "/>
</clipPath>
<clipPath id="clip-31">
<path clip-rule="nonzero" d="M 50.152344 152 L 498.523438 152 L 498.523438 154 L 50.152344 154 Z M 50.152344 152 "/>
</clipPath>
<clipPath id="clip-32">
<path clip-rule="nonzero" d="M 50.152344 136 L 498.523438 136 L 498.523438 138 L 50.152344 138 Z M 50.152344 136 "/>
</clipPath>
<clipPath id="clip-33">
<path clip-rule="nonzero" d="M 69 122.707031 L 72 122.707031 L 72 198.921875 L 69 198.921875 Z M 69 122.707031 "/>
</clipPath>
<clipPath id="clip-34">
<path clip-rule="nonzero" d="M 171 122.707031 L 173 122.707031 L 173 198.921875 L 171 198.921875 Z M 171 122.707031 "/>
</clipPath>
<clipPath id="clip-35">
<path clip-rule="nonzero" d="M 273 122.707031 L 275 122.707031 L 275 198.921875 L 273 198.921875 Z M 273 122.707031 "/>
</clipPath>
<clipPath id="clip-36">
<path clip-rule="nonzero" d="M 375 122.707031 L 377 122.707031 L 377 198.921875 L 375 198.921875 Z M 375 122.707031 "/>
</clipPath>
<clipPath id="clip-37">
<path clip-rule="nonzero" d="M 477 122.707031 L 479 122.707031 L 479 198.921875 L 477 198.921875 Z M 477 122.707031 "/>
</clipPath>
<clipPath id="clip-38">
<path clip-rule="nonzero" d="M 50.152344 122.707031 L 498.523438 122.707031 L 498.523438 198.921875 L 50.152344 198.921875 Z M 50.152344 122.707031 "/>
</clipPath>
<clipPath id="clip-39">
<path clip-rule="nonzero" d="M 50.152344 222.171875 L 498.523438 222.171875 L 498.523438 298.386719 L 50.152344 298.386719 Z M 50.152344 222.171875 "/>
</clipPath>
<clipPath id="clip-40">
<path clip-rule="nonzero" d="M 50.152344 291 L 498.523438 291 L 498.523438 292 L 50.152344 292 Z M 50.152344 291 "/>
</clipPath>
<clipPath id="clip-41">
<path clip-rule="nonzero" d="M 50.152344 277 L 498.523438 277 L 498.523438 278 L 50.152344 278 Z M 50.152344 277 "/>
</clipPath>
<clipPath id="clip-42">
<path clip-rule="nonzero" d="M 50.152344 263 L 498.523438 263 L 498.523438 264 L 50.152344 264 Z M 50.152344 263 "/>
</clipPath>
<clipPath id="clip-43">
<path clip-rule="nonzero" d="M 50.152344 249 L 498.523438 249 L 498.523438 251 L 50.152344 251 Z M 50.152344 249 "/>
</clipPath>
<clipPath id="clip-44">
<path clip-rule="nonzero" d="M 50.152344 235 L 498.523438 235 L 498.523438 237 L 50.152344 237 Z M 50.152344 235 "/>
</clipPath>
<clipPath id="clip-45">
<path clip-rule="nonzero" d="M 121 222.171875 L 122 222.171875 L 122 298.386719 L 121 298.386719 Z M 121 222.171875 "/>
</clipPath>
<clipPath id="clip-46">
<path clip-rule="nonzero" d="M 223 222.171875 L 224 222.171875 L 224 298.386719 L 223 298.386719 Z M 223 222.171875 "/>
</clipPath>
<clipPath id="clip-47">
<path clip-rule="nonzero" d="M 325 222.171875 L 326 222.171875 L 326 298.386719 L 325 298.386719 Z M 325 222.171875 "/>
</clipPath>
<clipPath id="clip-48">
<path clip-rule="nonzero" d="M 426 222.171875 L 428 222.171875 L 428 298.386719 L 426 298.386719 Z M 426 222.171875 "/>
</clipPath>
<clipPath id="clip-49">
<path clip-rule="nonzero" d="M 50.152344 284 L 498.523438 284 L 498.523438 286 L 50.152344 286 Z M 50.152344 284 "/>
</clipPath>
<clipPath id="clip-50">
<path clip-rule="nonzero" d="M 50.152344 270 L 498.523438 270 L 498.523438 272 L 50.152344 272 Z M 50.152344 270 "/>
</clipPath>
<clipPath id="clip-51">
<path clip-rule="nonzero" d="M 50.152344 256 L 498.523438 256 L 498.523438 258 L 50.152344 258 Z M 50.152344 256 "/>
</clipPath>
<clipPath id="clip-52">
<path clip-rule="nonzero" d="M 50.152344 242 L 498.523438 242 L 498.523438 244 L 50.152344 244 Z M 50.152344 242 "/>
</clipPath>
<clipPath id="clip-53">
<path clip-rule="nonzero" d="M 50.152344 228 L 498.523438 228 L 498.523438 230 L 50.152344 230 Z M 50.152344 228 "/>
</clipPath>
<clipPath id="clip-54">
<path clip-rule="nonzero" d="M 69 222.171875 L 72 222.171875 L 72 298.386719 L 69 298.386719 Z M 69 222.171875 "/>
</clipPath>
<clipPath id="clip-55">
<path clip-rule="nonzero" d="M 171 222.171875 L 173 222.171875 L 173 298.386719 L 171 298.386719 Z M 171 222.171875 "/>
</clipPath>
<clipPath id="clip-56">
<path clip-rule="nonzero" d="M 273 222.171875 L 275 222.171875 L 275 298.386719 L 273 298.386719 Z M 273 222.171875 "/>
</clipPath>
<clipPath id="clip-57">
<path clip-rule="nonzero" d="M 375 222.171875 L 377 222.171875 L 377 298.386719 L 375 298.386719 Z M 375 222.171875 "/>
</clipPath>
<clipPath id="clip-58">
<path clip-rule="nonzero" d="M 477 222.171875 L 479 222.171875 L 479 298.386719 L 477 298.386719 Z M 477 222.171875 "/>
</clipPath>
<clipPath id="clip-59">
<path clip-rule="nonzero" d="M 50.152344 222.171875 L 498.523438 222.171875 L 498.523438 298.386719 L 50.152344 298.386719 Z M 50.152344 222.171875 "/>
</clipPath>
<clipPath id="clip-60">
<path clip-rule="nonzero" d="M 50.152344 321.632812 L 498.523438 321.632812 L 498.523438 397.847656 L 50.152344 397.847656 Z M 50.152344 321.632812 "/>
</clipPath>
<clipPath id="clip-61">
<path clip-rule="nonzero" d="M 50.152344 395 L 498.523438 395 L 498.523438 397 L 50.152344 397 Z M 50.152344 395 "/>
</clipPath>
<clipPath id="clip-62">
<path clip-rule="nonzero" d="M 50.152344 379 L 498.523438 379 L 498.523438 380 L 50.152344 380 Z M 50.152344 379 "/>
</clipPath>
<clipPath id="clip-63">
<path clip-rule="nonzero" d="M 50.152344 362 L 498.523438 362 L 498.523438 364 L 50.152344 364 Z M 50.152344 362 "/>
</clipPath>
<clipPath id="clip-64">
<path clip-rule="nonzero" d="M 50.152344 346 L 498.523438 346 L 498.523438 348 L 50.152344 348 Z M 50.152344 346 "/>
</clipPath>
<clipPath id="clip-65">
<path clip-rule="nonzero" d="M 50.152344 330 L 498.523438 330 L 498.523438 331 L 50.152344 331 Z M 50.152344 330 "/>
</clipPath>
<clipPath id="clip-66">
<path clip-rule="nonzero" d="M 121 321.632812 L 122 321.632812 L 122 397.847656 L 121 397.847656 Z M 121 321.632812 "/>
</clipPath>
<clipPath id="clip-67">
<path clip-rule="nonzero" d="M 223 321.632812 L 224 321.632812 L 224 397.847656 L 223 397.847656 Z M 223 321.632812 "/>
</clipPath>
<clipPath id="clip-68">
<path clip-rule="nonzero" d="M 325 321.632812 L 326 321.632812 L 326 397.847656 L 325 397.847656 Z M 325 321.632812 "/>
</clipPath>
<clipPath id="clip-69">
<path clip-rule="nonzero" d="M 426 321.632812 L 428 321.632812 L 428 397.847656 L 426 397.847656 Z M 426 321.632812 "/>
</clipPath>
<clipPath id="clip-70">
<path clip-rule="nonzero" d="M 50.152344 387 L 498.523438 387 L 498.523438 389 L 50.152344 389 Z M 50.152344 387 "/>
</clipPath>
<clipPath id="clip-71">
<path clip-rule="nonzero" d="M 50.152344 370 L 498.523438 370 L 498.523438 372 L 50.152344 372 Z M 50.152344 370 "/>
</clipPath>
<clipPath id="clip-72">
<path clip-rule="nonzero" d="M 50.152344 354 L 498.523438 354 L 498.523438 356 L 50.152344 356 Z M 50.152344 354 "/>
</clipPath>
<clipPath id="clip-73">
<path clip-rule="nonzero" d="M 50.152344 338 L 498.523438 338 L 498.523438 340 L 50.152344 340 Z M 50.152344 338 "/>
</clipPath>
<clipPath id="clip-74">
<path clip-rule="nonzero" d="M 50.152344 321.632812 L 498.523438 321.632812 L 498.523438 323 L 50.152344 323 Z M 50.152344 321.632812 "/>
</clipPath>
<clipPath id="clip-75">
<path clip-rule="nonzero" d="M 69 321.632812 L 72 321.632812 L 72 397.847656 L 69 397.847656 Z M 69 321.632812 "/>
</clipPath>
<clipPath id="clip-76">
<path clip-rule="nonzero" d="M 171 321.632812 L 173 321.632812 L 173 397.847656 L 171 397.847656 Z M 171 321.632812 "/>
</clipPath>
<clipPath id="clip-77">
<path clip-rule="nonzero" d="M 273 321.632812 L 275 321.632812 L 275 397.847656 L 273 397.847656 Z M 273 321.632812 "/>
</clipPath>
<clipPath id="clip-78">
<path clip-rule="nonzero" d="M 375 321.632812 L 377 321.632812 L 377 397.847656 L 375 397.847656 Z M 375 321.632812 "/>
</clipPath>
<clipPath id="clip-79">
<path clip-rule="nonzero" d="M 477 321.632812 L 479 321.632812 L 479 397.847656 L 477 397.847656 Z M 477 321.632812 "/>
</clipPath>
<clipPath id="clip-80">
<path clip-rule="nonzero" d="M 50.152344 321.632812 L 498.523438 321.632812 L 498.523438 397.847656 L 50.152344 397.847656 Z M 50.152344 321.632812 "/>
</clipPath>
<clipPath id="clip-81">
<path clip-rule="nonzero" d="M 50.152344 303.867188 L 498.523438 303.867188 L 498.523438 321.632812 L 50.152344 321.632812 Z M 50.152344 303.867188 "/>
</clipPath>
<clipPath id="clip-82">
<path clip-rule="nonzero" d="M 50.152344 204.402344 L 498.523438 204.402344 L 498.523438 222.167969 L 50.152344 222.167969 Z M 50.152344 204.402344 "/>
</clipPath>
<clipPath id="clip-83">
<path clip-rule="nonzero" d="M 50.152344 104.941406 L 498.523438 104.941406 L 498.523438 122.707031 L 50.152344 122.707031 Z M 50.152344 104.941406 "/>
</clipPath>
<clipPath id="clip-84">
<path clip-rule="nonzero" d="M 50.152344 5.480469 L 498.523438 5.480469 L 498.523438 23.246094 L 50.152344 23.246094 Z M 50.152344 5.480469 "/>
</clipPath>
</defs>
<rect x="-50.4" y="-43.2" width="604.8" height="518.4" fill="rgb(100%, 100%, 100%)" fill-opacity="1"/>
<rect x="-50.4" y="-43.2" width="604.8" height="518.4" fill="rgb(100%, 100%, 100%)" fill-opacity="1"/>
<path fill="none" stroke-width="1.066978" stroke-linecap="round" stroke-linejoin="round" stroke="rgb(100%, 100%, 100%)" stroke-opacity="1" stroke-miterlimit="10" d="M 0 432 L 504 432 L 504 0 L 0 0 Z M 0 432 "/>
<g clip-path="url(#clip-0)">
<path fill-rule="nonzero" fill="rgb(100%, 100%, 100%)" fill-opacity="1" d="M 50.152344 99.460938 L 498.523438 99.460938 L 498.523438 23.246094 L 50.152344 23.246094 Z M 50.152344 99.460938 "/>
</g>
<g clip-path="url(#clip-1)">
<path fill="none" stroke-width="0.533489" stroke-linecap="butt" stroke-linejoin="round" stroke="rgb(92.156863%, 92.156863%, 92.156863%)" stroke-opacity="1" stroke-miterlimit="10" d="M 50.152344 91.671875 L 498.519531 91.671875 "/>
</g>
<g clip-path="url(#clip-2)">
<path fill="none" stroke-width="0.533489" stroke-linecap="butt" stroke-linejoin="round" stroke="rgb(92.156863%, 92.156863%, 92.156863%)" stroke-opacity="1" stroke-miterlimit="10" d="M 50.152344 72.652344 L 498.519531 72.652344 "/>
</g>
<g clip-path="url(#clip-3)">
<path fill="none" stroke-width="0.533489" stroke-linecap="butt" stroke-linejoin="round" stroke="rgb(92.156863%, 92.156863%, 92.156863%)" stroke-opacity="1" stroke-miterlimit="10" d="M 50.152344 53.632812 L 498.519531 53.632812 "/>
</g>
<g clip-path="url(#clip-4)">
<path fill="none" stroke-width="0.533489" stroke-linecap="butt" stroke-linejoin="round" stroke="rgb(92.156863%, 92.156863%, 92.156863%)" stroke-opacity="1" stroke-miterlimit="10" d="M 50.152344 34.613281 L 498.519531 34.613281 "/>
</g>
<g clip-path="url(#clip-5)">
<path fill="none" stroke-width="0.533489" stroke-linecap="butt" stroke-linejoin="round" stroke="rgb(92.156863%, 92.156863%, 92.156863%)" stroke-opacity="1" stroke-miterlimit="10" d="M 121.480469 99.460938 L 121.480469 23.246094 "/>
</g>
<g clip-path="url(#clip-6)">
<path fill="none" stroke-width="0.533489" stroke-linecap="butt" stroke-linejoin="round" stroke="rgb(92.156863%, 92.156863%, 92.156863%)" stroke-opacity="1" stroke-miterlimit="10" d="M 223.382812 99.460938 L 223.382812 23.246094 "/>
</g>
<g clip-path="url(#clip-7)">
<path fill="none" stroke-width="0.533489" stroke-linecap="butt" stroke-linejoin="round" stroke="rgb(92.156863%, 92.156863%, 92.156863%)" stroke-opacity="1" stroke-miterlimit="10" d="M 325.285156 99.460938 L 325.285156 23.246094 "/>
</g>
<g clip-path="url(#clip-8)">
<path fill="none" stroke-width="0.533489" stroke-linecap="butt" stroke-linejoin="round" stroke="rgb(92.156863%, 92.156863%, 92.156863%)" stroke-opacity="1" stroke-miterlimit="10" d="M 427.1875 99.460938 L 427.1875 23.246094 "/>
</g>
<g clip-path="url(#clip-9)">
<path fill="none" stroke-width="1.066978" stroke-linecap="butt" stroke-linejoin="round" stroke="rgb(92.156863%, 92.156863%, 92.156863%)" stroke-opacity="1" stroke-miterlimit="10" d="M 50.152344 82.160156 L 498.519531 82.160156 "/>
</g>
<g clip-path="url(#clip-10)">
<path fill="none" stroke-width="1.066978" stroke-linecap="butt" stroke-linejoin="round" stroke="rgb(92.156863%, 92.156863%, 92.156863%)" stroke-opacity="1" stroke-miterlimit="10" d="M 50.152344 63.144531 L 498.519531 63.144531 "/>
</g>
<g clip-path="url(#clip-11)">
<path fill="none" stroke-width="1.066978" stroke-linecap="butt" stroke-linejoin="round" stroke="rgb(92.156863%, 92.156863%, 92.156863%)" stroke-opacity="1" stroke-miterlimit="10" d="M 50.152344 44.125 L 498.519531 44.125 "/>
</g>
<g clip-path="url(#clip-12)">
<path fill="none" stroke-width="1.066978" stroke-linecap="butt" stroke-linejoin="round" stroke="rgb(92.156863%, 92.156863%, 92.156863%)" stroke-opacity="1" stroke-miterlimit="10" d="M 50.152344 25.105469 L 498.519531 25.105469 "/>
</g>
<g clip-path="url(#clip-13)">
<path fill="none" stroke-width="1.066978" stroke-linecap="butt" stroke-linejoin="round" stroke="rgb(92.156863%, 92.156863%, 92.156863%)" stroke-opacity="1" stroke-miterlimit="10" d="M 70.53125 99.460938 L 70.53125 23.246094 "/>
</g>
<g clip-path="url(#clip-14)">
<path fill="none" stroke-width="1.066978" stroke-linecap="butt" stroke-linejoin="round" stroke="rgb(92.156863%, 92.156863%, 92.156863%)" stroke-opacity="1" stroke-miterlimit="10" d="M 172.433594 99.460938 L 172.433594 23.246094 "/>
</g>
<g clip-path="url(#clip-15)">
<path fill="none" stroke-width="1.066978" stroke-linecap="butt" stroke-linejoin="round" stroke="rgb(92.156863%, 92.156863%, 92.156863%)" stroke-opacity="1" stroke-miterlimit="10" d="M 274.335938 99.460938 L 274.335938 23.246094 "/>
</g>
<g clip-path="url(#clip-16)">
<path fill="none" stroke-width="1.066978" stroke-linecap="butt" stroke-linejoin="round" stroke="rgb(92.156863%, 92.156863%, 92.156863%)" stroke-opacity="1" stroke-miterlimit="10" d="M 376.238281 99.460938 L 376.238281 23.246094 "/>
</g>
<g clip-path="url(#clip-17)">
<path fill="none" stroke-width="1.066978" stroke-linecap="butt" stroke-linejoin="round" stroke="rgb(92.156863%, 92.156863%, 92.156863%)" stroke-opacity="1" stroke-miterlimit="10" d="M 478.140625 99.460938 L 478.140625 23.246094 "/>
</g>
<path fill="none" stroke-width="1.066978" stroke-linecap="butt" stroke-linejoin="round" stroke="rgb(0%, 0%, 0%)" stroke-opacity="1" stroke-miterlimit="10" d="M 70.53125 84.027344 L 71.550781 88.730469 L 72.570312 94.382812 L 73.589844 94.664062 L 74.605469 95.90625 L 75.625 94.746094 L 76.644531 91.144531 L 77.664062 83.246094 L 78.683594 71.847656 L 79.703125 60.273438 L 80.722656 40.636719 L 81.742188 33.898438 L 82.757812 49.746094 L 83.777344 43.101562 L 84.796875 50.523438 L 85.816406 38.660156 L 86.835938 44.007812 L 87.855469 45.8125 L 88.875 48.660156 L 89.890625 51.601562 L 90.910156 51.101562 L 91.929688 47.917969 L 92.949219 46.464844 L 93.96875 45.945312 L 94.988281 45.570312 L 96.007812 59.503906 L 97.027344 57.921875 L 98.042969 62.316406 L 99.0625 53.574219 L 100.082031 67.375 L 101.101562 61.464844 L 102.121094 74.058594 L 103.140625 68.074219 L 104.160156 71.945312 L 105.179688 76.476562 L 106.195312 76.128906 L 107.214844 81.347656 L 108.234375 81.875 L 109.253906 82.933594 L 110.273438 75.621094 L 111.292969 75.523438 L 112.3125 69.484375 L 113.328125 71.75 L 114.347656 67.054688 L 115.367188 72.722656 L 116.386719 65.089844 L 117.40625 63.414062 L 118.425781 71.660156 L 119.445312 69.085938 L 120.464844 71.039062 L 121.480469 78.359375 L 122.5 78.328125 L 123.519531 75.316406 L 124.539062 82.757812 L 125.558594 84.964844 L 126.578125 82.679688 L 127.597656 83.617188 L 128.617188 81.988281 L 129.632812 80.867188 L 130.652344 77.109375 L 131.671875 68.183594 L 132.691406 58.699219 L 133.710938 53.648438 L 134.730469 56.84375 L 135.75 62.328125 L 136.769531 56.085938 L 137.785156 62.492188 L 138.804688 61.6875 L 139.824219 71.253906 L 140.84375 75.9375 L 141.863281 82.375 L 142.882812 85.09375 L 143.902344 91.1875 L 144.917969 95.039062 L 145.9375 95.558594 L 146.957031 95.449219 L 147.976562 94.285156 L 148.996094 89.898438 L 150.015625 78.941406 L 151.035156 67.960938 L 152.054688 53.628906 L 153.070312 54.691406 L 154.089844 42.433594 L 155.109375 36.898438 L 156.128906 26.710938 L 157.148438 39.539062 L 158.167969 34.539062 L 159.1875 47.046875 L 160.207031 45.6875 L 161.222656 44.269531 L 162.242188 44.074219 L 163.261719 42.902344 L 164.28125 50.601562 L 165.300781 46.425781 L 166.320312 60.96875 L 167.339844 54.851562 L 168.355469 60.496094 L 169.375 58.566406 L 170.394531 63.617188 L 171.414062 62.574219 L 172.433594 68.625 L 173.453125 62.101562 L 174.472656 69.675781 L 175.492188 73.460938 L 176.507812 69.664062 L 177.527344 66.609375 L 178.546875 75.121094 L 179.566406 73.300781 L 180.585938 74.042969 L 181.605469 77.984375 L 182.625 80.511719 L 183.644531 78.636719 L 184.660156 83.539062 L 185.679688 81.996094 L 186.699219 80.835938 L 187.71875 79.804688 L 188.738281 76.273438 L 189.757812 76.582031 L 190.777344 77.066406 L 191.792969 69.265625 L 192.8125 71.023438 L 193.832031 69.886719 L 194.851562 64.707031 L 195.871094 66.953125 L 196.890625 64.40625 L 197.910156 69.128906 L 198.929688 66.671875 L 199.945312 60.019531 L 200.964844 63.847656 L 201.984375 66.171875 L 203.003906 69.648438 L 204.023438 66.0625 L 205.042969 70.203125 L 206.0625 76.632812 L 207.082031 74.441406 L 208.097656 77.488281 L 209.117188 82.554688 L 210.136719 84.476562 L 211.15625 82.175781 L 212.175781 82.152344 L 213.195312 82.277344 L 214.214844 83.808594 L 215.230469 80.503906 L 216.25 69.671875 L 217.269531 70.101562 L 218.289062 73.707031 L 219.308594 60.308594 L 220.328125 62.476562 L 221.347656 67.703125 L 222.367188 66.75 L 223.382812 62.554688 L 224.402344 69.613281 L 225.421875 76.304688 L 226.441406 68.347656 L 227.460938 63.84375 L 228.480469 69.652344 L 229.5 76.445312 L 230.519531 78.414062 L 231.535156 83.164062 L 232.554688 82.457031 L 233.574219 82.65625 L 234.59375 85.429688 L 235.613281 86.539062 L 236.632812 85.355469 L 237.652344 81.652344 L 238.667969 74.46875 L 239.6875 67.183594 L 240.707031 55.980469 L 241.726562 55.21875 L 242.746094 60.316406 L 243.765625 48.472656 L 244.785156 59.652344 L 245.804688 59.582031 L 246.820312 55.078125 L 247.839844 68.222656 L 248.859375 62.015625 L 249.878906 65.894531 L 250.898438 65.136719 L 251.917969 67.882812 L 252.9375 71.574219 L 253.957031 74.070312 L 254.972656 79.386719 L 255.992188 87.347656 L 257.011719 87.8125 L 258.03125 88.765625 L 259.050781 88.773438 L 260.070312 87.058594 L 261.089844 82.027344 L 262.105469 76.140625 L 263.125 69.90625 L 264.144531 68.84375 L 265.164062 55.390625 L 266.183594 51.6875 L 267.203125 58.132812 L 268.222656 55.296875 L 269.242188 57.136719 L 270.257812 54.765625 L 271.277344 62.320312 L 272.296875 57.683594 L 273.316406 68.953125 L 274.335938 66.996094 L 275.355469 63.941406 L 276.375 63.980469 L 277.394531 70.144531 L 278.410156 73.039062 L 279.429688 79.273438 L 280.449219 81.253906 L 281.46875 84.652344 L 282.488281 85.210938 L 283.507812 87.757812 L 284.527344 83.230469 L 285.542969 82.207031 L 286.5625 78.59375 L 287.582031 71.550781 L 288.601562 65.269531 L 289.621094 56.585938 L 290.640625 63.949219 L 291.660156 64.421875 L 292.679688 62.5 L 293.695312 59.027344 L 294.714844 59.113281 L 295.734375 65.515625 L 296.753906 69.441406 L 297.773438 57.667969 L 298.792969 69.382812 L 299.8125 69.097656 L 300.832031 74.316406 L 301.847656 78.71875 L 302.867188 83.425781 L 303.886719 89.878906 L 304.90625 95.226562 L 305.925781 95.996094 L 306.945312 95.894531 L 307.964844 91.320312 L 308.980469 84.179688 L 310 78.378906 L 311.019531 66.3125 L 312.039062 49.726562 L 313.058594 46.890625 L 314.078125 46.933594 L 315.097656 41.667969 L 316.117188 32.460938 L 317.132812 48.234375 L 318.152344 43.929688 L 319.171875 41.851562 L 320.191406 52.847656 L 321.210938 48.738281 L 322.230469 50.171875 L 323.25 53.605469 L 324.269531 56.082031 L 325.285156 53.488281 L 326.304688 58.519531 L 327.324219 62.023438 L 328.34375 63.9375 L 329.363281 59.257812 L 330.382812 67.3125 L 331.402344 69.28125 L 332.417969 73.929688 L 333.4375 78.949219 L 334.457031 85.855469 L 335.476562 92.269531 L 336.496094 94.996094 L 337.515625 95.917969 L 338.535156 95.460938 L 339.554688 92.789062 L 340.570312 87.910156 L 341.589844 81 L 342.609375 72.675781 L 343.628906 62.148438 L 344.648438 48.980469 L 345.667969 50.082031 L 346.6875 55.457031 L 347.707031 37.972656 L 348.722656 49.765625 L 349.742188 47.625 L 350.761719 41.894531 L 351.78125 40.433594 L 352.800781 46.816406 L 353.820312 59.636719 L 354.839844 50.441406 L 355.855469 51.121094 L 356.875 61.050781 L 357.894531 49.390625 L 358.914062 56.203125 L 359.933594 64.898438 L 360.953125 68.417969 L 361.972656 69.285156 L 362.992188 76.097656 L 364.007812 79.28125 L 365.027344 81.234375 L 366.046875 81.335938 L 367.066406 86 L 368.085938 90.722656 L 369.105469 93.070312 L 370.125 95.277344 L 371.144531 93.871094 L 372.160156 94.410156 L 373.179688 87.386719 L 374.199219 83.546875 L 375.21875 75.585938 L 376.238281 67.363281 L 377.257812 62.457031 L 378.277344 57.753906 L 379.296875 48.28125 L 380.3125 61.210938 L 381.332031 48.648438 L 382.351562 48.242188 L 383.371094 42.253906 L 384.390625 43.199219 L 385.410156 40.351562 L 386.429688 58.503906 L 387.445312 55.457031 L 388.464844 53.59375 L 389.484375 62.839844 L 390.503906 66.445312 L 391.523438 64.589844 L 392.542969 73.347656 L 393.5625 72.351562 L 394.582031 79.644531 L 395.597656 80.507812 L 396.617188 84.820312 L 397.636719 86.605469 L 398.65625 93.3125 L 399.675781 94.757812 L 400.695312 95.292969 L 401.714844 92.953125 L 402.734375 90.652344 L 403.75 83.601562 L 404.769531 66.117188 L 405.789062 62.773438 L 406.808594 59.867188 L 407.828125 54.785156 L 408.847656 42.054688 L 409.867188 38.597656 L 410.882812 43.953125 L 411.902344 47.226562 L 412.921875 55.324219 L 413.941406 52.335938 L 414.960938 44.761719 L 415.980469 49.601562 L 417 52.328125 L 418.019531 67.269531 L 419.035156 62 L 420.054688 66.21875 L 421.074219 71.925781 L 422.09375 69.535156 L 423.113281 75.796875 L 424.132812 78.289062 L 425.152344 82.789062 L 426.171875 86.554688 L 427.1875 87.589844 L 428.207031 87.640625 L 429.226562 85.757812 L 430.246094 80.886719 L 431.265625 81.195312 L 432.285156 73.203125 L 433.304688 68.507812 L 434.320312 68.328125 L 435.339844 56.203125 L 436.359375 55.515625 L 437.378906 56.789062 L 438.398438 53.472656 L 439.417969 56.066406 L 440.4375 59.683594 L 441.457031 67.902344 L 442.472656 64.027344 L 443.492188 64.070312 L 444.511719 78.777344 L 445.53125 79.980469 L 446.550781 81.972656 L 447.570312 85.226562 L 448.589844 88.015625 L 449.609375 88.003906 L 450.625 85.445312 L 451.644531 79.253906 L 452.664062 78.449219 L 453.683594 66.777344 L 454.703125 74.296875 L 455.722656 59.664062 L 456.742188 60.660156 L 457.757812 63.296875 L 458.777344 63.992188 L 459.796875 54 L 460.816406 58.304688 L 461.835938 60.800781 L 462.855469 66.453125 L 463.875 59.824219 L 464.894531 77.171875 L 465.910156 76.078125 L 466.929688 81.046875 L 467.949219 82.601562 L 468.96875 90.59375 L 469.988281 93.175781 L 471.007812 95.277344 L 472.027344 94.65625 L 473.046875 92.390625 L 474.0625 89.625 L 475.082031 78.84375 L 476.101562 65.5 L 477.121094 59.179688 L 478.140625 63.160156 "/>
<g clip-path="url(#clip-18)">
<path fill="none" stroke-width="1.066978" stroke-linecap="round" stroke-linejoin="round" stroke="rgb(20%, 20%, 20%)" stroke-opacity="1" stroke-miterlimit="10" d="M 50.152344 99.460938 L 498.523438 99.460938 L 498.523438 23.246094 L 50.152344 23.246094 Z M 50.152344 99.460938 "/>
</g>
<g clip-path="url(#clip-19)">
<path fill-rule="nonzero" fill="rgb(100%, 100%, 100%)" fill-opacity="1" d="M 50.152344 198.925781 L 498.523438 198.925781 L 498.523438 122.710938 L 50.152344 122.710938 Z M 50.152344 198.925781 "/>
</g>
<g clip-path="url(#clip-20)">
<path fill="none" stroke-width="0.533489" stroke-linecap="butt" stroke-linejoin="round" stroke="rgb(92.156863%, 92.156863%, 92.156863%)" stroke-opacity="1" stroke-miterlimit="10" d="M 50.152344 194.511719 L 498.519531 194.511719 "/>
</g>
<g clip-path="url(#clip-21)">
<path fill="none" stroke-width="0.533489" stroke-linecap="butt" stroke-linejoin="round" stroke="rgb(92.156863%, 92.156863%, 92.156863%)" stroke-opacity="1" stroke-miterlimit="10" d="M 50.152344 177.960938 L 498.519531 177.960938 "/>
</g>
<g clip-path="url(#clip-22)">
<path fill="none" stroke-width="0.533489" stroke-linecap="butt" stroke-linejoin="round" stroke="rgb(92.156863%, 92.156863%, 92.156863%)" stroke-opacity="1" stroke-miterlimit="10" d="M 50.152344 161.410156 L 498.519531 161.410156 "/>
</g>
<g clip-path="url(#clip-23)">
<path fill="none" stroke-width="0.533489" stroke-linecap="butt" stroke-linejoin="round" stroke="rgb(92.156863%, 92.156863%, 92.156863%)" stroke-opacity="1" stroke-miterlimit="10" d="M 50.152344 144.859375 L 498.519531 144.859375 "/>
</g>
<g clip-path="url(#clip-24)">
<path fill="none" stroke-width="0.533489" stroke-linecap="butt" stroke-linejoin="round" stroke="rgb(92.156863%, 92.156863%, 92.156863%)" stroke-opacity="1" stroke-miterlimit="10" d="M 50.152344 128.304688 L 498.519531 128.304688 "/>
</g>
<g clip-path="url(#clip-25)">
<path fill="none" stroke-width="0.533489" stroke-linecap="butt" stroke-linejoin="round" stroke="rgb(92.156863%, 92.156863%, 92.156863%)" stroke-opacity="1" stroke-miterlimit="10" d="M 121.480469 198.925781 L 121.480469 122.707031 "/>
</g>
<g clip-path="url(#clip-26)">
<path fill="none" stroke-width="0.533489" stroke-linecap="butt" stroke-linejoin="round" stroke="rgb(92.156863%, 92.156863%, 92.156863%)" stroke-opacity="1" stroke-miterlimit="10" d="M 223.382812 198.925781 L 223.382812 122.707031 "/>
</g>
<g clip-path="url(#clip-27)">
<path fill="none" stroke-width="0.533489" stroke-linecap="butt" stroke-linejoin="round" stroke="rgb(92.156863%, 92.156863%, 92.156863%)" stroke-opacity="1" stroke-miterlimit="10" d="M 325.285156 198.925781 L 325.285156 122.707031 "/>
</g>
<g clip-path="url(#clip-28)">
<path fill="none" stroke-width="0.533489" stroke-linecap="butt" stroke-linejoin="round" stroke="rgb(92.156863%, 92.156863%, 92.156863%)" stroke-opacity="1" stroke-miterlimit="10" d="M 427.1875 198.925781 L 427.1875 122.707031 "/>
</g>
<g clip-path="url(#clip-29)">
<path fill="none" stroke-width="1.066978" stroke-linecap="butt" stroke-linejoin="round" stroke="rgb(92.156863%, 92.156863%, 92.156863%)" stroke-opacity="1" stroke-miterlimit="10" d="M 50.152344 186.238281 L 498.519531 186.238281 "/>
</g>
<g clip-path="url(#clip-30)">
<path fill="none" stroke-width="1.066978" stroke-linecap="butt" stroke-linejoin="round" stroke="rgb(92.156863%, 92.156863%, 92.156863%)" stroke-opacity="1" stroke-miterlimit="10" d="M 50.152344 169.683594 L 498.519531 169.683594 "/>
</g>
<g clip-path="url(#clip-31)">
<path fill="none" stroke-width="1.066978" stroke-linecap="butt" stroke-linejoin="round" stroke="rgb(92.156863%, 92.156863%, 92.156863%)" stroke-opacity="1" stroke-miterlimit="10" d="M 50.152344 153.132812 L 498.519531 153.132812 "/>
</g>
<g clip-path="url(#clip-32)">
<path fill="none" stroke-width="1.066978" stroke-linecap="butt" stroke-linejoin="round" stroke="rgb(92.156863%, 92.156863%, 92.156863%)" stroke-opacity="1" stroke-miterlimit="10" d="M 50.152344 136.582031 L 498.519531 136.582031 "/>
</g>
<g clip-path="url(#clip-33)">
<path fill="none" stroke-width="1.066978" stroke-linecap="butt" stroke-linejoin="round" stroke="rgb(92.156863%, 92.156863%, 92.156863%)" stroke-opacity="1" stroke-miterlimit="10" d="M 70.53125 198.925781 L 70.53125 122.707031 "/>
</g>
<g clip-path="url(#clip-34)">
<path fill="none" stroke-width="1.066978" stroke-linecap="butt" stroke-linejoin="round" stroke="rgb(92.156863%, 92.156863%, 92.156863%)" stroke-opacity="1" stroke-miterlimit="10" d="M 172.433594 198.925781 L 172.433594 122.707031 "/>
</g>
<g clip-path="url(#clip-35)">
<path fill="none" stroke-width="1.066978" stroke-linecap="butt" stroke-linejoin="round" stroke="rgb(92.156863%, 92.156863%, 92.156863%)" stroke-opacity="1" stroke-miterlimit="10" d="M 274.335938 198.925781 L 274.335938 122.707031 "/>
</g>
<g clip-path="url(#clip-36)">
<path fill="none" stroke-width="1.066978" stroke-linecap="butt" stroke-linejoin="round" stroke="rgb(92.156863%, 92.156863%, 92.156863%)" stroke-opacity="1" stroke-miterlimit="10" d="M 376.238281 198.925781 L 376.238281 122.707031 "/>
</g>
<g clip-path="url(#clip-37)">
<path fill="none" stroke-width="1.066978" stroke-linecap="butt" stroke-linejoin="round" stroke="rgb(92.156863%, 92.156863%, 92.156863%)" stroke-opacity="1" stroke-miterlimit="10" d="M 478.140625 198.925781 L 478.140625 122.707031 "/>
</g>
<path fill="none" stroke-width="1.066978" stroke-linecap="butt" stroke-linejoin="round" stroke="rgb(0%, 0%, 0%)" stroke-opacity="1" stroke-miterlimit="10" d="M 70.53125 128.882812 L 71.550781 143.011719 L 72.570312 154.769531 L 73.589844 163.820312 L 74.605469 179.179688 L 75.625 186.304688 L 76.644531 189.730469 L 77.664062 190.742188 L 78.683594 189.652344 L 79.703125 192.4375 L 80.722656 195.460938 L 81.742188 195.046875 L 82.757812 192.617188 L 83.777344 188.644531 L 84.796875 188.523438 L 85.816406 187.972656 L 86.835938 189.21875 L 87.855469 179.523438 L 88.875 179.648438 L 89.890625 177.976562 L 90.910156 175.1875 L 91.929688 174.253906 L 92.949219 172.050781 L 93.96875 166.324219 L 94.988281 164.1875 L 96.007812 172.355469 L 97.027344 158.515625 L 98.042969 152.964844 L 99.0625 156.363281 L 100.082031 153.675781 L 101.101562 147.265625 L 102.121094 155.527344 L 103.140625 145.042969 L 104.160156 145.609375 L 105.179688 148.105469 L 106.195312 143.339844 L 107.214844 152.023438 L 108.234375 155.007812 L 109.253906 160.1875 L 110.273438 162.996094 L 111.292969 165.824219 L 112.3125 166.429688 L 113.328125 157.511719 L 114.347656 144.625 L 115.367188 153.011719 L 116.386719 141.878906 L 117.40625 144.953125 L 118.425781 141.4375 L 119.445312 131.867188 L 120.464844 144.292969 L 121.480469 152.484375 L 122.5 146.796875 L 123.519531 158.886719 L 124.539062 140.9375 L 125.558594 150.167969 L 126.578125 163.347656 L 127.597656 161.21875 L 128.617188 158.335938 L 129.632812 163.15625 L 130.652344 170.539062 L 131.671875 173.554688 L 132.691406 168.296875 L 133.710938 160.453125 L 134.730469 167.753906 L 135.75 160.921875 L 136.769531 149.460938 L 137.785156 146.542969 L 138.804688 133.351562 L 139.824219 143.769531 L 140.84375 140.980469 L 141.863281 131.488281 L 142.882812 139 L 143.902344 146.441406 L 144.917969 156.71875 L 145.9375 167.917969 L 146.957031 175.246094 L 147.976562 188.753906 L 148.996094 191.960938 L 150.015625 191.945312 L 151.035156 190.414062 L 152.054688 187.550781 L 153.070312 190.234375 L 154.089844 190.496094 L 155.109375 189.210938 L 156.128906 188.316406 L 157.148438 185.347656 L 158.167969 183.503906 L 159.1875 177.476562 L 160.207031 172.671875 L 161.222656 173.074219 L 162.242188 179.742188 L 163.261719 174.695312 L 164.28125 165.71875 L 165.300781 159.425781 L 166.320312 157.875 L 167.339844 159.617188 L 168.355469 155.820312 L 169.375 149.152344 L 170.394531 157.640625 L 171.414062 145.945312 L 172.433594 155.769531 L 173.453125 151.265625 L 174.472656 151.445312 L 175.492188 149.808594 L 176.507812 157.085938 L 177.527344 145.808594 L 178.546875 143.058594 L 179.566406 144.054688 L 180.585938 143.144531 L 181.605469 142.605469 L 182.625 150.042969 L 183.644531 157.171875 L 184.660156 146.921875 L 185.679688 158.804688 L 186.699219 154.488281 L 187.71875 163.179688 L 188.738281 158.0625 L 189.757812 162.382812 L 190.777344 163.414062 L 191.792969 160.878906 L 192.8125 168.929688 L 193.832031 154.832031 L 194.851562 156.429688 L 195.871094 159.613281 L 196.890625 163.152344 L 197.910156 162.582031 L 198.929688 145.238281 L 199.945312 152.679688 L 200.964844 146.578125 L 201.984375 147.753906 L 203.003906 139.792969 L 204.023438 145.933594 L 205.042969 149.484375 L 206.0625 142.902344 L 207.082031 142.554688 L 208.097656 136.570312 L 209.117188 145.816406 L 210.136719 148.5 L 211.15625 158.894531 L 212.175781 163.535156 L 213.195312 158.886719 L 214.214844 163.988281 L 215.230469 163.851562 L 216.25 157.910156 L 217.269531 162.234375 L 218.289062 165.292969 L 219.308594 146.96875 L 220.328125 160.761719 L 221.347656 152.882812 L 222.367188 151.710938 L 223.382812 157.40625 L 224.402344 153.734375 L 225.421875 137.507812 L 226.441406 141.304688 L 227.460938 152.300781 L 228.480469 150.253906 L 229.5 142.980469 L 230.519531 141.777344 L 231.535156 137.355469 L 232.554688 156.0625 L 233.574219 156.824219 L 234.59375 147.988281 L 235.613281 165.332031 L 236.632812 169.792969 L 237.652344 174.605469 L 238.667969 172.460938 L 239.6875 173.660156 L 240.707031 174.035156 L 241.726562 175.964844 L 242.746094 169.359375 L 243.765625 171.683594 L 244.785156 166.320312 L 245.804688 161.152344 L 246.820312 157.320312 L 247.839844 155.175781 L 248.859375 153.886719 L 249.878906 145.859375 L 250.898438 146.148438 L 251.917969 144.320312 L 252.9375 134.070312 L 253.957031 144.003906 L 254.972656 143.140625 L 255.992188 151.75 L 257.011719 161.898438 L 258.03125 163.929688 L 259.050781 165.242188 L 260.070312 170.582031 L 261.089844 174.929688 L 262.105469 180.566406 L 263.125 173.492188 L 264.144531 169.851562 L 265.164062 175.175781 L 266.183594 171.300781 L 267.203125 166.25 L 268.222656 164.742188 L 269.242188 165.265625 L 270.257812 159.109375 L 271.277344 151.355469 L 272.296875 151.890625 L 273.316406 159.21875 L 274.335938 157.667969 L 275.355469 159.273438 L 276.375 146.152344 L 277.394531 142.453125 L 278.410156 139.605469 L 279.429688 141.003906 L 280.449219 150.277344 L 281.46875 148.757812 L 282.488281 143.976562 L 283.507812 165.894531 L 284.527344 165.65625 L 285.542969 167.035156 L 286.5625 172.433594 L 287.582031 171.226562 L 288.601562 163.546875 L 289.621094 163.246094 L 290.640625 163.484375 L 291.660156 150.527344 L 292.679688 146.34375 L 293.695312 150.027344 L 294.714844 151.710938 L 295.734375 152.449219 L 296.753906 161.796875 L 297.773438 146.113281 L 298.792969 149.714844 L 299.8125 130.308594 L 300.832031 134.828125 L 301.847656 138.246094 L 302.867188 141.984375 L 303.886719 154.429688 L 304.90625 163.960938 L 305.925781 175.695312 L 306.945312 186.160156 L 307.964844 188.636719 L 308.980469 189.96875 L 310 188.828125 L 311.019531 189.605469 L 312.039062 189.410156 L 313.058594 187.347656 L 314.078125 189.289062 L 315.097656 188.835938 L 316.117188 182.480469 L 317.132812 183.09375 L 318.152344 183.695312 L 319.171875 182.046875 L 320.191406 178.363281 L 321.210938 176.707031 L 322.230469 175.089844 L 323.25 172.660156 L 324.269531 170.695312 L 325.285156 158.242188 L 326.304688 151.949219 L 327.324219 138.304688 L 328.34375 153.378906 L 329.363281 140.421875 L 330.382812 144.351562 L 331.402344 143.667969 L 332.417969 144.554688 L 333.4375 132.476562 L 334.457031 148.066406 L 335.476562 153.316406 L 336.496094 162.53125 L 337.515625 165.523438 L 338.535156 182.144531 L 339.554688 183.902344 L 340.570312 187.570312 L 341.589844 186.0625 L 342.609375 190.519531 L 343.628906 188.855469 L 344.648438 186.636719 L 345.667969 183.3125 L 346.6875 184.359375 L 347.707031 182.316406 L 348.722656 176.246094 L 349.742188 176.394531 L 350.761719 176.574219 L 351.78125 172.164062 L 352.800781 174.292969 L 353.820312 163.738281 L 354.839844 167 L 355.855469 162.835938 L 356.875 162.40625 L 357.894531 158.5 L 358.914062 158.910156 L 359.933594 132.957031 L 360.953125 137.226562 L 361.972656 145.347656 L 362.992188 139.125 L 364.007812 144.460938 L 365.027344 161.484375 L 366.046875 146.613281 L 367.066406 145.976562 L 368.085938 159.054688 L 369.105469 160.347656 L 370.125 166.152344 L 371.144531 174.433594 L 372.160156 178.53125 L 373.179688 180.675781 L 374.199219 186.089844 L 375.21875 187.007812 L 376.238281 186.910156 L 377.257812 188.289062 L 378.277344 183.433594 L 379.296875 182.359375 L 380.3125 172.539062 L 381.332031 176.878906 L 382.351562 173.15625 L 383.371094 166.300781 L 384.390625 168.300781 L 385.410156 158.070312 L 386.429688 158.742188 L 387.445312 150.972656 L 388.464844 157.265625 L 389.484375 149.484375 L 390.503906 155.402344 L 391.523438 136.519531 L 392.542969 144.523438 L 393.5625 140.769531 L 394.582031 145.097656 L 395.597656 146.316406 L 396.617188 126.171875 L 397.636719 157.507812 L 398.65625 163.652344 L 399.675781 171.816406 L 400.695312 171.929688 L 401.714844 184.417969 L 402.734375 183.949219 L 403.75 184.589844 L 404.769531 184.847656 L 405.789062 183.03125 L 406.808594 184.257812 L 407.828125 178.460938 L 408.847656 180.308594 L 409.867188 179.867188 L 410.882812 179.351562 L 411.902344 172.15625 L 412.921875 173.410156 L 413.941406 171.675781 L 414.960938 154.957031 L 415.980469 154.34375 L 417 152.898438 L 418.019531 142.691406 L 419.035156 150.523438 L 420.054688 135.171875 L 421.074219 132.714844 L 422.09375 144.304688 L 423.113281 147.046875 L 424.132812 134.667969 L 425.152344 151.15625 L 426.171875 136.785156 L 427.1875 157.390625 L 428.207031 157.9375 L 429.226562 166.382812 L 430.246094 160.691406 L 431.265625 174.683594 L 432.285156 174.304688 L 433.304688 175.203125 L 434.320312 165.878906 L 435.339844 166.339844 L 436.359375 166 L 437.378906 161.734375 L 438.398438 164.074219 L 439.417969 157.4375 L 440.4375 157.375 L 441.457031 153.257812 L 442.472656 144.816406 L 443.492188 144.351562 L 444.511719 138.753906 L 445.53125 133.066406 L 446.550781 136.277344 L 447.570312 146.429688 L 448.589844 159.136719 L 449.609375 160.09375 L 450.625 164.414062 L 451.644531 171.582031 L 452.664062 170.691406 L 453.683594 167.132812 L 454.703125 173.144531 L 455.722656 170.242188 L 456.742188 160.5625 L 457.757812 162.25 L 458.777344 163.019531 L 459.796875 163.078125 L 460.816406 152.277344 L 461.835938 149.859375 L 462.855469 147.140625 L 463.875 139.789062 L 464.894531 137.6875 L 465.910156 128.417969 L 466.929688 137.300781 L 467.949219 143.78125 L 468.96875 144.484375 L 469.988281 161.167969 L 471.007812 174.957031 L 472.027344 179.355469 L 473.046875 183.324219 L 474.0625 189.757812 L 475.082031 187.523438 L 476.101562 184.585938 L 477.121094 186.75 L 478.140625 184.34375 "/>
<g clip-path="url(#clip-38)">
<path fill="none" stroke-width="1.066978" stroke-linecap="round" stroke-linejoin="round" stroke="rgb(20%, 20%, 20%)" stroke-opacity="1" stroke-miterlimit="10" d="M 50.152344 198.925781 L 498.523438 198.925781 L 498.523438 122.710938 L 50.152344 122.710938 Z M 50.152344 198.925781 "/>
</g>
<g clip-path="url(#clip-39)">
<path fill-rule="nonzero" fill="rgb(100%, 100%, 100%)" fill-opacity="1" d="M 50.152344 298.386719 L 498.523438 298.386719 L 498.523438 222.171875 L 50.152344 222.171875 Z M 50.152344 298.386719 "/>
</g>
<g clip-path="url(#clip-40)">
<path fill="none" stroke-width="0.533489" stroke-linecap="butt" stroke-linejoin="round" stroke="rgb(92.156863%, 92.156863%, 92.156863%)" stroke-opacity="1" stroke-miterlimit="10" d="M 50.152344 291.480469 L 498.519531 291.480469 "/>
</g>
<g clip-path="url(#clip-41)">
<path fill="none" stroke-width="0.533489" stroke-linecap="butt" stroke-linejoin="round" stroke="rgb(92.156863%, 92.156863%, 92.156863%)" stroke-opacity="1" stroke-miterlimit="10" d="M 50.152344 277.601562 L 498.519531 277.601562 "/>
</g>
<g clip-path="url(#clip-42)">
<path fill="none" stroke-width="0.533489" stroke-linecap="butt" stroke-linejoin="round" stroke="rgb(92.156863%, 92.156863%, 92.156863%)" stroke-opacity="1" stroke-miterlimit="10" d="M 50.152344 263.726562 L 498.519531 263.726562 "/>
</g>
<g clip-path="url(#clip-43)">
<path fill="none" stroke-width="0.533489" stroke-linecap="butt" stroke-linejoin="round" stroke="rgb(92.156863%, 92.156863%, 92.156863%)" stroke-opacity="1" stroke-miterlimit="10" d="M 50.152344 249.847656 L 498.519531 249.847656 "/>
</g>
<g clip-path="url(#clip-44)">
<path fill="none" stroke-width="0.533489" stroke-linecap="butt" stroke-linejoin="round" stroke="rgb(92.156863%, 92.156863%, 92.156863%)" stroke-opacity="1" stroke-miterlimit="10" d="M 50.152344 235.96875 L 498.519531 235.96875 "/>
</g>
<g clip-path="url(#clip-45)">
<path fill="none" stroke-width="0.533489" stroke-linecap="butt" stroke-linejoin="round" stroke="rgb(92.156863%, 92.156863%, 92.156863%)" stroke-opacity="1" stroke-miterlimit="10" d="M 121.480469 298.386719 L 121.480469 222.171875 "/>
</g>
<g clip-path="url(#clip-46)">
<path fill="none" stroke-width="0.533489" stroke-linecap="butt" stroke-linejoin="round" stroke="rgb(92.156863%, 92.156863%, 92.156863%)" stroke-opacity="1" stroke-miterlimit="10" d="M 223.382812 298.386719 L 223.382812 222.171875 "/>
</g>
<g clip-path="url(#clip-47)">
<path fill="none" stroke-width="0.533489" stroke-linecap="butt" stroke-linejoin="round" stroke="rgb(92.156863%, 92.156863%, 92.156863%)" stroke-opacity="1" stroke-miterlimit="10" d="M 325.285156 298.386719 L 325.285156 222.171875 "/>
</g>
<g clip-path="url(#clip-48)">
<path fill="none" stroke-width="0.533489" stroke-linecap="butt" stroke-linejoin="round" stroke="rgb(92.156863%, 92.156863%, 92.156863%)" stroke-opacity="1" stroke-miterlimit="10" d="M 427.1875 298.386719 L 427.1875 222.171875 "/>
</g>
<g clip-path="url(#clip-49)">
<path fill="none" stroke-width="1.066978" stroke-linecap="butt" stroke-linejoin="round" stroke="rgb(92.156863%, 92.156863%, 92.156863%)" stroke-opacity="1" stroke-miterlimit="10" d="M 50.152344 284.539062 L 498.519531 284.539062 "/>
</g>
<g clip-path="url(#clip-50)">
<path fill="none" stroke-width="1.066978" stroke-linecap="butt" stroke-linejoin="round" stroke="rgb(92.156863%, 92.156863%, 92.156863%)" stroke-opacity="1" stroke-miterlimit="10" d="M 50.152344 270.664062 L 498.519531 270.664062 "/>
</g>
<g clip-path="url(#clip-51)">
<path fill="none" stroke-width="1.066978" stroke-linecap="butt" stroke-linejoin="round" stroke="rgb(92.156863%, 92.156863%, 92.156863%)" stroke-opacity="1" stroke-miterlimit="10" d="M 50.152344 256.785156 L 498.519531 256.785156 "/>
</g>
<g clip-path="url(#clip-52)">
<path fill="none" stroke-width="1.066978" stroke-linecap="butt" stroke-linejoin="round" stroke="rgb(92.156863%, 92.156863%, 92.156863%)" stroke-opacity="1" stroke-miterlimit="10" d="M 50.152344 242.910156 L 498.519531 242.910156 "/>
</g>
<g clip-path="url(#clip-53)">
<path fill="none" stroke-width="1.066978" stroke-linecap="butt" stroke-linejoin="round" stroke="rgb(92.156863%, 92.156863%, 92.156863%)" stroke-opacity="1" stroke-miterlimit="10" d="M 50.152344 229.03125 L 498.519531 229.03125 "/>
</g>
<g clip-path="url(#clip-54)">
<path fill="none" stroke-width="1.066978" stroke-linecap="butt" stroke-linejoin="round" stroke="rgb(92.156863%, 92.156863%, 92.156863%)" stroke-opacity="1" stroke-miterlimit="10" d="M 70.53125 298.386719 L 70.53125 222.171875 "/>
</g>
<g clip-path="url(#clip-55)">
<path fill="none" stroke-width="1.066978" stroke-linecap="butt" stroke-linejoin="round" stroke="rgb(92.156863%, 92.156863%, 92.156863%)" stroke-opacity="1" stroke-miterlimit="10" d="M 172.433594 298.386719 L 172.433594 222.171875 "/>
</g>
<g clip-path="url(#clip-56)">
<path fill="none" stroke-width="1.066978" stroke-linecap="butt" stroke-linejoin="round" stroke="rgb(92.156863%, 92.156863%, 92.156863%)" stroke-opacity="1" stroke-miterlimit="10" d="M 274.335938 298.386719 L 274.335938 222.171875 "/>
</g>
<g clip-path="url(#clip-57)">
<path fill="none" stroke-width="1.066978" stroke-linecap="butt" stroke-linejoin="round" stroke="rgb(92.156863%, 92.156863%, 92.156863%)" stroke-opacity="1" stroke-miterlimit="10" d="M 376.238281 298.386719 L 376.238281 222.171875 "/>
</g>
<g clip-path="url(#clip-58)">
<path fill="none" stroke-width="1.066978" stroke-linecap="butt" stroke-linejoin="round" stroke="rgb(92.156863%, 92.156863%, 92.156863%)" stroke-opacity="1" stroke-miterlimit="10" d="M 478.140625 298.386719 L 478.140625 222.171875 "/>
</g>
<path fill="none" stroke-width="1.066978" stroke-linecap="butt" stroke-linejoin="round" stroke="rgb(0%, 0%, 0%)" stroke-opacity="1" stroke-miterlimit="10" d="M 70.53125 256.609375 L 71.550781 267.25 L 72.570312 279.226562 L 73.589844 289.996094 L 74.605469 294.921875 L 75.625 289.183594 L 76.644531 276.390625 L 77.664062 261.554688 L 78.683594 247.78125 L 79.703125 237.207031 L 80.722656 230.550781 L 81.742188 227.167969 L 82.757812 225.785156 L 83.777344 225.636719 L 84.796875 225.746094 L 85.816406 225.769531 L 86.835938 225.917969 L 87.855469 226.292969 L 88.875 226.738281 L 89.890625 227.183594 L 90.910156 227.589844 L 91.929688 228.164062 L 92.949219 228.800781 L 93.96875 229.226562 L 94.988281 229.757812 L 96.007812 230.589844 L 97.027344 231.769531 L 98.042969 233.183594 L 99.0625 234.652344 L 100.082031 236.214844 L 101.101562 238.234375 L 102.121094 240.289062 L 103.140625 242.707031 L 104.160156 245.292969 L 105.179688 248.21875 L 106.195312 251.625 L 107.214844 253.972656 L 108.234375 254.59375 L 109.253906 252.542969 L 110.273438 250.332031 L 111.292969 247.148438 L 112.3125 244.394531 L 113.328125 242.027344 L 114.347656 240.710938 L 115.367188 240.507812 L 116.386719 240.691406 L 117.40625 241.585938 L 118.425781 242.585938 L 119.445312 244.605469 L 120.464844 246.152344 L 121.480469 247.519531 L 122.5 249.210938 L 123.519531 251.757812 L 124.539062 254.691406 L 125.558594 257.03125 L 126.578125 258.84375 L 127.597656 258.574219 L 128.617188 255.96875 L 129.632812 252.433594 L 130.652344 247.828125 L 131.671875 242.257812 L 132.691406 238.277344 L 133.710938 235.832031 L 134.730469 234.527344 L 135.75 234.617188 L 136.769531 235.910156 L 137.785156 237.734375 L 138.804688 240.683594 L 139.824219 244.707031 L 140.84375 249.21875 L 141.863281 254.125 L 142.882812 261.917969 L 143.902344 272.269531 L 144.917969 283.773438 L 145.9375 290.558594 L 146.957031 290.5 L 147.976562 282.636719 L 148.996094 268.777344 L 150.015625 253.613281 L 151.035156 241.304688 L 152.054688 233.296875 L 153.070312 229.039062 L 154.089844 227.089844 L 155.109375 226.214844 L 156.128906 225.917969 L 157.148438 225.882812 L 158.167969 226.335938 L 159.1875 226.929688 L 160.207031 227.5625 L 161.222656 227.855469 L 162.242188 228.09375 L 163.261719 228.550781 L 164.28125 229.347656 L 165.300781 230.695312 L 166.320312 231.855469 L 167.339844 233.183594 L 168.355469 234.363281 L 169.375 235.625 L 170.394531 237.417969 L 171.414062 239.277344 L 172.433594 240.183594 L 173.453125 240.90625 L 174.472656 241.578125 L 175.492188 241.945312 L 176.507812 242.667969 L 177.527344 243.191406 L 178.546875 244.15625 L 179.566406 245.453125 L 180.585938 247.804688 L 181.605469 250.765625 L 182.625 254.324219 L 183.644531 256.65625 L 184.660156 257.328125 L 185.679688 257.15625 L 186.699219 256.125 L 187.71875 253.574219 L 188.738281 250.421875 L 189.757812 247.757812 L 190.777344 246.292969 L 191.792969 245.101562 L 192.8125 243.5625 L 193.832031 242.289062 L 194.851562 241.546875 L 195.871094 240.160156 L 196.890625 238.988281 L 197.910156 238.65625 L 198.929688 238.8125 L 199.945312 239.644531 L 200.964844 240.039062 L 201.984375 240.507812 L 203.003906 241.824219 L 204.023438 243.453125 L 205.042969 245.296875 L 206.0625 246.953125 L 207.082031 249.195312 L 208.097656 252.167969 L 209.117188 255.339844 L 210.136719 258.539062 L 211.15625 260.132812 L 212.175781 260.269531 L 213.195312 258.367188 L 214.214844 255.460938 L 215.230469 252.0625 L 216.25 247.648438 L 217.269531 244.179688 L 218.289062 241.375 L 219.308594 239.550781 L 220.328125 238.507812 L 221.347656 238.300781 L 222.367188 238.851562 L 223.382812 239.695312 L 224.402344 240.675781 L 225.421875 242.117188 L 226.441406 242.734375 L 227.460938 243.09375 L 228.480469 244.222656 L 229.5 247.050781 L 230.519531 250.382812 L 231.535156 254.296875 L 232.554688 258.703125 L 233.574219 262.21875 L 234.59375 263.910156 L 235.613281 263.863281 L 236.632812 260.796875 L 237.652344 254.832031 L 238.667969 248.074219 L 239.6875 241.273438 L 240.707031 236.691406 L 241.726562 233.664062 L 242.746094 231.8125 L 243.765625 231.292969 L 244.785156 231.585938 L 245.804688 232.34375 L 246.820312 233.707031 L 247.839844 235.328125 L 248.859375 236.714844 L 249.878906 238.449219 L 250.898438 239.617188 L 251.917969 241.621094 L 252.9375 245.316406 L 253.957031 250.789062 L 254.972656 255.902344 L 255.992188 261.523438 L 257.011719 266.703125 L 258.03125 269.5 L 259.050781 268.710938 L 260.070312 265.132812 L 261.089844 258.964844 L 262.105469 251.074219 L 263.125 243.449219 L 264.144531 238.03125 L 265.164062 234.632812 L 266.183594 232.519531 L 267.203125 231.898438 L 268.222656 231.914062 L 269.242188 231.910156 L 270.257812 232.730469 L 271.277344 234.074219 L 272.296875 235.421875 L 273.316406 236.496094 L 274.335938 237.46875 L 275.355469 238.121094 L 276.375 240.132812 L 277.394531 243.074219 L 278.410156 246.910156 L 279.429688 252.097656 L 280.449219 256.488281 L 281.46875 259.082031 L 282.488281 261.4375 L 283.507812 261.523438 L 284.527344 258.941406 L 285.542969 254.839844 L 286.5625 249.574219 L 287.582031 244.433594 L 288.601562 239.863281 L 289.621094 236.449219 L 290.640625 235.460938 L 291.660156 235.765625 L 292.679688 236.746094 L 293.695312 237.710938 L 294.714844 237.773438 L 295.734375 237.785156 L 296.753906 238.476562 L 297.773438 239.078125 L 298.792969 240.816406 L 299.8125 243.683594 L 300.832031 247.015625 L 301.847656 252.507812 L 302.867188 260.707031 L 303.886719 273.875 L 304.90625 287.414062 L 305.925781 294.136719 L 306.945312 289.410156 L 307.964844 276.828125 L 308.980469 262.324219 L 310 248.011719 L 311.019531 237.320312 L 312.039062 231.023438 L 313.058594 227.914062 L 314.078125 226.6875 L 315.097656 226.183594 L 316.117188 226.214844 L 317.132812 226.449219 L 318.152344 226.742188 L 319.171875 226.859375 L 320.191406 227.136719 L 321.210938 227.582031 L 322.230469 228.039062 L 323.25 228.914062 L 324.269531 229.765625 L 325.285156 230.976562 L 326.304688 232.53125 L 327.324219 234.167969 L 328.34375 235.691406 L 329.363281 237.574219 L 330.382812 240.136719 L 331.402344 243.277344 L 332.417969 247.886719 L 333.4375 254.265625 L 334.457031 262.613281 L 335.476562 274.925781 L 336.496094 286.078125 L 337.515625 292.195312 L 338.535156 291.59375 L 339.554688 282.855469 L 340.570312 270.171875 L 341.589844 257.234375 L 342.609375 245.390625 L 343.628906 236.5 L 344.648438 231.167969 L 345.667969 228.5625 L 346.6875 227.425781 L 347.707031 227.140625 L 348.722656 227.3125 L 349.742188 227.589844 L 350.761719 227.699219 L 351.78125 228.0625 L 352.800781 228.871094 L 353.820312 229.921875 L 354.839844 230.734375 L 355.855469 231.320312 L 356.875 232.417969 L 357.894531 233.699219 L 358.914062 235.496094 L 359.933594 237.261719 L 360.953125 239.335938 L 361.972656 243.058594 L 362.992188 246.53125 L 364.007812 249.839844 L 365.027344 253.105469 L 366.046875 257.121094 L 367.066406 263.265625 L 368.085938 271.320312 L 369.105469 279.84375 L 370.125 284.980469 L 371.144531 283.597656 L 372.160156 278.191406 L 373.179688 269.921875 L 374.199219 258.542969 L 375.21875 246.511719 L 376.238281 237.351562 L 377.257812 231.878906 L 378.277344 229.066406 L 379.296875 227.941406 L 380.3125 228.015625 L 381.332031 228.164062 L 382.351562 228.648438 L 383.371094 229.578125 L 384.390625 230.511719 L 385.410156 231.421875 L 386.429688 232.417969 L 387.445312 233.558594 L 388.464844 234.523438 L 389.484375 236.25 L 390.503906 237.769531 L 391.523438 239.773438 L 392.542969 242.644531 L 393.5625 246.835938 L 394.582031 250.640625 L 395.597656 255.507812 L 396.617188 261.648438 L 397.636719 270.109375 L 398.65625 279.234375 L 399.675781 284.96875 L 400.695312 285.539062 L 401.714844 278.402344 L 402.734375 267.265625 L 403.75 255.839844 L 404.769531 245.15625 L 405.789062 237.144531 L 406.808594 232.101562 L 407.828125 229.578125 L 408.847656 228.484375 L 409.867188 227.933594 L 410.882812 227.722656 L 411.902344 228.019531 L 412.921875 228.765625 L 413.941406 229.753906 L 414.960938 231.042969 L 415.980469 232.628906 L 417 234.398438 L 418.019531 236.390625 L 419.035156 238.300781 L 420.054688 241.0625 L 421.074219 243.714844 L 422.09375 246.050781 L 423.113281 248.34375 L 424.132812 252.558594 L 425.152344 256.703125 L 426.171875 259.855469 L 427.1875 263.863281 L 428.207031 266.328125 L 429.226562 266.046875 L 430.246094 261.929688 L 431.265625 255.179688 L 432.285156 248.21875 L 433.304688 241.976562 L 434.320312 237.863281 L 435.339844 235.453125 L 436.359375 234.359375 L 437.378906 233.667969 L 438.398438 233.777344 L 439.417969 234.527344 L 440.4375 235.695312 L 441.457031 237.460938 L 442.472656 239.84375 L 443.492188 242.90625 L 444.511719 246.808594 L 445.53125 251.640625 L 446.550781 256.039062 L 447.570312 259.59375 L 448.589844 262.074219 L 449.609375 262.613281 L 450.625 261.019531 L 451.644531 257.089844 L 452.664062 251.378906 L 453.683594 245.433594 L 454.703125 241.203125 L 455.722656 237.96875 L 456.742188 235.898438 L 457.757812 234.875 L 458.777344 234.265625 L 459.796875 234.359375 L 460.816406 235.121094 L 461.835938 236.367188 L 462.855469 238.28125 L 463.875 240.425781 L 464.894531 243.703125 L 465.910156 248.9375 L 466.929688 254.917969 L 467.949219 262.890625 L 468.96875 273.136719 L 469.988281 283.316406 L 471.007812 287.683594 L 472.027344 287.527344 L 473.046875 281.019531 L 474.0625 268.820312 L 475.082031 255.078125 L 476.101562 243.570312 L 477.121094 235.53125 L 478.140625 230.980469 "/>
<g clip-path="url(#clip-59)">
<path fill="none" stroke-width="1.066978" stroke-linecap="round" stroke-linejoin="round" stroke="rgb(20%, 20%, 20%)" stroke-opacity="1" stroke-miterlimit="10" d="M 50.152344 298.386719 L 498.523438 298.386719 L 498.523438 222.171875 L 50.152344 222.171875 Z M 50.152344 298.386719 "/>
</g>
<g clip-path="url(#clip-60)">
<path fill-rule="nonzero" fill="rgb(100%, 100%, 100%)" fill-opacity="1" d="M 50.152344 397.847656 L 498.523438 397.847656 L 498.523438 321.632812 L 50.152344 321.632812 Z M 50.152344 397.847656 "/>
</g>
<g clip-path="url(#clip-61)">
<path fill="none" stroke-width="0.533489" stroke-linecap="butt" stroke-linejoin="round" stroke="rgb(92.156863%, 92.156863%, 92.156863%)" stroke-opacity="1" stroke-miterlimit="10" d="M 50.152344 395.851562 L 498.519531 395.851562 "/>
</g>
<g clip-path="url(#clip-62)">
<path fill="none" stroke-width="0.533489" stroke-linecap="butt" stroke-linejoin="round" stroke="rgb(92.156863%, 92.156863%, 92.156863%)" stroke-opacity="1" stroke-miterlimit="10" d="M 50.152344 379.515625 L 498.519531 379.515625 "/>
</g>
<g clip-path="url(#clip-63)">
<path fill="none" stroke-width="0.533489" stroke-linecap="butt" stroke-linejoin="round" stroke="rgb(92.156863%, 92.156863%, 92.156863%)" stroke-opacity="1" stroke-miterlimit="10" d="M 50.152344 363.175781 L 498.519531 363.175781 "/>
</g>
<g clip-path="url(#clip-64)">
<path fill="none" stroke-width="0.533489" stroke-linecap="butt" stroke-linejoin="round" stroke="rgb(92.156863%, 92.156863%, 92.156863%)" stroke-opacity="1" stroke-miterlimit="10" d="M 50.152344 346.839844 L 498.519531 346.839844 "/>
</g>
<g clip-path="url(#clip-65)">
<path fill="none" stroke-width="0.533489" stroke-linecap="butt" stroke-linejoin="round" stroke="rgb(92.156863%, 92.156863%, 92.156863%)" stroke-opacity="1" stroke-miterlimit="10" d="M 50.152344 330.503906 L 498.519531 330.503906 "/>
</g>
<g clip-path="url(#clip-66)">
<path fill="none" stroke-width="0.533489" stroke-linecap="butt" stroke-linejoin="round" stroke="rgb(92.156863%, 92.156863%, 92.156863%)" stroke-opacity="1" stroke-miterlimit="10" d="M 121.480469 397.847656 L 121.480469 321.632812 "/>
</g>
<g clip-path="url(#clip-67)">
<path fill="none" stroke-width="0.533489" stroke-linecap="butt" stroke-linejoin="round" stroke="rgb(92.156863%, 92.156863%, 92.156863%)" stroke-opacity="1" stroke-miterlimit="10" d="M 223.382812 397.847656 L 223.382812 321.632812 "/>
</g>
<g clip-path="url(#clip-68)">
<path fill="none" stroke-width="0.533489" stroke-linecap="butt" stroke-linejoin="round" stroke="rgb(92.156863%, 92.156863%, 92.156863%)" stroke-opacity="1" stroke-miterlimit="10" d="M 325.285156 397.847656 L 325.285156 321.632812 "/>
</g>
<g clip-path="url(#clip-69)">
<path fill="none" stroke-width="0.533489" stroke-linecap="butt" stroke-linejoin="round" stroke="rgb(92.156863%, 92.156863%, 92.156863%)" stroke-opacity="1" stroke-miterlimit="10" d="M 427.1875 397.847656 L 427.1875 321.632812 "/>
</g>
<g clip-path="url(#clip-70)">
<path fill="none" stroke-width="1.066978" stroke-linecap="butt" stroke-linejoin="round" stroke="rgb(92.156863%, 92.156863%, 92.156863%)" stroke-opacity="1" stroke-miterlimit="10" d="M 50.152344 387.683594 L 498.519531 387.683594 "/>
</g>
<g clip-path="url(#clip-71)">
<path fill="none" stroke-width="1.066978" stroke-linecap="butt" stroke-linejoin="round" stroke="rgb(92.156863%, 92.156863%, 92.156863%)" stroke-opacity="1" stroke-miterlimit="10" d="M 50.152344 371.347656 L 498.519531 371.347656 "/>
</g>
<g clip-path="url(#clip-72)">
<path fill="none" stroke-width="1.066978" stroke-linecap="butt" stroke-linejoin="round" stroke="rgb(92.156863%, 92.156863%, 92.156863%)" stroke-opacity="1" stroke-miterlimit="10" d="M 50.152344 355.007812 L 498.519531 355.007812 "/>
</g>
<g clip-path="url(#clip-73)">
<path fill="none" stroke-width="1.066978" stroke-linecap="butt" stroke-linejoin="round" stroke="rgb(92.156863%, 92.156863%, 92.156863%)" stroke-opacity="1" stroke-miterlimit="10" d="M 50.152344 338.671875 L 498.519531 338.671875 "/>
</g>
<g clip-path="url(#clip-74)">
<path fill="none" stroke-width="1.066978" stroke-linecap="butt" stroke-linejoin="round" stroke="rgb(92.156863%, 92.156863%, 92.156863%)" stroke-opacity="1" stroke-miterlimit="10" d="M 50.152344 322.335938 L 498.519531 322.335938 "/>
</g>
<g clip-path="url(#clip-75)">
<path fill="none" stroke-width="1.066978" stroke-linecap="butt" stroke-linejoin="round" stroke="rgb(92.156863%, 92.156863%, 92.156863%)" stroke-opacity="1" stroke-miterlimit="10" d="M 70.53125 397.847656 L 70.53125 321.632812 "/>
</g>
<g clip-path="url(#clip-76)">
<path fill="none" stroke-width="1.066978" stroke-linecap="butt" stroke-linejoin="round" stroke="rgb(92.156863%, 92.156863%, 92.156863%)" stroke-opacity="1" stroke-miterlimit="10" d="M 172.433594 397.847656 L 172.433594 321.632812 "/>
</g>
<g clip-path="url(#clip-77)">
<path fill="none" stroke-width="1.066978" stroke-linecap="butt" stroke-linejoin="round" stroke="rgb(92.156863%, 92.156863%, 92.156863%)" stroke-opacity="1" stroke-miterlimit="10" d="M 274.335938 397.847656 L 274.335938 321.632812 "/>
</g>
<g clip-path="url(#clip-78)">
<path fill="none" stroke-width="1.066978" stroke-linecap="butt" stroke-linejoin="round" stroke="rgb(92.156863%, 92.156863%, 92.156863%)" stroke-opacity="1" stroke-miterlimit="10" d="M 376.238281 397.847656 L 376.238281 321.632812 "/>
</g>
<g clip-path="url(#clip-79)">
<path fill="none" stroke-width="1.066978" stroke-linecap="butt" stroke-linejoin="round" stroke="rgb(92.156863%, 92.156863%, 92.156863%)" stroke-opacity="1" stroke-miterlimit="10" d="M 478.140625 397.847656 L 478.140625 321.632812 "/>
</g>
<path fill="none" stroke-width="1.066978" stroke-linecap="butt" stroke-linejoin="round" stroke="rgb(0%, 0%, 0%)" stroke-opacity="1" stroke-miterlimit="10" d="M 70.53125 326.050781 L 71.550781 328.964844 L 72.570312 334.976562 L 73.589844 344.25 L 74.605469 356.128906 L 75.625 370.011719 L 76.644531 378.039062 L 77.664062 380.113281 L 78.683594 383.828125 L 79.703125 387.59375 L 80.722656 394.386719 L 81.742188 393.316406 L 82.757812 383.507812 L 83.777344 376.683594 L 84.796875 374.671875 L 85.816406 373.046875 L 86.835938 371.921875 L 87.855469 364.390625 L 88.875 362.867188 L 89.890625 358.839844 L 90.910156 354.667969 L 91.929688 353.492188 L 92.949219 351.777344 L 93.96875 349.347656 L 94.988281 347.023438 L 96.007812 344.703125 L 97.027344 338.972656 L 98.042969 336.933594 L 99.0625 336.007812 L 100.082031 334.746094 L 101.101562 331.195312 L 102.121094 331.300781 L 103.140625 330.003906 L 104.160156 330.0625 L 105.179688 328.832031 L 106.195312 330.824219 L 107.214844 333.695312 L 108.234375 338.71875 L 109.253906 340.773438 L 110.273438 341.808594 L 111.292969 341.523438 L 112.3125 342.503906 L 113.328125 340.066406 L 114.347656 337.929688 L 115.367188 335.433594 L 116.386719 334.257812 L 117.40625 333.546875 L 118.425781 331.652344 L 119.445312 330.367188 L 120.464844 331.652344 L 121.480469 332.933594 L 122.5 331.9375 L 123.519531 331.101562 L 124.539062 332.398438 L 125.558594 333.871094 L 126.578125 336.570312 L 127.597656 342.070312 L 128.617188 343.285156 L 129.632812 343.769531 L 130.652344 348.8125 L 131.671875 349.46875 L 132.691406 348.15625 L 133.710938 344.519531 L 134.730469 343.5 L 135.75 337.660156 L 136.769531 333.8125 L 137.785156 330.5 L 138.804688 327.816406 L 139.824219 325.097656 L 140.84375 327.996094 L 141.863281 327.578125 L 142.882812 327.210938 L 143.902344 330.839844 L 144.917969 339.171875 L 145.9375 349.695312 L 146.957031 360.304688 L 147.976562 370.453125 L 148.996094 382.761719 L 150.015625 382.878906 L 151.035156 382.675781 L 152.054688 380.003906 L 153.070312 378.492188 L 154.089844 378.789062 L 155.109375 377.25 L 156.128906 376.371094 L 157.148438 370.359375 L 158.167969 363.480469 L 159.1875 359.269531 L 160.207031 356.6875 L 161.222656 358 L 162.242188 356.8125 L 163.261719 351.960938 L 164.28125 346.113281 L 165.300781 343.097656 L 166.320312 340.050781 L 167.339844 337.605469 L 168.355469 336.660156 L 169.375 334.207031 L 170.394531 332.1875 L 171.414062 332.246094 L 172.433594 334.808594 L 173.453125 333.742188 L 174.472656 333.996094 L 175.492188 334.101562 L 176.507812 334.304688 L 177.527344 333.710938 L 178.546875 332.734375 L 179.566406 333.019531 L 180.585938 330.742188 L 181.605469 329.738281 L 182.625 330.320312 L 183.644531 335.734375 L 184.660156 336.523438 L 185.679688 339.457031 L 186.699219 341.070312 L 187.71875 342.332031 L 188.738281 340.882812 L 189.757812 340.175781 L 190.777344 337.621094 L 191.792969 338.605469 L 192.8125 338.3125 L 193.832031 337.375 L 194.851562 338.816406 L 195.871094 339.367188 L 196.890625 339.929688 L 197.910156 337.867188 L 198.929688 334.96875 L 199.945312 334.0625 L 200.964844 335.472656 L 201.984375 334.28125 L 203.003906 331.167969 L 204.023438 331.789062 L 205.042969 331.359375 L 206.0625 331.71875 L 207.082031 331.105469 L 208.097656 330.835938 L 209.117188 331.5 L 210.136719 334.628906 L 211.15625 337.671875 L 212.175781 341.132812 L 213.195312 342.9375 L 214.214844 343.511719 L 215.230469 345.082031 L 216.25 344.132812 L 217.269531 344.390625 L 218.289062 341.820312 L 219.308594 341.554688 L 220.328125 337.960938 L 221.347656 336.5625 L 222.367188 333.980469 L 223.382812 332.914062 L 224.402344 333.449219 L 225.421875 332.699219 L 226.441406 334.464844 L 227.460938 334.589844 L 228.480469 329.625 L 229.5 329.574219 L 230.519531 330.152344 L 231.535156 329.640625 L 232.554688 332.085938 L 233.574219 336.585938 L 234.59375 339.941406 L 235.613281 341.507812 L 236.632812 347.675781 L 237.652344 350.257812 L 238.667969 354.332031 L 239.6875 354.941406 L 240.707031 351.4375 L 241.726562 353.425781 L 242.746094 349.628906 L 243.765625 346.105469 L 244.785156 342.699219 L 245.804688 339.957031 L 246.820312 335.917969 L 247.839844 335.953125 L 248.859375 332.9375 L 249.878906 334.070312 L 250.898438 332.425781 L 251.917969 329.992188 L 252.9375 325.632812 L 253.957031 326.90625 L 254.972656 329.484375 L 255.992188 332.289062 L 257.011719 335.804688 L 258.03125 341.652344 L 259.050781 347.414062 L 260.070312 349.570312 L 261.089844 352.460938 L 262.105469 358.5 L 263.125 354.769531 L 264.144531 351.667969 L 265.164062 352.726562 L 266.183594 349.367188 L 267.203125 346.761719 L 268.222656 344.875 L 269.242188 343.804688 L 270.257812 339.710938 L 271.277344 336.265625 L 272.296875 335.078125 L 273.316406 335.9375 L 274.335938 335.847656 L 275.355469 335.066406 L 276.375 329.90625 L 277.394531 328.574219 L 278.410156 326.386719 L 279.429688 327.652344 L 280.449219 333.789062 L 281.46875 334.199219 L 282.488281 336.9375 L 283.507812 342.867188 L 284.527344 344.035156 L 285.542969 346.339844 L 286.5625 348.316406 L 287.582031 347.421875 L 288.601562 349.710938 L 289.621094 345.308594 L 290.640625 340.65625 L 291.660156 337.300781 L 292.679688 333.289062 L 293.695312 335.761719 L 294.714844 337.976562 L 295.734375 337.203125 L 296.753906 335.492188 L 297.773438 333.703125 L 298.792969 330.304688 L 299.8125 329.03125 L 300.832031 327.953125 L 301.847656 326.296875 L 302.867188 326.253906 L 303.886719 329.335938 L 304.90625 339.371094 L 305.925781 355.273438 L 306.945312 368.027344 L 307.964844 377.574219 L 308.980469 378.769531 L 310 384.289062 L 311.019531 382.835938 L 312.039062 380.796875 L 313.058594 377.511719 L 314.078125 373.234375 L 315.097656 374.355469 L 316.117188 367.0625 L 317.132812 365.257812 L 318.152344 362.511719 L 319.171875 363.746094 L 320.191406 358.332031 L 321.210938 358.550781 L 322.230469 353.035156 L 323.25 348.542969 L 324.269531 346.71875 L 325.285156 340.601562 L 326.304688 337.367188 L 327.324219 335.011719 L 328.34375 334.59375 L 329.363281 331.902344 L 330.382812 329.296875 L 331.402344 327.910156 L 332.417969 326.0625 L 333.4375 325.976562 L 334.457031 328.300781 L 335.476562 331.988281 L 336.496094 341.671875 L 337.515625 349.890625 L 338.535156 362.59375 L 339.554688 369.386719 L 340.570312 374.761719 L 341.589844 369.640625 L 342.609375 375.796875 L 343.628906 376.503906 L 344.648438 371.941406 L 345.667969 369.246094 L 346.6875 367.246094 L 347.707031 364.664062 L 348.722656 358.660156 L 349.742188 358.523438 L 350.761719 358.628906 L 351.78125 354.859375 L 352.800781 348.167969 L 353.820312 345.207031 L 354.839844 345.480469 L 355.855469 342.226562 L 356.875 339.625 L 357.894531 336.167969 L 358.914062 334.492188 L 359.933594 332.25 L 360.953125 329.320312 L 361.972656 328.488281 L 362.992188 328.898438 L 364.007812 330.480469 L 365.027344 331.113281 L 366.046875 331.25 L 367.066406 331.621094 L 368.085938 334 L 369.105469 338.558594 L 370.125 349.925781 L 371.144531 356.246094 L 372.160156 360.058594 L 373.179688 361.566406 L 374.199219 371.023438 L 375.21875 373.042969 L 376.238281 372.601562 L 377.257812 370.011719 L 378.277344 367.101562 L 379.296875 361.765625 L 380.3125 358.496094 L 381.332031 355.203125 L 382.351562 351.257812 L 383.371094 344.96875 L 384.390625 343.34375 L 385.410156 342.257812 L 386.429688 340.347656 L 387.445312 337.976562 L 388.464844 335.3125 L 389.484375 333.558594 L 390.503906 332.371094 L 391.523438 330.160156 L 392.542969 328.6875 L 393.5625 327.050781 L 394.582031 328.511719 L 395.597656 330.058594 L 396.617188 328.664062 L 397.636719 332.804688 L 398.65625 340.527344 L 399.675781 345.046875 L 400.695312 356.253906 L 401.714844 366.785156 L 402.734375 367.488281 L 403.75 366.53125 L 404.769531 366.792969 L 405.789062 366.445312 L 406.808594 368.136719 L 407.828125 360.191406 L 408.847656 361.648438 L 409.867188 360.042969 L 410.882812 359.347656 L 411.902344 353.339844 L 412.921875 348.449219 L 413.941406 344.691406 L 414.960938 340.105469 L 415.980469 337.828125 L 417 334.5 L 418.019531 332.644531 L 419.035156 331.160156 L 420.054688 329.371094 L 421.074219 330.578125 L 422.09375 330.628906 L 423.113281 330.726562 L 424.132812 328.167969 L 425.152344 333.90625 L 426.171875 333.453125 L 427.1875 336.953125 L 428.207031 339.328125 L 429.226562 343.84375 L 430.246094 352.074219 L 431.265625 352.941406 L 432.285156 351.808594 L 433.304688 353.640625 L 434.320312 348.382812 L 435.339844 344.21875 L 436.359375 344.140625 L 437.378906 342.535156 L 438.398438 339.644531 L 439.417969 336.972656 L 440.4375 335.359375 L 441.457031 332.398438 L 442.472656 329.964844 L 443.492188 328.488281 L 444.511719 326.753906 L 445.53125 328.785156 L 446.550781 331.214844 L 447.570312 335.1875 L 448.589844 337.515625 L 449.609375 341.433594 L 450.625 343.632812 L 451.644531 348.414062 L 452.664062 349.761719 L 453.683594 347.417969 L 454.703125 345.761719 L 455.722656 346.15625 L 456.742188 342.785156 L 457.757812 342.296875 L 458.777344 342.4375 L 459.796875 337.972656 L 460.816406 336.332031 L 461.835938 332.804688 L 462.855469 332.460938 L 463.875 330.507812 L 464.894531 326.859375 L 465.910156 326.226562 L 466.929688 327.261719 L 467.949219 328.523438 L 468.96875 332.316406 L 469.988281 340.785156 L 471.007812 350.382812 L 472.027344 357.613281 L 473.046875 363.933594 L 474.0625 375.5625 L 475.082031 373.589844 L 476.101562 371.121094 L 477.121094 370.105469 L 478.140625 369.960938 "/>
<g clip-path="url(#clip-80)">
<path fill="none" stroke-width="1.066978" stroke-linecap="round" stroke-linejoin="round" stroke="rgb(20%, 20%, 20%)" stroke-opacity="1" stroke-miterlimit="10" d="M 50.152344 397.847656 L 498.523438 397.847656 L 498.523438 321.632812 L 50.152344 321.632812 Z M 50.152344 397.847656 "/>
</g>
<g clip-path="url(#clip-81)">
<path fill-rule="nonzero" fill="rgb(85.098039%, 85.098039%, 85.098039%)" fill-opacity="1" stroke-width="1.066978" stroke-linecap="round" stroke-linejoin="round" stroke="rgb(20%, 20%, 20%)" stroke-opacity="1" stroke-miterlimit="10" d="M 50.152344 321.632812 L 498.523438 321.632812 L 498.523438 303.867188 L 50.152344 303.867188 Z M 50.152344 321.632812 "/>
</g>
<g fill="rgb(10.196078%, 10.196078%, 10.196078%)" fill-opacity="1">
<use xlink:href="#glyph-0-0" x="271.335938" y="315.665039"/>
</g>
<g clip-path="url(#clip-82)">
<path fill-rule="nonzero" fill="rgb(85.098039%, 85.098039%, 85.098039%)" fill-opacity="1" stroke-width="1.066978" stroke-linecap="round" stroke-linejoin="round" stroke="rgb(20%, 20%, 20%)" stroke-opacity="1" stroke-miterlimit="10" d="M 50.152344 222.171875 L 498.523438 222.171875 L 498.523438 204.40625 L 50.152344 204.40625 Z M 50.152344 222.171875 "/>
</g>
<g fill="rgb(10.196078%, 10.196078%, 10.196078%)" fill-opacity="1">
<use xlink:href="#glyph-0-1" x="271.335938" y="216.204102"/>
</g>
<g clip-path="url(#clip-83)">
<path fill-rule="nonzero" fill="rgb(85.098039%, 85.098039%, 85.098039%)" fill-opacity="1" stroke-width="1.066978" stroke-linecap="round" stroke-linejoin="round" stroke="rgb(20%, 20%, 20%)" stroke-opacity="1" stroke-miterlimit="10" d="M 50.152344 122.707031 L 498.523438 122.707031 L 498.523438 104.941406 L 50.152344 104.941406 Z M 50.152344 122.707031 "/>
</g>
<g fill="rgb(10.196078%, 10.196078%, 10.196078%)" fill-opacity="1">
<use xlink:href="#glyph-0-2" x="271.835938" y="116.739258"/>
</g>
<g clip-path="url(#clip-84)">
<path fill-rule="nonzero" fill="rgb(85.098039%, 85.098039%, 85.098039%)" fill-opacity="1" stroke-width="1.066978" stroke-linecap="round" stroke-linejoin="round" stroke="rgb(20%, 20%, 20%)" stroke-opacity="1" stroke-miterlimit="10" d="M 50.152344 23.246094 L 498.523438 23.246094 L 498.523438 5.480469 L 50.152344 5.480469 Z M 50.152344 23.246094 "/>
</g>
<g fill="rgb(10.196078%, 10.196078%, 10.196078%)" fill-opacity="1">
<use xlink:href="#glyph-0-3" x="271.835938" y="17.27832"/>
</g>
<path fill="none" stroke-width="1.066978" stroke-linecap="butt" stroke-linejoin="round" stroke="rgb(20%, 20%, 20%)" stroke-opacity="1" stroke-miterlimit="10" d="M 70.53125 400.589844 L 70.53125 397.847656 "/>
<path fill="none" stroke-width="1.066978" stroke-linecap="butt" stroke-linejoin="round" stroke="rgb(20%, 20%, 20%)" stroke-opacity="1" stroke-miterlimit="10" d="M 172.433594 400.589844 L 172.433594 397.847656 "/>
<path fill="none" stroke-width="1.066978" stroke-linecap="butt" stroke-linejoin="round" stroke="rgb(20%, 20%, 20%)" stroke-opacity="1" stroke-miterlimit="10" d="M 274.335938 400.589844 L 274.335938 397.847656 "/>
<path fill="none" stroke-width="1.066978" stroke-linecap="butt" stroke-linejoin="round" stroke="rgb(20%, 20%, 20%)" stroke-opacity="1" stroke-miterlimit="10" d="M 376.238281 400.589844 L 376.238281 397.847656 "/>
<path fill="none" stroke-width="1.066978" stroke-linecap="butt" stroke-linejoin="round" stroke="rgb(20%, 20%, 20%)" stroke-opacity="1" stroke-miterlimit="10" d="M 478.140625 400.589844 L 478.140625 397.847656 "/>
<g fill="rgb(30.196078%, 30.196078%, 30.196078%)" fill-opacity="1">
<use xlink:href="#glyph-0-4" x="68.03125" y="409.196289"/>
</g>
<g fill="rgb(30.196078%, 30.196078%, 30.196078%)" fill-opacity="1">
<use xlink:href="#glyph-0-5" x="164.933594" y="409.196289"/>
<use xlink:href="#glyph-0-4" x="169.933594" y="409.196289"/>
<use xlink:href="#glyph-0-4" x="174.933594" y="409.196289"/>
</g>
<g fill="rgb(30.196078%, 30.196078%, 30.196078%)" fill-opacity="1">
<use xlink:href="#glyph-0-6" x="266.835938" y="409.196289"/>
<use xlink:href="#glyph-0-4" x="271.835938" y="409.196289"/>
<use xlink:href="#glyph-0-4" x="276.835938" y="409.196289"/>
</g>
<g fill="rgb(30.196078%, 30.196078%, 30.196078%)" fill-opacity="1">
<use xlink:href="#glyph-0-7" x="368.738281" y="409.196289"/>
<use xlink:href="#glyph-0-4" x="373.738281" y="409.196289"/>
<use xlink:href="#glyph-0-4" x="378.738281" y="409.196289"/>
</g>
<g fill="rgb(30.196078%, 30.196078%, 30.196078%)" fill-opacity="1">
<use xlink:href="#glyph-0-8" x="470.640625" y="409.196289"/>
<use xlink:href="#glyph-0-4" x="475.640625" y="409.196289"/>
<use xlink:href="#glyph-0-4" x="480.640625" y="409.196289"/>
</g>
<g fill="rgb(30.196078%, 30.196078%, 30.196078%)" fill-opacity="1">
<use xlink:href="#glyph-0-7" x="25.21875" y="85.075195"/>
<use xlink:href="#glyph-0-4" x="30.21875" y="85.075195"/>
<use xlink:href="#glyph-0-4" x="35.21875" y="85.075195"/>
<use xlink:href="#glyph-0-4" x="40.21875" y="85.075195"/>
</g>
<g fill="rgb(30.196078%, 30.196078%, 30.196078%)" fill-opacity="1">
<use xlink:href="#glyph-0-9" x="25.21875" y="66.05957"/>
<use xlink:href="#glyph-0-4" x="30.21875" y="66.05957"/>
<use xlink:href="#glyph-0-4" x="35.21875" y="66.05957"/>
<use xlink:href="#glyph-0-4" x="40.21875" y="66.05957"/>
</g>
<g fill="rgb(30.196078%, 30.196078%, 30.196078%)" fill-opacity="1">
<use xlink:href="#glyph-0-10" x="25.21875" y="47.040039"/>
<use xlink:href="#glyph-0-4" x="30.21875" y="47.040039"/>
<use xlink:href="#glyph-0-4" x="35.21875" y="47.040039"/>
<use xlink:href="#glyph-0-4" x="40.21875" y="47.040039"/>
</g>
<g fill="rgb(30.196078%, 30.196078%, 30.196078%)" fill-opacity="1">
<use xlink:href="#glyph-0-5" x="20.21875" y="28.020508"/>
<use xlink:href="#glyph-0-6" x="25.21875" y="28.020508"/>
<use xlink:href="#glyph-0-4" x="30.21875" y="28.020508"/>
<use xlink:href="#glyph-0-4" x="35.21875" y="28.020508"/>
<use xlink:href="#glyph-0-4" x="40.21875" y="28.020508"/>
</g>
<path fill="none" stroke-width="1.066978" stroke-linecap="butt" stroke-linejoin="round" stroke="rgb(20%, 20%, 20%)" stroke-opacity="1" stroke-miterlimit="10" d="M 47.410156 82.160156 L 50.152344 82.160156 "/>
<path fill="none" stroke-width="1.066978" stroke-linecap="butt" stroke-linejoin="round" stroke="rgb(20%, 20%, 20%)" stroke-opacity="1" stroke-miterlimit="10" d="M 47.410156 63.144531 L 50.152344 63.144531 "/>
<path fill="none" stroke-width="1.066978" stroke-linecap="butt" stroke-linejoin="round" stroke="rgb(20%, 20%, 20%)" stroke-opacity="1" stroke-miterlimit="10" d="M 47.410156 44.125 L 50.152344 44.125 "/>
<path fill="none" stroke-width="1.066978" stroke-linecap="butt" stroke-linejoin="round" stroke="rgb(20%, 20%, 20%)" stroke-opacity="1" stroke-miterlimit="10" d="M 47.410156 25.105469 L 50.152344 25.105469 "/>
<g fill="rgb(30.196078%, 30.196078%, 30.196078%)" fill-opacity="1">
<use xlink:href="#glyph-0-5" x="40.21875" y="189.15332"/>
</g>
<g fill="rgb(30.196078%, 30.196078%, 30.196078%)" fill-opacity="1">
<use xlink:href="#glyph-0-6" x="40.21875" y="172.598633"/>
</g>
<g fill="rgb(30.196078%, 30.196078%, 30.196078%)" fill-opacity="1">
<use xlink:href="#glyph-0-7" x="40.21875" y="156.047852"/>
</g>
<g fill="rgb(30.196078%, 30.196078%, 30.196078%)" fill-opacity="1">
<use xlink:href="#glyph-0-8" x="40.21875" y="139.49707"/>
</g>
<path fill="none" stroke-width="1.066978" stroke-linecap="butt" stroke-linejoin="round" stroke="rgb(20%, 20%, 20%)" stroke-opacity="1" stroke-miterlimit="10" d="M 47.410156 186.238281 L 50.152344 186.238281 "/>
<path fill="none" stroke-width="1.066978" stroke-linecap="butt" stroke-linejoin="round" stroke="rgb(20%, 20%, 20%)" stroke-opacity="1" stroke-miterlimit="10" d="M 47.410156 169.683594 L 50.152344 169.683594 "/>
<path fill="none" stroke-width="1.066978" stroke-linecap="butt" stroke-linejoin="round" stroke="rgb(20%, 20%, 20%)" stroke-opacity="1" stroke-miterlimit="10" d="M 47.410156 153.132812 L 50.152344 153.132812 "/>
<path fill="none" stroke-width="1.066978" stroke-linecap="butt" stroke-linejoin="round" stroke="rgb(20%, 20%, 20%)" stroke-opacity="1" stroke-miterlimit="10" d="M 47.410156 136.582031 L 50.152344 136.582031 "/>
<g fill="rgb(30.196078%, 30.196078%, 30.196078%)" fill-opacity="1">
<use xlink:href="#glyph-0-11" x="33.21875" y="287.454102"/>
<use xlink:href="#glyph-0-12" x="38.21875" y="287.454102"/>
<use xlink:href="#glyph-0-4" x="40.21875" y="287.454102"/>
</g>
<g fill="rgb(30.196078%, 30.196078%, 30.196078%)" fill-opacity="1">
<use xlink:href="#glyph-0-11" x="33.21875" y="273.579102"/>
<use xlink:href="#glyph-0-12" x="38.21875" y="273.579102"/>
<use xlink:href="#glyph-0-13" x="40.21875" y="273.579102"/>
</g>
<g fill="rgb(30.196078%, 30.196078%, 30.196078%)" fill-opacity="1">
<use xlink:href="#glyph-0-14" x="33.21875" y="259.700195"/>
<use xlink:href="#glyph-0-12" x="38.21875" y="259.700195"/>
<use xlink:href="#glyph-0-4" x="40.21875" y="259.700195"/>
</g>
<g fill="rgb(30.196078%, 30.196078%, 30.196078%)" fill-opacity="1">
<use xlink:href="#glyph-0-14" x="33.21875" y="245.825195"/>
<use xlink:href="#glyph-0-12" x="38.21875" y="245.825195"/>
<use xlink:href="#glyph-0-13" x="40.21875" y="245.825195"/>
</g>
<g fill="rgb(30.196078%, 30.196078%, 30.196078%)" fill-opacity="1">
<use xlink:href="#glyph-0-10" x="33.21875" y="231.946289"/>
<use xlink:href="#glyph-0-12" x="38.21875" y="231.946289"/>
<use xlink:href="#glyph-0-4" x="40.21875" y="231.946289"/>
</g>
<path fill="none" stroke-width="1.066978" stroke-linecap="butt" stroke-linejoin="round" stroke="rgb(20%, 20%, 20%)" stroke-opacity="1" stroke-miterlimit="10" d="M 47.410156 284.539062 L 50.152344 284.539062 "/>
<path fill="none" stroke-width="1.066978" stroke-linecap="butt" stroke-linejoin="round" stroke="rgb(20%, 20%, 20%)" stroke-opacity="1" stroke-miterlimit="10" d="M 47.410156 270.664062 L 50.152344 270.664062 "/>
<path fill="none" stroke-width="1.066978" stroke-linecap="butt" stroke-linejoin="round" stroke="rgb(20%, 20%, 20%)" stroke-opacity="1" stroke-miterlimit="10" d="M 47.410156 256.785156 L 50.152344 256.785156 "/>
<path fill="none" stroke-width="1.066978" stroke-linecap="butt" stroke-linejoin="round" stroke="rgb(20%, 20%, 20%)" stroke-opacity="1" stroke-miterlimit="10" d="M 47.410156 242.910156 L 50.152344 242.910156 "/>
<path fill="none" stroke-width="1.066978" stroke-linecap="butt" stroke-linejoin="round" stroke="rgb(20%, 20%, 20%)" stroke-opacity="1" stroke-miterlimit="10" d="M 47.410156 229.03125 L 50.152344 229.03125 "/>
<g fill="rgb(30.196078%, 30.196078%, 30.196078%)" fill-opacity="1">
<use xlink:href="#glyph-0-15" x="30.21875" y="390.598633"/>
<use xlink:href="#glyph-0-4" x="33.21875" y="390.598633"/>
<use xlink:href="#glyph-0-12" x="38.21875" y="390.598633"/>
<use xlink:href="#glyph-0-13" x="40.21875" y="390.598633"/>
</g>
<g fill="rgb(30.196078%, 30.196078%, 30.196078%)" fill-opacity="1">
<use xlink:href="#glyph-0-4" x="33.21875" y="374.262695"/>
<use xlink:href="#glyph-0-12" x="38.21875" y="374.262695"/>
<use xlink:href="#glyph-0-4" x="40.21875" y="374.262695"/>
</g>
<g fill="rgb(30.196078%, 30.196078%, 30.196078%)" fill-opacity="1">
<use xlink:href="#glyph-0-4" x="33.21875" y="357.922852"/>
<use xlink:href="#glyph-0-12" x="38.21875" y="357.922852"/>
<use xlink:href="#glyph-0-13" x="40.21875" y="357.922852"/>
</g>
<g fill="rgb(30.196078%, 30.196078%, 30.196078%)" fill-opacity="1">
<use xlink:href="#glyph-0-5" x="33.21875" y="341.586914"/>
<use xlink:href="#glyph-0-12" x="38.21875" y="341.586914"/>
<use xlink:href="#glyph-0-4" x="40.21875" y="341.586914"/>
</g>
<g fill="rgb(30.196078%, 30.196078%, 30.196078%)" fill-opacity="1">
<use xlink:href="#glyph-0-5" x="33.21875" y="325.250977"/>
<use xlink:href="#glyph-0-12" x="38.21875" y="325.250977"/>
<use xlink:href="#glyph-0-13" x="40.21875" y="325.250977"/>
</g>
<path fill="none" stroke-width="1.066978" stroke-linecap="butt" stroke-linejoin="round" stroke="rgb(20%, 20%, 20%)" stroke-opacity="1" stroke-miterlimit="10" d="M 47.410156 387.683594 L 50.152344 387.683594 "/>
<path fill="none" stroke-width="1.066978" stroke-linecap="butt" stroke-linejoin="round" stroke="rgb(20%, 20%, 20%)" stroke-opacity="1" stroke-miterlimit="10" d="M 47.410156 371.347656 L 50.152344 371.347656 "/>
<path fill="none" stroke-width="1.066978" stroke-linecap="butt" stroke-linejoin="round" stroke="rgb(20%, 20%, 20%)" stroke-opacity="1" stroke-miterlimit="10" d="M 47.410156 355.007812 L 50.152344 355.007812 "/>
<path fill="none" stroke-width="1.066978" stroke-linecap="butt" stroke-linejoin="round" stroke="rgb(20%, 20%, 20%)" stroke-opacity="1" stroke-miterlimit="10" d="M 47.410156 338.671875 L 50.152344 338.671875 "/>
<path fill="none" stroke-width="1.066978" stroke-linecap="butt" stroke-linejoin="round" stroke="rgb(20%, 20%, 20%)" stroke-opacity="1" stroke-miterlimit="10" d="M 47.410156 322.335938 L 50.152344 322.335938 "/>
<g fill="rgb(0%, 0%, 0%)" fill-opacity="1">
<use xlink:href="#glyph-1-0" x="264.335938" y="422.538086"/>
<use xlink:href="#glyph-1-1" x="267.335938" y="422.538086"/>
<use xlink:href="#glyph-1-2" x="269.335938" y="422.538086"/>
<use xlink:href="#glyph-1-3" x="278.335938" y="422.538086"/>
</g>
</svg>
