<?xml version="1.0" encoding="UTF-8"?>
<svg xmlns="http://www.w3.org/2000/svg" xmlns:xlink="http://www.w3.org/1999/xlink" width="504pt" height="432pt" viewBox="0 0 504 432">
<defs>
<g>
<g id="glyph-0-0">
<path d="M 3.40625 -2.515625 L 5.8125 -6.40625 L 4.84375 -6.40625 L 3.015625 -3.296875 L 1.125 -6.40625 L 0.109375 -6.40625 L 2.59375 -2.515625 L 2.59375 0 L 3.40625 0 Z M 3.40625 -2.515625 "/>
</g>
<g id="glyph-0-1">
<path d="M 3.4375 -3.296875 L 5.609375 -6.40625 L 4.625 -6.40625 L 2.96875 -3.890625 L 1.328125 -6.40625 L 0.328125 -6.40625 L 2.46875 -3.296875 L 0.1875 0 L 1.1875 0 L 2.953125 -2.671875 L 4.703125 0 L 5.703125 0 Z M 3.4375 -3.296875 "/>
</g>
<g id="glyph-0-2">
<path d="M 0.46875 1.921875 L 1.21875 1.921875 L 1.21875 -0.484375 C 1.59375 -0.015625 2.03125 0.203125 2.625 0.203125 C 3.828125 0.203125 4.59375 -0.75 4.59375 -2.21875 C 4.59375 -3.78125 3.84375 -4.734375 2.625 -4.734375 C 2 -4.734375 1.5 -4.453125 1.15625 -3.921875 L 1.15625 -4.609375 L 0.46875 -4.609375 Z M 2.5 -4.0625 C 3.3125 -4.0625 3.828125 -3.34375 3.828125 -2.25 C 3.828125 -1.203125 3.296875 -0.484375 2.5 -0.484375 C 1.71875 -0.484375 1.21875 -1.1875 1.21875 -2.265625 C 1.21875 -3.359375 1.71875 -4.0625 2.5 -4.0625 Z M 2.5 -4.0625 "/>
</g>
<g id="glyph-0-3">
<path d="M 0.609375 -4.609375 L 0.609375 0 L 1.359375 0 L 1.359375 -2.546875 C 1.359375 -3.484375 1.84375 -4.09375 2.609375 -4.09375 C 3.1875 -4.09375 3.546875 -3.75 3.546875 -3.1875 L 3.546875 0 L 4.28125 0 L 4.28125 -3.484375 C 4.28125 -4.25 3.71875 -4.734375 2.828125 -4.734375 C 2.140625 -4.734375 1.703125 -4.484375 1.296875 -3.828125 L 1.296875 -4.609375 Z M 0.609375 -4.609375 "/>
</g>
<g id="glyph-0-4">
<path d="M 2.421875 -6.359375 C 1.84375 -6.359375 1.3125 -6.09375 0.984375 -5.671875 C 0.578125 -5.109375 0.375 -4.25 0.375 -3.078125 C 0.375 -0.9375 1.078125 0.203125 2.421875 0.203125 C 3.734375 0.203125 4.453125 -0.9375 4.453125 -3.03125 C 4.453125 -4.25 4.265625 -5.078125 3.859375 -5.671875 C 3.53125 -6.109375 3.015625 -6.359375 2.421875 -6.359375 Z M 2.421875 -5.671875 C 3.25 -5.671875 3.671875 -4.828125 3.671875 -3.09375 C 3.671875 -1.28125 3.265625 -0.4375 2.40625 -0.4375 C 1.578125 -0.4375 1.171875 -1.3125 1.171875 -3.0625 C 1.171875 -4.828125 1.578125 -5.671875 2.421875 -5.671875 Z M 2.421875 -5.671875 "/>
</g>
<g id="glyph-0-5">
<path d="M 2.28125 -4.53125 L 2.28125 0 L 3.046875 0 L 3.046875 -6.359375 L 2.546875 -6.359375 C 2.265625 -5.390625 2.09375 -5.25 0.890625 -5.09375 L 0.890625 -4.53125 Z M 2.28125 -4.53125 "/>
</g>
<g id="glyph-0-6">
<path d="M 4.453125 -0.765625 L 1.171875 -0.765625 C 1.25 -1.296875 1.53125 -1.625 2.296875 -2.09375 L 3.171875 -2.59375 C 4.046875 -3.0625 4.5 -3.71875 4.5 -4.5 C 4.5 -5.03125 4.28125 -5.53125 3.921875 -5.875 C 3.546875 -6.203125 3.09375 -6.359375 2.5 -6.359375 C 1.703125 -6.359375 1.125 -6.078125 0.78125 -5.53125 C 0.546875 -5.203125 0.453125 -4.796875 0.4375 -4.15625 L 1.21875 -4.15625 C 1.234375 -4.59375 1.296875 -4.84375 1.40625 -5.0625 C 1.59375 -5.4375 2 -5.6875 2.46875 -5.6875 C 3.171875 -5.6875 3.703125 -5.171875 3.703125 -4.484375 C 3.703125 -3.96875 3.40625 -3.53125 2.859375 -3.21875 L 2.046875 -2.75 C 0.75 -2 0.375 -1.40625 0.296875 -0.015625 L 4.453125 -0.015625 Z M 4.453125 -0.765625 "/>
</g>
<g id="glyph-0-7">
<path d="M 1.9375 -2.921875 L 2.359375 -2.921875 C 3.203125 -2.921875 3.65625 -2.53125 3.65625 -1.765625 C 3.65625 -0.96875 3.171875 -0.484375 2.375 -0.484375 C 1.515625 -0.484375 1.109375 -0.921875 1.0625 -1.84375 L 0.28125 -1.84375 C 0.3125 -1.34375 0.40625 -1 0.546875 -0.71875 C 0.875 -0.109375 1.484375 0.203125 2.34375 0.203125 C 3.625 0.203125 4.453125 -0.578125 4.453125 -1.78125 C 4.453125 -2.59375 4.140625 -3.03125 3.390625 -3.296875 C 3.96875 -3.53125 4.265625 -3.96875 4.265625 -4.609375 C 4.265625 -5.703125 3.546875 -6.359375 2.359375 -6.359375 C 1.109375 -6.359375 0.4375 -5.65625 0.40625 -4.3125 L 1.1875 -4.3125 C 1.203125 -4.703125 1.234375 -4.921875 1.328125 -5.109375 C 1.5 -5.46875 1.890625 -5.6875 2.375 -5.6875 C 3.0625 -5.6875 3.46875 -5.265625 3.46875 -4.578125 C 3.46875 -4.140625 3.3125 -3.859375 2.96875 -3.71875 C 2.765625 -3.625 2.484375 -3.59375 1.9375 -3.578125 Z M 1.9375 -2.921875 "/>
</g>
<g id="glyph-0-8">
<path d="M 2.875 -1.546875 L 2.875 0 L 3.65625 0 L 3.65625 -1.546875 L 4.578125 -1.546875 L 4.578125 -2.234375 L 3.65625 -2.234375 L 3.65625 -6.359375 L 3.078125 -6.359375 L 0.25 -2.359375 L 0.25 -1.546875 Z M 2.875 -2.234375 L 0.921875 -2.234375 L 2.875 -5.046875 Z M 2.875 -2.234375 "/>
</g>
<g id="glyph-0-9">
<path d="M 4.375 -4.703125 C 4.234375 -5.75 3.5625 -6.359375 2.609375 -6.359375 C 1.921875 -6.359375 1.3125 -6.03125 0.9375 -5.453125 C 0.546875 -4.828125 0.375 -4.0625 0.375 -2.90625 C 0.375 -1.828125 0.53125 -1.15625 0.90625 -0.59375 C 1.234375 -0.078125 1.78125 0.203125 2.46875 0.203125 C 3.65625 0.203125 4.515625 -0.6875 4.515625 -1.921875 C 4.515625 -3.09375 3.71875 -3.921875 2.609375 -3.921875 C 1.984375 -3.921875 1.5 -3.6875 1.171875 -3.234375 C 1.171875 -4.796875 1.671875 -5.671875 2.5625 -5.671875 C 3.109375 -5.671875 3.484375 -5.328125 3.609375 -4.703125 Z M 2.5 -3.234375 C 3.25 -3.234375 3.71875 -2.703125 3.71875 -1.859375 C 3.71875 -1.0625 3.1875 -0.484375 2.484375 -0.484375 C 1.765625 -0.484375 1.21875 -1.09375 1.21875 -1.90625 C 1.21875 -2.6875 1.734375 -3.234375 2.5 -3.234375 Z M 2.5 -3.234375 "/>
</g>
<g id="glyph-0-10">
<path d="M 0.46875 -1.453125 C 0.609375 -0.40625 1.28125 0.203125 2.234375 0.203125 C 2.921875 0.203125 3.546875 -0.125 3.921875 -0.703125 C 4.296875 -1.328125 4.484375 -2.109375 4.484375 -3.25 C 4.484375 -4.328125 4.3125 -5 3.953125 -5.5625 C 3.609375 -6.09375 3.0625 -6.359375 2.375 -6.359375 C 1.1875 -6.359375 0.328125 -5.46875 0.328125 -4.234375 C 0.328125 -3.0625 1.125 -2.25 2.25 -2.25 C 2.84375 -2.25 3.28125 -2.453125 3.671875 -2.9375 C 3.671875 -1.359375 3.171875 -0.484375 2.28125 -0.484375 C 1.734375 -0.484375 1.359375 -0.828125 1.234375 -1.453125 Z M 2.359375 -5.6875 C 3.09375 -5.6875 3.640625 -5.078125 3.640625 -4.25 C 3.640625 -3.46875 3.109375 -2.921875 2.34375 -2.921875 C 1.59375 -2.921875 1.125 -3.453125 1.125 -4.296875 C 1.125 -5.109375 1.640625 -5.6875 2.359375 -5.6875 Z M 2.359375 -5.6875 "/>
</g>
<g id="glyph-0-11">
<path d="M 4.1875 -6.234375 L 0.96875 -6.234375 L 0.5 -2.84375 L 1.21875 -2.84375 C 1.578125 -3.265625 1.875 -3.421875 2.359375 -3.421875 C 3.203125 -3.421875 3.71875 -2.84375 3.71875 -1.921875 C 3.71875 -1.03125 3.203125 -0.484375 2.359375 -0.484375 C 1.6875 -0.484375 1.265625 -0.828125 1.078125 -1.53125 L 0.3125 -1.53125 C 0.40625 -1.015625 0.5 -0.78125 0.6875 -0.546875 C 1.03125 -0.078125 1.671875 0.203125 2.375 0.203125 C 3.640625 0.203125 4.515625 -0.71875 4.515625 -2.03125 C 4.515625 -3.265625 3.6875 -4.109375 2.5 -4.109375 C 2.0625 -4.109375 1.703125 -4 1.34375 -3.734375 L 1.59375 -5.46875 L 4.1875 -5.46875 Z M 4.1875 -6.234375 "/>
</g>
<g id="glyph-0-12">
<path d="M 4.578125 -6.234375 L 0.40625 -6.234375 L 0.40625 -5.46875 L 3.78125 -5.46875 C 2.28125 -3.359375 1.6875 -2.046875 1.21875 0 L 2.046875 0 C 2.390625 -2 3.171875 -3.71875 4.578125 -5.59375 Z M 4.578125 -6.234375 "/>
</g>
<g id="glyph-0-13">
<path d="M 3.4375 -3.359375 C 4.09375 -3.75 4.296875 -4.0625 4.296875 -4.65625 C 4.296875 -5.671875 3.53125 -6.359375 2.421875 -6.359375 C 1.3125 -6.359375 0.546875 -5.671875 0.546875 -4.671875 C 0.546875 -4.0625 0.75 -3.75 1.390625 -3.359375 C 0.671875 -2.984375 0.328125 -2.46875 0.328125 -1.765625 C 0.328125 -0.609375 1.171875 0.203125 2.421875 0.203125 C 3.65625 0.203125 4.515625 -0.609375 4.515625 -1.765625 C 4.515625 -2.46875 4.15625 -2.984375 3.4375 -3.359375 Z M 2.421875 -5.671875 C 3.078125 -5.671875 3.5 -5.28125 3.5 -4.640625 C 3.5 -4.046875 3.0625 -3.65625 2.421875 -3.65625 C 1.765625 -3.65625 1.34375 -4.046875 1.34375 -4.65625 C 1.34375 -5.28125 1.765625 -5.671875 2.421875 -5.671875 Z M 2.421875 -3 C 3.1875 -3 3.71875 -2.484375 3.71875 -1.75 C 3.71875 -0.984375 3.203125 -0.484375 2.40625 -0.484375 C 1.640625 -0.484375 1.125 -1 1.125 -1.734375 C 1.125 -2.5 1.640625 -3 2.421875 -3 Z M 2.421875 -3 "/>
</g>
<g id="glyph-0-14">
<path d="M 2.5 -2.75 L 0.40625 -2.75 L 0.40625 -2.109375 L 2.5 -2.109375 Z M 2.5 -2.75 "/>
</g>
<g id="glyph-0-15">
<path d="M 1.6875 -0.921875 L 0.765625 -0.921875 L 0.765625 0 L 1.6875 0 Z M 1.6875 -0.921875 "/>
</g>
<g id="glyph-1-0">
<path d="M 2.796875 -5.765625 L 1.84375 -5.765625 L 1.84375 -7.34375 L 0.9375 -7.34375 L 0.9375 -5.765625 L 0.15625 -5.765625 L 0.15625 -5.015625 L 0.9375 -5.015625 L 0.9375 -0.65625 C 0.9375 -0.0625 1.328125 0.25 2.046875 0.25 C 2.28125 0.25 2.484375 0.234375 2.796875 0.171875 L 2.796875 -0.59375 C 2.65625 -0.5625 2.546875 -0.546875 2.359375 -0.546875 C 1.953125 -0.546875 1.84375 -0.65625 1.84375 -1.0625 L 1.84375 -5.015625 L 2.796875 -5.015625 Z M 2.796875 -5.765625 "/>
</g>
<g id="glyph-1-1">
<path d="M 1.65625 -5.765625 L 0.734375 -5.765625 L 0.734375 0 L 1.65625 0 Z M 1.65625 -8.015625 L 0.71875 -8.015625 L 0.71875 -6.859375 L 1.65625 -6.859375 Z M 1.65625 -8.015625 "/>
</g>
<g id="glyph-1-2">
<path d="M 0.765625 -5.765625 L 0.765625 0 L 1.6875 0 L 1.6875 -3.625 C 1.6875 -4.453125 2.296875 -5.125 3.046875 -5.125 C 3.734375 -5.125 4.109375 -4.703125 4.109375 -3.96875 L 4.109375 0 L 5.03125 0 L 5.03125 -3.625 C 5.03125 -4.453125 5.640625 -5.125 6.390625 -5.125 C 7.0625 -5.125 7.453125 -4.703125 7.453125 -3.96875 L 7.453125 0 L 8.375 0 L 8.375 -4.328125 C 8.375 -5.359375 7.78125 -5.921875 6.703125 -5.921875 C 5.9375 -5.921875 5.484375 -5.703125 4.9375 -5.046875 C 4.59375 -5.671875 4.140625 -5.921875 3.390625 -5.921875 C 2.625 -5.921875 2.09375 -5.640625 1.609375 -4.953125 L 1.609375 -5.765625 Z M 0.765625 -5.765625 "/>
</g>
<g id="glyph-1-3">
<path d="M 5.640625 -2.578125 C 5.640625 -3.453125 5.578125 -3.984375 5.40625 -4.40625 C 5.03125 -5.359375 4.15625 -5.921875 3.078125 -5.921875 C 1.46875 -5.921875 0.4375 -4.703125 0.4375 -2.8125 C 0.4375 -0.90625 1.4375 0.25 3.0625 0.25 C 4.375 0.25 5.296875 -0.5 5.515625 -1.75 L 4.59375 -1.75 C 4.34375 -0.984375 3.828125 -0.59375 3.09375 -0.59375 C 2.515625 -0.59375 2.015625 -0.859375 1.703125 -1.34375 C 1.484375 -1.671875 1.40625 -2 1.390625 -2.578125 Z M 1.421875 -3.328125 C 1.5 -4.390625 2.140625 -5.078125 3.0625 -5.078125 C 4 -5.078125 4.65625 -4.359375 4.65625 -3.328125 Z M 1.421875 -3.328125 "/>
</g>
</g>
<clipPath id="clip-0">
<path clip-rule="nonzero" d="M 45.152344 23.246094 L 498.523438 23.246094 L 498.523438 99.460938 L 45.152344 99.460938 Z M 45.152344 23.246094 "/>
</clipPath>
<clipPath id="clip-1">
<path clip-rule="nonzero" d="M 45.152344 89 L 498.523438 89 L 498.523438 90 L 45.152344 90 Z M 45.152344 89 "/>
</clipPath>
<clipPath id="clip-2">
<path clip-rule="nonzero" d="M 45.152344 68 L 498.523438 68 L 498.523438 70 L 45.152344 70 Z M 45.152344 68 "/>
</clipPath>
<clipPath id="clip-3">
<path clip-rule="nonzero" d="M 45.152344 48 L 498.523438 48 L 498.523438 50 L 45.152344 50 Z M 45.152344 48 "/>
</clipPath>
<clipPath id="clip-4">
<path clip-rule="nonzero" d="M 45.152344 28 L 498.523438 28 L 498.523438 29 L 45.152344 29 Z M 45.152344 28 "/>
</clipPath>
<clipPath id="clip-5">
<path clip-rule="nonzero" d="M 117 23.246094 L 118 23.246094 L 118 99.460938 L 117 99.460938 Z M 117 23.246094 "/>
</clipPath>
<clipPath id="clip-6">
<path clip-rule="nonzero" d="M 220 23.246094 L 221 23.246094 L 221 99.460938 L 220 99.460938 Z M 220 23.246094 "/>
</clipPath>
<clipPath id="clip-7">
<path clip-rule="nonzero" d="M 323 23.246094 L 324 23.246094 L 324 99.460938 L 323 99.460938 Z M 323 23.246094 "/>
</clipPath>
<clipPath id="clip-8">
<path clip-rule="nonzero" d="M 426 23.246094 L 427 23.246094 L 427 99.460938 L 426 99.460938 Z M 426 23.246094 "/>
</clipPath>
<clipPath id="clip-9">
<path clip-rule="nonzero" d="M 45.152344 98 L 498.523438 98 L 498.523438 99.460938 L 45.152344 99.460938 Z M 45.152344 98 "/>
</clipPath>
<clipPath id="clip-10">
<path clip-rule="nonzero" d="M 45.152344 78 L 498.523438 78 L 498.523438 80 L 45.152344 80 Z M 45.152344 78 "/>
</clipPath>
<clipPath id="clip-11">
<path clip-rule="nonzero" d="M 45.152344 58 L 498.523438 58 L 498.523438 60 L 45.152344 60 Z M 45.152344 58 "/>
</clipPath>
<clipPath id="clip-12">
<path clip-rule="nonzero" d="M 45.152344 38 L 498.523438 38 L 498.523438 40 L 45.152344 40 Z M 45.152344 38 "/>
</clipPath>
<clipPath id="clip-13">
<path clip-rule="nonzero" d="M 65 23.246094 L 67 23.246094 L 67 99.460938 L 65 99.460938 Z M 65 23.246094 "/>
</clipPath>
<clipPath id="clip-14">
<path clip-rule="nonzero" d="M 168 23.246094 L 170 23.246094 L 170 99.460938 L 168 99.460938 Z M 168 23.246094 "/>
</clipPath>
<clipPath id="clip-15">
<path clip-rule="nonzero" d="M 271 23.246094 L 273 23.246094 L 273 99.460938 L 271 99.460938 Z M 271 23.246094 "/>
</clipPath>
<clipPath id="clip-16">
<path clip-rule="nonzero" d="M 374 23.246094 L 376 23.246094 L 376 99.460938 L 374 99.460938 Z M 374 23.246094 "/>
</clipPath>
<clipPath id="clip-17">
<path clip-rule="nonzero" d="M 477 23.246094 L 479 23.246094 L 479 99.460938 L 477 99.460938 Z M 477 23.246094 "/>
</clipPath>
<clipPath id="clip-18">
<path clip-rule="nonzero" d="M 45.152344 23.246094 L 498.523438 23.246094 L 498.523438 99.460938 L 45.152344 99.460938 Z M 45.152344 23.246094 "/>
</clipPath>
<clipPath id="clip-19">
<path clip-rule="nonzero" d="M 45.152344 122.707031 L 498.523438 122.707031 L 498.523438 198.921875 L 45.152344 198.921875 Z M 45.152344 122.707031 "/>
</clipPath>
<clipPath id="clip-20">
<path clip-rule="nonzero" d="M 45.152344 196 L 498.523438 196 L 498.523438 197 L 45.152344 197 Z M 45.152344 196 "/>
</clipPath>
<clipPath id="clip-21">
<path clip-rule="nonzero" d="M 45.152344 180 L 498.523438 180 L 498.523438 181 L 45.152344 181 Z M 45.152344 180 "/>
</clipPath>
<clipPath id="clip-22">
<path clip-rule="nonzero" d="M 45.152344 164 L 498.523438 164 L 498.523438 165 L 45.152344 165 Z M 45.152344 164 "/>
</clipPath>
<clipPath id="clip-23">
<path clip-rule="nonzero" d="M 45.152344 148 L 498.523438 148 L 498.523438 149 L 45.152344 149 Z M 45.152344 148 "/>
</clipPath>
<clipPath id="clip-24">
<path clip-rule="nonzero" d="M 45.152344 132 L 498.523438 132 L 498.523438 134 L 45.152344 134 Z M 45.152344 132 "/>
</clipPath>
<clipPath id="clip-25">
<path clip-rule="nonzero" d="M 117 122.707031 L 118 122.707031 L 118 198.921875 L 117 198.921875 Z M 117 122.707031 "/>
</clipPath>
<clipPath id="clip-26">
<path clip-rule="nonzero" d="M 220 122.707031 L 221 122.707031 L 221 198.921875 L 220 198.921875 Z M 220 122.707031 "/>
</clipPath>
<clipPath id="clip-27">
<path clip-rule="nonzero" d="M 323 122.707031 L 324 122.707031 L 324 198.921875 L 323 198.921875 Z M 323 122.707031 "/>
</clipPath>
<clipPath id="clip-28">
<path clip-rule="nonzero" d="M 426 122.707031 L 427 122.707031 L 427 198.921875 L 426 198.921875 Z M 426 122.707031 "/>
</clipPath>
<clipPath id="clip-29">
<path clip-rule="nonzero" d="M 45.152344 188 L 498.523438 188 L 498.523438 190 L 45.152344 190 Z M 45.152344 188 "/>
</clipPath>
<clipPath id="clip-30">
<path clip-rule="nonzero" d="M 45.152344 172 L 498.523438 172 L 498.523438 174 L 45.152344 174 Z M 45.152344 172 "/>
</clipPath>
<clipPath id="clip-31">
<path clip-rule="nonzero" d="M 45.152344 156 L 498.523438 156 L 498.523438 158 L 45.152344 158 Z M 45.152344 156 "/>
</clipPath>
<clipPath id="clip-32">
<path clip-rule="nonzero" d="M 45.152344 140 L 498.523438 140 L 498.523438 142 L 45.152344 142 Z M 45.152344 140 "/>
</clipPath>
<clipPath id="clip-33">
<path clip-rule="nonzero" d="M 45.152344 124 L 498.523438 124 L 498.523438 126 L 45.152344 126 Z M 45.152344 124 "/>
</clipPath>
<clipPath id="clip-34">
<path clip-rule="nonzero" d="M 65 122.707031 L 67 122.707031 L 67 198.921875 L 65 198.921875 Z M 65 122.707031 "/>
</clipPath>
<clipPath id="clip-35">
<path clip-rule="nonzero" d="M 168 122.707031 L 170 122.707031 L 170 198.921875 L 168 198.921875 Z M 168 122.707031 "/>
</clipPath>
<clipPath id="clip-36">
<path clip-rule="nonzero" d="M 271 122.707031 L 273 122.707031 L 273 198.921875 L 271 198.921875 Z M 271 122.707031 "/>
</clipPath>
<clipPath id="clip-37">
<path clip-rule="nonzero" d="M 374 122.707031 L 376 122.707031 L 376 198.921875 L 374 198.921875 Z M 374 122.707031 "/>
</clipPath>
<clipPath id="clip-38">
<path clip-rule="nonzero" d="M 477 122.707031 L 479 122.707031 L 479 198.921875 L 477 198.921875 Z M 477 122.707031 "/>
</clipPath>
<clipPath id="clip-39">
<path clip-rule="nonzero" d="M 45.152344 122.707031 L 498.523438 122.707031 L 498.523438 198.921875 L 45.152344 198.921875 Z M 45.152344 122.707031 "/>
</clipPath>
<clipPath id="clip-40">
<path clip-rule="nonzero" d="M 45.152344 222.171875 L 498.523438 222.171875 L 498.523438 298.386719 L 45.152344 298.386719 Z M 45.152344 222.171875 "/>
</clipPath>
<clipPath id="clip-41">
<path clip-rule="nonzero" d="M 45.152344 291 L 498.523438 291 L 498.523438 292 L 45.152344 292 Z M 45.152344 291 "/>
</clipPath>
<clipPath id="clip-42">
<path clip-rule="nonzero" d="M 45.152344 266 L 498.523438 266 L 498.523438 267 L 45.152344 267 Z M 45.152344 266 "/>
</clipPath>
<clipPath id="clip-43">
<path clip-rule="nonzero" d="M 45.152344 241 L 498.523438 241 L 498.523438 242 L 45.152344 242 Z M 45.152344 241 "/>
</clipPath>
<clipPath id="clip-44">
<path clip-rule="nonzero" d="M 117 222.171875 L 118 222.171875 L 118 298.386719 L 117 298.386719 Z M 117 222.171875 "/>
</clipPath>
<clipPath id="clip-45">
<path clip-rule="nonzero" d="M 220 222.171875 L 221 222.171875 L 221 298.386719 L 220 298.386719 Z M 220 222.171875 "/>
</clipPath>
<clipPath id="clip-46">
<path clip-rule="nonzero" d="M 323 222.171875 L 324 222.171875 L 324 298.386719 L 323 298.386719 Z M 323 222.171875 "/>
</clipPath>
<clipPath id="clip-47">
<path clip-rule="nonzero" d="M 426 222.171875 L 427 222.171875 L 427 298.386719 L 426 298.386719 Z M 426 222.171875 "/>
</clipPath>
<clipPath id="clip-48">
<path clip-rule="nonzero" d="M 45.152344 278 L 498.523438 278 L 498.523438 280 L 45.152344 280 Z M 45.152344 278 "/>
</clipPath>
<clipPath id="clip-49">
<path clip-rule="nonzero" d="M 45.152344 253 L 498.523438 253 L 498.523438 255 L 45.152344 255 Z M 45.152344 253 "/>
</clipPath>
<clipPath id="clip-50">
<path clip-rule="nonzero" d="M 45.152344 228 L 498.523438 228 L 498.523438 230 L 45.152344 230 Z M 45.152344 228 "/>
</clipPath>
<clipPath id="clip-51">
<path clip-rule="nonzero" d="M 65 222.171875 L 67 222.171875 L 67 298.386719 L 65 298.386719 Z M 65 222.171875 "/>
</clipPath>
<clipPath id="clip-52">
<path clip-rule="nonzero" d="M 168 222.171875 L 170 222.171875 L 170 298.386719 L 168 298.386719 Z M 168 222.171875 "/>
</clipPath>
<clipPath id="clip-53">
<path clip-rule="nonzero" d="M 271 222.171875 L 273 222.171875 L 273 298.386719 L 271 298.386719 Z M 271 222.171875 "/>
</clipPath>
<clipPath id="clip-54">
<path clip-rule="nonzero" d="M 374 222.171875 L 376 222.171875 L 376 298.386719 L 374 298.386719 Z M 374 222.171875 "/>
</clipPath>
<clipPath id="clip-55">
<path clip-rule="nonzero" d="M 477 222.171875 L 479 222.171875 L 479 298.386719 L 477 298.386719 Z M 477 222.171875 "/>
</clipPath>
<clipPath id="clip-56">
<path clip-rule="nonzero" d="M 45.152344 222.171875 L 498.523438 222.171875 L 498.523438 298.386719 L 45.152344 298.386719 Z M 45.152344 222.171875 "/>
</clipPath>
<clipPath id="clip-57">
<path clip-rule="nonzero" d="M 45.152344 321.632812 L 498.523438 321.632812 L 498.523438 397.847656 L 45.152344 397.847656 Z M 45.152344 321.632812 "/>
</clipPath>
<clipPath id="clip-58">
<path clip-rule="nonzero" d="M 45.152344 382 L 498.523438 382 L 498.523438 384 L 45.152344 384 Z M 45.152344 382 "/>
</clipPath>
<clipPath id="clip-59">
<path clip-rule="nonzero" d="M 45.152344 365 L 498.523438 365 L 498.523438 366 L 45.152344 366 Z M 45.152344 365 "/>
</clipPath>
<clipPath id="clip-60">
<path clip-rule="nonzero" d="M 45.152344 348 L 498.523438 348 L 498.523438 349 L 45.152344 349 Z M 45.152344 348 "/>
</clipPath>
<clipPath id="clip-61">
<path clip-rule="nonzero" d="M 45.152344 331 L 498.523438 331 L 498.523438 332 L 45.152344 332 Z M 45.152344 331 "/>
</clipPath>
<clipPath id="clip-62">
<path clip-rule="nonzero" d="M 117 321.632812 L 118 321.632812 L 118 397.847656 L 117 397.847656 Z M 117 321.632812 "/>
</clipPath>
<clipPath id="clip-63">
<path clip-rule="nonzero" d="M 220 321.632812 L 221 321.632812 L 221 397.847656 L 220 397.847656 Z M 220 321.632812 "/>
</clipPath>
<clipPath id="clip-64">
<path clip-rule="nonzero" d="M 323 321.632812 L 324 321.632812 L 324 397.847656 L 323 397.847656 Z M 323 321.632812 "/>
</clipPath>
<clipPath id="clip-65">
<path clip-rule="nonzero" d="M 426 321.632812 L 427 321.632812 L 427 397.847656 L 426 397.847656 Z M 426 321.632812 "/>
</clipPath>
<clipPath id="clip-66">
<path clip-rule="nonzero" d="M 45.152344 390 L 498.523438 390 L 498.523438 392 L 45.152344 392 Z M 45.152344 390 "/>
</clipPath>
<clipPath id="clip-67">
<path clip-rule="nonzero" d="M 45.152344 373 L 498.523438 373 L 498.523438 375 L 45.152344 375 Z M 45.152344 373 "/>
</clipPath>
<clipPath id="clip-68">
<path clip-rule="nonzero" d="M 45.152344 356 L 498.523438 356 L 498.523438 358 L 45.152344 358 Z M 45.152344 356 "/>
</clipPath>
<clipPath id="clip-69">
<path clip-rule="nonzero" d="M 45.152344 339 L 498.523438 339 L 498.523438 341 L 45.152344 341 Z M 45.152344 339 "/>
</clipPath>
<clipPath id="clip-70">
<path clip-rule="nonzero" d="M 45.152344 322 L 498.523438 322 L 498.523438 324 L 45.152344 324 Z M 45.152344 322 "/>
</clipPath>
<clipPath id="clip-71">
<path clip-rule="nonzero" d="M 65 321.632812 L 67 321.632812 L 67 397.847656 L 65 397.847656 Z M 65 321.632812 "/>
</clipPath>
<clipPath id="clip-72">
<path clip-rule="nonzero" d="M 168 321.632812 L 170 321.632812 L 170 397.847656 L 168 397.847656 Z M 168 321.632812 "/>
</clipPath>
<clipPath id="clip-73">
<path clip-rule="nonzero" d="M 271 321.632812 L 273 321.632812 L 273 397.847656 L 271 397.847656 Z M 271 321.632812 "/>
</clipPath>
<clipPath id="clip-74">
<path clip-rule="nonzero" d="M 374 321.632812 L 376 321.632812 L 376 397.847656 L 374 397.847656 Z M 374 321.632812 "/>
</clipPath>
<clipPath id="clip-75">
<path clip-rule="nonzero" d="M 477 321.632812 L 479 321.632812 L 479 397.847656 L 477 397.847656 Z M 477 321.632812 "/>
</clipPath>
<clipPath id="clip-76">
<path clip-rule="nonzero" d="M 45.152344 321.632812 L 498.523438 321.632812 L 498.523438 397.847656 L 45.152344 397.847656 Z M 45.152344 321.632812 "/>
</clipPath>
<clipPath id="clip-77">
<path clip-rule="nonzero" d="M 45.152344 303.867188 L 498.523438 303.867188 L 498.523438 321.632812 L 45.152344 321.632812 Z M 45.152344 303.867188 "/>
</clipPath>
<clipPath id="clip-78">
<path clip-rule="nonzero" d="M 45.152344 204.402344 L 498.523438 204.402344 L 498.523438 222.167969 L 45.152344 222.167969 Z M 45.152344 204.402344 "/>
</clipPath>
<clipPath id="clip-79">
<path clip-rule="nonzero" d="M 45.152344 104.941406 L 498.523438 104.941406 L 498.523438 122.707031 L 45.152344 122.707031 Z M 45.152344 104.941406 "/>
</clipPath>
<clipPath id="clip-80">
<path clip-rule="nonzero" d="M 45.152344 5.480469 L 498.523438 5.480469 L 498.523438 23.246094 L 45.152344 23.246094 Z M 45.152344 5.480469 "/>
</clipPath>
</defs>
<rect x="-50.4" y="-43.2" width="604.8" height="518.4" fill="rgb(100%, 100%, 100%)" fill-opacity="1"/>
<rect x="-50.4" y="-43.2" width="604.8" height="518.4" fill="rgb(100%, 100%, 100%)" fill-opacity="1"/>
<path fill="none" stroke-width="1.066978" stroke-linecap="round" stroke-linejoin="round" stroke="rgb(100%, 100%, 100%)" stroke-opacity="1" stroke-miterlimit="10" d="M 0 432 L 504 432 L 504 0 L 0 0 Z M 0 432 "/>
<g clip-path="url(#clip-0)">
<path fill-rule="nonzero" fill="rgb(100%, 100%, 100%)" fill-opacity="1" d="M 45.152344 99.460938 L 498.523438 99.460938 L 498.523438 23.246094 L 45.152344 23.246094 Z M 45.152344 99.460938 "/>
</g>
<g clip-path="url(#clip-1)">
<path fill="none" stroke-width="0.533489" stroke-linecap="butt" stroke-linejoin="round" stroke="rgb(92.156863%, 92.156863%, 92.156863%)" stroke-opacity="1" stroke-miterlimit="10" d="M 45.152344 89.316406 L 498.519531 89.316406 "/>
</g>
<g clip-path="url(#clip-2)">
<path fill="none" stroke-width="0.533489" stroke-linecap="butt" stroke-linejoin="round" stroke="rgb(92.156863%, 92.156863%, 92.156863%)" stroke-opacity="1" stroke-miterlimit="10" d="M 45.152344 69.050781 L 498.519531 69.050781 "/>
</g>
<g clip-path="url(#clip-3)">
<path fill="none" stroke-width="0.533489" stroke-linecap="butt" stroke-linejoin="round" stroke="rgb(92.156863%, 92.156863%, 92.156863%)" stroke-opacity="1" stroke-miterlimit="10" d="M 45.152344 48.785156 L 498.519531 48.785156 "/>
</g>
<g clip-path="url(#clip-4)">
<path fill="none" stroke-width="0.533489" stroke-linecap="butt" stroke-linejoin="round" stroke="rgb(92.156863%, 92.156863%, 92.156863%)" stroke-opacity="1" stroke-miterlimit="10" d="M 45.152344 28.519531 L 498.519531 28.519531 "/>
</g>
<g clip-path="url(#clip-5)">
<path fill="none" stroke-width="0.533489" stroke-linecap="butt" stroke-linejoin="round" stroke="rgb(92.156863%, 92.156863%, 92.156863%)" stroke-opacity="1" stroke-miterlimit="10" d="M 117.277344 99.460938 L 117.277344 23.246094 "/>
</g>
<g clip-path="url(#clip-6)">
<path fill="none" stroke-width="0.533489" stroke-linecap="butt" stroke-linejoin="round" stroke="rgb(92.156863%, 92.156863%, 92.156863%)" stroke-opacity="1" stroke-miterlimit="10" d="M 220.316406 99.460938 L 220.316406 23.246094 "/>
</g>
<g clip-path="url(#clip-7)">
<path fill="none" stroke-width="0.533489" stroke-linecap="butt" stroke-linejoin="round" stroke="rgb(92.156863%, 92.156863%, 92.156863%)" stroke-opacity="1" stroke-miterlimit="10" d="M 323.355469 99.460938 L 323.355469 23.246094 "/>
</g>
<g clip-path="url(#clip-8)">
<path fill="none" stroke-width="0.533489" stroke-linecap="butt" stroke-linejoin="round" stroke="rgb(92.156863%, 92.156863%, 92.156863%)" stroke-opacity="1" stroke-miterlimit="10" d="M 426.394531 99.460938 L 426.394531 23.246094 "/>
</g>
<g clip-path="url(#clip-9)">
<path fill="none" stroke-width="1.066978" stroke-linecap="butt" stroke-linejoin="round" stroke="rgb(92.156863%, 92.156863%, 92.156863%)" stroke-opacity="1" stroke-miterlimit="10" d="M 45.152344 99.449219 L 498.519531 99.449219 "/>
</g>
<g clip-path="url(#clip-10)">
<path fill="none" stroke-width="1.066978" stroke-linecap="butt" stroke-linejoin="round" stroke="rgb(92.156863%, 92.156863%, 92.156863%)" stroke-opacity="1" stroke-miterlimit="10" d="M 45.152344 79.183594 L 498.519531 79.183594 "/>
</g>
<g clip-path="url(#clip-11)">
<path fill="none" stroke-width="1.066978" stroke-linecap="butt" stroke-linejoin="round" stroke="rgb(92.156863%, 92.156863%, 92.156863%)" stroke-opacity="1" stroke-miterlimit="10" d="M 45.152344 58.917969 L 498.519531 58.917969 "/>
</g>
<g clip-path="url(#clip-12)">
<path fill="none" stroke-width="1.066978" stroke-linecap="butt" stroke-linejoin="round" stroke="rgb(92.156863%, 92.156863%, 92.156863%)" stroke-opacity="1" stroke-miterlimit="10" d="M 45.152344 38.652344 L 498.519531 38.652344 "/>
</g>
<g clip-path="url(#clip-13)">
<path fill="none" stroke-width="1.066978" stroke-linecap="butt" stroke-linejoin="round" stroke="rgb(92.156863%, 92.156863%, 92.156863%)" stroke-opacity="1" stroke-miterlimit="10" d="M 65.757812 99.460938 L 65.757812 23.246094 "/>
</g>
<g clip-path="url(#clip-14)">
<path fill="none" stroke-width="1.066978" stroke-linecap="butt" stroke-linejoin="round" stroke="rgb(92.156863%, 92.156863%, 92.156863%)" stroke-opacity="1" stroke-miterlimit="10" d="M 168.796875 99.460938 L 168.796875 23.246094 "/>
</g>
<g clip-path="url(#clip-15)">
<path fill="none" stroke-width="1.066978" stroke-linecap="butt" stroke-linejoin="round" stroke="rgb(92.156863%, 92.156863%, 92.156863%)" stroke-opacity="1" stroke-miterlimit="10" d="M 271.835938 99.460938 L 271.835938 23.246094 "/>
</g>
<g clip-path="url(#clip-16)">
<path fill="none" stroke-width="1.066978" stroke-linecap="butt" stroke-linejoin="round" stroke="rgb(92.156863%, 92.156863%, 92.156863%)" stroke-opacity="1" stroke-miterlimit="10" d="M 374.875 99.460938 L 374.875 23.246094 "/>
</g>
<g clip-path="url(#clip-17)">
<path fill="none" stroke-width="1.066978" stroke-linecap="butt" stroke-linejoin="round" stroke="rgb(92.156863%, 92.156863%, 92.156863%)" stroke-opacity="1" stroke-miterlimit="10" d="M 477.914062 99.460938 L 477.914062 23.246094 "/>
</g>
<path fill="none" stroke-width="1.066978" stroke-linecap="butt" stroke-linejoin="round" stroke="rgb(0%, 0%, 0%)" stroke-opacity="1" stroke-miterlimit="10" d="M 65.757812 81.632812 L 66.789062 86.507812 L 67.820312 89.90625 L 68.847656 89.875 L 69.878906 90.550781 L 70.910156 88.007812 L 71.941406 84.511719 L 72.972656 72.265625 L 74 59.421875 L 75.03125 54.160156 L 76.0625 44.792969 L 77.09375 46.660156 L 78.121094 38.011719 L 79.152344 35.246094 L 80.183594 32.734375 L 81.214844 49.292969 L 82.246094 54.203125 L 83.273438 52.296875 L 84.304688 39.917969 L 85.335938 50.632812 L 86.367188 44.054688 L 87.398438 53.59375 L 88.425781 52.457031 L 89.457031 59.558594 L 90.488281 61.601562 L 91.519531 65.957031 L 92.546875 65.675781 L 93.578125 75.347656 L 94.609375 71.617188 L 95.640625 72.667969 L 96.671875 78.144531 L 97.699219 78.6875 L 98.730469 79.421875 L 99.761719 81.890625 L 100.792969 84.097656 L 101.820312 78.691406 L 102.851562 73.21875 L 103.882812 75.277344 L 104.914062 73.507812 L 105.945312 66.097656 L 106.972656 58.320312 L 108.003906 61.71875 L 109.035156 59.035156 L 110.066406 58.15625 L 111.09375 60.074219 L 112.125 65.277344 L 113.15625 66.289062 L 114.1875 65.445312 L 115.21875 65.914062 L 116.246094 75.367188 L 117.277344 73.921875 L 118.308594 81.921875 L 119.339844 82.574219 L 120.367188 88.679688 L 121.398438 90.628906 L 122.429688 90.53125 L 123.460938 92.039062 L 124.492188 90.234375 L 125.519531 88.253906 L 126.550781 82.320312 L 127.582031 77.414062 L 128.613281 58.78125 L 129.640625 56.382812 L 130.671875 49.371094 L 131.703125 47.914062 L 132.734375 48.636719 L 133.765625 33.910156 L 134.792969 36.425781 L 135.824219 48.464844 L 136.855469 41.019531 L 137.886719 35.683594 L 138.914062 50.21875 L 139.945312 32.566406 L 140.976562 43.210938 L 142.007812 49.144531 L 143.039062 51.695312 L 144.066406 53.1875 L 145.097656 53.296875 L 146.128906 70.632812 L 147.160156 63.246094 L 148.1875 75.390625 L 149.21875 75.519531 L 150.25 77.527344 L 151.28125 84.398438 L 152.3125 86.914062 L 153.339844 88.902344 L 154.371094 89.597656 L 155.402344 88.882812 L 156.433594 83.53125 L 157.460938 74.910156 L 158.492188 70.011719 L 159.523438 63.308594 L 160.554688 46.960938 L 161.585938 49.804688 L 162.613281 53.492188 L 163.644531 49.703125 L 164.675781 54.941406 L 165.707031 57.304688 L 166.734375 64.710938 L 167.765625 68.328125 L 168.796875 74.253906 L 169.828125 75.042969 L 170.859375 81.941406 L 171.886719 85.40625 L 172.917969 91.996094 L 173.949219 93.84375 L 174.980469 94.011719 L 176.007812 92.949219 L 177.039062 91.65625 L 178.070312 84.0625 L 179.101562 74.691406 L 180.132812 63.660156 L 181.160156 51.367188 L 182.191406 34.335938 L 183.222656 29.632812 L 184.253906 39.027344 L 185.28125 47.273438 L 186.3125 43.59375 L 187.34375 28.707031 L 188.375 40.683594 L 189.40625 40.941406 L 190.433594 46.347656 L 191.464844 41.285156 L 192.496094 49.125 L 193.527344 43.785156 L 194.558594 54.996094 L 195.585938 56.375 L 196.617188 60.878906 L 197.648438 56.664062 L 198.679688 59.296875 L 199.707031 66.707031 L 200.738281 71.910156 L 201.769531 75.179688 L 202.800781 84.546875 L 203.832031 83.320312 L 204.859375 87.4375 L 205.890625 89.960938 L 206.921875 90.378906 L 207.953125 86.46875 L 208.980469 85.136719 L 210.011719 78.976562 L 211.042969 68.847656 L 212.074219 62.722656 L 213.105469 52.046875 L 214.132812 43.753906 L 215.164062 41.378906 L 216.195312 43.191406 L 217.226562 45.378906 L 218.253906 39.347656 L 219.285156 42.421875 L 220.316406 51.199219 L 221.347656 56.28125 L 222.378906 54.050781 L 223.40625 53.589844 L 224.4375 55.351562 L 225.46875 49.289062 L 226.5 52.917969 L 227.527344 47.476562 L 228.558594 58.765625 L 229.589844 63.65625 L 230.621094 71.421875 L 231.652344 71.570312 L 232.679688 74.25 L 233.710938 78.078125 L 234.742188 81.273438 L 235.773438 86.582031 L 236.800781 91.007812 L 237.832031 94.15625 L 238.863281 95.976562 L 239.894531 95.996094 L 240.925781 93.515625 L 241.953125 85.835938 L 242.984375 78.964844 L 244.015625 58.050781 L 245.046875 47.5 L 246.074219 44.460938 L 247.105469 44.5 L 248.136719 42.300781 L 249.167969 31.726562 L 250.199219 33.480469 L 251.226562 35.816406 L 252.257812 26.710938 L 253.289062 42.039062 L 254.320312 36.765625 L 255.347656 44.03125 L 256.378906 40.492188 L 257.410156 33.488281 L 258.441406 40.324219 L 259.472656 39.488281 L 260.5 53.453125 L 261.53125 56.125 L 262.5625 58.417969 L 263.59375 58.402344 L 264.621094 67.019531 L 265.652344 62.445312 L 266.683594 68.488281 L 267.714844 77.800781 L 268.746094 81.101562 L 269.773438 81.71875 L 270.804688 89.289062 L 271.835938 89.15625 L 272.867188 89.757812 L 273.894531 87.734375 L 274.925781 86.257812 L 275.957031 81.308594 L 276.988281 68.042969 L 278.019531 66.554688 L 279.046875 49.332031 L 280.078125 50.398438 L 281.109375 46.023438 L 282.140625 43.234375 L 283.167969 48.777344 L 284.199219 59.253906 L 285.230469 58.507812 L 286.261719 55.855469 L 287.292969 55.132812 L 288.320312 54.625 L 289.351562 60.390625 L 290.382812 63.773438 L 291.414062 68.730469 L 292.441406 68.09375 L 293.472656 71.4375 L 294.503906 80.890625 L 295.535156 85.574219 L 296.566406 86.207031 L 297.59375 86.28125 L 298.625 89.828125 L 299.65625 89.339844 L 300.6875 87.734375 L 301.71875 84.34375 L 302.746094 77.078125 L 303.777344 71.367188 L 304.808594 60.238281 L 305.839844 55.410156 L 306.867188 54.441406 L 307.898438 46.574219 L 308.929688 50.628906 L 309.960938 57.109375 L 310.992188 54.457031 L 312.019531 59.011719 L 313.050781 58.621094 L 314.082031 60.148438 L 315.113281 60.59375 L 316.140625 65.835938 L 317.171875 66.804688 L 318.203125 70.59375 L 319.234375 75.335938 L 320.265625 75.398438 L 321.292969 78.515625 L 322.324219 80.507812 L 323.355469 83.660156 L 324.386719 85.097656 L 325.414062 82.265625 L 326.445312 82.484375 L 327.476562 79.183594 L 328.507812 74.625 L 329.539062 67.914062 L 330.566406 62.050781 L 331.597656 62.152344 L 332.628906 54.316406 L 333.660156 49.460938 L 334.6875 43.175781 L 335.71875 49.605469 L 336.75 57.398438 L 337.78125 60.246094 L 338.8125 60.585938 L 339.839844 46.832031 L 340.871094 60.773438 L 341.902344 64.992188 L 342.933594 62.253906 L 343.960938 72.441406 L 344.992188 70.640625 L 346.023438 75.246094 L 347.054688 77.660156 L 348.085938 80.507812 L 349.113281 78.160156 L 350.144531 85.359375 L 351.175781 87.011719 L 352.207031 90.003906 L 353.234375 87.214844 L 354.265625 90.261719 L 355.296875 83.160156 L 356.328125 75.226562 L 357.359375 62.769531 L 358.386719 53.855469 L 359.417969 59.304688 L 360.449219 43.761719 L 361.480469 40.746094 L 362.507812 56.738281 L 363.539062 52.972656 L 364.570312 51.039062 L 365.601562 57.070312 L 366.632812 65.214844 L 367.660156 61.429688 L 368.691406 61.992188 L 369.722656 63.609375 L 370.753906 60.769531 L 371.78125 63.210938 L 372.8125 67.890625 L 373.84375 70.550781 L 374.875 73.097656 L 375.90625 76.144531 L 376.933594 82.023438 L 377.964844 81.882812 L 378.996094 82.730469 L 380.027344 77.925781 L 381.054688 78.515625 L 382.085938 74.707031 L 383.117188 66.476562 L 384.148438 64.921875 L 385.179688 55.628906 L 386.207031 57.183594 L 387.238281 60.839844 L 388.269531 55.3125 L 389.300781 59.828125 L 390.328125 59.007812 L 391.359375 62.085938 L 392.390625 69.542969 L 393.421875 74.078125 L 394.453125 81.582031 L 395.480469 83.058594 L 396.511719 91.101562 L 397.542969 93.875 L 398.574219 94.222656 L 399.601562 94.382812 L 400.632812 90.367188 L 401.664062 85.042969 L 402.695312 72.804688 L 403.726562 63.082031 L 404.753906 52.550781 L 405.785156 32.769531 L 406.816406 46.042969 L 407.847656 44.535156 L 408.878906 37.03125 L 409.90625 47.558594 L 410.9375 41.03125 L 411.96875 35.433594 L 413 45.066406 L 414.027344 38.4375 L 415.058594 44.367188 L 416.089844 42.742188 L 417.121094 53.15625 L 418.152344 49.863281 L 419.179688 49.699219 L 420.210938 56.820312 L 421.242188 60.265625 L 422.273438 62.042969 L 423.300781 60.726562 L 424.332031 67.011719 L 425.363281 63.660156 L 426.394531 72.328125 L 427.425781 74.582031 L 428.453125 80.863281 L 429.484375 86.304688 L 430.515625 89.640625 L 431.546875 89.730469 L 432.574219 87.902344 L 433.605469 88.5625 L 434.636719 80.738281 L 435.667969 76.699219 L 436.699219 66.359375 L 437.726562 51.441406 L 438.757812 56.207031 L 439.789062 33.265625 L 440.820312 35.640625 L 441.847656 49.625 L 442.878906 31.664062 L 443.910156 43.035156 L 444.941406 47.128906 L 445.972656 53.578125 L 447 45.523438 L 448.03125 45.15625 L 449.0625 63.675781 L 450.09375 51.105469 L 451.121094 60.910156 L 452.152344 61.332031 L 453.183594 62.757812 L 454.214844 59.554688 L 455.246094 66.296875 L 456.273438 72.964844 L 457.304688 69.515625 L 458.335938 72.839844 L 459.367188 79.269531 L 460.394531 76.472656 L 461.425781 77.191406 L 462.457031 80.257812 L 463.488281 78.742188 L 464.519531 80.019531 L 465.546875 78.300781 L 466.578125 70.875 L 467.609375 63.085938 L 468.640625 73.035156 L 469.667969 61.914062 L 470.699219 67.433594 L 471.730469 66.957031 L 472.761719 63.765625 L 473.792969 70.277344 L 474.820312 74.472656 L 475.851562 75.183594 L 476.882812 76.589844 L 477.914062 83.472656 "/>
<g clip-path="url(#clip-18)">
<path fill="none" stroke-width="1.066978" stroke-linecap="round" stroke-linejoin="round" stroke="rgb(20%, 20%, 20%)" stroke-opacity="1" stroke-miterlimit="10" d="M 45.152344 99.460938 L 498.523438 99.460938 L 498.523438 23.246094 L 45.152344 23.246094 Z M 45.152344 99.460938 "/>
</g>
<g clip-path="url(#clip-19)">
<path fill-rule="nonzero" fill="rgb(100%, 100%, 100%)" fill-opacity="1" d="M 45.152344 198.925781 L 498.523438 198.925781 L 498.523438 122.710938 L 45.152344 122.710938 Z M 45.152344 198.925781 "/>
</g>
<g clip-path="url(#clip-20)">
<path fill="none" stroke-width="0.533489" stroke-linecap="butt" stroke-linejoin="round" stroke="rgb(92.156863%, 92.156863%, 92.156863%)" stroke-opacity="1" stroke-miterlimit="10" d="M 45.152344 196.550781 L 498.519531 196.550781 "/>
</g>
<g clip-path="url(#clip-21)">
<path fill="none" stroke-width="0.533489" stroke-linecap="butt" stroke-linejoin="round" stroke="rgb(92.156863%, 92.156863%, 92.156863%)" stroke-opacity="1" stroke-miterlimit="10" d="M 45.152344 180.613281 L 498.519531 180.613281 "/>
</g>
<g clip-path="url(#clip-22)">
<path fill="none" stroke-width="0.533489" stroke-linecap="butt" stroke-linejoin="round" stroke="rgb(92.156863%, 92.156863%, 92.156863%)" stroke-opacity="1" stroke-miterlimit="10" d="M 45.152344 164.675781 L 498.519531 164.675781 "/>
</g>
<g clip-path="url(#clip-23)">
<path fill="none" stroke-width="0.533489" stroke-linecap="butt" stroke-linejoin="round" stroke="rgb(92.156863%, 92.156863%, 92.156863%)" stroke-opacity="1" stroke-miterlimit="10" d="M 45.152344 148.734375 L 498.519531 148.734375 "/>
</g>
<g clip-path="url(#clip-24)">
<path fill="none" stroke-width="0.533489" stroke-linecap="butt" stroke-linejoin="round" stroke="rgb(92.156863%, 92.156863%, 92.156863%)" stroke-opacity="1" stroke-miterlimit="10" d="M 45.152344 132.796875 L 498.519531 132.796875 "/>
</g>
<g clip-path="url(#clip-25)">
<path fill="none" stroke-width="0.533489" stroke-linecap="butt" stroke-linejoin="round" stroke="rgb(92.156863%, 92.156863%, 92.156863%)" stroke-opacity="1" stroke-miterlimit="10" d="M 117.277344 198.925781 L 117.277344 122.707031 "/>
</g>
<g clip-path="url(#clip-26)">
<path fill="none" stroke-width="0.533489" stroke-linecap="butt" stroke-linejoin="round" stroke="rgb(92.156863%, 92.156863%, 92.156863%)" stroke-opacity="1" stroke-miterlimit="10" d="M 220.316406 198.925781 L 220.316406 122.707031 "/>
</g>
<g clip-path="url(#clip-27)">
<path fill="none" stroke-width="0.533489" stroke-linecap="butt" stroke-linejoin="round" stroke="rgb(92.156863%, 92.156863%, 92.156863%)" stroke-opacity="1" stroke-miterlimit="10" d="M 323.355469 198.925781 L 323.355469 122.707031 "/>
</g>
<g clip-path="url(#clip-28)">
<path fill="none" stroke-width="0.533489" stroke-linecap="butt" stroke-linejoin="round" stroke="rgb(92.156863%, 92.156863%, 92.156863%)" stroke-opacity="1" stroke-miterlimit="10" d="M 426.394531 198.925781 L 426.394531 122.707031 "/>
</g>
<g clip-path="url(#clip-29)">
<path fill="none" stroke-width="1.066978" stroke-linecap="butt" stroke-linejoin="round" stroke="rgb(92.156863%, 92.156863%, 92.156863%)" stroke-opacity="1" stroke-miterlimit="10" d="M 45.152344 188.582031 L 498.519531 188.582031 "/>
</g>
<g clip-path="url(#clip-30)">
<path fill="none" stroke-width="1.066978" stroke-linecap="butt" stroke-linejoin="round" stroke="rgb(92.156863%, 92.156863%, 92.156863%)" stroke-opacity="1" stroke-miterlimit="10" d="M 45.152344 172.644531 L 498.519531 172.644531 "/>
</g>
<g clip-path="url(#clip-31)">
<path fill="none" stroke-width="1.066978" stroke-linecap="butt" stroke-linejoin="round" stroke="rgb(92.156863%, 92.156863%, 92.156863%)" stroke-opacity="1" stroke-miterlimit="10" d="M 45.152344 156.703125 L 498.519531 156.703125 "/>
</g>
<g clip-path="url(#clip-32)">
<path fill="none" stroke-width="1.066978" stroke-linecap="butt" stroke-linejoin="round" stroke="rgb(92.156863%, 92.156863%, 92.156863%)" stroke-opacity="1" stroke-miterlimit="10" d="M 45.152344 140.765625 L 498.519531 140.765625 "/>
</g>
<g clip-path="url(#clip-33)">
<path fill="none" stroke-width="1.066978" stroke-linecap="butt" stroke-linejoin="round" stroke="rgb(92.156863%, 92.156863%, 92.156863%)" stroke-opacity="1" stroke-miterlimit="10" d="M 45.152344 124.828125 L 498.519531 124.828125 "/>
</g>
<g clip-path="url(#clip-34)">
<path fill="none" stroke-width="1.066978" stroke-linecap="butt" stroke-linejoin="round" stroke="rgb(92.156863%, 92.156863%, 92.156863%)" stroke-opacity="1" stroke-miterlimit="10" d="M 65.757812 198.925781 L 65.757812 122.707031 "/>
</g>
<g clip-path="url(#clip-35)">
<path fill="none" stroke-width="1.066978" stroke-linecap="butt" stroke-linejoin="round" stroke="rgb(92.156863%, 92.156863%, 92.156863%)" stroke-opacity="1" stroke-miterlimit="10" d="M 168.796875 198.925781 L 168.796875 122.707031 "/>
</g>
<g clip-path="url(#clip-36)">
<path fill="none" stroke-width="1.066978" stroke-linecap="butt" stroke-linejoin="round" stroke="rgb(92.156863%, 92.156863%, 92.156863%)" stroke-opacity="1" stroke-miterlimit="10" d="M 271.835938 198.925781 L 271.835938 122.707031 "/>
</g>
<g clip-path="url(#clip-37)">
<path fill="none" stroke-width="1.066978" stroke-linecap="butt" stroke-linejoin="round" stroke="rgb(92.156863%, 92.156863%, 92.156863%)" stroke-opacity="1" stroke-miterlimit="10" d="M 374.875 198.925781 L 374.875 122.707031 "/>
</g>
<g clip-path="url(#clip-38)">
<path fill="none" stroke-width="1.066978" stroke-linecap="butt" stroke-linejoin="round" stroke="rgb(92.156863%, 92.156863%, 92.156863%)" stroke-opacity="1" stroke-miterlimit="10" d="M 477.914062 198.925781 L 477.914062 122.707031 "/>
</g>
<path fill="none" stroke-width="1.066978" stroke-linecap="butt" stroke-linejoin="round" stroke="rgb(0%, 0%, 0%)" stroke-opacity="1" stroke-miterlimit="10" d="M 65.757812 139.695312 L 66.789062 147.398438 L 67.820312 153.125 L 68.847656 161.753906 L 69.878906 179.339844 L 70.910156 185.359375 L 71.941406 185.175781 L 72.972656 186.316406 L 74 187.867188 L 75.03125 183.570312 L 76.0625 188.132812 L 77.09375 183.746094 L 78.121094 177.59375 L 79.152344 176.226562 L 80.183594 176.496094 L 81.214844 175.046875 L 82.246094 170.832031 L 83.273438 172.84375 L 84.304688 168.816406 L 85.335938 172.476562 L 86.367188 159.101562 L 87.398438 164.035156 L 88.425781 160.320312 L 89.457031 152.554688 L 90.488281 150.234375 L 91.519531 155.085938 L 92.546875 145.886719 L 93.578125 151.070312 L 94.609375 146.257812 L 95.640625 140.140625 L 96.671875 148.945312 L 97.699219 153.8125 L 98.730469 153.992188 L 99.761719 162.417969 L 100.792969 159.1875 L 101.820312 164.695312 L 102.851562 172.292969 L 103.882812 161.605469 L 104.914062 173.070312 L 105.945312 167.484375 L 106.972656 159.855469 L 108.003906 160.371094 L 109.035156 160.765625 L 110.066406 159.648438 L 111.09375 149.417969 L 112.125 152.996094 L 113.15625 149.476562 L 114.1875 157.179688 L 115.21875 146.269531 L 116.246094 139.179688 L 117.277344 134.539062 L 118.308594 144.625 L 119.339844 153.378906 L 120.367188 156.019531 L 121.398438 164.59375 L 122.429688 160.035156 L 123.460938 179.84375 L 124.492188 182.511719 L 125.519531 184.554688 L 126.550781 186.644531 L 127.582031 186.570312 L 128.613281 186.164062 L 129.640625 186.667969 L 130.671875 184.917969 L 131.703125 181.875 L 132.734375 181.859375 L 133.765625 177.019531 L 134.792969 173.957031 L 135.824219 170.136719 L 136.855469 174.007812 L 137.886719 172.878906 L 138.914062 163.132812 L 139.945312 172.78125 L 140.976562 162.984375 L 142.007812 164.410156 L 143.039062 163.117188 L 144.066406 140.535156 L 145.097656 145.488281 L 146.128906 144.082031 L 147.160156 140.84375 L 148.1875 143.238281 L 149.21875 155.15625 L 150.25 136.984375 L 151.28125 146.539062 L 152.3125 148.136719 L 153.339844 169.011719 L 154.371094 173.589844 L 155.402344 176.703125 L 156.433594 180.597656 L 157.460938 182.304688 L 158.492188 182.902344 L 159.523438 179.691406 L 160.554688 178.230469 L 161.585938 168.746094 L 162.613281 164.9375 L 163.644531 155.734375 L 164.675781 151.304688 L 165.707031 146.949219 L 166.734375 139.351562 L 167.765625 144.386719 L 168.796875 139.640625 L 169.828125 152.734375 L 170.859375 138.605469 L 171.886719 157.5625 L 172.917969 160.570312 L 173.949219 170.710938 L 174.980469 177.578125 L 176.007812 188.371094 L 177.039062 190.957031 L 178.070312 193.503906 L 179.101562 194.144531 L 180.132812 194.980469 L 181.160156 194.300781 L 182.191406 194.414062 L 183.222656 191.726562 L 184.253906 192.082031 L 185.28125 192.757812 L 186.3125 188.234375 L 187.34375 184.957031 L 188.375 180.410156 L 189.40625 176.136719 L 190.433594 174.796875 L 191.464844 173.765625 L 192.496094 170.367188 L 193.527344 167 L 194.558594 168.523438 L 195.585938 154.765625 L 196.617188 152.351562 L 197.648438 149.957031 L 198.679688 149.371094 L 199.707031 140.402344 L 200.738281 142.363281 L 201.769531 137.105469 L 202.800781 137.71875 L 203.832031 146.007812 L 204.859375 161.058594 L 205.890625 155.816406 L 206.921875 172.734375 L 207.953125 182.707031 L 208.980469 175.5625 L 210.011719 182.792969 L 211.042969 184.777344 L 212.074219 184.710938 L 213.105469 184.988281 L 214.132812 180.394531 L 215.164062 181.128906 L 216.195312 178.761719 L 217.226562 171.605469 L 218.253906 175.359375 L 219.285156 170.707031 L 220.316406 165.15625 L 221.347656 168.125 L 222.378906 167.101562 L 223.40625 154.949219 L 224.4375 167.398438 L 225.46875 166.375 L 226.5 171.03125 L 227.527344 161.871094 L 228.558594 151.785156 L 229.589844 145.191406 L 230.621094 147.425781 L 231.652344 148.410156 L 232.679688 153.238281 L 233.710938 140.957031 L 234.742188 146.058594 L 235.773438 153.375 L 236.800781 151.375 L 237.832031 167.933594 L 238.863281 175.308594 L 239.894531 190.132812 L 240.925781 193.855469 L 241.953125 194.457031 L 242.984375 195.011719 L 244.015625 195.460938 L 245.046875 194.386719 L 246.074219 192.425781 L 247.105469 193.949219 L 248.136719 192.832031 L 249.167969 193.019531 L 250.199219 191.4375 L 251.226562 193.609375 L 252.257812 190.25 L 253.289062 187.949219 L 254.320312 176.042969 L 255.347656 177.726562 L 256.378906 173.105469 L 257.410156 178.042969 L 258.441406 174.429688 L 259.472656 171.671875 L 260.5 162.140625 L 261.53125 164.460938 L 262.5625 155.097656 L 263.59375 147.242188 L 264.621094 143.660156 L 265.652344 149.644531 L 266.683594 129.089844 L 267.714844 140.324219 L 268.746094 139.019531 L 269.773438 158.890625 L 270.804688 162.03125 L 271.835938 170.304688 L 272.867188 173.964844 L 273.894531 173.109375 L 274.925781 182.867188 L 275.957031 187.898438 L 276.988281 185.117188 L 278.019531 186.773438 L 279.046875 180.46875 L 280.078125 178.609375 L 281.109375 171.886719 L 282.140625 171.910156 L 283.167969 168.59375 L 284.199219 160.378906 L 285.230469 139.195312 L 286.261719 154.78125 L 287.292969 144.28125 L 288.320312 162.953125 L 289.351562 152.617188 L 290.382812 154.101562 L 291.414062 148.019531 L 292.441406 126.171875 L 293.472656 149.347656 L 294.503906 151.648438 L 295.535156 150.472656 L 296.566406 148.59375 L 297.59375 154.675781 L 298.625 173.917969 L 299.65625 173.679688 L 300.6875 178.394531 L 301.71875 182.394531 L 302.746094 180.484375 L 303.777344 182.859375 L 304.808594 178.003906 L 305.839844 176.421875 L 306.867188 176.839844 L 307.898438 177.707031 L 308.929688 170.378906 L 309.960938 165.289062 L 310.992188 155.828125 L 312.019531 152.949219 L 313.050781 136.703125 L 314.082031 150.570312 L 315.113281 140.128906 L 316.140625 148.902344 L 317.171875 142.414062 L 318.203125 156.40625 L 319.234375 147.804688 L 320.265625 147.527344 L 321.292969 148.851562 L 322.324219 155.371094 L 323.355469 153.570312 L 324.386719 156.105469 L 325.414062 162.121094 L 326.445312 171.09375 L 327.476562 171.367188 L 328.507812 178.546875 L 329.539062 176.398438 L 330.566406 175.496094 L 331.597656 174.167969 L 332.628906 174.625 L 333.660156 174.339844 L 334.6875 171.527344 L 335.71875 173.652344 L 336.75 165.675781 L 337.78125 160.6875 L 338.8125 154.984375 L 339.839844 153.898438 L 340.871094 151.742188 L 341.902344 161.375 L 342.933594 150.503906 L 343.960938 141.699219 L 344.992188 159.414062 L 346.023438 140.929688 L 347.054688 146.476562 L 348.085938 157.207031 L 349.113281 149.15625 L 350.144531 152.78125 L 351.175781 156.765625 L 352.207031 170.21875 L 353.234375 173.5 L 354.265625 181.988281 L 355.296875 185.488281 L 356.328125 186.070312 L 357.359375 182.59375 L 358.386719 179.046875 L 359.417969 180.546875 L 360.449219 172.398438 L 361.480469 170.742188 L 362.507812 166.363281 L 363.539062 162.449219 L 364.570312 163.375 L 365.601562 155.171875 L 366.632812 154.328125 L 367.660156 151.570312 L 368.691406 149.175781 L 369.722656 162.734375 L 370.753906 146.503906 L 371.78125 153.285156 L 372.8125 142.847656 L 373.84375 148.488281 L 374.875 157.039062 L 375.90625 147.722656 L 376.933594 156.941406 L 377.964844 156.78125 L 378.996094 161.292969 L 380.027344 164.820312 L 381.054688 170.652344 L 382.085938 165.949219 L 383.117188 171.324219 L 384.148438 172.851562 L 385.179688 164.210938 L 386.207031 158.4375 L 387.238281 158.261719 L 388.269531 152.621094 L 389.300781 149.507812 L 390.328125 150.871094 L 391.359375 144.652344 L 392.390625 129.175781 L 393.421875 151.761719 L 394.453125 142.792969 L 395.480469 133.863281 L 396.511719 155.832031 L 397.542969 170.539062 L 398.574219 178.160156 L 399.601562 184.15625 L 400.632812 193.257812 L 401.664062 191.273438 L 402.695312 192.15625 L 403.726562 194.640625 L 404.753906 194.445312 L 405.785156 189.46875 L 406.816406 192.683594 L 407.847656 188.265625 L 408.878906 187.75 L 409.90625 180.722656 L 410.9375 186.109375 L 411.96875 182.105469 L 413 181.625 L 414.027344 177.152344 L 415.058594 175.375 L 416.089844 172.113281 L 417.121094 165.125 L 418.152344 166.457031 L 419.179688 154.535156 L 420.210938 149.84375 L 421.242188 150.589844 L 422.273438 155.199219 L 423.300781 139.109375 L 424.332031 149.710938 L 425.363281 143.203125 L 426.394531 150.042969 L 427.425781 142.226562 L 428.453125 138.019531 L 429.484375 157.261719 L 430.515625 163.136719 L 431.546875 167.285156 L 432.574219 181.019531 L 433.605469 177.5625 L 434.636719 183.472656 L 435.667969 187.25 L 436.699219 186.453125 L 437.726562 187.765625 L 438.757812 187.574219 L 439.789062 182.5625 L 440.820312 180.824219 L 441.847656 178.597656 L 442.878906 177.511719 L 443.910156 172.558594 L 444.941406 176.058594 L 445.972656 173.636719 L 447 168.441406 L 448.03125 154.703125 L 449.0625 156.859375 L 450.09375 161.191406 L 451.121094 147.597656 L 452.152344 153.601562 L 453.183594 154.691406 L 454.214844 138.550781 L 455.246094 152.867188 L 456.273438 151.46875 L 457.304688 148.460938 L 458.335938 149.742188 L 459.367188 153.1875 L 460.394531 141.210938 L 461.425781 159.511719 L 462.457031 159.183594 L 463.488281 168.15625 L 464.519531 166 L 465.546875 173.082031 L 466.578125 166.273438 L 467.609375 162.867188 L 468.640625 161.101562 L 469.667969 157.785156 L 470.699219 156.582031 L 471.730469 149.425781 L 472.761719 152.210938 L 473.792969 156.207031 L 474.820312 143.738281 L 475.851562 155.765625 L 476.882812 154.949219 L 477.914062 156.582031 "/>
<g clip-path="url(#clip-39)">
<path fill="none" stroke-width="1.066978" stroke-linecap="round" stroke-linejoin="round" stroke="rgb(20%, 20%, 20%)" stroke-opacity="1" stroke-miterlimit="10" d="M 45.152344 198.925781 L 498.523438 198.925781 L 498.523438 122.710938 L 45.152344 122.710938 Z M 45.152344 198.925781 "/>
</g>
<g clip-path="url(#clip-40)">
<path fill-rule="nonzero" fill="rgb(100%, 100%, 100%)" fill-opacity="1" d="M 45.152344 298.386719 L 498.523438 298.386719 L 498.523438 222.171875 L 45.152344 222.171875 Z M 45.152344 298.386719 "/>
</g>
<g clip-path="url(#clip-41)">
<path fill="none" stroke-width="0.533489" stroke-linecap="butt" stroke-linejoin="round" stroke="rgb(92.156863%, 92.156863%, 92.156863%)" stroke-opacity="1" stroke-miterlimit="10" d="M 45.152344 291.386719 L 498.519531 291.386719 "/>
</g>
<g clip-path="url(#clip-42)">
<path fill="none" stroke-width="0.533489" stroke-linecap="butt" stroke-linejoin="round" stroke="rgb(92.156863%, 92.156863%, 92.156863%)" stroke-opacity="1" stroke-miterlimit="10" d="M 45.152344 266.441406 L 498.519531 266.441406 "/>
</g>
<g clip-path="url(#clip-43)">
<path fill="none" stroke-width="0.533489" stroke-linecap="butt" stroke-linejoin="round" stroke="rgb(92.156863%, 92.156863%, 92.156863%)" stroke-opacity="1" stroke-miterlimit="10" d="M 45.152344 241.492188 L 498.519531 241.492188 "/>
</g>
<g clip-path="url(#clip-44)">
<path fill="none" stroke-width="0.533489" stroke-linecap="butt" stroke-linejoin="round" stroke="rgb(92.156863%, 92.156863%, 92.156863%)" stroke-opacity="1" stroke-miterlimit="10" d="M 117.277344 298.386719 L 117.277344 222.171875 "/>
</g>
<g clip-path="url(#clip-45)">
<path fill="none" stroke-width="0.533489" stroke-linecap="butt" stroke-linejoin="round" stroke="rgb(92.156863%, 92.156863%, 92.156863%)" stroke-opacity="1" stroke-miterlimit="10" d="M 220.316406 298.386719 L 220.316406 222.171875 "/>
</g>
<g clip-path="url(#clip-46)">
<path fill="none" stroke-width="0.533489" stroke-linecap="butt" stroke-linejoin="round" stroke="rgb(92.156863%, 92.156863%, 92.156863%)" stroke-opacity="1" stroke-miterlimit="10" d="M 323.355469 298.386719 L 323.355469 222.171875 "/>
</g>
<g clip-path="url(#clip-47)">
<path fill="none" stroke-width="0.533489" stroke-linecap="butt" stroke-linejoin="round" stroke="rgb(92.156863%, 92.156863%, 92.156863%)" stroke-opacity="1" stroke-miterlimit="10" d="M 426.394531 298.386719 L 426.394531 222.171875 "/>
</g>
<g clip-path="url(#clip-48)">
<path fill="none" stroke-width="1.066978" stroke-linecap="butt" stroke-linejoin="round" stroke="rgb(92.156863%, 92.156863%, 92.156863%)" stroke-opacity="1" stroke-miterlimit="10" d="M 45.152344 278.914062 L 498.519531 278.914062 "/>
</g>
<g clip-path="url(#clip-49)">
<path fill="none" stroke-width="1.066978" stroke-linecap="butt" stroke-linejoin="round" stroke="rgb(92.156863%, 92.156863%, 92.156863%)" stroke-opacity="1" stroke-miterlimit="10" d="M 45.152344 253.964844 L 498.519531 253.964844 "/>
</g>
<g clip-path="url(#clip-50)">
<path fill="none" stroke-width="1.066978" stroke-linecap="butt" stroke-linejoin="round" stroke="rgb(92.156863%, 92.156863%, 92.156863%)" stroke-opacity="1" stroke-miterlimit="10" d="M 45.152344 229.019531 L 498.519531 229.019531 "/>
</g>
<g clip-path="url(#clip-51)">
<path fill="none" stroke-width="1.066978" stroke-linecap="butt" stroke-linejoin="round" stroke="rgb(92.156863%, 92.156863%, 92.156863%)" stroke-opacity="1" stroke-miterlimit="10" d="M 65.757812 298.386719 L 65.757812 222.171875 "/>
</g>
<g clip-path="url(#clip-52)">
<path fill="none" stroke-width="1.066978" stroke-linecap="butt" stroke-linejoin="round" stroke="rgb(92.156863%, 92.156863%, 92.156863%)" stroke-opacity="1" stroke-miterlimit="10" d="M 168.796875 298.386719 L 168.796875 222.171875 "/>
</g>
<g clip-path="url(#clip-53)">
<path fill="none" stroke-width="1.066978" stroke-linecap="butt" stroke-linejoin="round" stroke="rgb(92.156863%, 92.156863%, 92.156863%)" stroke-opacity="1" stroke-miterlimit="10" d="M 271.835938 298.386719 L 271.835938 222.171875 "/>
</g>
<g clip-path="url(#clip-54)">
<path fill="none" stroke-width="1.066978" stroke-linecap="butt" stroke-linejoin="round" stroke="rgb(92.156863%, 92.156863%, 92.156863%)" stroke-opacity="1" stroke-miterlimit="10" d="M 374.875 298.386719 L 374.875 222.171875 "/>
</g>
<g clip-path="url(#clip-55)">
<path fill="none" stroke-width="1.066978" stroke-linecap="butt" stroke-linejoin="round" stroke="rgb(92.156863%, 92.156863%, 92.156863%)" stroke-opacity="1" stroke-miterlimit="10" d="M 477.914062 298.386719 L 477.914062 222.171875 "/>
</g>
<path fill="none" stroke-width="1.066978" stroke-linecap="butt" stroke-linejoin="round" stroke="rgb(0%, 0%, 0%)" stroke-opacity="1" stroke-miterlimit="10" d="M 65.757812 253.808594 L 66.789062 261.816406 L 67.820312 270.160156 L 68.847656 275.847656 L 69.878906 275.914062 L 70.910156 269.214844 L 71.941406 258.507812 L 72.972656 247.597656 L 74 238.777344 L 75.03125 233 L 76.0625 229.785156 L 77.09375 228.425781 L 78.121094 228.070312 L 79.152344 228.183594 L 80.183594 228.605469 L 81.214844 228.964844 L 82.246094 229.347656 L 83.273438 229.949219 L 84.304688 230.84375 L 85.335938 231.460938 L 86.367188 232.03125 L 87.398438 232.824219 L 88.425781 233.644531 L 89.457031 234.972656 L 90.488281 236.984375 L 91.519531 239.546875 L 92.546875 241.925781 L 93.578125 244.304688 L 94.609375 246.367188 L 95.640625 249.671875 L 96.671875 252.503906 L 97.699219 254.417969 L 98.730469 255.984375 L 99.761719 257.75 L 100.792969 257.59375 L 101.820312 256.296875 L 102.851562 253.46875 L 103.882812 249.417969 L 104.914062 245.746094 L 105.945312 242.082031 L 106.972656 239.539062 L 108.003906 238.273438 L 109.035156 238.082031 L 110.066406 237.785156 L 111.09375 238.046875 L 112.125 238.230469 L 113.15625 239.371094 L 114.1875 240.542969 L 115.21875 242.425781 L 116.246094 244.910156 L 117.277344 249.359375 L 118.308594 254.410156 L 119.339844 259.515625 L 120.367188 266.476562 L 121.398438 273.25 L 122.429688 278.902344 L 123.460938 279.191406 L 124.492188 274.871094 L 125.519531 266.96875 L 126.550781 256.972656 L 127.582031 246.714844 L 128.613281 238.453125 L 129.640625 233.347656 L 130.671875 230.410156 L 131.703125 228.800781 L 132.734375 228.109375 L 133.765625 228.148438 L 134.792969 228.539062 L 135.824219 228.792969 L 136.855469 229.238281 L 137.886719 229.820312 L 138.914062 230.277344 L 139.945312 230.445312 L 140.976562 230.503906 L 142.007812 231.890625 L 143.039062 233.339844 L 144.066406 234.96875 L 145.097656 237.246094 L 146.128906 240.355469 L 147.160156 243.328125 L 148.1875 246.222656 L 149.21875 249.890625 L 150.25 254.148438 L 151.28125 259.863281 L 152.3125 266.738281 L 153.339844 271.769531 L 154.371094 272.320312 L 155.402344 266.972656 L 156.433594 259.152344 L 157.460938 250.683594 L 158.492188 243.09375 L 159.523438 237.234375 L 160.554688 233.675781 L 161.585938 232.019531 L 162.613281 231.640625 L 163.644531 232.273438 L 164.675781 233.863281 L 165.707031 236.269531 L 166.734375 238.90625 L 167.765625 242.558594 L 168.796875 246.3125 L 169.828125 250.78125 L 170.859375 256.015625 L 171.886719 263.648438 L 172.917969 275.375 L 173.949219 286.027344 L 174.980469 288.796875 L 176.007812 285.589844 L 177.039062 275.007812 L 178.070312 261.082031 L 179.101562 247.558594 L 180.132812 237.410156 L 181.160156 231.28125 L 182.191406 228.214844 L 183.222656 226.761719 L 184.253906 226.148438 L 185.28125 226.019531 L 186.3125 226.324219 L 187.34375 226.703125 L 188.375 227.15625 L 189.40625 227.800781 L 190.433594 228.609375 L 191.464844 229.402344 L 192.496094 230.230469 L 193.527344 231.222656 L 194.558594 231.894531 L 195.585938 232.769531 L 196.617188 234.652344 L 197.648438 236.566406 L 198.679688 238.910156 L 199.707031 242.003906 L 200.738281 245.199219 L 201.769531 249.847656 L 202.800781 255.425781 L 203.832031 261.644531 L 204.859375 266.84375 L 205.890625 270.59375 L 206.921875 271.746094 L 207.953125 268.234375 L 208.980469 260.554688 L 210.011719 251.949219 L 211.042969 243.316406 L 212.074219 236.617188 L 213.105469 232.453125 L 214.132812 230.171875 L 215.164062 228.960938 L 216.195312 228.460938 L 217.226562 228.386719 L 218.253906 228.910156 L 219.285156 229.707031 L 220.316406 230.777344 L 221.347656 231.507812 L 222.378906 232.136719 L 223.40625 233.03125 L 224.4375 233.90625 L 225.46875 234.398438 L 226.5 234.171875 L 227.527344 234.636719 L 228.558594 236.121094 L 229.589844 237.808594 L 230.621094 239.992188 L 231.652344 242.664062 L 232.679688 246.191406 L 233.710938 250.121094 L 234.742188 255.835938 L 235.773438 263.597656 L 236.800781 273.789062 L 237.832031 286.042969 L 238.863281 294.921875 L 239.894531 291.867188 L 240.925781 281.886719 L 241.953125 266.789062 L 242.984375 252.277344 L 244.015625 240.480469 L 245.046875 232.773438 L 246.074219 228.707031 L 247.105469 226.832031 L 248.136719 226.058594 L 249.167969 225.863281 L 250.199219 225.746094 L 251.226562 225.636719 L 252.257812 225.738281 L 253.289062 225.964844 L 254.320312 226.628906 L 255.347656 227.789062 L 256.378906 228.9375 L 257.410156 229.785156 L 258.441406 230.085938 L 259.472656 230.320312 L 260.5 230.570312 L 261.53125 231.617188 L 262.5625 233.039062 L 263.59375 234.925781 L 264.621094 237.460938 L 265.652344 240.175781 L 266.683594 243.382812 L 267.714844 248.054688 L 268.746094 255.140625 L 269.773438 262.921875 L 270.804688 269.480469 L 271.835938 271.761719 L 272.867188 272.207031 L 273.894531 269.304688 L 274.925781 262.65625 L 275.957031 253.699219 L 276.988281 244.398438 L 278.019531 237.195312 L 279.046875 232.675781 L 280.078125 230.636719 L 281.109375 230.074219 L 282.140625 230.257812 L 283.167969 230.835938 L 284.199219 231.898438 L 285.230469 233.335938 L 286.261719 234.617188 L 287.292969 235.632812 L 288.320312 236.332031 L 289.351562 237.625 L 290.382812 239.5625 L 291.414062 242.484375 L 292.441406 246.09375 L 293.472656 249.761719 L 294.503906 254.46875 L 295.535156 259.074219 L 296.566406 264.351562 L 297.59375 268.949219 L 298.625 272.285156 L 299.65625 272.558594 L 300.6875 268.390625 L 301.71875 261.042969 L 302.746094 252.1875 L 303.777344 243.792969 L 304.808594 237.691406 L 305.839844 234.261719 L 306.867188 232.0625 L 307.898438 231.050781 L 308.929688 231.199219 L 309.960938 231.921875 L 310.992188 233.273438 L 312.019531 234.90625 L 313.050781 237.238281 L 314.082031 239.070312 L 315.113281 240.703125 L 316.140625 242.15625 L 317.171875 243.34375 L 318.203125 246.40625 L 319.234375 249.003906 L 320.265625 250.679688 L 321.292969 252.921875 L 322.324219 256.128906 L 323.355469 258.910156 L 324.386719 260.105469 L 325.414062 260.488281 L 326.445312 259.289062 L 327.476562 255.484375 L 328.507812 249.792969 L 329.539062 243.734375 L 330.566406 239.109375 L 331.597656 235.527344 L 332.628906 233.03125 L 333.660156 231.738281 L 334.6875 231.28125 L 335.71875 231.394531 L 336.75 232.265625 L 337.78125 233.316406 L 338.8125 234.925781 L 339.839844 236.738281 L 340.871094 238.953125 L 341.902344 240.53125 L 342.933594 242.40625 L 343.960938 244.113281 L 344.992188 246.273438 L 346.023438 248.257812 L 347.054688 250.289062 L 348.085938 252.742188 L 349.113281 255.964844 L 350.144531 260.628906 L 351.175781 265.550781 L 352.207031 269.472656 L 353.234375 269.605469 L 354.265625 265.59375 L 355.296875 257.421875 L 356.328125 248.160156 L 357.359375 240.023438 L 358.386719 234.617188 L 359.417969 231.660156 L 360.449219 230.757812 L 361.480469 231.203125 L 362.507812 231.746094 L 363.539062 232.222656 L 364.570312 232.585938 L 365.601562 233.273438 L 366.632812 234.421875 L 367.660156 235.648438 L 368.691406 236.390625 L 369.722656 237.4375 L 370.753906 239.117188 L 371.78125 240.292969 L 372.8125 241.902344 L 373.84375 245.011719 L 374.875 248.417969 L 375.90625 251.859375 L 376.933594 255.039062 L 377.964844 256.546875 L 378.996094 256.9375 L 380.027344 254.988281 L 381.054688 251.960938 L 382.085938 247.816406 L 383.117188 243.472656 L 384.148438 239.5625 L 385.179688 237.820312 L 386.207031 237.007812 L 387.238281 236.648438 L 388.269531 236.65625 L 389.300781 237.011719 L 390.328125 238.136719 L 391.359375 240.835938 L 392.390625 244.800781 L 393.421875 249.355469 L 394.453125 254.917969 L 395.480469 262.925781 L 396.511719 274.964844 L 397.542969 285.332031 L 398.574219 290.324219 L 399.601562 285.667969 L 400.632812 273.597656 L 401.664062 259.445312 L 402.695312 246.53125 L 403.726562 236.789062 L 404.753906 230.886719 L 405.785156 228.09375 L 406.816406 227.035156 L 407.847656 226.558594 L 408.878906 226.582031 L 409.90625 226.617188 L 410.9375 226.789062 L 411.96875 226.957031 L 413 227.378906 L 414.027344 227.894531 L 415.058594 228.367188 L 416.089844 229.203125 L 417.121094 230.121094 L 418.152344 231.246094 L 419.179688 232.785156 L 420.210938 234.476562 L 421.242188 236.359375 L 422.273438 238.007812 L 423.300781 239.480469 L 424.332031 240.648438 L 425.363281 242.265625 L 426.394531 245.023438 L 427.425781 250.199219 L 428.453125 258.507812 L 429.484375 266.78125 L 430.515625 272.484375 L 431.546875 275.105469 L 432.574219 272.839844 L 433.605469 267.046875 L 434.636719 259.472656 L 435.667969 249.839844 L 436.699219 240.910156 L 437.726562 234.597656 L 438.757812 230.664062 L 439.789062 228.695312 L 440.820312 228.015625 L 441.847656 227.859375 L 442.878906 228.175781 L 443.910156 228.519531 L 444.941406 229.023438 L 445.972656 229.300781 L 447 229.742188 L 448.03125 230.875 L 449.0625 232.101562 L 450.09375 233.214844 L 451.121094 233.976562 L 452.152344 235.859375 L 453.183594 237.722656 L 454.214844 239.894531 L 455.246094 242.203125 L 456.273438 243.902344 L 457.304688 245.414062 L 458.335938 246.375 L 459.367188 247.847656 L 460.394531 250.40625 L 461.425781 253.496094 L 462.457031 254.839844 L 463.488281 254.292969 L 464.519531 252.660156 L 465.546875 249.832031 L 466.578125 246.488281 L 467.609375 244.496094 L 468.640625 243.203125 L 469.667969 242.382812 L 470.699219 242.191406 L 471.730469 242.648438 L 472.761719 243.539062 L 473.792969 245.492188 L 474.820312 248.0625 L 475.851562 251.449219 L 476.882812 253.871094 L 477.914062 255.375 "/>
<g clip-path="url(#clip-56)">
<path fill="none" stroke-width="1.066978" stroke-linecap="round" stroke-linejoin="round" stroke="rgb(20%, 20%, 20%)" stroke-opacity="1" stroke-miterlimit="10" d="M 45.152344 298.386719 L 498.523438 298.386719 L 498.523438 222.171875 L 45.152344 222.171875 Z M 45.152344 298.386719 "/>
</g>
<g clip-path="url(#clip-57)">
<path fill-rule="nonzero" fill="rgb(100%, 100%, 100%)" fill-opacity="1" d="M 45.152344 397.847656 L 498.523438 397.847656 L 498.523438 321.632812 L 45.152344 321.632812 Z M 45.152344 397.847656 "/>
</g>
<g clip-path="url(#clip-58)">
<path fill="none" stroke-width="0.533489" stroke-linecap="butt" stroke-linejoin="round" stroke="rgb(92.156863%, 92.156863%, 92.156863%)" stroke-opacity="1" stroke-miterlimit="10" d="M 45.152344 382.761719 L 498.519531 382.761719 "/>
</g>
<g clip-path="url(#clip-59)">
<path fill="none" stroke-width="0.533489" stroke-linecap="butt" stroke-linejoin="round" stroke="rgb(92.156863%, 92.156863%, 92.156863%)" stroke-opacity="1" stroke-miterlimit="10" d="M 45.152344 365.621094 L 498.519531 365.621094 "/>
</g>
<g clip-path="url(#clip-60)">
<path fill="none" stroke-width="0.533489" stroke-linecap="butt" stroke-linejoin="round" stroke="rgb(92.156863%, 92.156863%, 92.156863%)" stroke-opacity="1" stroke-miterlimit="10" d="M 45.152344 348.476562 L 498.519531 348.476562 "/>
</g>
<g clip-path="url(#clip-61)">
<path fill="none" stroke-width="0.533489" stroke-linecap="butt" stroke-linejoin="round" stroke="rgb(92.156863%, 92.156863%, 92.156863%)" stroke-opacity="1" stroke-miterlimit="10" d="M 45.152344 331.332031 L 498.519531 331.332031 "/>
</g>
<g clip-path="url(#clip-62)">
<path fill="none" stroke-width="0.533489" stroke-linecap="butt" stroke-linejoin="round" stroke="rgb(92.156863%, 92.156863%, 92.156863%)" stroke-opacity="1" stroke-miterlimit="10" d="M 117.277344 397.847656 L 117.277344 321.632812 "/>
</g>
<g clip-path="url(#clip-63)">
<path fill="none" stroke-width="0.533489" stroke-linecap="butt" stroke-linejoin="round" stroke="rgb(92.156863%, 92.156863%, 92.156863%)" stroke-opacity="1" stroke-miterlimit="10" d="M 220.316406 397.847656 L 220.316406 321.632812 "/>
</g>
<g clip-path="url(#clip-64)">
<path fill="none" stroke-width="0.533489" stroke-linecap="butt" stroke-linejoin="round" stroke="rgb(92.156863%, 92.156863%, 92.156863%)" stroke-opacity="1" stroke-miterlimit="10" d="M 323.355469 397.847656 L 323.355469 321.632812 "/>
</g>
<g clip-path="url(#clip-65)">
<path fill="none" stroke-width="0.533489" stroke-linecap="butt" stroke-linejoin="round" stroke="rgb(92.156863%, 92.156863%, 92.156863%)" stroke-opacity="1" stroke-miterlimit="10" d="M 426.394531 397.847656 L 426.394531 321.632812 "/>
</g>
<g clip-path="url(#clip-66)">
<path fill="none" stroke-width="1.066978" stroke-linecap="butt" stroke-linejoin="round" stroke="rgb(92.156863%, 92.156863%, 92.156863%)" stroke-opacity="1" stroke-miterlimit="10" d="M 45.152344 391.335938 L 498.519531 391.335938 "/>
</g>
<g clip-path="url(#clip-67)">
<path fill="none" stroke-width="1.066978" stroke-linecap="butt" stroke-linejoin="round" stroke="rgb(92.156863%, 92.156863%, 92.156863%)" stroke-opacity="1" stroke-miterlimit="10" d="M 45.152344 374.191406 L 498.519531 374.191406 "/>
</g>
<g clip-path="url(#clip-68)">
<path fill="none" stroke-width="1.066978" stroke-linecap="butt" stroke-linejoin="round" stroke="rgb(92.156863%, 92.156863%, 92.156863%)" stroke-opacity="1" stroke-miterlimit="10" d="M 45.152344 357.046875 L 498.519531 357.046875 "/>
</g>
<g clip-path="url(#clip-69)">
<path fill="none" stroke-width="1.066978" stroke-linecap="butt" stroke-linejoin="round" stroke="rgb(92.156863%, 92.156863%, 92.156863%)" stroke-opacity="1" stroke-miterlimit="10" d="M 45.152344 339.90625 L 498.519531 339.90625 "/>
</g>
<g clip-path="url(#clip-70)">
<path fill="none" stroke-width="1.066978" stroke-linecap="butt" stroke-linejoin="round" stroke="rgb(92.156863%, 92.156863%, 92.156863%)" stroke-opacity="1" stroke-miterlimit="10" d="M 45.152344 322.761719 L 498.519531 322.761719 "/>
</g>
<g clip-path="url(#clip-71)">
<path fill="none" stroke-width="1.066978" stroke-linecap="butt" stroke-linejoin="round" stroke="rgb(92.156863%, 92.156863%, 92.156863%)" stroke-opacity="1" stroke-miterlimit="10" d="M 65.757812 397.847656 L 65.757812 321.632812 "/>
</g>
<g clip-path="url(#clip-72)">
<path fill="none" stroke-width="1.066978" stroke-linecap="butt" stroke-linejoin="round" stroke="rgb(92.156863%, 92.156863%, 92.156863%)" stroke-opacity="1" stroke-miterlimit="10" d="M 168.796875 397.847656 L 168.796875 321.632812 "/>
</g>
<g clip-path="url(#clip-73)">
<path fill="none" stroke-width="1.066978" stroke-linecap="butt" stroke-linejoin="round" stroke="rgb(92.156863%, 92.156863%, 92.156863%)" stroke-opacity="1" stroke-miterlimit="10" d="M 271.835938 397.847656 L 271.835938 321.632812 "/>
</g>
<g clip-path="url(#clip-74)">
<path fill="none" stroke-width="1.066978" stroke-linecap="butt" stroke-linejoin="round" stroke="rgb(92.156863%, 92.156863%, 92.156863%)" stroke-opacity="1" stroke-miterlimit="10" d="M 374.875 397.847656 L 374.875 321.632812 "/>
</g>
<g clip-path="url(#clip-75)">
<path fill="none" stroke-width="1.066978" stroke-linecap="butt" stroke-linejoin="round" stroke="rgb(92.156863%, 92.156863%, 92.156863%)" stroke-opacity="1" stroke-miterlimit="10" d="M 477.914062 397.847656 L 477.914062 321.632812 "/>
</g>
<path fill="none" stroke-width="1.066978" stroke-linecap="butt" stroke-linejoin="round" stroke="rgb(0%, 0%, 0%)" stroke-opacity="1" stroke-miterlimit="10" d="M 65.757812 326.660156 L 66.789062 329.660156 L 67.820312 337.058594 L 68.847656 344.957031 L 69.878906 357.96875 L 70.910156 367.070312 L 71.941406 371.492188 L 72.972656 373.5625 L 74 371.285156 L 75.03125 372.789062 L 76.0625 370.679688 L 77.09375 365.199219 L 78.121094 362.113281 L 79.152344 358.261719 L 80.183594 353.914062 L 81.214844 353.988281 L 82.246094 351.148438 L 83.273438 347.253906 L 84.304688 344.65625 L 85.335938 343.113281 L 86.367188 343.304688 L 87.398438 340.210938 L 88.425781 337.949219 L 89.457031 334.355469 L 90.488281 331.058594 L 91.519531 330.558594 L 92.546875 330.65625 L 93.578125 331.386719 L 94.609375 330.339844 L 95.640625 330.382812 L 96.671875 333.832031 L 97.699219 335.484375 L 98.730469 337.191406 L 99.761719 338.539062 L 100.792969 343.011719 L 101.820312 342.925781 L 102.851562 349.027344 L 103.882812 344.425781 L 104.914062 347.894531 L 105.945312 346.945312 L 106.972656 343.601562 L 108.003906 338.871094 L 109.035156 338.109375 L 110.066406 338.816406 L 111.09375 337.28125 L 112.125 334.871094 L 113.15625 334.210938 L 114.1875 333.257812 L 115.21875 331.628906 L 116.246094 328.570312 L 117.277344 326.976562 L 118.308594 330.539062 L 119.339844 332.226562 L 120.367188 336.222656 L 121.398438 339.90625 L 122.429688 346.902344 L 123.460938 356.398438 L 124.492188 363.359375 L 125.519531 365.554688 L 126.550781 368.023438 L 127.582031 369.6875 L 128.613281 367.835938 L 129.640625 366.0625 L 130.671875 366.96875 L 131.703125 364.53125 L 132.734375 363.6875 L 133.765625 358.796875 L 134.792969 355.015625 L 135.824219 352.929688 L 136.855469 350.90625 L 137.886719 347.746094 L 138.914062 348.003906 L 139.945312 349.550781 L 140.976562 347.070312 L 142.007812 338.667969 L 143.039062 337.882812 L 144.066406 334.730469 L 145.097656 329.371094 L 146.128906 329.878906 L 147.160156 329.933594 L 148.1875 330.15625 L 149.21875 329.933594 L 150.25 330.957031 L 151.28125 332.417969 L 152.3125 337.128906 L 153.339844 343.160156 L 154.371094 353.839844 L 155.402344 359.066406 L 156.433594 361.691406 L 157.460938 361.351562 L 158.492188 358.363281 L 159.523438 359.019531 L 160.554688 354.671875 L 161.585938 350.871094 L 162.613281 345.503906 L 163.644531 340.585938 L 164.675781 334.628906 L 165.707031 330.542969 L 166.734375 328.527344 L 167.765625 327.683594 L 168.796875 329.105469 L 169.828125 330.214844 L 170.859375 328.996094 L 171.886719 330.4375 L 172.917969 334.746094 L 173.949219 347.402344 L 174.980469 359.199219 L 176.007812 368.085938 L 177.039062 383.246094 L 178.070312 390.941406 L 179.101562 388.871094 L 180.132812 389.863281 L 181.160156 386.449219 L 182.191406 385.121094 L 183.222656 383.195312 L 184.253906 381.90625 L 185.28125 379.769531 L 186.3125 369.40625 L 187.34375 367.570312 L 188.375 360.375 L 189.40625 355.148438 L 190.433594 351.707031 L 191.464844 347.800781 L 192.496094 347.367188 L 193.527344 343.484375 L 194.558594 342.339844 L 195.585938 339.121094 L 196.617188 333.402344 L 197.648438 332.625 L 198.679688 330.164062 L 199.707031 328.566406 L 200.738281 328.097656 L 201.769531 328.230469 L 202.800781 329.484375 L 203.832031 333.074219 L 204.859375 339.132812 L 205.890625 343.597656 L 206.921875 350.824219 L 207.953125 358.722656 L 208.980469 359.789062 L 210.011719 364.851562 L 211.042969 366.261719 L 212.074219 364.691406 L 213.105469 363.496094 L 214.132812 363.015625 L 215.164062 361.71875 L 216.195312 359.886719 L 217.226562 355.761719 L 218.253906 351.390625 L 219.285156 345.691406 L 220.316406 344.496094 L 221.347656 342.753906 L 222.378906 342.023438 L 223.40625 340.183594 L 224.4375 337.964844 L 225.46875 340.417969 L 226.5 341.453125 L 227.527344 336.960938 L 228.558594 333.921875 L 229.589844 332.382812 L 230.621094 330.914062 L 231.652344 329.074219 L 232.679688 328.515625 L 233.710938 328.183594 L 234.742188 328.722656 L 235.773438 331.257812 L 236.800781 334.632812 L 237.832031 342.273438 L 238.863281 356.492188 L 239.894531 373.015625 L 240.925781 388.007812 L 241.953125 393.804688 L 242.984375 394.082031 L 244.015625 394.386719 L 245.046875 391.800781 L 246.074219 388.980469 L 247.105469 388.292969 L 248.136719 383.839844 L 249.167969 384.460938 L 250.199219 385.839844 L 251.226562 386.839844 L 252.257812 378.570312 L 253.289062 372.703125 L 254.320312 361.011719 L 255.347656 352.871094 L 256.378906 349.285156 L 257.410156 349.453125 L 258.441406 351.191406 L 259.472656 348.433594 L 260.5 348.09375 L 261.53125 340.199219 L 262.5625 337.292969 L 263.59375 333.574219 L 264.621094 329.019531 L 265.652344 330.554688 L 266.683594 327.308594 L 267.714844 325.097656 L 268.746094 327.773438 L 269.773438 332.328125 L 270.804688 339.882812 L 271.835938 346.191406 L 272.867188 350.714844 L 273.894531 357.074219 L 274.925781 361.53125 L 275.957031 367.117188 L 276.988281 368.039062 L 278.019531 367.785156 L 279.046875 362.191406 L 280.078125 357.644531 L 281.109375 351.003906 L 282.140625 347.644531 L 283.167969 344.984375 L 284.199219 339.226562 L 285.230469 337.511719 L 286.261719 335.195312 L 287.292969 336.570312 L 288.320312 336.902344 L 289.351562 333.320312 L 290.382812 330.109375 L 291.414062 329.085938 L 292.441406 328.753906 L 293.472656 329.832031 L 294.503906 330.597656 L 295.535156 333.550781 L 296.566406 336.109375 L 297.59375 339.878906 L 298.625 346.910156 L 299.65625 351.472656 L 300.6875 359.085938 L 301.71875 363.097656 L 302.746094 365.167969 L 303.777344 363.179688 L 304.808594 358.851562 L 305.839844 354.125 L 306.867188 354.773438 L 307.898438 348.621094 L 308.929688 345.703125 L 309.960938 341.808594 L 310.992188 335.382812 L 312.019531 335.09375 L 313.050781 330.839844 L 314.082031 333.058594 L 315.113281 332.027344 L 316.140625 333.359375 L 317.171875 332.257812 L 318.203125 329.292969 L 319.234375 333.621094 L 320.265625 334.226562 L 321.292969 332.984375 L 322.324219 334.527344 L 323.355469 338.558594 L 324.386719 341.226562 L 325.414062 341.746094 L 326.445312 347.15625 L 327.476562 351.21875 L 328.507812 353.222656 L 329.539062 353.5625 L 330.566406 351.902344 L 331.597656 354.378906 L 332.628906 354.691406 L 333.660156 350.066406 L 334.6875 348.390625 L 335.71875 344.492188 L 336.75 341.390625 L 337.78125 337.800781 L 338.8125 335.558594 L 339.839844 332.164062 L 340.871094 332.507812 L 341.902344 332.347656 L 342.933594 333.433594 L 343.960938 331.519531 L 344.992188 331.207031 L 346.023438 334.089844 L 347.054688 332.753906 L 348.085938 333.074219 L 349.113281 332.816406 L 350.144531 335.644531 L 351.175781 337.746094 L 352.207031 345.132812 L 353.234375 349.964844 L 354.265625 359.199219 L 355.296875 365.15625 L 356.328125 367.164062 L 357.359375 366.679688 L 358.386719 360.589844 L 359.417969 357.714844 L 360.449219 350.195312 L 361.480469 343.855469 L 362.507812 343.234375 L 363.539062 343.792969 L 364.570312 342.992188 L 365.601562 339.261719 L 366.632812 335.902344 L 367.660156 335.4375 L 368.691406 337.753906 L 369.722656 334.535156 L 370.753906 332.335938 L 371.78125 334.453125 L 372.8125 329.59375 L 373.84375 327.988281 L 374.875 329.78125 L 375.90625 331.933594 L 376.933594 335.765625 L 377.964844 337.519531 L 378.996094 341.527344 L 380.027344 344.558594 L 381.054688 347.558594 L 382.085938 347.945312 L 383.117188 350.402344 L 384.148438 346.835938 L 385.179688 341.757812 L 386.207031 340.253906 L 387.238281 338.464844 L 388.269531 338.828125 L 389.300781 336.101562 L 390.328125 332.65625 L 391.359375 327.484375 L 392.390625 326.027344 L 393.421875 328.957031 L 394.453125 329.4375 L 395.480469 328.992188 L 396.511719 335.175781 L 397.542969 346.019531 L 398.574219 358.597656 L 399.601562 372.460938 L 400.632812 382.832031 L 401.664062 387.691406 L 402.695312 386.242188 L 403.726562 389.246094 L 404.753906 388.964844 L 405.785156 379.523438 L 406.816406 379.558594 L 407.847656 372.824219 L 408.878906 372.910156 L 409.90625 368.917969 L 410.9375 369.914062 L 411.96875 363.132812 L 413 360.078125 L 414.027344 357.371094 L 415.058594 354.257812 L 416.089844 349.265625 L 417.121094 345.234375 L 418.152344 341.097656 L 419.179688 336.824219 L 420.210938 334.523438 L 421.242188 333.273438 L 422.273438 333.449219 L 423.300781 333.066406 L 424.332031 333.941406 L 425.363281 330.183594 L 426.394531 327.8125 L 427.425781 325.191406 L 428.453125 328.101562 L 429.484375 335.136719 L 430.515625 342.40625 L 431.546875 349.949219 L 432.574219 357.253906 L 433.605469 359.480469 L 434.636719 364.601562 L 435.667969 369.296875 L 436.699219 369.195312 L 437.726562 368.769531 L 438.757812 370.996094 L 439.789062 367.277344 L 440.820312 364.21875 L 441.847656 360.699219 L 442.878906 357.769531 L 443.910156 354.613281 L 444.941406 353.464844 L 445.972656 351.699219 L 447 346.976562 L 448.03125 341.84375 L 449.0625 340.082031 L 450.09375 339.6875 L 451.121094 337.5625 L 452.152344 332.351562 L 453.183594 332.675781 L 454.214844 330.191406 L 455.246094 332.429688 L 456.273438 333.316406 L 457.304688 334.316406 L 458.335938 334.1875 L 459.367188 331.980469 L 460.394531 330.894531 L 461.425781 334.425781 L 462.457031 338.75 L 463.488281 339.929688 L 464.519531 344.023438 L 465.546875 346.289062 L 466.578125 343.28125 L 467.609375 340.285156 L 468.640625 338.367188 L 469.667969 336.925781 L 470.699219 337.828125 L 471.730469 334.695312 L 472.761719 333.492188 L 473.792969 330.957031 L 474.820312 330.636719 L 475.851562 332.480469 L 476.882812 334.359375 L 477.914062 336.699219 "/>
<g clip-path="url(#clip-76)">
<path fill="none" stroke-width="1.066978" stroke-linecap="round" stroke-linejoin="round" stroke="rgb(20%, 20%, 20%)" stroke-opacity="1" stroke-miterlimit="10" d="M 45.152344 397.847656 L 498.523438 397.847656 L 498.523438 321.632812 L 45.152344 321.632812 Z M 45.152344 397.847656 "/>
</g>
<g clip-path="url(#clip-77)">
<path fill-rule="nonzero" fill="rgb(85.098039%, 85.098039%, 85.098039%)" fill-opacity="1" stroke-width="1.066978" stroke-linecap="round" stroke-linejoin="round" stroke="rgb(20%, 20%, 20%)" stroke-opacity="1" stroke-miterlimit="10" d="M 45.152344 321.632812 L 498.523438 321.632812 L 498.523438 303.867188 L 45.152344 303.867188 Z M 45.152344 321.632812 "/>
</g>
<g fill="rgb(10.196078%, 10.196078%, 10.196078%)" fill-opacity="1">
<use xlink:href="#glyph-0-0" x="268.835938" y="315.665039"/>
</g>
<g clip-path="url(#clip-78)">
<path fill-rule="nonzero" fill="rgb(85.098039%, 85.098039%, 85.098039%)" fill-opacity="1" stroke-width="1.066978" stroke-linecap="round" stroke-linejoin="round" stroke="rgb(20%, 20%, 20%)" stroke-opacity="1" stroke-miterlimit="10" d="M 45.152344 222.171875 L 498.523438 222.171875 L 498.523438 204.40625 L 45.152344 204.40625 Z M 45.152344 222.171875 "/>
</g>
<g fill="rgb(10.196078%, 10.196078%, 10.196078%)" fill-opacity="1">
<use xlink:href="#glyph-0-1" x="268.835938" y="216.204102"/>
</g>
<g clip-path="url(#clip-79)">
<path fill-rule="nonzero" fill="rgb(85.098039%, 85.098039%, 85.098039%)" fill-opacity="1" stroke-width="1.066978" stroke-linecap="round" stroke-linejoin="round" stroke="rgb(20%, 20%, 20%)" stroke-opacity="1" stroke-miterlimit="10" d="M 45.152344 122.707031 L 498.523438 122.707031 L 498.523438 104.941406 L 45.152344 104.941406 Z M 45.152344 122.707031 "/>
</g>
<g fill="rgb(10.196078%, 10.196078%, 10.196078%)" fill-opacity="1">
<use xlink:href="#glyph-0-2" x="269.335938" y="116.739258"/>
</g>
<g clip-path="url(#clip-80)">
<path fill-rule="nonzero" fill="rgb(85.098039%, 85.098039%, 85.098039%)" fill-opacity="1" stroke-width="1.066978" stroke-linecap="round" stroke-linejoin="round" stroke="rgb(20%, 20%, 20%)" stroke-opacity="1" stroke-miterlimit="10" d="M 45.152344 23.246094 L 498.523438 23.246094 L 498.523438 5.480469 L 45.152344 5.480469 Z M 45.152344 23.246094 "/>
</g>
<g fill="rgb(10.196078%, 10.196078%, 10.196078%)" fill-opacity="1">
<use xlink:href="#glyph-0-3" x="269.335938" y="17.27832"/>
</g>
<path fill="none" stroke-width="1.066978" stroke-linecap="butt" stroke-linejoin="round" stroke="rgb(20%, 20%, 20%)" stroke-opacity="1" stroke-miterlimit="10" d="M 65.757812 400.589844 L 65.757812 397.847656 "/>
<path fill="none" stroke-width="1.066978" stroke-linecap="butt" stroke-linejoin="round" stroke="rgb(20%, 20%, 20%)" stroke-opacity="1" stroke-miterlimit="10" d="M 168.796875 400.589844 L 168.796875 397.847656 "/>
<path fill="none" stroke-width="1.066978" stroke-linecap="butt" stroke-linejoin="round" stroke="rgb(20%, 20%, 20%)" stroke-opacity="1" stroke-miterlimit="10" d="M 271.835938 400.589844 L 271.835938 397.847656 "/>
<path fill="none" stroke-width="1.066978" stroke-linecap="butt" stroke-linejoin="round" stroke="rgb(20%, 20%, 20%)" stroke-opacity="1" stroke-miterlimit="10" d="M 374.875 400.589844 L 374.875 397.847656 "/>
<path fill="none" stroke-width="1.066978" stroke-linecap="butt" stroke-linejoin="round" stroke="rgb(20%, 20%, 20%)" stroke-opacity="1" stroke-miterlimit="10" d="M 477.914062 400.589844 L 477.914062 397.847656 "/>
<g fill="rgb(30.196078%, 30.196078%, 30.196078%)" fill-opacity="1">
<use xlink:href="#glyph-0-4" x="63.257812" y="409.196289"/>
</g>
<g fill="rgb(30.196078%, 30.196078%, 30.196078%)" fill-opacity="1">
<use xlink:href="#glyph-0-5" x="161.296875" y="409.196289"/>
<use xlink:href="#glyph-0-4" x="166.296875" y="409.196289"/>
<use xlink:href="#glyph-0-4" x="171.296875" y="409.196289"/>
</g>
<g fill="rgb(30.196078%, 30.196078%, 30.196078%)" fill-opacity="1">
<use xlink:href="#glyph-0-6" x="264.335938" y="409.196289"/>
<use xlink:href="#glyph-0-4" x="269.335938" y="409.196289"/>
<use xlink:href="#glyph-0-4" x="274.335938" y="409.196289"/>
</g>
<g fill="rgb(30.196078%, 30.196078%, 30.196078%)" fill-opacity="1">
<use xlink:href="#glyph-0-7" x="367.375" y="409.196289"/>
<use xlink:href="#glyph-0-4" x="372.375" y="409.196289"/>
<use xlink:href="#glyph-0-4" x="377.375" y="409.196289"/>
</g>
<g fill="rgb(30.196078%, 30.196078%, 30.196078%)" fill-opacity="1">
<use xlink:href="#glyph-0-8" x="470.414062" y="409.196289"/>
<use xlink:href="#glyph-0-4" x="475.414062" y="409.196289"/>
<use xlink:href="#glyph-0-4" x="480.414062" y="409.196289"/>
</g>
<g fill="rgb(30.196078%, 30.196078%, 30.196078%)" fill-opacity="1">
<use xlink:href="#glyph-0-4" x="35.21875" y="102.364258"/>
</g>
<g fill="rgb(30.196078%, 30.196078%, 30.196078%)" fill-opacity="1">
<use xlink:href="#glyph-0-7" x="20.21875" y="82.098633"/>
<use xlink:href="#glyph-0-4" x="25.21875" y="82.098633"/>
<use xlink:href="#glyph-0-4" x="30.21875" y="82.098633"/>
<use xlink:href="#glyph-0-4" x="35.21875" y="82.098633"/>
</g>
<g fill="rgb(30.196078%, 30.196078%, 30.196078%)" fill-opacity="1">
<use xlink:href="#glyph-0-9" x="20.21875" y="61.833008"/>
<use xlink:href="#glyph-0-4" x="25.21875" y="61.833008"/>
<use xlink:href="#glyph-0-4" x="30.21875" y="61.833008"/>
<use xlink:href="#glyph-0-4" x="35.21875" y="61.833008"/>
</g>
<g fill="rgb(30.196078%, 30.196078%, 30.196078%)" fill-opacity="1">
<use xlink:href="#glyph-0-10" x="20.21875" y="41.567383"/>
<use xlink:href="#glyph-0-4" x="25.21875" y="41.567383"/>
<use xlink:href="#glyph-0-4" x="30.21875" y="41.567383"/>
<use xlink:href="#glyph-0-4" x="35.21875" y="41.567383"/>
</g>
<path fill="none" stroke-width="1.066978" stroke-linecap="butt" stroke-linejoin="round" stroke="rgb(20%, 20%, 20%)" stroke-opacity="1" stroke-miterlimit="10" d="M 42.410156 99.449219 L 45.152344 99.449219 "/>
<path fill="none" stroke-width="1.066978" stroke-linecap="butt" stroke-linejoin="round" stroke="rgb(20%, 20%, 20%)" stroke-opacity="1" stroke-miterlimit="10" d="M 42.410156 79.183594 L 45.152344 79.183594 "/>
<path fill="none" stroke-width="1.066978" stroke-linecap="butt" stroke-linejoin="round" stroke="rgb(20%, 20%, 20%)" stroke-opacity="1" stroke-miterlimit="10" d="M 42.410156 58.917969 L 45.152344 58.917969 "/>
<path fill="none" stroke-width="1.066978" stroke-linecap="butt" stroke-linejoin="round" stroke="rgb(20%, 20%, 20%)" stroke-opacity="1" stroke-miterlimit="10" d="M 42.410156 38.652344 L 45.152344 38.652344 "/>
<g fill="rgb(30.196078%, 30.196078%, 30.196078%)" fill-opacity="1">
<use xlink:href="#glyph-0-5" x="35.21875" y="191.49707"/>
</g>
<g fill="rgb(30.196078%, 30.196078%, 30.196078%)" fill-opacity="1">
<use xlink:href="#glyph-0-6" x="35.21875" y="175.55957"/>
</g>
<g fill="rgb(30.196078%, 30.196078%, 30.196078%)" fill-opacity="1">
<use xlink:href="#glyph-0-7" x="35.21875" y="159.618164"/>
</g>
<g fill="rgb(30.196078%, 30.196078%, 30.196078%)" fill-opacity="1">
<use xlink:href="#glyph-0-8" x="35.21875" y="143.680664"/>
</g>
<g fill="rgb(30.196078%, 30.196078%, 30.196078%)" fill-opacity="1">
<use xlink:href="#glyph-0-11" x="35.21875" y="127.743164"/>
</g>
<path fill="none" stroke-width="1.066978" stroke-linecap="butt" stroke-linejoin="round" stroke="rgb(20%, 20%, 20%)" stroke-opacity="1" stroke-miterlimit="10" d="M 42.410156 188.582031 L 45.152344 188.582031 "/>
<path fill="none" stroke-width="1.066978" stroke-linecap="butt" stroke-linejoin="round" stroke="rgb(20%, 20%, 20%)" stroke-opacity="1" stroke-miterlimit="10" d="M 42.410156 172.644531 L 45.152344 172.644531 "/>
<path fill="none" stroke-width="1.066978" stroke-linecap="butt" stroke-linejoin="round" stroke="rgb(20%, 20%, 20%)" stroke-opacity="1" stroke-miterlimit="10" d="M 42.410156 156.703125 L 45.152344 156.703125 "/>
<path fill="none" stroke-width="1.066978" stroke-linecap="butt" stroke-linejoin="round" stroke="rgb(20%, 20%, 20%)" stroke-opacity="1" stroke-miterlimit="10" d="M 42.410156 140.765625 L 45.152344 140.765625 "/>
<path fill="none" stroke-width="1.066978" stroke-linecap="butt" stroke-linejoin="round" stroke="rgb(20%, 20%, 20%)" stroke-opacity="1" stroke-miterlimit="10" d="M 42.410156 124.828125 L 45.152344 124.828125 "/>
<g fill="rgb(30.196078%, 30.196078%, 30.196078%)" fill-opacity="1">
<use xlink:href="#glyph-0-12" x="35.21875" y="281.829102"/>
</g>
<g fill="rgb(30.196078%, 30.196078%, 30.196078%)" fill-opacity="1">
<use xlink:href="#glyph-0-13" x="35.21875" y="256.879883"/>
</g>
<g fill="rgb(30.196078%, 30.196078%, 30.196078%)" fill-opacity="1">
<use xlink:href="#glyph-0-10" x="35.21875" y="231.93457"/>
</g>
<path fill="none" stroke-width="1.066978" stroke-linecap="butt" stroke-linejoin="round" stroke="rgb(20%, 20%, 20%)" stroke-opacity="1" stroke-miterlimit="10" d="M 42.410156 278.914062 L 45.152344 278.914062 "/>
<path fill="none" stroke-width="1.066978" stroke-linecap="butt" stroke-linejoin="round" stroke="rgb(20%, 20%, 20%)" stroke-opacity="1" stroke-miterlimit="10" d="M 42.410156 253.964844 L 45.152344 253.964844 "/>
<path fill="none" stroke-width="1.066978" stroke-linecap="butt" stroke-linejoin="round" stroke="rgb(20%, 20%, 20%)" stroke-opacity="1" stroke-miterlimit="10" d="M 42.410156 229.019531 L 45.152344 229.019531 "/>
<g fill="rgb(30.196078%, 30.196078%, 30.196078%)" fill-opacity="1">
<use xlink:href="#glyph-0-14" x="25.21875" y="394.250977"/>
<use xlink:href="#glyph-0-4" x="28.21875" y="394.250977"/>
<use xlink:href="#glyph-0-15" x="33.21875" y="394.250977"/>
<use xlink:href="#glyph-0-11" x="35.21875" y="394.250977"/>
</g>
<g fill="rgb(30.196078%, 30.196078%, 30.196078%)" fill-opacity="1">
<use xlink:href="#glyph-0-4" x="28.21875" y="377.106445"/>
<use xlink:href="#glyph-0-15" x="33.21875" y="377.106445"/>
<use xlink:href="#glyph-0-4" x="35.21875" y="377.106445"/>
</g>
<g fill="rgb(30.196078%, 30.196078%, 30.196078%)" fill-opacity="1">
<use xlink:href="#glyph-0-4" x="28.21875" y="359.961914"/>
<use xlink:href="#glyph-0-15" x="33.21875" y="359.961914"/>
<use xlink:href="#glyph-0-11" x="35.21875" y="359.961914"/>
</g>
<g fill="rgb(30.196078%, 30.196078%, 30.196078%)" fill-opacity="1">
<use xlink:href="#glyph-0-5" x="28.21875" y="342.821289"/>
<use xlink:href="#glyph-0-15" x="33.21875" y="342.821289"/>
<use xlink:href="#glyph-0-4" x="35.21875" y="342.821289"/>
</g>
<g fill="rgb(30.196078%, 30.196078%, 30.196078%)" fill-opacity="1">
<use xlink:href="#glyph-0-5" x="28.21875" y="325.676758"/>
<use xlink:href="#glyph-0-15" x="33.21875" y="325.676758"/>
<use xlink:href="#glyph-0-11" x="35.21875" y="325.676758"/>
</g>
<path fill="none" stroke-width="1.066978" stroke-linecap="butt" stroke-linejoin="round" stroke="rgb(20%, 20%, 20%)" stroke-opacity="1" stroke-miterlimit="10" d="M 42.410156 391.335938 L 45.152344 391.335938 "/>
<path fill="none" stroke-width="1.066978" stroke-linecap="butt" stroke-linejoin="round" stroke="rgb(20%, 20%, 20%)" stroke-opacity="1" stroke-miterlimit="10" d="M 42.410156 374.191406 L 45.152344 374.191406 "/>
<path fill="none" stroke-width="1.066978" stroke-linecap="butt" stroke-linejoin="round" stroke="rgb(20%, 20%, 20%)" stroke-opacity="1" stroke-miterlimit="10" d="M 42.410156 357.046875 L 45.152344 357.046875 "/>
<path fill="none" stroke-width="1.066978" stroke-linecap="butt" stroke-linejoin="round" stroke="rgb(20%, 20%, 20%)" stroke-opacity="1" stroke-miterlimit="10" d="M 42.410156 339.90625 L 45.152344 339.90625 "/>
<path fill="none" stroke-width="1.066978" stroke-linecap="butt" stroke-linejoin="round" stroke="rgb(20%, 20%, 20%)" stroke-opacity="1" stroke-miterlimit="10" d="M 42.410156 322.761719 L 45.152344 322.761719 "/>
<g fill="rgb(0%, 0%, 0%)" fill-opacity="1">
<use xlink:href="#glyph-1-0" x="261.835938" y="422.538086"/>
<use xlink:href="#glyph-1-1" x="264.835938" y="422.538086"/>
<use xlink:href="#glyph-1-2" x="266.835938" y="422.538086"/>
<use xlink:href="#glyph-1-3" x="275.835938" y="422.538086"/>
</g>
</svg>
