<?xml version="1.0" encoding="UTF-8"?>
<svg xmlns="http://www.w3.org/2000/svg" xmlns:xlink="http://www.w3.org/1999/xlink" width="504pt" height="432pt" viewBox="0 0 504 432">
<defs>
<g>
<g id="glyph-0-0">
<path d="M 3.40625 -2.515625 L 5.8125 -6.40625 L 4.84375 -6.40625 L 3.015625 -3.296875 L 1.125 -6.40625 L 0.109375 -6.40625 L 2.59375 -2.515625 L 2.59375 0 L 3.40625 0 Z M 3.40625 -2.515625 "/>
</g>
<g id="glyph-0-1">
<path d="M 3.4375 -3.296875 L 5.609375 -6.40625 L 4.625 -6.40625 L 2.96875 -3.890625 L 1.328125 -6.40625 L 0.328125 -6.40625 L 2.46875 -3.296875 L 0.1875 0 L 1.1875 0 L 2.953125 -2.671875 L 4.703125 0 L 5.703125 0 Z M 3.4375 -3.296875 "/>
</g>
<g id="glyph-0-2">
<path d="M 0.46875 1.921875 L 1.21875 1.921875 L 1.21875 -0.484375 C 1.59375 -0.015625 2.03125 0.203125 2.625 0.203125 C 3.828125 0.203125 4.59375 -0.75 4.59375 -2.21875 C 4.59375 -3.78125 3.84375 -4.734375 2.625 -4.734375 C 2 -4.734375 1.5 -4.453125 1.15625 -3.921875 L 1.15625 -4.609375 L 0.46875 -4.609375 Z M 2.5 -4.0625 C 3.3125 -4.0625 3.828125 -3.34375 3.828125 -2.25 C 3.828125 -1.203125 3.296875 -0.484375 2.5 -0.484375 C 1.71875 -0.484375 1.21875 -1.1875 1.21875 -2.265625 C 1.21875 -3.359375 1.71875 -4.0625 2.5 -4.0625 Z M 2.5 -4.0625 "/>
</g>
<g id="glyph-0-3">
<path d="M 0.609375 -4.609375 L 0.609375 0 L 1.359375 0 L 1.359375 -2.546875 C 1.359375 -3.484375 1.84375 -4.09375 2.609375 -4.09375 C 3.1875 -4.09375 3.546875 -3.75 3.546875 -3.1875 L 3.546875 0 L 4.28125 0 L 4.28125 -3.484375 C 4.28125 -4.25 3.71875 -4.734375 2.828125 -4.734375 C 2.140625 -4.734375 1.703125 -4.484375 1.296875 -3.828125 L 1.296875 -4.609375 Z M 0.609375 -4.609375 "/>
</g>
<g id="glyph-0-4">
<path d="M 2.421875 -6.359375 C 1.84375 -6.359375 1.3125 -6.09375 0.984375 -5.671875 C 0.578125 -5.109375 0.375 -4.25 0.375 -3.078125 C 0.375 -0.9375 1.078125 0.203125 2.421875 0.203125 C 3.734375 0.203125 4.453125 -0.9375 4.453125 -3.03125 C 4.453125 -4.25 4.265625 -5.078125 3.859375 -5.671875 C 3.53125 -6.109375 3.015625 -6.359375 2.421875 -6.359375 Z M 2.421875 -5.671875 C 3.25 -5.671875 3.671875 -4.828125 3.671875 -3.09375 C 3.671875 -1.28125 3.265625 -0.4375 2.40625 -0.4375 C 1.578125 -0.4375 1.171875 -1.3125 1.171875 -3.0625 C 1.171875 -4.828125 1.578125 -5.671875 2.421875 -5.671875 Z M 2.421875 -5.671875 "/>
</g>
<g id="glyph-0-5">
<path d="M 2.28125 -4.53125 L 2.28125 0 L 3.046875 0 L 3.046875 -6.359375 L 2.546875 -6.359375 C 2.265625 -5.390625 2.09375 -5.25 0.890625 -5.09375 L 0.890625 -4.53125 Z M 2.28125 -4.53125 "/>
</g>
<g id="glyph-0-6">
<path d="M 4.453125 -0.765625 L 1.171875 -0.765625 C 1.25 -1.296875 1.53125 -1.625 2.296875 -2.09375 L 3.171875 -2.59375 C 4.046875 -3.0625 4.5 -3.71875 4.5 -4.5 C 4.5 -5.03125 4.28125 -5.53125 3.921875 -5.875 C 3.546875 -6.203125 3.09375 -6.359375 2.5 -6.359375 C 1.703125 -6.359375 1.125 -6.078125 0.78125 -5.53125 C 0.546875 -5.203125 0.453125 -4.796875 0.4375 -4.15625 L 1.21875 -4.15625 C 1.234375 -4.59375 1.296875 -4.84375 1.40625 -5.0625 C 1.59375 -5.4375 2 -5.6875 2.46875 -5.6875 C 3.171875 -5.6875 3.703125 -5.171875 3.703125 -4.484375 C 3.703125 -3.96875 3.40625 -3.53125 2.859375 -3.21875 L 2.046875 -2.75 C 0.75 -2 0.375 -1.40625 0.296875 -0.015625 L 4.453125 -0.015625 Z M 4.453125 -0.765625 "/>
</g>
<g id="glyph-0-7">
<path d="M 1.9375 -2.921875 L 2.359375 -2.921875 C 3.203125 -2.921875 3.65625 -2.53125 3.65625 -1.765625 C 3.65625 -0.96875 3.171875 -0.484375 2.375 -0.484375 C 1.515625 -0.484375 1.109375 -0.921875 1.0625 -1.84375 L 0.28125 -1.84375 C 0.3125 -1.34375 0.40625 -1 0.546875 -0.71875 C 0.875 -0.109375 1.484375 0.203125 2.34375 0.203125 C 3.625 0.203125 4.453125 -0.578125 4.453125 -1.78125 C 4.453125 -2.59375 4.140625 -3.03125 3.390625 -3.296875 C 3.96875 -3.53125 4.265625 -3.96875 4.265625 -4.609375 C 4.265625 -5.703125 3.546875 -6.359375 2.359375 -6.359375 C 1.109375 -6.359375 0.4375 -5.65625 0.40625 -4.3125 L 1.1875 -4.3125 C 1.203125 -4.703125 1.234375 -4.921875 1.328125 -5.109375 C 1.5 -5.46875 1.890625 -5.6875 2.375 -5.6875 C 3.0625 -5.6875 3.46875 -5.265625 3.46875 -4.578125 C 3.46875 -4.140625 3.3125 -3.859375 2.96875 -3.71875 C 2.765625 -3.625 2.484375 -3.59375 1.9375 -3.578125 Z M 1.9375 -2.921875 "/>
</g>
<g id="glyph-0-8">
<path d="M 2.875 -1.546875 L 2.875 0 L 3.65625 0 L 3.65625 -1.546875 L 4.578125 -1.546875 L 4.578125 -2.234375 L 3.65625 -2.234375 L 3.65625 -6.359375 L 3.078125 -6.359375 L 0.25 -2.359375 L 0.25 -1.546875 Z M 2.875 -2.234375 L 0.921875 -2.234375 L 2.875 -5.046875 Z M 2.875 -2.234375 "/>
</g>
<g id="glyph-0-9">
<path d="M 4.1875 -6.234375 L 0.96875 -6.234375 L 0.5 -2.84375 L 1.21875 -2.84375 C 1.578125 -3.265625 1.875 -3.421875 2.359375 -3.421875 C 3.203125 -3.421875 3.71875 -2.84375 3.71875 -1.921875 C 3.71875 -1.03125 3.203125 -0.484375 2.359375 -0.484375 C 1.6875 -0.484375 1.265625 -0.828125 1.078125 -1.53125 L 0.3125 -1.53125 C 0.40625 -1.015625 0.5 -0.78125 0.6875 -0.546875 C 1.03125 -0.078125 1.671875 0.203125 2.375 0.203125 C 3.640625 0.203125 4.515625 -0.71875 4.515625 -2.03125 C 4.515625 -3.265625 3.6875 -4.109375 2.5 -4.109375 C 2.0625 -4.109375 1.703125 -4 1.34375 -3.734375 L 1.59375 -5.46875 L 4.1875 -5.46875 Z M 4.1875 -6.234375 "/>
</g>
<g id="glyph-0-10">
<path d="M 4.578125 -6.234375 L 0.40625 -6.234375 L 0.40625 -5.46875 L 3.78125 -5.46875 C 2.28125 -3.359375 1.6875 -2.046875 1.21875 0 L 2.046875 0 C 2.390625 -2 3.171875 -3.71875 4.578125 -5.59375 Z M 4.578125 -6.234375 "/>
</g>
<g id="glyph-0-11">
<path d="M 4.375 -4.703125 C 4.234375 -5.75 3.5625 -6.359375 2.609375 -6.359375 C 1.921875 -6.359375 1.3125 -6.03125 0.9375 -5.453125 C 0.546875 -4.828125 0.375 -4.0625 0.375 -2.90625 C 0.375 -1.828125 0.53125 -1.15625 0.90625 -0.59375 C 1.234375 -0.078125 1.78125 0.203125 2.46875 0.203125 C 3.65625 0.203125 4.515625 -0.6875 4.515625 -1.921875 C 4.515625 -3.09375 3.71875 -3.921875 2.609375 -3.921875 C 1.984375 -3.921875 1.5 -3.6875 1.171875 -3.234375 C 1.171875 -4.796875 1.671875 -5.671875 2.5625 -5.671875 C 3.109375 -5.671875 3.484375 -5.328125 3.609375 -4.703125 Z M 2.5 -3.234375 C 3.25 -3.234375 3.71875 -2.703125 3.71875 -1.859375 C 3.71875 -1.0625 3.1875 -0.484375 2.484375 -0.484375 C 1.765625 -0.484375 1.21875 -1.09375 1.21875 -1.90625 C 1.21875 -2.6875 1.734375 -3.234375 2.5 -3.234375 Z M 2.5 -3.234375 "/>
</g>
<g id="glyph-0-12">
<path d="M 3.4375 -3.359375 C 4.09375 -3.75 4.296875 -4.0625 4.296875 -4.65625 C 4.296875 -5.671875 3.53125 -6.359375 2.421875 -6.359375 C 1.3125 -6.359375 0.546875 -5.671875 0.546875 -4.671875 C 0.546875 -4.0625 0.75 -3.75 1.390625 -3.359375 C 0.671875 -2.984375 0.328125 -2.46875 0.328125 -1.765625 C 0.328125 -0.609375 1.171875 0.203125 2.421875 0.203125 C 3.65625 0.203125 4.515625 -0.609375 4.515625 -1.765625 C 4.515625 -2.46875 4.15625 -2.984375 3.4375 -3.359375 Z M 2.421875 -5.671875 C 3.078125 -5.671875 3.5 -5.28125 3.5 -4.640625 C 3.5 -4.046875 3.0625 -3.65625 2.421875 -3.65625 C 1.765625 -3.65625 1.34375 -4.046875 1.34375 -4.65625 C 1.34375 -5.28125 1.765625 -5.671875 2.421875 -5.671875 Z M 2.421875 -3 C 3.1875 -3 3.71875 -2.484375 3.71875 -1.75 C 3.71875 -0.984375 3.203125 -0.484375 2.40625 -0.484375 C 1.640625 -0.484375 1.125 -1 1.125 -1.734375 C 1.125 -2.5 1.640625 -3 2.421875 -3 Z M 2.421875 -3 "/>
</g>
<g id="glyph-0-13">
<path d="M 0.46875 -1.453125 C 0.609375 -0.40625 1.28125 0.203125 2.234375 0.203125 C 2.921875 0.203125 3.546875 -0.125 3.921875 -0.703125 C 4.296875 -1.328125 4.484375 -2.109375 4.484375 -3.25 C 4.484375 -4.328125 4.3125 -5 3.953125 -5.5625 C 3.609375 -6.09375 3.0625 -6.359375 2.375 -6.359375 C 1.1875 -6.359375 0.328125 -5.46875 0.328125 -4.234375 C 0.328125 -3.0625 1.125 -2.25 2.25 -2.25 C 2.84375 -2.25 3.28125 -2.453125 3.671875 -2.9375 C 3.671875 -1.359375 3.171875 -0.484375 2.28125 -0.484375 C 1.734375 -0.484375 1.359375 -0.828125 1.234375 -1.453125 Z M 2.359375 -5.6875 C 3.09375 -5.6875 3.640625 -5.078125 3.640625 -4.25 C 3.640625 -3.46875 3.109375 -2.921875 2.34375 -2.921875 C 1.59375 -2.921875 1.125 -3.453125 1.125 -4.296875 C 1.125 -5.109375 1.640625 -5.6875 2.359375 -5.6875 Z M 2.359375 -5.6875 "/>
</g>
<g id="glyph-0-14">
<path d="M 2.5 -2.75 L 0.40625 -2.75 L 0.40625 -2.109375 L 2.5 -2.109375 Z M 2.5 -2.75 "/>
</g>
<g id="glyph-1-0">
<path d="M 2.796875 -5.765625 L 1.84375 -5.765625 L 1.84375 -7.34375 L 0.9375 -7.34375 L 0.9375 -5.765625 L 0.15625 -5.765625 L 0.15625 -5.015625 L 0.9375 -5.015625 L 0.9375 -0.65625 C 0.9375 -0.0625 1.328125 0.25 2.046875 0.25 C 2.28125 0.25 2.484375 0.234375 2.796875 0.171875 L 2.796875 -0.59375 C 2.65625 -0.5625 2.546875 -0.546875 2.359375 -0.546875 C 1.953125 -0.546875 1.84375 -0.65625 1.84375 -1.0625 L 1.84375 -5.015625 L 2.796875 -5.015625 Z M 2.796875 -5.765625 "/>
</g>
<g id="glyph-1-1">
<path d="M 1.65625 -5.765625 L 0.734375 -5.765625 L 0.734375 0 L 1.65625 0 Z M 1.65625 -8.015625 L 0.71875 -8.015625 L 0.71875 -6.859375 L 1.65625 -6.859375 Z M 1.65625 -8.015625 "/>
</g>
<g id="glyph-1-2">
<path d="M 0.765625 -5.765625 L 0.765625 0 L 1.6875 0 L 1.6875 -3.625 C 1.6875 -4.453125 2.296875 -5.125 3.046875 -5.125 C 3.734375 -5.125 4.109375 -4.703125 4.109375 -3.96875 L 4.109375 0 L 5.03125 0 L 5.03125 -3.625 C 5.03125 -4.453125 5.640625 -5.125 6.390625 -5.125 C 7.0625 -5.125 7.453125 -4.703125 7.453125 -3.96875 L 7.453125 0 L 8.375 0 L 8.375 -4.328125 C 8.375 -5.359375 7.78125 -5.921875 6.703125 -5.921875 C 5.9375 -5.921875 5.484375 -5.703125 4.9375 -5.046875 C 4.59375 -5.671875 4.140625 -5.921875 3.390625 -5.921875 C 2.625 -5.921875 2.09375 -5.640625 1.609375 -4.953125 L 1.609375 -5.765625 Z M 0.765625 -5.765625 "/>
</g>
<g id="glyph-1-3">
<path d="M 5.640625 -2.578125 C 5.640625 -3.453125 5.578125 -3.984375 5.40625 -4.40625 C 5.03125 -5.359375 4.15625 -5.921875 3.078125 -5.921875 C 1.46875 -5.921875 0.4375 -4.703125 0.4375 -2.8125 C 0.4375 -0.90625 1.4375 0.25 3.0625 0.25 C 4.375 0.25 5.296875 -0.5 5.515625 -1.75 L 4.59375 -1.75 C 4.34375 -0.984375 3.828125 -0.59375 3.09375 -0.59375 C 2.515625 -0.59375 2.015625 -0.859375 1.703125 -1.34375 C 1.484375 -1.671875 1.40625 -2 1.390625 -2.578125 Z M 1.421875 -3.328125 C 1.5 -4.390625 2.140625 -5.078125 3.0625 -5.078125 C 4 -5.078125 4.65625 -4.359375 4.65625 -3.328125 Z M 1.421875 -3.328125 "/>
</g>
</g>
<clipPath id="clip-0">
<path clip-rule="nonzero" d="M 50.152344 23.246094 L 498.523438 23.246094 L 498.523438 99.460938 L 50.152344 99.460938 Z M 50.152344 23.246094 "/>
</clipPath>
<clipPath id="clip-1">
<path clip-rule="nonzero" d="M 50.152344 89 L 498.523438 89 L 498.523438 91 L 50.152344 91 Z M 50.152344 89 "/>
</clipPath>
<clipPath id="clip-2">
<path clip-rule="nonzero" d="M 50.152344 75 L 498.523438 75 L 498.523438 76 L 50.152344 76 Z M 50.152344 75 "/>
</clipPath>
<clipPath id="clip-3">
<path clip-rule="nonzero" d="M 50.152344 60 L 498.523438 60 L 498.523438 62 L 50.152344 62 Z M 50.152344 60 "/>
</clipPath>
<clipPath id="clip-4">
<path clip-rule="nonzero" d="M 50.152344 46 L 498.523438 46 L 498.523438 47 L 50.152344 47 Z M 50.152344 46 "/>
</clipPath>
<clipPath id="clip-5">
<path clip-rule="nonzero" d="M 50.152344 31 L 498.523438 31 L 498.523438 33 L 50.152344 33 Z M 50.152344 31 "/>
</clipPath>
<clipPath id="clip-6">
<path clip-rule="nonzero" d="M 121 23.246094 L 122 23.246094 L 122 99.460938 L 121 99.460938 Z M 121 23.246094 "/>
</clipPath>
<clipPath id="clip-7">
<path clip-rule="nonzero" d="M 223 23.246094 L 224 23.246094 L 224 99.460938 L 223 99.460938 Z M 223 23.246094 "/>
</clipPath>
<clipPath id="clip-8">
<path clip-rule="nonzero" d="M 325 23.246094 L 326 23.246094 L 326 99.460938 L 325 99.460938 Z M 325 23.246094 "/>
</clipPath>
<clipPath id="clip-9">
<path clip-rule="nonzero" d="M 426 23.246094 L 428 23.246094 L 428 99.460938 L 426 99.460938 Z M 426 23.246094 "/>
</clipPath>
<clipPath id="clip-10">
<path clip-rule="nonzero" d="M 50.152344 96 L 498.523438 96 L 498.523438 99 L 50.152344 99 Z M 50.152344 96 "/>
</clipPath>
<clipPath id="clip-11">
<path clip-rule="nonzero" d="M 50.152344 82 L 498.523438 82 L 498.523438 84 L 50.152344 84 Z M 50.152344 82 "/>
</clipPath>
<clipPath id="clip-12">
<path clip-rule="nonzero" d="M 50.152344 67 L 498.523438 67 L 498.523438 69 L 50.152344 69 Z M 50.152344 67 "/>
</clipPath>
<clipPath id="clip-13">
<path clip-rule="nonzero" d="M 50.152344 53 L 498.523438 53 L 498.523438 55 L 50.152344 55 Z M 50.152344 53 "/>
</clipPath>
<clipPath id="clip-14">
<path clip-rule="nonzero" d="M 50.152344 38 L 498.523438 38 L 498.523438 40 L 50.152344 40 Z M 50.152344 38 "/>
</clipPath>
<clipPath id="clip-15">
<path clip-rule="nonzero" d="M 50.152344 24 L 498.523438 24 L 498.523438 26 L 50.152344 26 Z M 50.152344 24 "/>
</clipPath>
<clipPath id="clip-16">
<path clip-rule="nonzero" d="M 69 23.246094 L 72 23.246094 L 72 99.460938 L 69 99.460938 Z M 69 23.246094 "/>
</clipPath>
<clipPath id="clip-17">
<path clip-rule="nonzero" d="M 171 23.246094 L 173 23.246094 L 173 99.460938 L 171 99.460938 Z M 171 23.246094 "/>
</clipPath>
<clipPath id="clip-18">
<path clip-rule="nonzero" d="M 273 23.246094 L 275 23.246094 L 275 99.460938 L 273 99.460938 Z M 273 23.246094 "/>
</clipPath>
<clipPath id="clip-19">
<path clip-rule="nonzero" d="M 375 23.246094 L 377 23.246094 L 377 99.460938 L 375 99.460938 Z M 375 23.246094 "/>
</clipPath>
<clipPath id="clip-20">
<path clip-rule="nonzero" d="M 477 23.246094 L 479 23.246094 L 479 99.460938 L 477 99.460938 Z M 477 23.246094 "/>
</clipPath>
<clipPath id="clip-21">
<path clip-rule="nonzero" d="M 50.152344 23.246094 L 498.523438 23.246094 L 498.523438 99.460938 L 50.152344 99.460938 Z M 50.152344 23.246094 "/>
</clipPath>
<clipPath id="clip-22">
<path clip-rule="nonzero" d="M 50.152344 122.707031 L 498.523438 122.707031 L 498.523438 198.921875 L 50.152344 198.921875 Z M 50.152344 122.707031 "/>
</clipPath>
<clipPath id="clip-23">
<path clip-rule="nonzero" d="M 50.152344 184 L 498.523438 184 L 498.523438 185 L 50.152344 185 Z M 50.152344 184 "/>
</clipPath>
<clipPath id="clip-24">
<path clip-rule="nonzero" d="M 50.152344 160 L 498.523438 160 L 498.523438 161 L 50.152344 161 Z M 50.152344 160 "/>
</clipPath>
<clipPath id="clip-25">
<path clip-rule="nonzero" d="M 50.152344 135 L 498.523438 135 L 498.523438 137 L 50.152344 137 Z M 50.152344 135 "/>
</clipPath>
<clipPath id="clip-26">
<path clip-rule="nonzero" d="M 121 122.707031 L 122 122.707031 L 122 198.921875 L 121 198.921875 Z M 121 122.707031 "/>
</clipPath>
<clipPath id="clip-27">
<path clip-rule="nonzero" d="M 223 122.707031 L 224 122.707031 L 224 198.921875 L 223 198.921875 Z M 223 122.707031 "/>
</clipPath>
<clipPath id="clip-28">
<path clip-rule="nonzero" d="M 325 122.707031 L 326 122.707031 L 326 198.921875 L 325 198.921875 Z M 325 122.707031 "/>
</clipPath>
<clipPath id="clip-29">
<path clip-rule="nonzero" d="M 426 122.707031 L 428 122.707031 L 428 198.921875 L 426 198.921875 Z M 426 122.707031 "/>
</clipPath>
<clipPath id="clip-30">
<path clip-rule="nonzero" d="M 50.152344 195 L 498.523438 195 L 498.523438 198 L 50.152344 198 Z M 50.152344 195 "/>
</clipPath>
<clipPath id="clip-31">
<path clip-rule="nonzero" d="M 50.152344 171 L 498.523438 171 L 498.523438 173 L 50.152344 173 Z M 50.152344 171 "/>
</clipPath>
<clipPath id="clip-32">
<path clip-rule="nonzero" d="M 50.152344 147 L 498.523438 147 L 498.523438 149 L 50.152344 149 Z M 50.152344 147 "/>
</clipPath>
<clipPath id="clip-33">
<path clip-rule="nonzero" d="M 50.152344 123 L 498.523438 123 L 498.523438 125 L 50.152344 125 Z M 50.152344 123 "/>
</clipPath>
<clipPath id="clip-34">
<path clip-rule="nonzero" d="M 69 122.707031 L 72 122.707031 L 72 198.921875 L 69 198.921875 Z M 69 122.707031 "/>
</clipPath>
<clipPath id="clip-35">
<path clip-rule="nonzero" d="M 171 122.707031 L 173 122.707031 L 173 198.921875 L 171 198.921875 Z M 171 122.707031 "/>
</clipPath>
<clipPath id="clip-36">
<path clip-rule="nonzero" d="M 273 122.707031 L 275 122.707031 L 275 198.921875 L 273 198.921875 Z M 273 122.707031 "/>
</clipPath>
<clipPath id="clip-37">
<path clip-rule="nonzero" d="M 375 122.707031 L 377 122.707031 L 377 198.921875 L 375 198.921875 Z M 375 122.707031 "/>
</clipPath>
<clipPath id="clip-38">
<path clip-rule="nonzero" d="M 477 122.707031 L 479 122.707031 L 479 198.921875 L 477 198.921875 Z M 477 122.707031 "/>
</clipPath>
<clipPath id="clip-39">
<path clip-rule="nonzero" d="M 50.152344 122.707031 L 498.523438 122.707031 L 498.523438 198.921875 L 50.152344 198.921875 Z M 50.152344 122.707031 "/>
</clipPath>
<clipPath id="clip-40">
<path clip-rule="nonzero" d="M 50.152344 222.171875 L 498.523438 222.171875 L 498.523438 298.386719 L 50.152344 298.386719 Z M 50.152344 222.171875 "/>
</clipPath>
<clipPath id="clip-41">
<path clip-rule="nonzero" d="M 50.152344 294 L 498.523438 294 L 498.523438 296 L 50.152344 296 Z M 50.152344 294 "/>
</clipPath>
<clipPath id="clip-42">
<path clip-rule="nonzero" d="M 50.152344 275 L 498.523438 275 L 498.523438 277 L 50.152344 277 Z M 50.152344 275 "/>
</clipPath>
<clipPath id="clip-43">
<path clip-rule="nonzero" d="M 50.152344 257 L 498.523438 257 L 498.523438 258 L 50.152344 258 Z M 50.152344 257 "/>
</clipPath>
<clipPath id="clip-44">
<path clip-rule="nonzero" d="M 50.152344 238 L 498.523438 238 L 498.523438 239 L 50.152344 239 Z M 50.152344 238 "/>
</clipPath>
<clipPath id="clip-45">
<path clip-rule="nonzero" d="M 121 222.171875 L 122 222.171875 L 122 298.386719 L 121 298.386719 Z M 121 222.171875 "/>
</clipPath>
<clipPath id="clip-46">
<path clip-rule="nonzero" d="M 223 222.171875 L 224 222.171875 L 224 298.386719 L 223 298.386719 Z M 223 222.171875 "/>
</clipPath>
<clipPath id="clip-47">
<path clip-rule="nonzero" d="M 325 222.171875 L 326 222.171875 L 326 298.386719 L 325 298.386719 Z M 325 222.171875 "/>
</clipPath>
<clipPath id="clip-48">
<path clip-rule="nonzero" d="M 426 222.171875 L 428 222.171875 L 428 298.386719 L 426 298.386719 Z M 426 222.171875 "/>
</clipPath>
<clipPath id="clip-49">
<path clip-rule="nonzero" d="M 50.152344 285 L 498.523438 285 L 498.523438 287 L 50.152344 287 Z M 50.152344 285 "/>
</clipPath>
<clipPath id="clip-50">
<path clip-rule="nonzero" d="M 50.152344 266 L 498.523438 266 L 498.523438 268 L 50.152344 268 Z M 50.152344 266 "/>
</clipPath>
<clipPath id="clip-51">
<path clip-rule="nonzero" d="M 50.152344 247 L 498.523438 247 L 498.523438 249 L 50.152344 249 Z M 50.152344 247 "/>
</clipPath>
<clipPath id="clip-52">
<path clip-rule="nonzero" d="M 50.152344 228 L 498.523438 228 L 498.523438 230 L 50.152344 230 Z M 50.152344 228 "/>
</clipPath>
<clipPath id="clip-53">
<path clip-rule="nonzero" d="M 69 222.171875 L 72 222.171875 L 72 298.386719 L 69 298.386719 Z M 69 222.171875 "/>
</clipPath>
<clipPath id="clip-54">
<path clip-rule="nonzero" d="M 171 222.171875 L 173 222.171875 L 173 298.386719 L 171 298.386719 Z M 171 222.171875 "/>
</clipPath>
<clipPath id="clip-55">
<path clip-rule="nonzero" d="M 273 222.171875 L 275 222.171875 L 275 298.386719 L 273 298.386719 Z M 273 222.171875 "/>
</clipPath>
<clipPath id="clip-56">
<path clip-rule="nonzero" d="M 375 222.171875 L 377 222.171875 L 377 298.386719 L 375 298.386719 Z M 375 222.171875 "/>
</clipPath>
<clipPath id="clip-57">
<path clip-rule="nonzero" d="M 477 222.171875 L 479 222.171875 L 479 298.386719 L 477 298.386719 Z M 477 222.171875 "/>
</clipPath>
<clipPath id="clip-58">
<path clip-rule="nonzero" d="M 50.152344 222.171875 L 498.523438 222.171875 L 498.523438 298.386719 L 50.152344 298.386719 Z M 50.152344 222.171875 "/>
</clipPath>
<clipPath id="clip-59">
<path clip-rule="nonzero" d="M 50.152344 321.632812 L 498.523438 321.632812 L 498.523438 397.847656 L 50.152344 397.847656 Z M 50.152344 321.632812 "/>
</clipPath>
<clipPath id="clip-60">
<path clip-rule="nonzero" d="M 50.152344 391 L 498.523438 391 L 498.523438 392 L 50.152344 392 Z M 50.152344 391 "/>
</clipPath>
<clipPath id="clip-61">
<path clip-rule="nonzero" d="M 50.152344 374 L 498.523438 374 L 498.523438 376 L 50.152344 376 Z M 50.152344 374 "/>
</clipPath>
<clipPath id="clip-62">
<path clip-rule="nonzero" d="M 50.152344 358 L 498.523438 358 L 498.523438 359 L 50.152344 359 Z M 50.152344 358 "/>
</clipPath>
<clipPath id="clip-63">
<path clip-rule="nonzero" d="M 50.152344 341 L 498.523438 341 L 498.523438 343 L 50.152344 343 Z M 50.152344 341 "/>
</clipPath>
<clipPath id="clip-64">
<path clip-rule="nonzero" d="M 50.152344 324 L 498.523438 324 L 498.523438 326 L 50.152344 326 Z M 50.152344 324 "/>
</clipPath>
<clipPath id="clip-65">
<path clip-rule="nonzero" d="M 121 321.632812 L 122 321.632812 L 122 397.847656 L 121 397.847656 Z M 121 321.632812 "/>
</clipPath>
<clipPath id="clip-66">
<path clip-rule="nonzero" d="M 223 321.632812 L 224 321.632812 L 224 397.847656 L 223 397.847656 Z M 223 321.632812 "/>
</clipPath>
<clipPath id="clip-67">
<path clip-rule="nonzero" d="M 325 321.632812 L 326 321.632812 L 326 397.847656 L 325 397.847656 Z M 325 321.632812 "/>
</clipPath>
<clipPath id="clip-68">
<path clip-rule="nonzero" d="M 426 321.632812 L 428 321.632812 L 428 397.847656 L 426 397.847656 Z M 426 321.632812 "/>
</clipPath>
<clipPath id="clip-69">
<path clip-rule="nonzero" d="M 50.152344 382 L 498.523438 382 L 498.523438 384 L 50.152344 384 Z M 50.152344 382 "/>
</clipPath>
<clipPath id="clip-70">
<path clip-rule="nonzero" d="M 50.152344 366 L 498.523438 366 L 498.523438 368 L 50.152344 368 Z M 50.152344 366 "/>
</clipPath>
<clipPath id="clip-71">
<path clip-rule="nonzero" d="M 50.152344 349 L 498.523438 349 L 498.523438 351 L 50.152344 351 Z M 50.152344 349 "/>
</clipPath>
<clipPath id="clip-72">
<path clip-rule="nonzero" d="M 50.152344 332 L 498.523438 332 L 498.523438 335 L 50.152344 335 Z M 50.152344 332 "/>
</clipPath>
<clipPath id="clip-73">
<path clip-rule="nonzero" d="M 69 321.632812 L 72 321.632812 L 72 397.847656 L 69 397.847656 Z M 69 321.632812 "/>
</clipPath>
<clipPath id="clip-74">
<path clip-rule="nonzero" d="M 171 321.632812 L 173 321.632812 L 173 397.847656 L 171 397.847656 Z M 171 321.632812 "/>
</clipPath>
<clipPath id="clip-75">
<path clip-rule="nonzero" d="M 273 321.632812 L 275 321.632812 L 275 397.847656 L 273 397.847656 Z M 273 321.632812 "/>
</clipPath>
<clipPath id="clip-76">
<path clip-rule="nonzero" d="M 375 321.632812 L 377 321.632812 L 377 397.847656 L 375 397.847656 Z M 375 321.632812 "/>
</clipPath>
<clipPath id="clip-77">
<path clip-rule="nonzero" d="M 477 321.632812 L 479 321.632812 L 479 397.847656 L 477 397.847656 Z M 477 321.632812 "/>
</clipPath>
<clipPath id="clip-78">
<path clip-rule="nonzero" d="M 50.152344 321.632812 L 498.523438 321.632812 L 498.523438 397.847656 L 50.152344 397.847656 Z M 50.152344 321.632812 "/>
</clipPath>
<clipPath id="clip-79">
<path clip-rule="nonzero" d="M 50.152344 303.867188 L 498.523438 303.867188 L 498.523438 321.632812 L 50.152344 321.632812 Z M 50.152344 303.867188 "/>
</clipPath>
<clipPath id="clip-80">
<path clip-rule="nonzero" d="M 50.152344 204.402344 L 498.523438 204.402344 L 498.523438 222.167969 L 50.152344 222.167969 Z M 50.152344 204.402344 "/>
</clipPath>
<clipPath id="clip-81">
<path clip-rule="nonzero" d="M 50.152344 104.941406 L 498.523438 104.941406 L 498.523438 122.707031 L 50.152344 122.707031 Z M 50.152344 104.941406 "/>
</clipPath>
<clipPath id="clip-82">
<path clip-rule="nonzero" d="M 50.152344 5.480469 L 498.523438 5.480469 L 498.523438 23.246094 L 50.152344 23.246094 Z M 50.152344 5.480469 "/>
</clipPath>
</defs>
<rect x="-50.4" y="-43.2" width="604.8" height="518.4" fill="rgb(100%, 100%, 100%)" fill-opacity="1"/>
<rect x="-50.4" y="-43.2" width="604.8" height="518.4" fill="rgb(100%, 100%, 100%)" fill-opacity="1"/>
<path fill="none" stroke-width="1.066978" stroke-linecap="round" stroke-linejoin="round" stroke="rgb(100%, 100%, 100%)" stroke-opacity="1" stroke-miterlimit="10" d="M 0 432 L 504 432 L 504 0 L 0 0 Z M 0 432 "/>
<g clip-path="url(#clip-0)">
<path fill-rule="nonzero" fill="rgb(100%, 100%, 100%)" fill-opacity="1" d="M 50.152344 99.460938 L 498.523438 99.460938 L 498.523438 23.246094 L 50.152344 23.246094 Z M 50.152344 99.460938 "/>
</g>
<g clip-path="url(#clip-1)">
<path fill="none" stroke-width="0.533489" stroke-linecap="butt" stroke-linejoin="round" stroke="rgb(92.156863%, 92.156863%, 92.156863%)" stroke-opacity="1" stroke-miterlimit="10" d="M 50.152344 90.21875 L 498.519531 90.21875 "/>
</g>
<g clip-path="url(#clip-2)">
<path fill="none" stroke-width="0.533489" stroke-linecap="butt" stroke-linejoin="round" stroke="rgb(92.156863%, 92.156863%, 92.156863%)" stroke-opacity="1" stroke-miterlimit="10" d="M 50.152344 75.640625 L 498.519531 75.640625 "/>
</g>
<g clip-path="url(#clip-3)">
<path fill="none" stroke-width="0.533489" stroke-linecap="butt" stroke-linejoin="round" stroke="rgb(92.156863%, 92.156863%, 92.156863%)" stroke-opacity="1" stroke-miterlimit="10" d="M 50.152344 61.0625 L 498.519531 61.0625 "/>
</g>
<g clip-path="url(#clip-4)">
<path fill="none" stroke-width="0.533489" stroke-linecap="butt" stroke-linejoin="round" stroke="rgb(92.156863%, 92.156863%, 92.156863%)" stroke-opacity="1" stroke-miterlimit="10" d="M 50.152344 46.484375 L 498.519531 46.484375 "/>
</g>
<g clip-path="url(#clip-5)">
<path fill="none" stroke-width="0.533489" stroke-linecap="butt" stroke-linejoin="round" stroke="rgb(92.156863%, 92.156863%, 92.156863%)" stroke-opacity="1" stroke-miterlimit="10" d="M 50.152344 31.90625 L 498.519531 31.90625 "/>
</g>
<g clip-path="url(#clip-6)">
<path fill="none" stroke-width="0.533489" stroke-linecap="butt" stroke-linejoin="round" stroke="rgb(92.156863%, 92.156863%, 92.156863%)" stroke-opacity="1" stroke-miterlimit="10" d="M 121.480469 99.460938 L 121.480469 23.246094 "/>
</g>
<g clip-path="url(#clip-7)">
<path fill="none" stroke-width="0.533489" stroke-linecap="butt" stroke-linejoin="round" stroke="rgb(92.156863%, 92.156863%, 92.156863%)" stroke-opacity="1" stroke-miterlimit="10" d="M 223.382812 99.460938 L 223.382812 23.246094 "/>
</g>
<g clip-path="url(#clip-8)">
<path fill="none" stroke-width="0.533489" stroke-linecap="butt" stroke-linejoin="round" stroke="rgb(92.156863%, 92.156863%, 92.156863%)" stroke-opacity="1" stroke-miterlimit="10" d="M 325.285156 99.460938 L 325.285156 23.246094 "/>
</g>
<g clip-path="url(#clip-9)">
<path fill="none" stroke-width="0.533489" stroke-linecap="butt" stroke-linejoin="round" stroke="rgb(92.156863%, 92.156863%, 92.156863%)" stroke-opacity="1" stroke-miterlimit="10" d="M 427.1875 99.460938 L 427.1875 23.246094 "/>
</g>
<g clip-path="url(#clip-10)">
<path fill="none" stroke-width="1.066978" stroke-linecap="butt" stroke-linejoin="round" stroke="rgb(92.156863%, 92.156863%, 92.156863%)" stroke-opacity="1" stroke-miterlimit="10" d="M 50.152344 97.511719 L 498.519531 97.511719 "/>
</g>
<g clip-path="url(#clip-11)">
<path fill="none" stroke-width="1.066978" stroke-linecap="butt" stroke-linejoin="round" stroke="rgb(92.156863%, 92.156863%, 92.156863%)" stroke-opacity="1" stroke-miterlimit="10" d="M 50.152344 82.929688 L 498.519531 82.929688 "/>
</g>
<g clip-path="url(#clip-12)">
<path fill="none" stroke-width="1.066978" stroke-linecap="butt" stroke-linejoin="round" stroke="rgb(92.156863%, 92.156863%, 92.156863%)" stroke-opacity="1" stroke-miterlimit="10" d="M 50.152344 68.351562 L 498.519531 68.351562 "/>
</g>
<g clip-path="url(#clip-13)">
<path fill="none" stroke-width="1.066978" stroke-linecap="butt" stroke-linejoin="round" stroke="rgb(92.156863%, 92.156863%, 92.156863%)" stroke-opacity="1" stroke-miterlimit="10" d="M 50.152344 53.773438 L 498.519531 53.773438 "/>
</g>
<g clip-path="url(#clip-14)">
<path fill="none" stroke-width="1.066978" stroke-linecap="butt" stroke-linejoin="round" stroke="rgb(92.156863%, 92.156863%, 92.156863%)" stroke-opacity="1" stroke-miterlimit="10" d="M 50.152344 39.195312 L 498.519531 39.195312 "/>
</g>
<g clip-path="url(#clip-15)">
<path fill="none" stroke-width="1.066978" stroke-linecap="butt" stroke-linejoin="round" stroke="rgb(92.156863%, 92.156863%, 92.156863%)" stroke-opacity="1" stroke-miterlimit="10" d="M 50.152344 24.617188 L 498.519531 24.617188 "/>
</g>
<g clip-path="url(#clip-16)">
<path fill="none" stroke-width="1.066978" stroke-linecap="butt" stroke-linejoin="round" stroke="rgb(92.156863%, 92.156863%, 92.156863%)" stroke-opacity="1" stroke-miterlimit="10" d="M 70.53125 99.460938 L 70.53125 23.246094 "/>
</g>
<g clip-path="url(#clip-17)">
<path fill="none" stroke-width="1.066978" stroke-linecap="butt" stroke-linejoin="round" stroke="rgb(92.156863%, 92.156863%, 92.156863%)" stroke-opacity="1" stroke-miterlimit="10" d="M 172.433594 99.460938 L 172.433594 23.246094 "/>
</g>
<g clip-path="url(#clip-18)">
<path fill="none" stroke-width="1.066978" stroke-linecap="butt" stroke-linejoin="round" stroke="rgb(92.156863%, 92.156863%, 92.156863%)" stroke-opacity="1" stroke-miterlimit="10" d="M 274.335938 99.460938 L 274.335938 23.246094 "/>
</g>
<g clip-path="url(#clip-19)">
<path fill="none" stroke-width="1.066978" stroke-linecap="butt" stroke-linejoin="round" stroke="rgb(92.156863%, 92.156863%, 92.156863%)" stroke-opacity="1" stroke-miterlimit="10" d="M 376.238281 99.460938 L 376.238281 23.246094 "/>
</g>
<g clip-path="url(#clip-20)">
<path fill="none" stroke-width="1.066978" stroke-linecap="butt" stroke-linejoin="round" stroke="rgb(92.156863%, 92.156863%, 92.156863%)" stroke-opacity="1" stroke-miterlimit="10" d="M 478.140625 99.460938 L 478.140625 23.246094 "/>
</g>
<path fill="none" stroke-width="1.066978" stroke-linecap="butt" stroke-linejoin="round" stroke="rgb(0%, 0%, 0%)" stroke-opacity="1" stroke-miterlimit="10" d="M 70.53125 80.578125 L 71.550781 83.222656 L 72.570312 88.679688 L 73.589844 92.625 L 74.605469 93.78125 L 75.625 93.265625 L 76.644531 90.648438 L 77.664062 83.992188 L 78.683594 67.800781 L 79.703125 67.515625 L 80.722656 55.414062 L 81.742188 36.375 L 82.757812 53.6875 L 83.777344 43.125 L 84.796875 45.246094 L 85.816406 39.050781 L 86.835938 43.183594 L 87.855469 47.601562 L 88.875 46.59375 L 89.890625 38.566406 L 90.910156 45.808594 L 91.929688 44.996094 L 92.949219 55.757812 L 93.96875 53.445312 L 94.988281 45.601562 L 96.007812 43.855469 L 97.027344 48.800781 L 98.042969 47.074219 L 99.0625 63.621094 L 100.082031 64.292969 L 101.101562 63.894531 L 102.121094 66.347656 L 103.140625 66.417969 L 104.160156 72.21875 L 105.179688 74.894531 L 106.195312 70.980469 L 107.214844 79.324219 L 108.234375 79.503906 L 109.253906 80.980469 L 110.273438 85.1875 L 111.292969 83.605469 L 112.3125 83.304688 L 113.328125 82.175781 L 114.347656 79.425781 L 115.367188 73.382812 L 116.386719 72.007812 L 117.40625 72.839844 L 118.425781 62.351562 L 119.445312 65.003906 L 120.464844 61.820312 L 121.480469 62.140625 L 122.5 63.640625 L 123.519531 67.960938 L 124.539062 68.214844 L 125.558594 69.917969 L 126.578125 78.828125 L 127.597656 86.105469 L 128.617188 93.242188 L 129.632812 95.78125 L 130.652344 95.996094 L 131.671875 95.386719 L 132.691406 93.019531 L 133.710938 90.035156 L 134.730469 76.023438 L 135.75 63.230469 L 136.769531 52.171875 L 137.785156 48.089844 L 138.804688 35.253906 L 139.824219 39.398438 L 140.84375 32.917969 L 141.863281 38.710938 L 142.882812 43.160156 L 143.902344 38.488281 L 144.917969 35.621094 L 145.9375 50.507812 L 146.957031 41.15625 L 147.976562 47.53125 L 148.996094 39.996094 L 150.015625 34.699219 L 151.035156 49.207031 L 152.054688 44.089844 L 153.070312 42.394531 L 154.089844 51.890625 L 155.109375 53.050781 L 156.128906 49.636719 L 157.148438 48.722656 L 158.167969 50.445312 L 159.1875 43.761719 L 160.207031 54.4375 L 161.222656 59.402344 L 162.242188 66.230469 L 163.261719 65.386719 L 164.28125 66.949219 L 165.300781 66.058594 L 166.320312 70.386719 L 167.339844 70.78125 L 168.355469 74.898438 L 169.375 74.457031 L 170.394531 78.648438 L 171.414062 81.136719 L 172.433594 83.019531 L 173.453125 84.640625 L 174.472656 86.214844 L 175.492188 87.425781 L 176.507812 85.085938 L 177.527344 79.207031 L 178.546875 77.835938 L 179.566406 74.003906 L 180.585938 58.007812 L 181.605469 65.289062 L 182.625 59.792969 L 183.644531 52.011719 L 184.660156 65.589844 L 185.679688 57.1875 L 186.699219 64.109375 L 187.71875 66.101562 L 188.738281 69.566406 L 189.757812 72.675781 L 190.777344 78.253906 L 191.792969 75.753906 L 192.8125 76.964844 L 193.832031 81.535156 L 194.851562 80.9375 L 195.871094 80.449219 L 196.890625 76.089844 L 197.910156 73.316406 L 198.929688 72.976562 L 199.945312 71.046875 L 200.964844 67.230469 L 201.984375 59.003906 L 203.003906 64.332031 L 204.023438 67.582031 L 205.042969 63.066406 L 206.0625 71.980469 L 207.082031 68.34375 L 208.097656 71.246094 L 209.117188 75.839844 L 210.136719 77.128906 L 211.15625 82.195312 L 212.175781 85.523438 L 213.195312 86.070312 L 214.214844 86.933594 L 215.230469 88.085938 L 216.25 83.726562 L 217.269531 80.160156 L 218.289062 72.109375 L 219.308594 74.429688 L 220.328125 68.535156 L 221.347656 65.660156 L 222.367188 65.375 L 223.382812 64.390625 L 224.402344 56.082031 L 225.421875 57.925781 L 226.441406 62.25 L 227.460938 63.785156 L 228.480469 62.570312 L 229.5 72.84375 L 230.519531 70.949219 L 231.535156 82.714844 L 232.554688 85 L 233.574219 86.027344 L 234.59375 88.929688 L 235.613281 91.628906 L 236.632812 90.210938 L 237.652344 86.125 L 238.667969 79.480469 L 239.6875 71.496094 L 240.707031 50.015625 L 241.726562 51.597656 L 242.746094 46.46875 L 243.765625 51.933594 L 244.785156 38.546875 L 245.804688 46.628906 L 246.820312 40.898438 L 247.839844 47.671875 L 248.859375 46.636719 L 249.878906 46.132812 L 250.898438 56.804688 L 251.917969 50.410156 L 252.9375 54.792969 L 253.957031 56.296875 L 254.972656 64.046875 L 255.992188 60.457031 L 257.011719 66.109375 L 258.03125 70.457031 L 259.050781 76.355469 L 260.070312 74.035156 L 261.089844 70.609375 L 262.105469 74.824219 L 263.125 73.363281 L 264.144531 79.957031 L 265.164062 78.78125 L 266.183594 78.65625 L 267.203125 80.484375 L 268.222656 84.082031 L 269.242188 81.070312 L 270.257812 80.511719 L 271.277344 76.4375 L 272.296875 76.472656 L 273.316406 73.113281 L 274.335938 66.625 L 275.355469 58.808594 L 276.375 60.882812 L 277.394531 59.761719 L 278.410156 60.933594 L 279.429688 64.46875 L 280.449219 66.453125 L 281.46875 68.5 L 282.488281 71.066406 L 283.507812 78.617188 L 284.527344 84.179688 L 285.542969 89.808594 L 286.5625 91.332031 L 287.582031 92.644531 L 288.601562 93.03125 L 289.621094 91.367188 L 290.640625 84.875 L 291.660156 78.636719 L 292.679688 75.691406 L 293.695312 64.253906 L 294.714844 51.945312 L 295.734375 49.832031 L 296.753906 41.378906 L 297.773438 38.863281 L 298.792969 47.964844 L 299.8125 44.78125 L 300.832031 48.21875 L 301.847656 51.832031 L 302.867188 47.917969 L 303.886719 53.898438 L 304.90625 54.027344 L 305.925781 58.769531 L 306.945312 56.171875 L 307.964844 61.753906 L 308.980469 64.472656 L 310 61.453125 L 311.019531 64.390625 L 312.039062 70.136719 L 313.058594 69.113281 L 314.078125 76.222656 L 315.097656 82.542969 L 316.117188 85.148438 L 317.132812 88.835938 L 318.152344 92.917969 L 319.171875 93.929688 L 320.191406 93.789062 L 321.210938 90.226562 L 322.230469 87.539062 L 323.25 75.65625 L 324.269531 61.566406 L 325.285156 55.804688 L 326.304688 40.492188 L 327.324219 51.953125 L 328.34375 42.21875 L 329.363281 41.570312 L 330.382812 33.136719 L 331.402344 41.265625 L 332.417969 44.042969 L 333.4375 43.269531 L 334.457031 44.160156 L 335.476562 49.28125 L 336.496094 47.914062 L 337.515625 44.566406 L 338.535156 49.636719 L 339.554688 40.378906 L 340.570312 58.742188 L 341.589844 53.132812 L 342.609375 57.269531 L 343.628906 55.472656 L 344.648438 62.035156 L 345.667969 58.523438 L 346.6875 61.675781 L 347.707031 76.070312 L 348.722656 74.957031 L 349.742188 83.882812 L 350.761719 89.554688 L 351.78125 93.707031 L 352.800781 94.703125 L 353.820312 94.273438 L 354.839844 92.621094 L 355.855469 87.769531 L 356.875 78.914062 L 357.894531 63.71875 L 358.914062 55.484375 L 359.933594 52.648438 L 360.953125 51.371094 L 361.972656 39.515625 L 362.992188 40.328125 L 364.007812 39.160156 L 365.027344 40.902344 L 366.046875 50.488281 L 367.066406 42.695312 L 368.085938 46.246094 L 369.105469 46.382812 L 370.125 44.957031 L 371.144531 41.050781 L 372.160156 44.4375 L 373.179688 30.472656 L 374.199219 43.804688 L 375.21875 46.144531 L 376.238281 57.507812 L 377.257812 46.632812 L 378.277344 49.429688 L 379.296875 53.023438 L 380.3125 46.882812 L 381.332031 62.910156 L 382.351562 48.632812 L 383.371094 56.835938 L 384.390625 60.855469 L 385.410156 54.199219 L 386.429688 58.226562 L 387.445312 64.679688 L 388.464844 73.992188 L 389.484375 70.566406 L 390.503906 72.894531 L 391.523438 72.34375 L 392.542969 79.855469 L 393.5625 80.007812 L 394.582031 78.882812 L 395.597656 83.707031 L 396.617188 81.261719 L 397.636719 81.03125 L 398.65625 81.210938 L 399.675781 76.246094 L 400.695312 78.515625 L 401.714844 71.128906 L 402.734375 63.144531 L 403.75 73.414062 L 404.769531 65.070312 L 405.789062 69.765625 L 406.808594 62.3125 L 407.828125 66.304688 L 408.847656 74.78125 L 409.867188 74.738281 L 410.882812 80.113281 L 411.902344 87.035156 L 412.921875 90.929688 L 413.941406 93.855469 L 414.960938 95.039062 L 415.980469 94.835938 L 417 93.351562 L 418.019531 88.066406 L 419.035156 78.503906 L 420.054688 71.824219 L 421.074219 62.949219 L 422.09375 53.234375 L 423.113281 42.65625 L 424.132812 43.835938 L 425.152344 29.828125 L 426.171875 44.191406 L 427.1875 34.648438 L 428.207031 35.277344 L 429.226562 46.632812 L 430.246094 36.867188 L 431.265625 42.960938 L 432.285156 47 L 433.304688 39.160156 L 434.320312 26.710938 L 435.339844 36.550781 L 436.359375 43.292969 L 437.378906 50.46875 L 438.398438 43.894531 L 439.417969 48.773438 L 440.4375 51.375 L 441.457031 52.066406 L 442.472656 52.765625 L 443.492188 50.605469 L 444.511719 53.847656 L 445.53125 66.039062 L 446.550781 63.082031 L 447.570312 66.222656 L 448.589844 71.21875 L 449.609375 71.085938 L 450.625 79.910156 L 451.644531 85.722656 L 452.664062 87.1875 L 453.683594 91.878906 L 454.703125 93.472656 L 455.722656 93.503906 L 456.742188 93.027344 L 457.757812 87.257812 L 458.777344 82.878906 L 459.796875 69.964844 L 460.816406 55.464844 L 461.835938 54.144531 L 462.855469 42.617188 L 463.875 50.023438 L 464.894531 49.816406 L 465.910156 50.320312 L 466.929688 51.339844 L 467.949219 44.792969 L 468.96875 56.28125 L 469.988281 53.640625 L 471.007812 55.765625 L 472.027344 60.210938 L 473.046875 45.898438 L 474.0625 63.609375 L 475.082031 60.964844 L 476.101562 67.027344 L 477.121094 70.207031 L 478.140625 69.535156 "/>
<g clip-path="url(#clip-21)">
<path fill="none" stroke-width="1.066978" stroke-linecap="round" stroke-linejoin="round" stroke="rgb(20%, 20%, 20%)" stroke-opacity="1" stroke-miterlimit="10" d="M 50.152344 99.460938 L 498.523438 99.460938 L 498.523438 23.246094 L 50.152344 23.246094 Z M 50.152344 99.460938 "/>
</g>
<g clip-path="url(#clip-22)">
<path fill-rule="nonzero" fill="rgb(100%, 100%, 100%)" fill-opacity="1" d="M 50.152344 198.925781 L 498.523438 198.925781 L 498.523438 122.710938 L 50.152344 122.710938 Z M 50.152344 198.925781 "/>
</g>
<g clip-path="url(#clip-23)">
<path fill="none" stroke-width="0.533489" stroke-linecap="butt" stroke-linejoin="round" stroke="rgb(92.156863%, 92.156863%, 92.156863%)" stroke-opacity="1" stroke-miterlimit="10" d="M 50.152344 184.429688 L 498.519531 184.429688 "/>
</g>
<g clip-path="url(#clip-24)">
<path fill="none" stroke-width="0.533489" stroke-linecap="butt" stroke-linejoin="round" stroke="rgb(92.156863%, 92.156863%, 92.156863%)" stroke-opacity="1" stroke-miterlimit="10" d="M 50.152344 160.320312 L 498.519531 160.320312 "/>
</g>
<g clip-path="url(#clip-25)">
<path fill="none" stroke-width="0.533489" stroke-linecap="butt" stroke-linejoin="round" stroke="rgb(92.156863%, 92.156863%, 92.156863%)" stroke-opacity="1" stroke-miterlimit="10" d="M 50.152344 136.214844 L 498.519531 136.214844 "/>
</g>
<g clip-path="url(#clip-26)">
<path fill="none" stroke-width="0.533489" stroke-linecap="butt" stroke-linejoin="round" stroke="rgb(92.156863%, 92.156863%, 92.156863%)" stroke-opacity="1" stroke-miterlimit="10" d="M 121.480469 198.925781 L 121.480469 122.707031 "/>
</g>
<g clip-path="url(#clip-27)">
<path fill="none" stroke-width="0.533489" stroke-linecap="butt" stroke-linejoin="round" stroke="rgb(92.156863%, 92.156863%, 92.156863%)" stroke-opacity="1" stroke-miterlimit="10" d="M 223.382812 198.925781 L 223.382812 122.707031 "/>
</g>
<g clip-path="url(#clip-28)">
<path fill="none" stroke-width="0.533489" stroke-linecap="butt" stroke-linejoin="round" stroke="rgb(92.156863%, 92.156863%, 92.156863%)" stroke-opacity="1" stroke-miterlimit="10" d="M 325.285156 198.925781 L 325.285156 122.707031 "/>
</g>
<g clip-path="url(#clip-29)">
<path fill="none" stroke-width="0.533489" stroke-linecap="butt" stroke-linejoin="round" stroke="rgb(92.156863%, 92.156863%, 92.156863%)" stroke-opacity="1" stroke-miterlimit="10" d="M 427.1875 198.925781 L 427.1875 122.707031 "/>
</g>
<g clip-path="url(#clip-30)">
<path fill="none" stroke-width="1.066978" stroke-linecap="butt" stroke-linejoin="round" stroke="rgb(92.156863%, 92.156863%, 92.156863%)" stroke-opacity="1" stroke-miterlimit="10" d="M 50.152344 196.484375 L 498.519531 196.484375 "/>
</g>
<g clip-path="url(#clip-31)">
<path fill="none" stroke-width="1.066978" stroke-linecap="butt" stroke-linejoin="round" stroke="rgb(92.156863%, 92.156863%, 92.156863%)" stroke-opacity="1" stroke-miterlimit="10" d="M 50.152344 172.375 L 498.519531 172.375 "/>
</g>
<g clip-path="url(#clip-32)">
<path fill="none" stroke-width="1.066978" stroke-linecap="butt" stroke-linejoin="round" stroke="rgb(92.156863%, 92.156863%, 92.156863%)" stroke-opacity="1" stroke-miterlimit="10" d="M 50.152344 148.265625 L 498.519531 148.265625 "/>
</g>
<g clip-path="url(#clip-33)">
<path fill="none" stroke-width="1.066978" stroke-linecap="butt" stroke-linejoin="round" stroke="rgb(92.156863%, 92.156863%, 92.156863%)" stroke-opacity="1" stroke-miterlimit="10" d="M 50.152344 124.160156 L 498.519531 124.160156 "/>
</g>
<g clip-path="url(#clip-34)">
<path fill="none" stroke-width="1.066978" stroke-linecap="butt" stroke-linejoin="round" stroke="rgb(92.156863%, 92.156863%, 92.156863%)" stroke-opacity="1" stroke-miterlimit="10" d="M 70.53125 198.925781 L 70.53125 122.707031 "/>
</g>
<g clip-path="url(#clip-35)">
<path fill="none" stroke-width="1.066978" stroke-linecap="butt" stroke-linejoin="round" stroke="rgb(92.156863%, 92.156863%, 92.156863%)" stroke-opacity="1" stroke-miterlimit="10" d="M 172.433594 198.925781 L 172.433594 122.707031 "/>
</g>
<g clip-path="url(#clip-36)">
<path fill="none" stroke-width="1.066978" stroke-linecap="butt" stroke-linejoin="round" stroke="rgb(92.156863%, 92.156863%, 92.156863%)" stroke-opacity="1" stroke-miterlimit="10" d="M 274.335938 198.925781 L 274.335938 122.707031 "/>
</g>
<g clip-path="url(#clip-37)">
<path fill="none" stroke-width="1.066978" stroke-linecap="butt" stroke-linejoin="round" stroke="rgb(92.156863%, 92.156863%, 92.156863%)" stroke-opacity="1" stroke-miterlimit="10" d="M 376.238281 198.925781 L 376.238281 122.707031 "/>
</g>
<g clip-path="url(#clip-38)">
<path fill="none" stroke-width="1.066978" stroke-linecap="butt" stroke-linejoin="round" stroke="rgb(92.156863%, 92.156863%, 92.156863%)" stroke-opacity="1" stroke-miterlimit="10" d="M 478.140625 198.925781 L 478.140625 122.707031 "/>
</g>
<path fill="none" stroke-width="1.066978" stroke-linecap="butt" stroke-linejoin="round" stroke="rgb(0%, 0%, 0%)" stroke-opacity="1" stroke-miterlimit="10" d="M 70.53125 148.628906 L 71.550781 147.101562 L 72.570312 160.960938 L 73.589844 166.722656 L 74.605469 177.851562 L 75.625 184.769531 L 76.644531 189.726562 L 77.664062 189.40625 L 78.683594 186.75 L 79.703125 185.28125 L 80.722656 184 L 81.742188 185.574219 L 82.757812 186.558594 L 83.777344 186.039062 L 84.796875 186.078125 L 85.816406 182.390625 L 86.835938 184.878906 L 87.855469 180.722656 L 88.875 179.6875 L 89.890625 176.015625 L 90.910156 171.199219 L 91.929688 175.625 L 92.949219 169.710938 L 93.96875 169.496094 L 94.988281 170.527344 L 96.007812 166.195312 L 97.027344 164.34375 L 98.042969 164.3125 L 99.0625 165.417969 L 100.082031 157.011719 L 101.101562 163.886719 L 102.121094 152.515625 L 103.140625 148.976562 L 104.160156 147.515625 L 105.179688 149.597656 L 106.195312 154.054688 L 107.214844 157.3125 L 108.234375 150.167969 L 109.253906 155.109375 L 110.273438 158.167969 L 111.292969 165.222656 L 112.3125 173.132812 L 113.328125 173.585938 L 114.347656 171.855469 L 115.367188 169.613281 L 116.386719 167.089844 L 117.40625 166.125 L 118.425781 169.210938 L 119.445312 165.710938 L 120.464844 161.890625 L 121.480469 157.195312 L 122.5 164.765625 L 123.519531 151.707031 L 124.539062 154.28125 L 125.558594 143.140625 L 126.578125 145.097656 L 127.597656 147.183594 L 128.617188 161.472656 L 129.632812 178.414062 L 130.652344 185.625 L 131.671875 189.382812 L 132.691406 193.328125 L 133.710938 195.042969 L 134.730469 195.460938 L 135.75 195.40625 L 136.769531 195.339844 L 137.785156 194.664062 L 138.804688 193.65625 L 139.824219 192.230469 L 140.84375 191.742188 L 141.863281 189.96875 L 142.882812 189.609375 L 143.902344 189.835938 L 144.917969 188.671875 L 145.9375 186.660156 L 146.957031 185.59375 L 147.976562 184.0625 L 148.996094 185.707031 L 150.015625 187.171875 L 151.035156 185.335938 L 152.054688 185.113281 L 153.070312 180.640625 L 154.089844 175.300781 L 155.109375 175.433594 L 156.128906 173.207031 L 157.148438 169.765625 L 158.167969 171.03125 L 159.1875 164.882812 L 160.207031 167.070312 L 161.222656 149.355469 L 162.242188 153.894531 L 163.261719 153.367188 L 164.28125 152.152344 L 165.300781 158.574219 L 166.320312 159.605469 L 167.339844 165.332031 L 168.355469 155.484375 L 169.375 147.882812 L 170.394531 158.300781 L 171.414062 159.007812 L 172.433594 146.855469 L 173.453125 156.496094 L 174.472656 165.535156 L 175.492188 164.871094 L 176.507812 169.71875 L 177.527344 174.542969 L 178.546875 180.402344 L 179.566406 178.351562 L 180.585938 176.132812 L 181.605469 173.859375 L 182.625 174.160156 L 183.644531 168.183594 L 184.660156 165.363281 L 185.679688 158.398438 L 186.699219 161.457031 L 187.71875 158.957031 L 188.738281 153.039062 L 189.757812 152.714844 L 190.777344 152.40625 L 191.792969 155.9375 L 192.8125 155.15625 L 193.832031 166.617188 L 194.851562 163.210938 L 195.871094 167.652344 L 196.890625 164.917969 L 197.910156 171.253906 L 198.929688 168.15625 L 199.945312 166.679688 L 200.964844 165.175781 L 201.984375 166.742188 L 203.003906 160.128906 L 204.023438 155.199219 L 205.042969 156.972656 L 206.0625 157.101562 L 207.082031 160.972656 L 208.097656 156.957031 L 209.117188 148.402344 L 210.136719 157.058594 L 211.15625 147.945312 L 212.175781 157.785156 L 213.195312 163.679688 L 214.214844 169.101562 L 215.230469 169.324219 L 216.25 172.492188 L 217.269531 174.148438 L 218.289062 174.101562 L 219.308594 175.636719 L 220.328125 167.246094 L 221.347656 161.472656 L 222.367188 168.765625 L 223.382812 167.527344 L 224.402344 159.121094 L 225.421875 162.003906 L 226.441406 154.644531 L 227.460938 160.320312 L 228.480469 157.652344 L 229.5 149.902344 L 230.519531 143.742188 L 231.535156 151.320312 L 232.554688 154.984375 L 233.574219 157.808594 L 234.59375 169.402344 L 235.613281 177.375 L 236.632812 184.238281 L 237.652344 186.214844 L 238.667969 183.070312 L 239.6875 185.203125 L 240.707031 186.015625 L 241.726562 186.136719 L 242.746094 183.09375 L 243.765625 178.347656 L 244.785156 178.984375 L 245.804688 174.347656 L 246.820312 174.65625 L 247.839844 168.804688 L 248.859375 167.804688 L 249.878906 172.578125 L 250.898438 172.046875 L 251.917969 170.921875 L 252.9375 163.625 L 253.957031 163.628906 L 254.972656 156.71875 L 255.992188 156.128906 L 257.011719 159.09375 L 258.03125 151.917969 L 259.050781 154.382812 L 260.070312 156.117188 L 261.089844 163.871094 L 262.105469 147.316406 L 263.125 155.324219 L 264.144531 159.566406 L 265.164062 154.667969 L 266.183594 163.878906 L 267.203125 161.371094 L 268.222656 163.621094 L 269.242188 163.753906 L 270.257812 170 L 271.277344 171.449219 L 272.296875 169.246094 L 273.316406 172.726562 L 274.335938 168.164062 L 275.355469 167.953125 L 276.375 168.503906 L 277.394531 164.945312 L 278.410156 160.59375 L 279.429688 158.601562 L 280.449219 158.03125 L 281.46875 156.382812 L 282.488281 152.683594 L 283.507812 139.148438 L 284.527344 156.683594 L 285.542969 157.679688 L 286.5625 165.730469 L 287.582031 174.945312 L 288.601562 179.324219 L 289.621094 185.148438 L 290.640625 188.042969 L 291.660156 187.359375 L 292.679688 186.871094 L 293.695312 188.289062 L 294.714844 185.195312 L 295.734375 183.765625 L 296.753906 181.386719 L 297.773438 180.804688 L 298.792969 180.71875 L 299.8125 179.476562 L 300.832031 176.132812 L 301.847656 173.976562 L 302.867188 171.527344 L 303.886719 172.25 L 304.90625 170.964844 L 305.925781 167.15625 L 306.945312 162.851562 L 307.964844 158.308594 L 308.980469 162.199219 L 310 153.832031 L 311.019531 156.339844 L 312.039062 150.589844 L 313.058594 151.375 L 314.078125 147.441406 L 315.097656 141.09375 L 316.117188 156.554688 L 317.132812 158.414062 L 318.152344 163.503906 L 319.171875 175.808594 L 320.191406 182.390625 L 321.210938 189.304688 L 322.230469 189.332031 L 323.25 191.503906 L 324.269531 191.113281 L 325.285156 190.082031 L 326.304688 190.332031 L 327.324219 188.632812 L 328.34375 188.742188 L 329.363281 185.035156 L 330.382812 187.632812 L 331.402344 181.824219 L 332.417969 184.082031 L 333.4375 180.589844 L 334.457031 173.195312 L 335.476562 178.820312 L 336.496094 175.664062 L 337.515625 178.609375 L 338.535156 172.066406 L 339.554688 172.777344 L 340.570312 166.699219 L 341.589844 166.988281 L 342.609375 165.15625 L 343.628906 163.5625 L 344.648438 161.914062 L 345.667969 153.917969 L 346.6875 139.871094 L 347.707031 151.757812 L 348.722656 126.171875 L 349.742188 151.230469 L 350.761719 148.808594 L 351.78125 167.085938 L 352.800781 178.628906 L 353.820312 185.742188 L 354.839844 189.019531 L 355.855469 190.277344 L 356.875 191.53125 L 357.894531 192.464844 L 358.914062 192.878906 L 359.933594 191.792969 L 360.953125 191.972656 L 361.972656 192.09375 L 362.992188 191.101562 L 364.007812 189.6875 L 365.027344 190.042969 L 366.046875 189.886719 L 367.066406 188.234375 L 368.085938 190.269531 L 369.105469 188.726562 L 370.125 185.734375 L 371.144531 186.578125 L 372.160156 184.691406 L 373.179688 180.027344 L 374.199219 178.511719 L 375.21875 180.273438 L 376.238281 178.101562 L 377.257812 176.179688 L 378.277344 177.757812 L 379.296875 169.707031 L 380.3125 172.5 L 381.332031 165.625 L 382.351562 167.226562 L 383.371094 171.082031 L 384.390625 167.011719 L 385.410156 155.441406 L 386.429688 156.292969 L 387.445312 159.304688 L 388.464844 160.453125 L 389.484375 154.605469 L 390.503906 147.292969 L 391.523438 155.382812 L 392.542969 157.378906 L 393.5625 150.285156 L 394.582031 156.613281 L 395.597656 159.074219 L 396.617188 163.683594 L 397.636719 164.222656 L 398.65625 170.734375 L 399.675781 167.515625 L 400.695312 168.671875 L 401.714844 165.558594 L 402.734375 165.300781 L 403.75 165.605469 L 404.769531 165.792969 L 405.789062 157.617188 L 406.808594 148.949219 L 407.828125 154.304688 L 408.847656 156.199219 L 409.867188 149.707031 L 410.882812 156.054688 L 411.902344 144.296875 L 412.921875 153.695312 L 413.941406 169.054688 L 414.960938 177.503906 L 415.980469 184.707031 L 417 188.214844 L 418.019531 191.945312 L 419.035156 193.429688 L 420.054688 192.269531 L 421.074219 192.707031 L 422.09375 191.621094 L 423.113281 190.570312 L 424.132812 190.652344 L 425.152344 189.832031 L 426.171875 190.5625 L 427.1875 189.1875 L 428.207031 189.15625 L 429.226562 188.339844 L 430.246094 187.246094 L 431.265625 189.003906 L 432.285156 185.453125 L 433.304688 187.730469 L 434.320312 185.179688 L 435.339844 184.015625 L 436.359375 182.40625 L 437.378906 182.066406 L 438.398438 177.417969 L 439.417969 178.628906 L 440.4375 176.128906 L 441.457031 176.511719 L 442.472656 166.859375 L 443.492188 168.089844 L 444.511719 166.609375 L 445.53125 164.675781 L 446.550781 144.175781 L 447.570312 149.042969 L 448.589844 151.414062 L 449.609375 147.035156 L 450.625 147.664062 L 451.644531 156.472656 L 452.664062 157.230469 L 453.683594 164.195312 L 454.703125 175.097656 L 455.722656 183.015625 L 456.742188 185.632812 L 457.757812 189.371094 L 458.777344 190.648438 L 459.796875 190.800781 L 460.816406 189.425781 L 461.835938 188.128906 L 462.855469 183.355469 L 463.875 184.472656 L 464.894531 183.179688 L 465.910156 182.300781 L 466.929688 180.132812 L 467.949219 179.132812 L 468.96875 171.910156 L 469.988281 168.28125 L 471.007812 163.914062 L 472.027344 166.726562 L 473.046875 156.167969 L 474.0625 159.046875 L 475.082031 151.523438 L 476.101562 152.023438 L 477.121094 160.320312 L 478.140625 154.011719 "/>
<g clip-path="url(#clip-39)">
<path fill="none" stroke-width="1.066978" stroke-linecap="round" stroke-linejoin="round" stroke="rgb(20%, 20%, 20%)" stroke-opacity="1" stroke-miterlimit="10" d="M 50.152344 198.925781 L 498.523438 198.925781 L 498.523438 122.710938 L 50.152344 122.710938 Z M 50.152344 198.925781 "/>
</g>
<g clip-path="url(#clip-40)">
<path fill-rule="nonzero" fill="rgb(100%, 100%, 100%)" fill-opacity="1" d="M 50.152344 298.386719 L 498.523438 298.386719 L 498.523438 222.171875 L 50.152344 222.171875 Z M 50.152344 298.386719 "/>
</g>
<g clip-path="url(#clip-41)">
<path fill="none" stroke-width="0.533489" stroke-linecap="butt" stroke-linejoin="round" stroke="rgb(92.156863%, 92.156863%, 92.156863%)" stroke-opacity="1" stroke-miterlimit="10" d="M 50.152344 295.101562 L 498.519531 295.101562 "/>
</g>
<g clip-path="url(#clip-42)">
<path fill="none" stroke-width="0.533489" stroke-linecap="butt" stroke-linejoin="round" stroke="rgb(92.156863%, 92.156863%, 92.156863%)" stroke-opacity="1" stroke-miterlimit="10" d="M 50.152344 276.195312 L 498.519531 276.195312 "/>
</g>
<g clip-path="url(#clip-43)">
<path fill="none" stroke-width="0.533489" stroke-linecap="butt" stroke-linejoin="round" stroke="rgb(92.156863%, 92.156863%, 92.156863%)" stroke-opacity="1" stroke-miterlimit="10" d="M 50.152344 257.285156 L 498.519531 257.285156 "/>
</g>
<g clip-path="url(#clip-44)">
<path fill="none" stroke-width="0.533489" stroke-linecap="butt" stroke-linejoin="round" stroke="rgb(92.156863%, 92.156863%, 92.156863%)" stroke-opacity="1" stroke-miterlimit="10" d="M 50.152344 238.375 L 498.519531 238.375 "/>
</g>
<g clip-path="url(#clip-45)">
<path fill="none" stroke-width="0.533489" stroke-linecap="butt" stroke-linejoin="round" stroke="rgb(92.156863%, 92.156863%, 92.156863%)" stroke-opacity="1" stroke-miterlimit="10" d="M 121.480469 298.386719 L 121.480469 222.171875 "/>
</g>
<g clip-path="url(#clip-46)">
<path fill="none" stroke-width="0.533489" stroke-linecap="butt" stroke-linejoin="round" stroke="rgb(92.156863%, 92.156863%, 92.156863%)" stroke-opacity="1" stroke-miterlimit="10" d="M 223.382812 298.386719 L 223.382812 222.171875 "/>
</g>
<g clip-path="url(#clip-47)">
<path fill="none" stroke-width="0.533489" stroke-linecap="butt" stroke-linejoin="round" stroke="rgb(92.156863%, 92.156863%, 92.156863%)" stroke-opacity="1" stroke-miterlimit="10" d="M 325.285156 298.386719 L 325.285156 222.171875 "/>
</g>
<g clip-path="url(#clip-48)">
<path fill="none" stroke-width="0.533489" stroke-linecap="butt" stroke-linejoin="round" stroke="rgb(92.156863%, 92.156863%, 92.156863%)" stroke-opacity="1" stroke-miterlimit="10" d="M 427.1875 298.386719 L 427.1875 222.171875 "/>
</g>
<g clip-path="url(#clip-49)">
<path fill="none" stroke-width="1.066978" stroke-linecap="butt" stroke-linejoin="round" stroke="rgb(92.156863%, 92.156863%, 92.156863%)" stroke-opacity="1" stroke-miterlimit="10" d="M 50.152344 285.648438 L 498.519531 285.648438 "/>
</g>
<g clip-path="url(#clip-50)">
<path fill="none" stroke-width="1.066978" stroke-linecap="butt" stroke-linejoin="round" stroke="rgb(92.156863%, 92.156863%, 92.156863%)" stroke-opacity="1" stroke-miterlimit="10" d="M 50.152344 266.738281 L 498.519531 266.738281 "/>
</g>
<g clip-path="url(#clip-51)">
<path fill="none" stroke-width="1.066978" stroke-linecap="butt" stroke-linejoin="round" stroke="rgb(92.156863%, 92.156863%, 92.156863%)" stroke-opacity="1" stroke-miterlimit="10" d="M 50.152344 247.828125 L 498.519531 247.828125 "/>
</g>
<g clip-path="url(#clip-52)">
<path fill="none" stroke-width="1.066978" stroke-linecap="butt" stroke-linejoin="round" stroke="rgb(92.156863%, 92.156863%, 92.156863%)" stroke-opacity="1" stroke-miterlimit="10" d="M 50.152344 228.921875 L 498.519531 228.921875 "/>
</g>
<g clip-path="url(#clip-53)">
<path fill="none" stroke-width="1.066978" stroke-linecap="butt" stroke-linejoin="round" stroke="rgb(92.156863%, 92.156863%, 92.156863%)" stroke-opacity="1" stroke-miterlimit="10" d="M 70.53125 298.386719 L 70.53125 222.171875 "/>
</g>
<g clip-path="url(#clip-54)">
<path fill="none" stroke-width="1.066978" stroke-linecap="butt" stroke-linejoin="round" stroke="rgb(92.156863%, 92.156863%, 92.156863%)" stroke-opacity="1" stroke-miterlimit="10" d="M 172.433594 298.386719 L 172.433594 222.171875 "/>
</g>
<g clip-path="url(#clip-55)">
<path fill="none" stroke-width="1.066978" stroke-linecap="butt" stroke-linejoin="round" stroke="rgb(92.156863%, 92.156863%, 92.156863%)" stroke-opacity="1" stroke-miterlimit="10" d="M 274.335938 298.386719 L 274.335938 222.171875 "/>
</g>
<g clip-path="url(#clip-56)">
<path fill="none" stroke-width="1.066978" stroke-linecap="butt" stroke-linejoin="round" stroke="rgb(92.156863%, 92.156863%, 92.156863%)" stroke-opacity="1" stroke-miterlimit="10" d="M 376.238281 298.386719 L 376.238281 222.171875 "/>
</g>
<g clip-path="url(#clip-57)">
<path fill="none" stroke-width="1.066978" stroke-linecap="butt" stroke-linejoin="round" stroke="rgb(92.156863%, 92.156863%, 92.156863%)" stroke-opacity="1" stroke-miterlimit="10" d="M 478.140625 298.386719 L 478.140625 222.171875 "/>
</g>
<path fill="none" stroke-width="1.066978" stroke-linecap="butt" stroke-linejoin="round" stroke="rgb(0%, 0%, 0%)" stroke-opacity="1" stroke-miterlimit="10" d="M 70.53125 247.710938 L 71.550781 254.542969 L 72.570312 263.617188 L 73.589844 273.105469 L 74.605469 276.582031 L 75.625 272.195312 L 76.644531 262.8125 L 77.664062 251.941406 L 78.683594 242.320312 L 79.703125 235.121094 L 80.722656 230.71875 L 81.742188 228.550781 L 82.757812 227.523438 L 83.777344 227.035156 L 84.796875 226.824219 L 85.816406 226.785156 L 86.835938 226.945312 L 87.855469 227.230469 L 88.875 227.503906 L 89.890625 227.90625 L 90.910156 228.273438 L 91.929688 228.65625 L 92.949219 228.910156 L 93.96875 228.96875 L 94.988281 229.304688 L 96.007812 229.761719 L 97.027344 230.480469 L 98.042969 231.496094 L 99.0625 232.230469 L 100.082031 233.191406 L 101.101562 234.488281 L 102.121094 235.480469 L 103.140625 237.425781 L 104.160156 239.519531 L 105.179688 241.597656 L 106.195312 244.070312 L 107.214844 246.175781 L 108.234375 247.914062 L 109.253906 249.6875 L 110.273438 251.945312 L 111.292969 252.574219 L 112.3125 250.914062 L 113.328125 248.15625 L 114.347656 245.027344 L 115.367188 241.679688 L 116.386719 238.714844 L 117.40625 236.441406 L 118.425781 235.0625 L 119.445312 234.441406 L 120.464844 234.734375 L 121.480469 235.273438 L 122.5 235.835938 L 123.519531 236.683594 L 124.539062 238.4375 L 125.558594 241.675781 L 126.578125 247.324219 L 127.597656 257.53125 L 128.617188 276.203125 L 129.632812 293.046875 L 130.652344 294.921875 L 131.671875 287.550781 L 132.691406 274.621094 L 133.710938 259.742188 L 134.730469 245.875 L 135.75 235.699219 L 136.769531 229.808594 L 137.785156 227.042969 L 138.804688 225.988281 L 139.824219 225.671875 L 140.84375 225.636719 L 141.863281 225.722656 L 142.882812 225.917969 L 143.902344 226.046875 L 144.917969 226.128906 L 145.9375 226.25 L 146.957031 226.460938 L 147.976562 226.589844 L 148.996094 226.664062 L 150.015625 226.652344 L 151.035156 226.808594 L 152.054688 226.820312 L 153.070312 227.128906 L 154.089844 227.566406 L 155.109375 228.148438 L 156.128906 228.625 L 157.148438 229.0625 L 158.167969 229.546875 L 159.1875 230.246094 L 160.207031 231.179688 L 161.222656 232.3125 L 162.242188 233.398438 L 163.261719 234.683594 L 164.28125 236.367188 L 165.300781 237.925781 L 166.320312 238.972656 L 167.339844 240.261719 L 168.355469 241.9375 L 169.375 243.703125 L 170.394531 245.191406 L 171.414062 247.195312 L 172.433594 250.363281 L 173.453125 253.410156 L 174.472656 255.511719 L 175.492188 256.453125 L 176.507812 254.792969 L 177.527344 250.28125 L 178.546875 245.082031 L 179.566406 239.28125 L 180.585938 235.035156 L 181.605469 232.726562 L 182.625 231.414062 L 183.644531 231.230469 L 184.660156 231.808594 L 185.679688 232.566406 L 186.699219 233.894531 L 187.71875 235.433594 L 188.738281 236.894531 L 189.757812 238.578125 L 190.777344 240.878906 L 191.792969 243.132812 L 192.8125 245.574219 L 193.832031 247.292969 L 194.851562 247.632812 L 195.871094 246.851562 L 196.890625 245.140625 L 197.910156 243.066406 L 198.929688 240.601562 L 199.945312 238.820312 L 200.964844 237.445312 L 201.984375 236.296875 L 203.003906 235.65625 L 204.023438 235.957031 L 205.042969 236.582031 L 206.0625 237.191406 L 207.082031 238.679688 L 208.097656 240.378906 L 209.117188 242.789062 L 210.136719 245.667969 L 211.15625 249.058594 L 212.175781 252.445312 L 213.195312 254.875 L 214.214844 256.824219 L 215.230469 256.230469 L 216.25 254.191406 L 217.269531 250.164062 L 218.289062 245.847656 L 219.308594 242.046875 L 220.328125 239.214844 L 221.347656 236.898438 L 222.367188 235.335938 L 223.382812 234.414062 L 224.402344 233.996094 L 225.421875 234.21875 L 226.441406 234.746094 L 227.460938 235.894531 L 228.480469 237.710938 L 229.5 239.886719 L 230.519531 243.089844 L 231.535156 247.941406 L 232.554688 253.324219 L 233.574219 260.097656 L 234.59375 266.339844 L 235.613281 268.671875 L 236.632812 264.054688 L 237.652344 255.355469 L 238.667969 246.09375 L 239.6875 238.667969 L 240.707031 233.160156 L 241.726562 229.726562 L 242.746094 228.121094 L 243.765625 227.703125 L 244.785156 227.808594 L 245.804688 228.199219 L 246.820312 228.59375 L 247.839844 229.0625 L 248.859375 229.691406 L 249.878906 229.953125 L 250.898438 230.042969 L 251.917969 230.460938 L 252.9375 231.441406 L 253.957031 232.617188 L 254.972656 234.113281 L 255.992188 235.644531 L 257.011719 236.8125 L 258.03125 238.105469 L 259.050781 239.527344 L 260.070312 240.339844 L 261.089844 241.074219 L 262.105469 241.765625 L 263.125 243.117188 L 264.144531 244.355469 L 265.164062 245.421875 L 266.183594 246.710938 L 267.203125 248.308594 L 268.222656 249.503906 L 269.242188 249.519531 L 270.257812 247.933594 L 271.277344 245.84375 L 272.296875 243.414062 L 273.316406 240.289062 L 274.335938 237.191406 L 275.355469 235.273438 L 276.375 234.410156 L 277.394531 233.988281 L 278.410156 234.171875 L 279.429688 235.023438 L 280.449219 236.425781 L 281.46875 238.421875 L 282.488281 241.238281 L 283.507812 245.464844 L 284.527344 252.160156 L 285.542969 260.257812 L 286.5625 267.367188 L 287.582031 272.703125 L 288.601562 271.820312 L 289.621094 265.386719 L 290.640625 256.011719 L 291.660156 246.019531 L 292.679688 237.597656 L 293.695312 231.9375 L 294.714844 229.027344 L 295.734375 227.863281 L 296.753906 227.386719 L 297.773438 227.25 L 298.792969 227.425781 L 299.8125 227.804688 L 300.832031 228.257812 L 301.847656 228.929688 L 302.867188 229.40625 L 303.886719 230.09375 L 304.90625 230.6875 L 305.925781 231.5625 L 306.945312 232.070312 L 307.964844 232.953125 L 308.980469 233.765625 L 310 234.957031 L 311.019531 235.996094 L 312.039062 237.605469 L 313.058594 239.46875 L 314.078125 242.445312 L 315.097656 247.804688 L 316.117188 253.699219 L 317.132812 262.351562 L 318.152344 272.628906 L 319.171875 278.519531 L 320.191406 276.503906 L 321.210938 268.019531 L 322.230469 256.1875 L 323.25 244.8125 L 324.269531 236.011719 L 325.285156 230.710938 L 326.304688 228.101562 L 327.324219 226.917969 L 328.34375 226.539062 L 329.363281 226.449219 L 330.382812 226.558594 L 331.402344 226.691406 L 332.417969 227.007812 L 333.4375 227.375 L 334.457031 228.003906 L 335.476562 228.519531 L 336.496094 228.707031 L 337.515625 228.695312 L 338.535156 228.882812 L 339.554688 229.421875 L 340.570312 229.839844 L 341.589844 230.554688 L 342.609375 231.414062 L 343.628906 232.398438 L 344.648438 233.25 L 345.667969 234.601562 L 346.6875 236.882812 L 347.707031 239.960938 L 348.722656 244.519531 L 349.742188 251.644531 L 350.761719 262.175781 L 351.78125 275.1875 L 352.800781 281.835938 L 353.820312 279.308594 L 354.839844 269.839844 L 355.855469 258.085938 L 356.875 246.257812 L 357.894531 236.757812 L 358.914062 230.804688 L 359.933594 227.847656 L 360.953125 226.546875 L 361.972656 225.976562 L 362.992188 225.859375 L 364.007812 225.886719 L 365.027344 225.863281 L 366.046875 225.949219 L 367.066406 226.019531 L 368.085938 226.023438 L 369.105469 226.050781 L 370.125 226.171875 L 371.144531 226.371094 L 372.160156 226.679688 L 373.179688 227.191406 L 374.199219 227.738281 L 375.21875 228.039062 L 376.238281 228.238281 L 377.257812 228.464844 L 378.277344 228.699219 L 379.296875 229.199219 L 380.3125 229.84375 L 381.332031 230.222656 L 382.351562 230.507812 L 383.371094 230.691406 L 384.390625 231.21875 L 385.410156 232.308594 L 386.429688 233.714844 L 387.445312 235.074219 L 388.464844 236.429688 L 389.484375 238.25 L 390.503906 239.710938 L 391.523438 241.621094 L 392.542969 243.261719 L 393.5625 245.324219 L 394.582031 247.773438 L 395.597656 249.230469 L 396.617188 249.527344 L 397.636719 248.636719 L 398.65625 246.667969 L 399.675781 244.375 L 400.695312 242.1875 L 401.714844 240.070312 L 402.734375 238.449219 L 403.75 237.4375 L 404.769531 236.792969 L 405.789062 236.867188 L 406.808594 237.296875 L 407.828125 238.800781 L 408.847656 240.894531 L 409.867188 243.9375 L 410.882812 248.902344 L 411.902344 256.097656 L 412.921875 267.179688 L 413.941406 278.375 L 414.960938 284.863281 L 415.980469 282.863281 L 417 274.367188 L 418.019531 262.007812 L 419.035156 249.226562 L 420.054688 238.746094 L 421.074219 231.902344 L 422.09375 228.265625 L 423.113281 226.789062 L 424.132812 226.234375 L 425.152344 225.992188 L 426.171875 225.929688 L 427.1875 225.960938 L 428.207031 226.015625 L 429.226562 226.050781 L 430.246094 226.140625 L 431.265625 226.246094 L 432.285156 226.398438 L 433.304688 226.554688 L 434.320312 226.726562 L 435.339844 226.792969 L 436.359375 226.972656 L 437.378906 227.324219 L 438.398438 227.707031 L 439.417969 228.167969 L 441.457031 228.785156 L 442.472656 229.140625 L 443.492188 229.757812 L 444.511719 230.851562 L 445.53125 231.996094 L 446.550781 234.070312 L 447.570312 236.707031 L 448.589844 239.789062 L 449.609375 243.199219 L 450.625 247.710938 L 451.644531 254.058594 L 452.664062 261.125 L 453.683594 269.472656 L 454.703125 275.457031 L 455.722656 276.898438 L 456.742188 271.28125 L 457.757812 261.40625 L 458.777344 250.375 L 459.796875 240.238281 L 460.816406 233.394531 L 461.835938 229.667969 L 462.855469 228.070312 L 463.875 227.378906 L 464.894531 227.230469 L 465.910156 227.339844 L 466.929688 227.613281 L 467.949219 227.957031 L 468.96875 228.652344 L 469.988281 229.429688 L 471.007812 230.449219 L 472.027344 231.367188 L 473.046875 232.363281 L 474.0625 233.484375 L 475.082031 234.613281 L 476.101562 235.917969 L 477.121094 237.074219 L 478.140625 238.773438 "/>
<g clip-path="url(#clip-58)">
<path fill="none" stroke-width="1.066978" stroke-linecap="round" stroke-linejoin="round" stroke="rgb(20%, 20%, 20%)" stroke-opacity="1" stroke-miterlimit="10" d="M 50.152344 298.386719 L 498.523438 298.386719 L 498.523438 222.171875 L 50.152344 222.171875 Z M 50.152344 298.386719 "/>
</g>
<g clip-path="url(#clip-59)">
<path fill-rule="nonzero" fill="rgb(100%, 100%, 100%)" fill-opacity="1" d="M 50.152344 397.847656 L 498.523438 397.847656 L 498.523438 321.632812 L 50.152344 321.632812 Z M 50.152344 397.847656 "/>
</g>
<g clip-path="url(#clip-60)">
<path fill="none" stroke-width="0.533489" stroke-linecap="butt" stroke-linejoin="round" stroke="rgb(92.156863%, 92.156863%, 92.156863%)" stroke-opacity="1" stroke-miterlimit="10" d="M 50.152344 391.375 L 498.519531 391.375 "/>
</g>
<g clip-path="url(#clip-61)">
<path fill="none" stroke-width="0.533489" stroke-linecap="butt" stroke-linejoin="round" stroke="rgb(92.156863%, 92.156863%, 92.156863%)" stroke-opacity="1" stroke-miterlimit="10" d="M 50.152344 374.839844 L 498.519531 374.839844 "/>
</g>
<g clip-path="url(#clip-62)">
<path fill="none" stroke-width="0.533489" stroke-linecap="butt" stroke-linejoin="round" stroke="rgb(92.156863%, 92.156863%, 92.156863%)" stroke-opacity="1" stroke-miterlimit="10" d="M 50.152344 358.304688 L 498.519531 358.304688 "/>
</g>
<g clip-path="url(#clip-63)">
<path fill="none" stroke-width="0.533489" stroke-linecap="butt" stroke-linejoin="round" stroke="rgb(92.156863%, 92.156863%, 92.156863%)" stroke-opacity="1" stroke-miterlimit="10" d="M 50.152344 341.773438 L 498.519531 341.773438 "/>
</g>
<g clip-path="url(#clip-64)">
<path fill="none" stroke-width="0.533489" stroke-linecap="butt" stroke-linejoin="round" stroke="rgb(92.156863%, 92.156863%, 92.156863%)" stroke-opacity="1" stroke-miterlimit="10" d="M 50.152344 325.238281 L 498.519531 325.238281 "/>
</g>
<g clip-path="url(#clip-65)">
<path fill="none" stroke-width="0.533489" stroke-linecap="butt" stroke-linejoin="round" stroke="rgb(92.156863%, 92.156863%, 92.156863%)" stroke-opacity="1" stroke-miterlimit="10" d="M 121.480469 397.847656 L 121.480469 321.632812 "/>
</g>
<g clip-path="url(#clip-66)">
<path fill="none" stroke-width="0.533489" stroke-linecap="butt" stroke-linejoin="round" stroke="rgb(92.156863%, 92.156863%, 92.156863%)" stroke-opacity="1" stroke-miterlimit="10" d="M 223.382812 397.847656 L 223.382812 321.632812 "/>
</g>
<g clip-path="url(#clip-67)">
<path fill="none" stroke-width="0.533489" stroke-linecap="butt" stroke-linejoin="round" stroke="rgb(92.156863%, 92.156863%, 92.156863%)" stroke-opacity="1" stroke-miterlimit="10" d="M 325.285156 397.847656 L 325.285156 321.632812 "/>
</g>
<g clip-path="url(#clip-68)">
<path fill="none" stroke-width="0.533489" stroke-linecap="butt" stroke-linejoin="round" stroke="rgb(92.156863%, 92.156863%, 92.156863%)" stroke-opacity="1" stroke-miterlimit="10" d="M 427.1875 397.847656 L 427.1875 321.632812 "/>
</g>
<g clip-path="url(#clip-69)">
<path fill="none" stroke-width="1.066978" stroke-linecap="butt" stroke-linejoin="round" stroke="rgb(92.156863%, 92.156863%, 92.156863%)" stroke-opacity="1" stroke-miterlimit="10" d="M 50.152344 383.105469 L 498.519531 383.105469 "/>
</g>
<g clip-path="url(#clip-70)">
<path fill="none" stroke-width="1.066978" stroke-linecap="butt" stroke-linejoin="round" stroke="rgb(92.156863%, 92.156863%, 92.156863%)" stroke-opacity="1" stroke-miterlimit="10" d="M 50.152344 366.574219 L 498.519531 366.574219 "/>
</g>
<g clip-path="url(#clip-71)">
<path fill="none" stroke-width="1.066978" stroke-linecap="butt" stroke-linejoin="round" stroke="rgb(92.156863%, 92.156863%, 92.156863%)" stroke-opacity="1" stroke-miterlimit="10" d="M 50.152344 350.039062 L 498.519531 350.039062 "/>
</g>
<g clip-path="url(#clip-72)">
<path fill="none" stroke-width="1.066978" stroke-linecap="butt" stroke-linejoin="round" stroke="rgb(92.156863%, 92.156863%, 92.156863%)" stroke-opacity="1" stroke-miterlimit="10" d="M 50.152344 333.503906 L 498.519531 333.503906 "/>
</g>
<g clip-path="url(#clip-73)">
<path fill="none" stroke-width="1.066978" stroke-linecap="butt" stroke-linejoin="round" stroke="rgb(92.156863%, 92.156863%, 92.156863%)" stroke-opacity="1" stroke-miterlimit="10" d="M 70.53125 397.847656 L 70.53125 321.632812 "/>
</g>
<g clip-path="url(#clip-74)">
<path fill="none" stroke-width="1.066978" stroke-linecap="butt" stroke-linejoin="round" stroke="rgb(92.156863%, 92.156863%, 92.156863%)" stroke-opacity="1" stroke-miterlimit="10" d="M 172.433594 397.847656 L 172.433594 321.632812 "/>
</g>
<g clip-path="url(#clip-75)">
<path fill="none" stroke-width="1.066978" stroke-linecap="butt" stroke-linejoin="round" stroke="rgb(92.156863%, 92.156863%, 92.156863%)" stroke-opacity="1" stroke-miterlimit="10" d="M 274.335938 397.847656 L 274.335938 321.632812 "/>
</g>
<g clip-path="url(#clip-76)">
<path fill="none" stroke-width="1.066978" stroke-linecap="butt" stroke-linejoin="round" stroke="rgb(92.156863%, 92.156863%, 92.156863%)" stroke-opacity="1" stroke-miterlimit="10" d="M 376.238281 397.847656 L 376.238281 321.632812 "/>
</g>
<g clip-path="url(#clip-77)">
<path fill="none" stroke-width="1.066978" stroke-linecap="butt" stroke-linejoin="round" stroke="rgb(92.156863%, 92.156863%, 92.156863%)" stroke-opacity="1" stroke-miterlimit="10" d="M 478.140625 397.847656 L 478.140625 321.632812 "/>
</g>
<path fill="none" stroke-width="1.066978" stroke-linecap="butt" stroke-linejoin="round" stroke="rgb(0%, 0%, 0%)" stroke-opacity="1" stroke-miterlimit="10" d="M 70.53125 327.117188 L 71.550781 327.980469 L 72.570312 331.089844 L 73.589844 335.011719 L 74.605469 344.039062 L 75.625 350.246094 L 76.644531 356.761719 L 77.664062 355.917969 L 78.683594 355.570312 L 79.703125 354.535156 L 80.722656 352.191406 L 81.742188 352.011719 L 82.757812 351.144531 L 83.777344 353.140625 L 84.796875 351.746094 L 85.816406 350.550781 L 86.835938 347.386719 L 87.855469 345.515625 L 88.875 344.601562 L 89.890625 342.972656 L 90.910156 341.070312 L 91.929688 340.601562 L 92.949219 339.863281 L 93.96875 339.34375 L 94.988281 338.328125 L 96.007812 337.136719 L 97.027344 334.503906 L 98.042969 332.878906 L 99.0625 333.125 L 100.082031 331.148438 L 101.101562 330.972656 L 102.121094 330.210938 L 103.140625 328.972656 L 104.160156 328.867188 L 105.179688 328.199219 L 106.195312 329.074219 L 107.214844 330.542969 L 108.234375 330.65625 L 109.253906 331.988281 L 110.273438 331.964844 L 111.292969 334.816406 L 112.3125 337.066406 L 113.328125 338.339844 L 114.347656 336.542969 L 115.367188 337.914062 L 116.386719 337.390625 L 117.40625 336.125 L 118.425781 334.660156 L 119.445312 333.855469 L 120.464844 331.5 L 121.480469 331.167969 L 122.5 331.703125 L 123.519531 329.910156 L 124.539062 328.445312 L 125.558594 326.453125 L 126.578125 325.097656 L 127.597656 325.667969 L 128.617188 330.042969 L 129.632812 339.261719 L 130.652344 350.980469 L 131.671875 359.585938 L 132.691406 371.558594 L 133.710938 384.671875 L 134.730469 394.386719 L 135.75 389.382812 L 136.769531 389.207031 L 137.785156 381.355469 L 138.804688 372.800781 L 139.824219 367.996094 L 140.84375 364.964844 L 141.863281 361.320312 L 142.882812 357.621094 L 143.902344 357.957031 L 144.917969 357.042969 L 145.9375 353.140625 L 146.957031 352.078125 L 147.976562 350.988281 L 148.996094 351.984375 L 150.015625 351.496094 L 151.035156 351.527344 L 152.054688 349.527344 L 153.070312 345.539062 L 154.089844 343.351562 L 155.109375 340.53125 L 156.128906 339.789062 L 157.148438 338.570312 L 158.167969 336.40625 L 159.1875 336 L 160.207031 333.683594 L 161.222656 332.101562 L 162.242188 331.449219 L 163.261719 329.636719 L 164.28125 329.082031 L 165.300781 330.207031 L 166.320312 330.171875 L 167.339844 329.375 L 168.355469 329.332031 L 169.375 329.996094 L 170.394531 330.136719 L 171.414062 329.863281 L 172.433594 330.003906 L 173.453125 331.835938 L 174.472656 333.53125 L 175.492188 336.152344 L 176.507812 340 L 177.527344 340.90625 L 178.546875 343.257812 L 179.566406 343.628906 L 180.585938 342.277344 L 181.605469 339.460938 L 182.625 338.035156 L 183.644531 335.40625 L 184.660156 333.683594 L 185.679688 332.289062 L 186.699219 331.160156 L 187.71875 329.675781 L 188.738281 329.421875 L 189.757812 328.785156 L 190.777344 328.230469 L 191.792969 329.242188 L 192.8125 329.433594 L 193.832031 332.4375 L 194.851562 332.640625 L 195.871094 335.027344 L 196.890625 334.949219 L 197.910156 335.597656 L 198.929688 335.722656 L 199.945312 334.457031 L 200.964844 334.730469 L 201.984375 334.160156 L 203.003906 332.667969 L 204.023438 331.246094 L 205.042969 331.03125 L 206.0625 330.621094 L 207.082031 329.210938 L 208.097656 328.757812 L 209.117188 328.175781 L 210.136719 328.726562 L 211.15625 329.347656 L 212.175781 331.277344 L 213.195312 333.53125 L 214.214844 335.167969 L 215.230469 337.210938 L 216.25 338.710938 L 217.269531 340.460938 L 218.289062 338.882812 L 219.308594 337.933594 L 220.328125 336.585938 L 221.347656 336.160156 L 222.367188 335.824219 L 223.382812 334.503906 L 224.402344 333.316406 L 225.421875 332.640625 L 226.441406 331.632812 L 227.460938 329.257812 L 228.480469 328.476562 L 229.5 328.15625 L 230.519531 327.078125 L 231.535156 327.433594 L 232.554688 329.613281 L 233.574219 331.152344 L 234.59375 335.132812 L 235.613281 341.9375 L 236.632812 348.503906 L 237.652344 351.332031 L 238.667969 350.808594 L 239.6875 349.582031 L 240.707031 352.417969 L 241.726562 352.484375 L 242.746094 350.207031 L 243.765625 346.519531 L 244.785156 343.007812 L 245.804688 341.085938 L 246.820312 340.234375 L 247.839844 337.273438 L 248.859375 337.578125 L 249.878906 337.835938 L 250.898438 337.5 L 251.917969 334.90625 L 252.9375 333.472656 L 253.957031 331.582031 L 254.972656 329.921875 L 255.992188 330.617188 L 257.011719 329.890625 L 258.03125 330.003906 L 259.050781 330.027344 L 260.070312 330.328125 L 261.089844 330.976562 L 262.105469 330.433594 L 263.125 330.042969 L 264.144531 330.910156 L 265.164062 330.21875 L 266.183594 331.542969 L 267.203125 331.171875 L 268.222656 332.960938 L 269.242188 334.882812 L 270.257812 336.347656 L 271.277344 335.746094 L 272.296875 335.863281 L 273.316406 337.863281 L 274.335938 337.5625 L 275.355469 336.765625 L 276.375 334.023438 L 277.394531 333.914062 L 278.410156 332.371094 L 279.429688 330.140625 L 280.449219 330.011719 L 281.46875 328.242188 L 282.488281 327.050781 L 283.507812 326.179688 L 284.527344 327.371094 L 285.542969 330.671875 L 286.5625 334.855469 L 287.582031 339.054688 L 288.601562 345.953125 L 289.621094 350.894531 L 290.640625 353.691406 L 291.660156 355.152344 L 292.679688 356.390625 L 293.695312 356.15625 L 294.714844 351.449219 L 295.734375 351.15625 L 296.753906 349.597656 L 297.773438 347.175781 L 298.792969 345.546875 L 299.8125 343.269531 L 300.832031 340.15625 L 301.847656 338.398438 L 302.867188 337.992188 L 303.886719 335.316406 L 304.90625 335.132812 L 305.925781 333.640625 L 306.945312 332.847656 L 307.964844 331.375 L 308.980469 331.164062 L 310 330.746094 L 311.019531 330.261719 L 312.039062 328.921875 L 313.058594 328.667969 L 314.078125 326.472656 L 315.097656 326.480469 L 316.117188 328.9375 L 317.132812 330.34375 L 318.152344 334.265625 L 319.171875 342.03125 L 320.191406 348.601562 L 321.210938 357.460938 L 322.230469 360.8125 L 323.25 364.695312 L 324.269531 361.914062 L 325.285156 359.730469 L 326.304688 359.332031 L 327.324219 357.796875 L 328.34375 355.0625 L 329.363281 353.550781 L 330.382812 352.152344 L 331.402344 349.257812 L 332.417969 347.894531 L 333.4375 343.59375 L 334.457031 340.515625 L 335.476562 340.238281 L 336.496094 341.433594 L 337.515625 341.316406 L 338.535156 339.816406 L 339.554688 338.332031 L 340.570312 336.765625 L 341.589844 334.863281 L 342.609375 332.890625 L 343.628906 332.40625 L 344.648438 331.867188 L 345.667969 328.941406 L 346.6875 327.257812 L 347.707031 326.734375 L 348.722656 325.742188 L 349.742188 326.726562 L 350.761719 328.449219 L 351.78125 334.507812 L 352.800781 343.222656 L 353.820312 351.570312 L 354.839844 357.101562 L 355.855469 361.253906 L 356.875 365.035156 L 357.894531 367.800781 L 358.914062 367.382812 L 359.933594 366.175781 L 360.953125 366.707031 L 361.972656 364.257812 L 362.992188 360.15625 L 364.007812 360.292969 L 365.027344 359.992188 L 366.046875 358.792969 L 367.066406 357.109375 L 368.085938 359.648438 L 369.105469 356.824219 L 370.125 354.878906 L 371.144531 352.421875 L 372.160156 348.4375 L 373.179688 343.769531 L 374.199219 342.878906 L 375.21875 342.535156 L 376.238281 342.726562 L 377.257812 341.652344 L 378.277344 340.265625 L 379.296875 337.34375 L 380.3125 336.496094 L 381.332031 336.703125 L 382.351562 336.925781 L 383.371094 335.988281 L 384.390625 334.410156 L 385.410156 331.921875 L 386.429688 330.933594 L 387.445312 330.460938 L 388.464844 329.710938 L 389.484375 329.484375 L 390.503906 329.554688 L 391.523438 329.167969 L 392.542969 329.59375 L 393.5625 329.195312 L 394.582031 330.796875 L 395.597656 331.640625 L 396.617188 334.570312 L 397.636719 335.167969 L 398.65625 335.757812 L 399.675781 335.980469 L 400.695312 335.785156 L 401.714844 334.347656 L 402.734375 334.699219 L 403.75 333.285156 L 404.769531 332.695312 L 405.789062 331.648438 L 406.808594 330.296875 L 407.828125 328.886719 L 408.847656 328.277344 L 409.867188 327.414062 L 410.882812 327.910156 L 411.902344 327.550781 L 412.921875 331.066406 L 413.941406 336.710938 L 414.960938 342.933594 L 415.980469 350.921875 L 417 356.804688 L 418.019531 365.109375 L 419.035156 368.6875 L 420.054688 366.917969 L 421.074219 370.234375 L 422.09375 365.609375 L 423.113281 361.664062 L 424.132812 362.5 L 425.152344 361.183594 L 426.171875 361.542969 L 427.1875 358.402344 L 428.207031 358.875 L 429.226562 358.441406 L 430.246094 355.785156 L 431.265625 354.96875 L 432.285156 351.625 L 433.304688 352.714844 L 434.320312 350.730469 L 435.339844 350.960938 L 436.359375 347.25 L 437.378906 345.429688 L 438.398438 342.6875 L 439.417969 342.359375 L 440.4375 341.175781 L 441.457031 339.875 L 442.472656 338.332031 L 443.492188 335.914062 L 444.511719 333.214844 L 445.53125 331.949219 L 446.550781 328.953125 L 447.570312 327.816406 L 448.589844 327.3125 L 449.609375 327.542969 L 450.625 327.203125 L 451.644531 329.476562 L 452.664062 330.65625 L 453.683594 334.292969 L 454.703125 338.914062 L 455.722656 345.476562 L 456.742188 352.316406 L 457.757812 355.90625 L 458.777344 360.617188 L 459.796875 358.582031 L 460.816406 357.113281 L 461.835938 354.386719 L 462.855469 351.25 L 463.875 350.433594 L 464.894531 348.625 L 465.910156 346.386719 L 466.929688 344.011719 L 467.949219 341.726562 L 468.96875 338.515625 L 469.988281 336.238281 L 471.007812 333.867188 L 472.027344 333.648438 L 473.046875 331.597656 L 474.0625 331.554688 L 475.082031 330.347656 L 476.101562 329.472656 L 477.121094 330.082031 L 478.140625 329.386719 "/>
<g clip-path="url(#clip-78)">
<path fill="none" stroke-width="1.066978" stroke-linecap="round" stroke-linejoin="round" stroke="rgb(20%, 20%, 20%)" stroke-opacity="1" stroke-miterlimit="10" d="M 50.152344 397.847656 L 498.523438 397.847656 L 498.523438 321.632812 L 50.152344 321.632812 Z M 50.152344 397.847656 "/>
</g>
<g clip-path="url(#clip-79)">
<path fill-rule="nonzero" fill="rgb(85.098039%, 85.098039%, 85.098039%)" fill-opacity="1" stroke-width="1.066978" stroke-linecap="round" stroke-linejoin="round" stroke="rgb(20%, 20%, 20%)" stroke-opacity="1" stroke-miterlimit="10" d="M 50.152344 321.632812 L 498.523438 321.632812 L 498.523438 303.867188 L 50.152344 303.867188 Z M 50.152344 321.632812 "/>
</g>
<g fill="rgb(10.196078%, 10.196078%, 10.196078%)" fill-opacity="1">
<use xlink:href="#glyph-0-0" x="271.335938" y="315.665039"/>
</g>
<g clip-path="url(#clip-80)">
<path fill-rule="nonzero" fill="rgb(85.098039%, 85.098039%, 85.098039%)" fill-opacity="1" stroke-width="1.066978" stroke-linecap="round" stroke-linejoin="round" stroke="rgb(20%, 20%, 20%)" stroke-opacity="1" stroke-miterlimit="10" d="M 50.152344 222.171875 L 498.523438 222.171875 L 498.523438 204.40625 L 50.152344 204.40625 Z M 50.152344 222.171875 "/>
</g>
<g fill="rgb(10.196078%, 10.196078%, 10.196078%)" fill-opacity="1">
<use xlink:href="#glyph-0-1" x="271.335938" y="216.204102"/>
</g>
<g clip-path="url(#clip-81)">
<path fill-rule="nonzero" fill="rgb(85.098039%, 85.098039%, 85.098039%)" fill-opacity="1" stroke-width="1.066978" stroke-linecap="round" stroke-linejoin="round" stroke="rgb(20%, 20%, 20%)" stroke-opacity="1" stroke-miterlimit="10" d="M 50.152344 122.707031 L 498.523438 122.707031 L 498.523438 104.941406 L 50.152344 104.941406 Z M 50.152344 122.707031 "/>
</g>
<g fill="rgb(10.196078%, 10.196078%, 10.196078%)" fill-opacity="1">
<use xlink:href="#glyph-0-2" x="271.835938" y="116.739258"/>
</g>
<g clip-path="url(#clip-82)">
<path fill-rule="nonzero" fill="rgb(85.098039%, 85.098039%, 85.098039%)" fill-opacity="1" stroke-width="1.066978" stroke-linecap="round" stroke-linejoin="round" stroke="rgb(20%, 20%, 20%)" stroke-opacity="1" stroke-miterlimit="10" d="M 50.152344 23.246094 L 498.523438 23.246094 L 498.523438 5.480469 L 50.152344 5.480469 Z M 50.152344 23.246094 "/>
</g>
<g fill="rgb(10.196078%, 10.196078%, 10.196078%)" fill-opacity="1">
<use xlink:href="#glyph-0-3" x="271.835938" y="17.27832"/>
</g>
<path fill="none" stroke-width="1.066978" stroke-linecap="butt" stroke-linejoin="round" stroke="rgb(20%, 20%, 20%)" stroke-opacity="1" stroke-miterlimit="10" d="M 70.53125 400.589844 L 70.53125 397.847656 "/>
<path fill="none" stroke-width="1.066978" stroke-linecap="butt" stroke-linejoin="round" stroke="rgb(20%, 20%, 20%)" stroke-opacity="1" stroke-miterlimit="10" d="M 172.433594 400.589844 L 172.433594 397.847656 "/>
<path fill="none" stroke-width="1.066978" stroke-linecap="butt" stroke-linejoin="round" stroke="rgb(20%, 20%, 20%)" stroke-opacity="1" stroke-miterlimit="10" d="M 274.335938 400.589844 L 274.335938 397.847656 "/>
<path fill="none" stroke-width="1.066978" stroke-linecap="butt" stroke-linejoin="round" stroke="rgb(20%, 20%, 20%)" stroke-opacity="1" stroke-miterlimit="10" d="M 376.238281 400.589844 L 376.238281 397.847656 "/>
<path fill="none" stroke-width="1.066978" stroke-linecap="butt" stroke-linejoin="round" stroke="rgb(20%, 20%, 20%)" stroke-opacity="1" stroke-miterlimit="10" d="M 478.140625 400.589844 L 478.140625 397.847656 "/>
<g fill="rgb(30.196078%, 30.196078%, 30.196078%)" fill-opacity="1">
<use xlink:href="#glyph-0-4" x="68.03125" y="409.196289"/>
</g>
<g fill="rgb(30.196078%, 30.196078%, 30.196078%)" fill-opacity="1">
<use xlink:href="#glyph-0-5" x="164.933594" y="409.196289"/>
<use xlink:href="#glyph-0-4" x="169.933594" y="409.196289"/>
<use xlink:href="#glyph-0-4" x="174.933594" y="409.196289"/>
</g>
<g fill="rgb(30.196078%, 30.196078%, 30.196078%)" fill-opacity="1">
<use xlink:href="#glyph-0-6" x="266.835938" y="409.196289"/>
<use xlink:href="#glyph-0-4" x="271.835938" y="409.196289"/>
<use xlink:href="#glyph-0-4" x="276.835938" y="409.196289"/>
</g>
<g fill="rgb(30.196078%, 30.196078%, 30.196078%)" fill-opacity="1">
<use xlink:href="#glyph-0-7" x="368.738281" y="409.196289"/>
<use xlink:href="#glyph-0-4" x="373.738281" y="409.196289"/>
<use xlink:href="#glyph-0-4" x="378.738281" y="409.196289"/>
</g>
<g fill="rgb(30.196078%, 30.196078%, 30.196078%)" fill-opacity="1">
<use xlink:href="#glyph-0-8" x="470.640625" y="409.196289"/>
<use xlink:href="#glyph-0-4" x="475.640625" y="409.196289"/>
<use xlink:href="#glyph-0-4" x="480.640625" y="409.196289"/>
</g>
<g fill="rgb(30.196078%, 30.196078%, 30.196078%)" fill-opacity="1">
<use xlink:href="#glyph-0-4" x="40.21875" y="100.426758"/>
</g>
<g fill="rgb(30.196078%, 30.196078%, 30.196078%)" fill-opacity="1">
<use xlink:href="#glyph-0-6" x="25.21875" y="85.844727"/>
<use xlink:href="#glyph-0-9" x="30.21875" y="85.844727"/>
<use xlink:href="#glyph-0-4" x="35.21875" y="85.844727"/>
<use xlink:href="#glyph-0-4" x="40.21875" y="85.844727"/>
</g>
<g fill="rgb(30.196078%, 30.196078%, 30.196078%)" fill-opacity="1">
<use xlink:href="#glyph-0-9" x="25.21875" y="71.266602"/>
<use xlink:href="#glyph-0-4" x="30.21875" y="71.266602"/>
<use xlink:href="#glyph-0-4" x="35.21875" y="71.266602"/>
<use xlink:href="#glyph-0-4" x="40.21875" y="71.266602"/>
</g>
<g fill="rgb(30.196078%, 30.196078%, 30.196078%)" fill-opacity="1">
<use xlink:href="#glyph-0-10" x="25.21875" y="56.688477"/>
<use xlink:href="#glyph-0-9" x="30.21875" y="56.688477"/>
<use xlink:href="#glyph-0-4" x="35.21875" y="56.688477"/>
<use xlink:href="#glyph-0-4" x="40.21875" y="56.688477"/>
</g>
<g fill="rgb(30.196078%, 30.196078%, 30.196078%)" fill-opacity="1">
<use xlink:href="#glyph-0-5" x="20.21875" y="42.110352"/>
<use xlink:href="#glyph-0-4" x="25.21875" y="42.110352"/>
<use xlink:href="#glyph-0-4" x="30.21875" y="42.110352"/>
<use xlink:href="#glyph-0-4" x="35.21875" y="42.110352"/>
<use xlink:href="#glyph-0-4" x="40.21875" y="42.110352"/>
</g>
<g fill="rgb(30.196078%, 30.196078%, 30.196078%)" fill-opacity="1">
<use xlink:href="#glyph-0-5" x="20.21875" y="27.532227"/>
<use xlink:href="#glyph-0-6" x="25.21875" y="27.532227"/>
<use xlink:href="#glyph-0-9" x="30.21875" y="27.532227"/>
<use xlink:href="#glyph-0-4" x="35.21875" y="27.532227"/>
<use xlink:href="#glyph-0-4" x="40.21875" y="27.532227"/>
</g>
<path fill="none" stroke-width="1.066978" stroke-linecap="butt" stroke-linejoin="round" stroke="rgb(20%, 20%, 20%)" stroke-opacity="1" stroke-miterlimit="10" d="M 47.410156 97.511719 L 50.152344 97.511719 "/>
<path fill="none" stroke-width="1.066978" stroke-linecap="butt" stroke-linejoin="round" stroke="rgb(20%, 20%, 20%)" stroke-opacity="1" stroke-miterlimit="10" d="M 47.410156 82.929688 L 50.152344 82.929688 "/>
<path fill="none" stroke-width="1.066978" stroke-linecap="butt" stroke-linejoin="round" stroke="rgb(20%, 20%, 20%)" stroke-opacity="1" stroke-miterlimit="10" d="M 47.410156 68.351562 L 50.152344 68.351562 "/>
<path fill="none" stroke-width="1.066978" stroke-linecap="butt" stroke-linejoin="round" stroke="rgb(20%, 20%, 20%)" stroke-opacity="1" stroke-miterlimit="10" d="M 47.410156 53.773438 L 50.152344 53.773438 "/>
<path fill="none" stroke-width="1.066978" stroke-linecap="butt" stroke-linejoin="round" stroke="rgb(20%, 20%, 20%)" stroke-opacity="1" stroke-miterlimit="10" d="M 47.410156 39.195312 L 50.152344 39.195312 "/>
<path fill="none" stroke-width="1.066978" stroke-linecap="butt" stroke-linejoin="round" stroke="rgb(20%, 20%, 20%)" stroke-opacity="1" stroke-miterlimit="10" d="M 47.410156 24.617188 L 50.152344 24.617188 "/>
<g fill="rgb(30.196078%, 30.196078%, 30.196078%)" fill-opacity="1">
<use xlink:href="#glyph-0-4" x="40.21875" y="199.399414"/>
</g>
<g fill="rgb(30.196078%, 30.196078%, 30.196078%)" fill-opacity="1">
<use xlink:href="#glyph-0-6" x="40.21875" y="175.290039"/>
</g>
<g fill="rgb(30.196078%, 30.196078%, 30.196078%)" fill-opacity="1">
<use xlink:href="#glyph-0-8" x="40.21875" y="151.180664"/>
</g>
<g fill="rgb(30.196078%, 30.196078%, 30.196078%)" fill-opacity="1">
<use xlink:href="#glyph-0-11" x="40.21875" y="127.075195"/>
</g>
<path fill="none" stroke-width="1.066978" stroke-linecap="butt" stroke-linejoin="round" stroke="rgb(20%, 20%, 20%)" stroke-opacity="1" stroke-miterlimit="10" d="M 47.410156 196.484375 L 50.152344 196.484375 "/>
<path fill="none" stroke-width="1.066978" stroke-linecap="butt" stroke-linejoin="round" stroke="rgb(20%, 20%, 20%)" stroke-opacity="1" stroke-miterlimit="10" d="M 47.410156 172.375 L 50.152344 172.375 "/>
<path fill="none" stroke-width="1.066978" stroke-linecap="butt" stroke-linejoin="round" stroke="rgb(20%, 20%, 20%)" stroke-opacity="1" stroke-miterlimit="10" d="M 47.410156 148.265625 L 50.152344 148.265625 "/>
<path fill="none" stroke-width="1.066978" stroke-linecap="butt" stroke-linejoin="round" stroke="rgb(20%, 20%, 20%)" stroke-opacity="1" stroke-miterlimit="10" d="M 47.410156 124.160156 L 50.152344 124.160156 "/>
<g fill="rgb(30.196078%, 30.196078%, 30.196078%)" fill-opacity="1">
<use xlink:href="#glyph-0-11" x="40.21875" y="288.563477"/>
</g>
<g fill="rgb(30.196078%, 30.196078%, 30.196078%)" fill-opacity="1">
<use xlink:href="#glyph-0-10" x="40.21875" y="269.65332"/>
</g>
<g fill="rgb(30.196078%, 30.196078%, 30.196078%)" fill-opacity="1">
<use xlink:href="#glyph-0-12" x="40.21875" y="250.743164"/>
</g>
<g fill="rgb(30.196078%, 30.196078%, 30.196078%)" fill-opacity="1">
<use xlink:href="#glyph-0-13" x="40.21875" y="231.836914"/>
</g>
<path fill="none" stroke-width="1.066978" stroke-linecap="butt" stroke-linejoin="round" stroke="rgb(20%, 20%, 20%)" stroke-opacity="1" stroke-miterlimit="10" d="M 47.410156 285.648438 L 50.152344 285.648438 "/>
<path fill="none" stroke-width="1.066978" stroke-linecap="butt" stroke-linejoin="round" stroke="rgb(20%, 20%, 20%)" stroke-opacity="1" stroke-miterlimit="10" d="M 47.410156 266.738281 L 50.152344 266.738281 "/>
<path fill="none" stroke-width="1.066978" stroke-linecap="butt" stroke-linejoin="round" stroke="rgb(20%, 20%, 20%)" stroke-opacity="1" stroke-miterlimit="10" d="M 47.410156 247.828125 L 50.152344 247.828125 "/>
<path fill="none" stroke-width="1.066978" stroke-linecap="butt" stroke-linejoin="round" stroke="rgb(20%, 20%, 20%)" stroke-opacity="1" stroke-miterlimit="10" d="M 47.410156 228.921875 L 50.152344 228.921875 "/>
<g fill="rgb(30.196078%, 30.196078%, 30.196078%)" fill-opacity="1">
<use xlink:href="#glyph-0-14" x="37.21875" y="386.020508"/>
<use xlink:href="#glyph-0-6" x="40.21875" y="386.020508"/>
</g>
<g fill="rgb(30.196078%, 30.196078%, 30.196078%)" fill-opacity="1">
<use xlink:href="#glyph-0-14" x="37.21875" y="369.489258"/>
<use xlink:href="#glyph-0-5" x="40.21875" y="369.489258"/>
</g>
<g fill="rgb(30.196078%, 30.196078%, 30.196078%)" fill-opacity="1">
<use xlink:href="#glyph-0-4" x="40.21875" y="352.954102"/>
</g>
<g fill="rgb(30.196078%, 30.196078%, 30.196078%)" fill-opacity="1">
<use xlink:href="#glyph-0-5" x="40.21875" y="336.418945"/>
</g>
<path fill="none" stroke-width="1.066978" stroke-linecap="butt" stroke-linejoin="round" stroke="rgb(20%, 20%, 20%)" stroke-opacity="1" stroke-miterlimit="10" d="M 47.410156 383.105469 L 50.152344 383.105469 "/>
<path fill="none" stroke-width="1.066978" stroke-linecap="butt" stroke-linejoin="round" stroke="rgb(20%, 20%, 20%)" stroke-opacity="1" stroke-miterlimit="10" d="M 47.410156 366.574219 L 50.152344 366.574219 "/>
<path fill="none" stroke-width="1.066978" stroke-linecap="butt" stroke-linejoin="round" stroke="rgb(20%, 20%, 20%)" stroke-opacity="1" stroke-miterlimit="10" d="M 47.410156 350.039062 L 50.152344 350.039062 "/>
<path fill="none" stroke-width="1.066978" stroke-linecap="butt" stroke-linejoin="round" stroke="rgb(20%, 20%, 20%)" stroke-opacity="1" stroke-miterlimit="10" d="M 47.410156 333.503906 L 50.152344 333.503906 "/>
<g fill="rgb(0%, 0%, 0%)" fill-opacity="1">
<use xlink:href="#glyph-1-0" x="264.335938" y="422.538086"/>
<use xlink:href="#glyph-1-1" x="267.335938" y="422.538086"/>
<use xlink:href="#glyph-1-2" x="269.335938" y="422.538086"/>
<use xlink:href="#glyph-1-3" x="278.335938" y="422.538086"/>
</g>
</svg>
