<?xml version="1.0" encoding="UTF-8"?>
<svg xmlns="http://www.w3.org/2000/svg" xmlns:xlink="http://www.w3.org/1999/xlink" width="504pt" height="432pt" viewBox="0 0 504 432">
<defs>
<g>
<g id="glyph-0-0">
<path d="M 3.40625 -2.515625 L 5.8125 -6.40625 L 4.84375 -6.40625 L 3.015625 -3.296875 L 1.125 -6.40625 L 0.109375 -6.40625 L 2.59375 -2.515625 L 2.59375 0 L 3.40625 0 Z M 3.40625 -2.515625 "/>
</g>
<g id="glyph-0-1">
<path d="M 3.4375 -3.296875 L 5.609375 -6.40625 L 4.625 -6.40625 L 2.96875 -3.890625 L 1.328125 -6.40625 L 0.328125 -6.40625 L 2.46875 -3.296875 L 0.1875 0 L 1.1875 0 L 2.953125 -2.671875 L 4.703125 0 L 5.703125 0 Z M 3.4375 -3.296875 "/>
</g>
<g id="glyph-0-2">
<path d="M 0.46875 1.921875 L 1.21875 1.921875 L 1.21875 -0.484375 C 1.59375 -0.015625 2.03125 0.203125 2.625 0.203125 C 3.828125 0.203125 4.59375 -0.75 4.59375 -2.21875 C 4.59375 -3.78125 3.84375 -4.734375 2.625 -4.734375 C 2 -4.734375 1.5 -4.453125 1.15625 -3.921875 L 1.15625 -4.609375 L 0.46875 -4.609375 Z M 2.5 -4.0625 C 3.3125 -4.0625 3.828125 -3.34375 3.828125 -2.25 C 3.828125 -1.203125 3.296875 -0.484375 2.5 -0.484375 C 1.71875 -0.484375 1.21875 -1.1875 1.21875 -2.265625 C 1.21875 -3.359375 1.71875 -4.0625 2.5 -4.0625 Z M 2.5 -4.0625 "/>
</g>
<g id="glyph-0-3">
<path d="M 0.609375 -4.609375 L 0.609375 0 L 1.359375 0 L 1.359375 -2.546875 C 1.359375 -3.484375 1.84375 -4.09375 2.609375 -4.09375 C 3.1875 -4.09375 3.546875 -3.75 3.546875 -3.1875 L 3.546875 0 L 4.28125 0 L 4.28125 -3.484375 C 4.28125 -4.25 3.71875 -4.734375 2.828125 -4.734375 C 2.140625 -4.734375 1.703125 -4.484375 1.296875 -3.828125 L 1.296875 -4.609375 Z M 0.609375 -4.609375 "/>
</g>
<g id="glyph-0-4">
<path d="M 2.421875 -6.359375 C 1.84375 -6.359375 1.3125 -6.09375 0.984375 -5.671875 C 0.578125 -5.109375 0.375 -4.25 0.375 -3.078125 C 0.375 -0.9375 1.078125 0.203125 2.421875 0.203125 C 3.734375 0.203125 4.453125 -0.9375 4.453125 -3.03125 C 4.453125 -4.25 4.265625 -5.078125 3.859375 -5.671875 C 3.53125 -6.109375 3.015625 -6.359375 2.421875 -6.359375 Z M 2.421875 -5.671875 C 3.25 -5.671875 3.671875 -4.828125 3.671875 -3.09375 C 3.671875 -1.28125 3.265625 -0.4375 2.40625 -0.4375 C 1.578125 -0.4375 1.171875 -1.3125 1.171875 -3.0625 C 1.171875 -4.828125 1.578125 -5.671875 2.421875 -5.671875 Z M 2.421875 -5.671875 "/>
</g>
<g id="glyph-0-5">
<path d="M 2.28125 -4.53125 L 2.28125 0 L 3.046875 0 L 3.046875 -6.359375 L 2.546875 -6.359375 C 2.265625 -5.390625 2.09375 -5.25 0.890625 -5.09375 L 0.890625 -4.53125 Z M 2.28125 -4.53125 "/>
</g>
<g id="glyph-0-6">
<path d="M 4.453125 -0.765625 L 1.171875 -0.765625 C 1.25 -1.296875 1.53125 -1.625 2.296875 -2.09375 L 3.171875 -2.59375 C 4.046875 -3.0625 4.5 -3.71875 4.5 -4.5 C 4.5 -5.03125 4.28125 -5.53125 3.921875 -5.875 C 3.546875 -6.203125 3.09375 -6.359375 2.5 -6.359375 C 1.703125 -6.359375 1.125 -6.078125 0.78125 -5.53125 C 0.546875 -5.203125 0.453125 -4.796875 0.4375 -4.15625 L 1.21875 -4.15625 C 1.234375 -4.59375 1.296875 -4.84375 1.40625 -5.0625 C 1.59375 -5.4375 2 -5.6875 2.46875 -5.6875 C 3.171875 -5.6875 3.703125 -5.171875 3.703125 -4.484375 C 3.703125 -3.96875 3.40625 -3.53125 2.859375 -3.21875 L 2.046875 -2.75 C 0.75 -2 0.375 -1.40625 0.296875 -0.015625 L 4.453125 -0.015625 Z M 4.453125 -0.765625 "/>
</g>
<g id="glyph-0-7">
<path d="M 1.9375 -2.921875 L 2.359375 -2.921875 C 3.203125 -2.921875 3.65625 -2.53125 3.65625 -1.765625 C 3.65625 -0.96875 3.171875 -0.484375 2.375 -0.484375 C 1.515625 -0.484375 1.109375 -0.921875 1.0625 -1.84375 L 0.28125 -1.84375 C 0.3125 -1.34375 0.40625 -1 0.546875 -0.71875 C 0.875 -0.109375 1.484375 0.203125 2.34375 0.203125 C 3.625 0.203125 4.453125 -0.578125 4.453125 -1.78125 C 4.453125 -2.59375 4.140625 -3.03125 3.390625 -3.296875 C 3.96875 -3.53125 4.265625 -3.96875 4.265625 -4.609375 C 4.265625 -5.703125 3.546875 -6.359375 2.359375 -6.359375 C 1.109375 -6.359375 0.4375 -5.65625 0.40625 -4.3125 L 1.1875 -4.3125 C 1.203125 -4.703125 1.234375 -4.921875 1.328125 -5.109375 C 1.5 -5.46875 1.890625 -5.6875 2.375 -5.6875 C 3.0625 -5.6875 3.46875 -5.265625 3.46875 -4.578125 C 3.46875 -4.140625 3.3125 -3.859375 2.96875 -3.71875 C 2.765625 -3.625 2.484375 -3.59375 1.9375 -3.578125 Z M 1.9375 -2.921875 "/>
</g>
<g id="glyph-0-8">
<path d="M 2.875 -1.546875 L 2.875 0 L 3.65625 0 L 3.65625 -1.546875 L 4.578125 -1.546875 L 4.578125 -2.234375 L 3.65625 -2.234375 L 3.65625 -6.359375 L 3.078125 -6.359375 L 0.25 -2.359375 L 0.25 -1.546875 Z M 2.875 -2.234375 L 0.921875 -2.234375 L 2.875 -5.046875 Z M 2.875 -2.234375 "/>
</g>
<g id="glyph-0-9">
<path d="M 4.1875 -6.234375 L 0.96875 -6.234375 L 0.5 -2.84375 L 1.21875 -2.84375 C 1.578125 -3.265625 1.875 -3.421875 2.359375 -3.421875 C 3.203125 -3.421875 3.71875 -2.84375 3.71875 -1.921875 C 3.71875 -1.03125 3.203125 -0.484375 2.359375 -0.484375 C 1.6875 -0.484375 1.265625 -0.828125 1.078125 -1.53125 L 0.3125 -1.53125 C 0.40625 -1.015625 0.5 -0.78125 0.6875 -0.546875 C 1.03125 -0.078125 1.671875 0.203125 2.375 0.203125 C 3.640625 0.203125 4.515625 -0.71875 4.515625 -2.03125 C 4.515625 -3.265625 3.6875 -4.109375 2.5 -4.109375 C 2.0625 -4.109375 1.703125 -4 1.34375 -3.734375 L 1.59375 -5.46875 L 4.1875 -5.46875 Z M 4.1875 -6.234375 "/>
</g>
<g id="glyph-0-10">
<path d="M 4.578125 -6.234375 L 0.40625 -6.234375 L 0.40625 -5.46875 L 3.78125 -5.46875 C 2.28125 -3.359375 1.6875 -2.046875 1.21875 0 L 2.046875 0 C 2.390625 -2 3.171875 -3.71875 4.578125 -5.59375 Z M 4.578125 -6.234375 "/>
</g>
<g id="glyph-0-11">
<path d="M 4.375 -4.703125 C 4.234375 -5.75 3.5625 -6.359375 2.609375 -6.359375 C 1.921875 -6.359375 1.3125 -6.03125 0.9375 -5.453125 C 0.546875 -4.828125 0.375 -4.0625 0.375 -2.90625 C 0.375 -1.828125 0.53125 -1.15625 0.90625 -0.59375 C 1.234375 -0.078125 1.78125 0.203125 2.46875 0.203125 C 3.65625 0.203125 4.515625 -0.6875 4.515625 -1.921875 C 4.515625 -3.09375 3.71875 -3.921875 2.609375 -3.921875 C 1.984375 -3.921875 1.5 -3.6875 1.171875 -3.234375 C 1.171875 -4.796875 1.671875 -5.671875 2.5625 -5.671875 C 3.109375 -5.671875 3.484375 -5.328125 3.609375 -4.703125 Z M 2.5 -3.234375 C 3.25 -3.234375 3.71875 -2.703125 3.71875 -1.859375 C 3.71875 -1.0625 3.1875 -0.484375 2.484375 -0.484375 C 1.765625 -0.484375 1.21875 -1.09375 1.21875 -1.90625 C 1.21875 -2.6875 1.734375 -3.234375 2.5 -3.234375 Z M 2.5 -3.234375 "/>
</g>
<g id="glyph-0-12">
<path d="M 3.4375 -3.359375 C 4.09375 -3.75 4.296875 -4.0625 4.296875 -4.65625 C 4.296875 -5.671875 3.53125 -6.359375 2.421875 -6.359375 C 1.3125 -6.359375 0.546875 -5.671875 0.546875 -4.671875 C 0.546875 -4.0625 0.75 -3.75 1.390625 -3.359375 C 0.671875 -2.984375 0.328125 -2.46875 0.328125 -1.765625 C 0.328125 -0.609375 1.171875 0.203125 2.421875 0.203125 C 3.65625 0.203125 4.515625 -0.609375 4.515625 -1.765625 C 4.515625 -2.46875 4.15625 -2.984375 3.4375 -3.359375 Z M 2.421875 -5.671875 C 3.078125 -5.671875 3.5 -5.28125 3.5 -4.640625 C 3.5 -4.046875 3.0625 -3.65625 2.421875 -3.65625 C 1.765625 -3.65625 1.34375 -4.046875 1.34375 -4.65625 C 1.34375 -5.28125 1.765625 -5.671875 2.421875 -5.671875 Z M 2.421875 -3 C 3.1875 -3 3.71875 -2.484375 3.71875 -1.75 C 3.71875 -0.984375 3.203125 -0.484375 2.40625 -0.484375 C 1.640625 -0.484375 1.125 -1 1.125 -1.734375 C 1.125 -2.5 1.640625 -3 2.421875 -3 Z M 2.421875 -3 "/>
</g>
<g id="glyph-0-13">
<path d="M 0.46875 -1.453125 C 0.609375 -0.40625 1.28125 0.203125 2.234375 0.203125 C 2.921875 0.203125 3.546875 -0.125 3.921875 -0.703125 C 4.296875 -1.328125 4.484375 -2.109375 4.484375 -3.25 C 4.484375 -4.328125 4.3125 -5 3.953125 -5.5625 C 3.609375 -6.09375 3.0625 -6.359375 2.375 -6.359375 C 1.1875 -6.359375 0.328125 -5.46875 0.328125 -4.234375 C 0.328125 -3.0625 1.125 -2.25 2.25 -2.25 C 2.84375 -2.25 3.28125 -2.453125 3.671875 -2.9375 C 3.671875 -1.359375 3.171875 -0.484375 2.28125 -0.484375 C 1.734375 -0.484375 1.359375 -0.828125 1.234375 -1.453125 Z M 2.359375 -5.6875 C 3.09375 -5.6875 3.640625 -5.078125 3.640625 -4.25 C 3.640625 -3.46875 3.109375 -2.921875 2.34375 -2.921875 C 1.59375 -2.921875 1.125 -3.453125 1.125 -4.296875 C 1.125 -5.109375 1.640625 -5.6875 2.359375 -5.6875 Z M 2.359375 -5.6875 "/>
</g>
<g id="glyph-0-14">
<path d="M 2.5 -2.75 L 0.40625 -2.75 L 0.40625 -2.109375 L 2.5 -2.109375 Z M 2.5 -2.75 "/>
</g>
<g id="glyph-1-0">
<path d="M 2.796875 -5.765625 L 1.84375 -5.765625 L 1.84375 -7.34375 L 0.9375 -7.34375 L 0.9375 -5.765625 L 0.15625 -5.765625 L 0.15625 -5.015625 L 0.9375 -5.015625 L 0.9375 -0.65625 C 0.9375 -0.0625 1.328125 0.25 2.046875 0.25 C 2.28125 0.25 2.484375 0.234375 2.796875 0.171875 L 2.796875 -0.59375 C 2.65625 -0.5625 2.546875 -0.546875 2.359375 -0.546875 C 1.953125 -0.546875 1.84375 -0.65625 1.84375 -1.0625 L 1.84375 -5.015625 L 2.796875 -5.015625 Z M 2.796875 -5.765625 "/>
</g>
<g id="glyph-1-1">
<path d="M 1.65625 -5.765625 L 0.734375 -5.765625 L 0.734375 0 L 1.65625 0 Z M 1.65625 -8.015625 L 0.71875 -8.015625 L 0.71875 -6.859375 L 1.65625 -6.859375 Z M 1.65625 -8.015625 "/>
</g>
<g id="glyph-1-2">
<path d="M 0.765625 -5.765625 L 0.765625 0 L 1.6875 0 L 1.6875 -3.625 C 1.6875 -4.453125 2.296875 -5.125 3.046875 -5.125 C 3.734375 -5.125 4.109375 -4.703125 4.109375 -3.96875 L 4.109375 0 L 5.03125 0 L 5.03125 -3.625 C 5.03125 -4.453125 5.640625 -5.125 6.390625 -5.125 C 7.0625 -5.125 7.453125 -4.703125 7.453125 -3.96875 L 7.453125 0 L 8.375 0 L 8.375 -4.328125 C 8.375 -5.359375 7.78125 -5.921875 6.703125 -5.921875 C 5.9375 -5.921875 5.484375 -5.703125 4.9375 -5.046875 C 4.59375 -5.671875 4.140625 -5.921875 3.390625 -5.921875 C 2.625 -5.921875 2.09375 -5.640625 1.609375 -4.953125 L 1.609375 -5.765625 Z M 0.765625 -5.765625 "/>
</g>
<g id="glyph-1-3">
<path d="M 5.640625 -2.578125 C 5.640625 -3.453125 5.578125 -3.984375 5.40625 -4.40625 C 5.03125 -5.359375 4.15625 -5.921875 3.078125 -5.921875 C 1.46875 -5.921875 0.4375 -4.703125 0.4375 -2.8125 C 0.4375 -0.90625 1.4375 0.25 3.0625 0.25 C 4.375 0.25 5.296875 -0.5 5.515625 -1.75 L 4.59375 -1.75 C 4.34375 -0.984375 3.828125 -0.59375 3.09375 -0.59375 C 2.515625 -0.59375 2.015625 -0.859375 1.703125 -1.34375 C 1.484375 -1.671875 1.40625 -2 1.390625 -2.578125 Z M 1.421875 -3.328125 C 1.5 -4.390625 2.140625 -5.078125 3.0625 -5.078125 C 4 -5.078125 4.65625 -4.359375 4.65625 -3.328125 Z M 1.421875 -3.328125 "/>
</g>
</g>
<clipPath id="clip-0">
<path clip-rule="nonzero" d="M 50.152344 23.246094 L 498.523438 23.246094 L 498.523438 99.460938 L 50.152344 99.460938 Z M 50.152344 23.246094 "/>
</clipPath>
<clipPath id="clip-1">
<path clip-rule="nonzero" d="M 50.152344 89 L 498.523438 89 L 498.523438 91 L 50.152344 91 Z M 50.152344 89 "/>
</clipPath>
<clipPath id="clip-2">
<path clip-rule="nonzero" d="M 50.152344 75 L 498.523438 75 L 498.523438 76 L 50.152344 76 Z M 50.152344 75 "/>
</clipPath>
<clipPath id="clip-3">
<path clip-rule="nonzero" d="M 50.152344 60 L 498.523438 60 L 498.523438 62 L 50.152344 62 Z M 50.152344 60 "/>
</clipPath>
<clipPath id="clip-4">
<path clip-rule="nonzero" d="M 50.152344 46 L 498.523438 46 L 498.523438 47 L 50.152344 47 Z M 50.152344 46 "/>
</clipPath>
<clipPath id="clip-5">
<path clip-rule="nonzero" d="M 50.152344 31 L 498.523438 31 L 498.523438 33 L 50.152344 33 Z M 50.152344 31 "/>
</clipPath>
<clipPath id="clip-6">
<path clip-rule="nonzero" d="M 121 23.246094 L 122 23.246094 L 122 99.460938 L 121 99.460938 Z M 121 23.246094 "/>
</clipPath>
<clipPath id="clip-7">
<path clip-rule="nonzero" d="M 223 23.246094 L 224 23.246094 L 224 99.460938 L 223 99.460938 Z M 223 23.246094 "/>
</clipPath>
<clipPath id="clip-8">
<path clip-rule="nonzero" d="M 325 23.246094 L 326 23.246094 L 326 99.460938 L 325 99.460938 Z M 325 23.246094 "/>
</clipPath>
<clipPath id="clip-9">
<path clip-rule="nonzero" d="M 426 23.246094 L 428 23.246094 L 428 99.460938 L 426 99.460938 Z M 426 23.246094 "/>
</clipPath>
<clipPath id="clip-10">
<path clip-rule="nonzero" d="M 50.152344 96 L 498.523438 96 L 498.523438 98 L 50.152344 98 Z M 50.152344 96 "/>
</clipPath>
<clipPath id="clip-11">
<path clip-rule="nonzero" d="M 50.152344 82 L 498.523438 82 L 498.523438 84 L 50.152344 84 Z M 50.152344 82 "/>
</clipPath>
<clipPath id="clip-12">
<path clip-rule="nonzero" d="M 50.152344 67 L 498.523438 67 L 498.523438 69 L 50.152344 69 Z M 50.152344 67 "/>
</clipPath>
<clipPath id="clip-13">
<path clip-rule="nonzero" d="M 50.152344 53 L 498.523438 53 L 498.523438 55 L 50.152344 55 Z M 50.152344 53 "/>
</clipPath>
<clipPath id="clip-14">
<path clip-rule="nonzero" d="M 50.152344 38 L 498.523438 38 L 498.523438 40 L 50.152344 40 Z M 50.152344 38 "/>
</clipPath>
<clipPath id="clip-15">
<path clip-rule="nonzero" d="M 50.152344 24 L 498.523438 24 L 498.523438 26 L 50.152344 26 Z M 50.152344 24 "/>
</clipPath>
<clipPath id="clip-16">
<path clip-rule="nonzero" d="M 69 23.246094 L 72 23.246094 L 72 99.460938 L 69 99.460938 Z M 69 23.246094 "/>
</clipPath>
<clipPath id="clip-17">
<path clip-rule="nonzero" d="M 171 23.246094 L 173 23.246094 L 173 99.460938 L 171 99.460938 Z M 171 23.246094 "/>
</clipPath>
<clipPath id="clip-18">
<path clip-rule="nonzero" d="M 273 23.246094 L 275 23.246094 L 275 99.460938 L 273 99.460938 Z M 273 23.246094 "/>
</clipPath>
<clipPath id="clip-19">
<path clip-rule="nonzero" d="M 375 23.246094 L 377 23.246094 L 377 99.460938 L 375 99.460938 Z M 375 23.246094 "/>
</clipPath>
<clipPath id="clip-20">
<path clip-rule="nonzero" d="M 477 23.246094 L 479 23.246094 L 479 99.460938 L 477 99.460938 Z M 477 23.246094 "/>
</clipPath>
<clipPath id="clip-21">
<path clip-rule="nonzero" d="M 50.152344 23.246094 L 498.523438 23.246094 L 498.523438 99.460938 L 50.152344 99.460938 Z M 50.152344 23.246094 "/>
</clipPath>
<clipPath id="clip-22">
<path clip-rule="nonzero" d="M 50.152344 122.707031 L 498.523438 122.707031 L 498.523438 198.921875 L 50.152344 198.921875 Z M 50.152344 122.707031 "/>
</clipPath>
<clipPath id="clip-23">
<path clip-rule="nonzero" d="M 50.152344 190 L 498.523438 190 L 498.523438 192 L 50.152344 192 Z M 50.152344 190 "/>
</clipPath>
<clipPath id="clip-24">
<path clip-rule="nonzero" d="M 50.152344 176 L 498.523438 176 L 498.523438 178 L 50.152344 178 Z M 50.152344 176 "/>
</clipPath>
<clipPath id="clip-25">
<path clip-rule="nonzero" d="M 50.152344 162 L 498.523438 162 L 498.523438 163 L 50.152344 163 Z M 50.152344 162 "/>
</clipPath>
<clipPath id="clip-26">
<path clip-rule="nonzero" d="M 50.152344 148 L 498.523438 148 L 498.523438 149 L 50.152344 149 Z M 50.152344 148 "/>
</clipPath>
<clipPath id="clip-27">
<path clip-rule="nonzero" d="M 50.152344 133 L 498.523438 133 L 498.523438 135 L 50.152344 135 Z M 50.152344 133 "/>
</clipPath>
<clipPath id="clip-28">
<path clip-rule="nonzero" d="M 121 122.707031 L 122 122.707031 L 122 198.921875 L 121 198.921875 Z M 121 122.707031 "/>
</clipPath>
<clipPath id="clip-29">
<path clip-rule="nonzero" d="M 223 122.707031 L 224 122.707031 L 224 198.921875 L 223 198.921875 Z M 223 122.707031 "/>
</clipPath>
<clipPath id="clip-30">
<path clip-rule="nonzero" d="M 325 122.707031 L 326 122.707031 L 326 198.921875 L 325 198.921875 Z M 325 122.707031 "/>
</clipPath>
<clipPath id="clip-31">
<path clip-rule="nonzero" d="M 426 122.707031 L 428 122.707031 L 428 198.921875 L 426 198.921875 Z M 426 122.707031 "/>
</clipPath>
<clipPath id="clip-32">
<path clip-rule="nonzero" d="M 50.152344 197 L 498.523438 197 L 498.523438 198.921875 L 50.152344 198.921875 Z M 50.152344 197 "/>
</clipPath>
<clipPath id="clip-33">
<path clip-rule="nonzero" d="M 50.152344 183 L 498.523438 183 L 498.523438 185 L 50.152344 185 Z M 50.152344 183 "/>
</clipPath>
<clipPath id="clip-34">
<path clip-rule="nonzero" d="M 50.152344 169 L 498.523438 169 L 498.523438 171 L 50.152344 171 Z M 50.152344 169 "/>
</clipPath>
<clipPath id="clip-35">
<path clip-rule="nonzero" d="M 50.152344 154 L 498.523438 154 L 498.523438 156 L 50.152344 156 Z M 50.152344 154 "/>
</clipPath>
<clipPath id="clip-36">
<path clip-rule="nonzero" d="M 50.152344 140 L 498.523438 140 L 498.523438 142 L 50.152344 142 Z M 50.152344 140 "/>
</clipPath>
<clipPath id="clip-37">
<path clip-rule="nonzero" d="M 50.152344 126 L 498.523438 126 L 498.523438 128 L 50.152344 128 Z M 50.152344 126 "/>
</clipPath>
<clipPath id="clip-38">
<path clip-rule="nonzero" d="M 69 122.707031 L 72 122.707031 L 72 198.921875 L 69 198.921875 Z M 69 122.707031 "/>
</clipPath>
<clipPath id="clip-39">
<path clip-rule="nonzero" d="M 171 122.707031 L 173 122.707031 L 173 198.921875 L 171 198.921875 Z M 171 122.707031 "/>
</clipPath>
<clipPath id="clip-40">
<path clip-rule="nonzero" d="M 273 122.707031 L 275 122.707031 L 275 198.921875 L 273 198.921875 Z M 273 122.707031 "/>
</clipPath>
<clipPath id="clip-41">
<path clip-rule="nonzero" d="M 375 122.707031 L 377 122.707031 L 377 198.921875 L 375 198.921875 Z M 375 122.707031 "/>
</clipPath>
<clipPath id="clip-42">
<path clip-rule="nonzero" d="M 477 122.707031 L 479 122.707031 L 479 198.921875 L 477 198.921875 Z M 477 122.707031 "/>
</clipPath>
<clipPath id="clip-43">
<path clip-rule="nonzero" d="M 50.152344 122.707031 L 498.523438 122.707031 L 498.523438 198.921875 L 50.152344 198.921875 Z M 50.152344 122.707031 "/>
</clipPath>
<clipPath id="clip-44">
<path clip-rule="nonzero" d="M 50.152344 222.171875 L 498.523438 222.171875 L 498.523438 298.386719 L 50.152344 298.386719 Z M 50.152344 222.171875 "/>
</clipPath>
<clipPath id="clip-45">
<path clip-rule="nonzero" d="M 50.152344 296 L 498.523438 296 L 498.523438 298 L 50.152344 298 Z M 50.152344 296 "/>
</clipPath>
<clipPath id="clip-46">
<path clip-rule="nonzero" d="M 50.152344 277 L 498.523438 277 L 498.523438 278 L 50.152344 278 Z M 50.152344 277 "/>
</clipPath>
<clipPath id="clip-47">
<path clip-rule="nonzero" d="M 50.152344 257 L 498.523438 257 L 498.523438 259 L 50.152344 259 Z M 50.152344 257 "/>
</clipPath>
<clipPath id="clip-48">
<path clip-rule="nonzero" d="M 50.152344 238 L 498.523438 238 L 498.523438 239 L 50.152344 239 Z M 50.152344 238 "/>
</clipPath>
<clipPath id="clip-49">
<path clip-rule="nonzero" d="M 121 222.171875 L 122 222.171875 L 122 298.386719 L 121 298.386719 Z M 121 222.171875 "/>
</clipPath>
<clipPath id="clip-50">
<path clip-rule="nonzero" d="M 223 222.171875 L 224 222.171875 L 224 298.386719 L 223 298.386719 Z M 223 222.171875 "/>
</clipPath>
<clipPath id="clip-51">
<path clip-rule="nonzero" d="M 325 222.171875 L 326 222.171875 L 326 298.386719 L 325 298.386719 Z M 325 222.171875 "/>
</clipPath>
<clipPath id="clip-52">
<path clip-rule="nonzero" d="M 426 222.171875 L 428 222.171875 L 428 298.386719 L 426 298.386719 Z M 426 222.171875 "/>
</clipPath>
<clipPath id="clip-53">
<path clip-rule="nonzero" d="M 50.152344 286 L 498.523438 286 L 498.523438 288 L 50.152344 288 Z M 50.152344 286 "/>
</clipPath>
<clipPath id="clip-54">
<path clip-rule="nonzero" d="M 50.152344 267 L 498.523438 267 L 498.523438 269 L 50.152344 269 Z M 50.152344 267 "/>
</clipPath>
<clipPath id="clip-55">
<path clip-rule="nonzero" d="M 50.152344 247 L 498.523438 247 L 498.523438 249 L 50.152344 249 Z M 50.152344 247 "/>
</clipPath>
<clipPath id="clip-56">
<path clip-rule="nonzero" d="M 50.152344 228 L 498.523438 228 L 498.523438 230 L 50.152344 230 Z M 50.152344 228 "/>
</clipPath>
<clipPath id="clip-57">
<path clip-rule="nonzero" d="M 69 222.171875 L 72 222.171875 L 72 298.386719 L 69 298.386719 Z M 69 222.171875 "/>
</clipPath>
<clipPath id="clip-58">
<path clip-rule="nonzero" d="M 171 222.171875 L 173 222.171875 L 173 298.386719 L 171 298.386719 Z M 171 222.171875 "/>
</clipPath>
<clipPath id="clip-59">
<path clip-rule="nonzero" d="M 273 222.171875 L 275 222.171875 L 275 298.386719 L 273 298.386719 Z M 273 222.171875 "/>
</clipPath>
<clipPath id="clip-60">
<path clip-rule="nonzero" d="M 375 222.171875 L 377 222.171875 L 377 298.386719 L 375 298.386719 Z M 375 222.171875 "/>
</clipPath>
<clipPath id="clip-61">
<path clip-rule="nonzero" d="M 477 222.171875 L 479 222.171875 L 479 298.386719 L 477 298.386719 Z M 477 222.171875 "/>
</clipPath>
<clipPath id="clip-62">
<path clip-rule="nonzero" d="M 50.152344 222.171875 L 498.523438 222.171875 L 498.523438 298.386719 L 50.152344 298.386719 Z M 50.152344 222.171875 "/>
</clipPath>
<clipPath id="clip-63">
<path clip-rule="nonzero" d="M 50.152344 321.632812 L 498.523438 321.632812 L 498.523438 397.847656 L 50.152344 397.847656 Z M 50.152344 321.632812 "/>
</clipPath>
<clipPath id="clip-64">
<path clip-rule="nonzero" d="M 50.152344 394 L 498.523438 394 L 498.523438 396 L 50.152344 396 Z M 50.152344 394 "/>
</clipPath>
<clipPath id="clip-65">
<path clip-rule="nonzero" d="M 50.152344 371 L 498.523438 371 L 498.523438 373 L 50.152344 373 Z M 50.152344 371 "/>
</clipPath>
<clipPath id="clip-66">
<path clip-rule="nonzero" d="M 50.152344 348 L 498.523438 348 L 498.523438 349 L 50.152344 349 Z M 50.152344 348 "/>
</clipPath>
<clipPath id="clip-67">
<path clip-rule="nonzero" d="M 50.152344 324 L 498.523438 324 L 498.523438 326 L 50.152344 326 Z M 50.152344 324 "/>
</clipPath>
<clipPath id="clip-68">
<path clip-rule="nonzero" d="M 121 321.632812 L 122 321.632812 L 122 397.847656 L 121 397.847656 Z M 121 321.632812 "/>
</clipPath>
<clipPath id="clip-69">
<path clip-rule="nonzero" d="M 223 321.632812 L 224 321.632812 L 224 397.847656 L 223 397.847656 Z M 223 321.632812 "/>
</clipPath>
<clipPath id="clip-70">
<path clip-rule="nonzero" d="M 325 321.632812 L 326 321.632812 L 326 397.847656 L 325 397.847656 Z M 325 321.632812 "/>
</clipPath>
<clipPath id="clip-71">
<path clip-rule="nonzero" d="M 426 321.632812 L 428 321.632812 L 428 397.847656 L 426 397.847656 Z M 426 321.632812 "/>
</clipPath>
<clipPath id="clip-72">
<path clip-rule="nonzero" d="M 50.152344 382 L 498.523438 382 L 498.523438 384 L 50.152344 384 Z M 50.152344 382 "/>
</clipPath>
<clipPath id="clip-73">
<path clip-rule="nonzero" d="M 50.152344 359 L 498.523438 359 L 498.523438 361 L 50.152344 361 Z M 50.152344 359 "/>
</clipPath>
<clipPath id="clip-74">
<path clip-rule="nonzero" d="M 50.152344 336 L 498.523438 336 L 498.523438 338 L 50.152344 338 Z M 50.152344 336 "/>
</clipPath>
<clipPath id="clip-75">
<path clip-rule="nonzero" d="M 69 321.632812 L 72 321.632812 L 72 397.847656 L 69 397.847656 Z M 69 321.632812 "/>
</clipPath>
<clipPath id="clip-76">
<path clip-rule="nonzero" d="M 171 321.632812 L 173 321.632812 L 173 397.847656 L 171 397.847656 Z M 171 321.632812 "/>
</clipPath>
<clipPath id="clip-77">
<path clip-rule="nonzero" d="M 273 321.632812 L 275 321.632812 L 275 397.847656 L 273 397.847656 Z M 273 321.632812 "/>
</clipPath>
<clipPath id="clip-78">
<path clip-rule="nonzero" d="M 375 321.632812 L 377 321.632812 L 377 397.847656 L 375 397.847656 Z M 375 321.632812 "/>
</clipPath>
<clipPath id="clip-79">
<path clip-rule="nonzero" d="M 477 321.632812 L 479 321.632812 L 479 397.847656 L 477 397.847656 Z M 477 321.632812 "/>
</clipPath>
<clipPath id="clip-80">
<path clip-rule="nonzero" d="M 50.152344 321.632812 L 498.523438 321.632812 L 498.523438 397.847656 L 50.152344 397.847656 Z M 50.152344 321.632812 "/>
</clipPath>
<clipPath id="clip-81">
<path clip-rule="nonzero" d="M 50.152344 303.867188 L 498.523438 303.867188 L 498.523438 321.632812 L 50.152344 321.632812 Z M 50.152344 303.867188 "/>
</clipPath>
<clipPath id="clip-82">
<path clip-rule="nonzero" d="M 50.152344 204.402344 L 498.523438 204.402344 L 498.523438 222.167969 L 50.152344 222.167969 Z M 50.152344 204.402344 "/>
</clipPath>
<clipPath id="clip-83">
<path clip-rule="nonzero" d="M 50.152344 104.941406 L 498.523438 104.941406 L 498.523438 122.707031 L 50.152344 122.707031 Z M 50.152344 104.941406 "/>
</clipPath>
<clipPath id="clip-84">
<path clip-rule="nonzero" d="M 50.152344 5.480469 L 498.523438 5.480469 L 498.523438 23.246094 L 50.152344 23.246094 Z M 50.152344 5.480469 "/>
</clipPath>
</defs>
<rect x="-50.4" y="-43.2" width="604.8" height="518.4" fill="rgb(100%, 100%, 100%)" fill-opacity="1"/>
<rect x="-50.4" y="-43.2" width="604.8" height="518.4" fill="rgb(100%, 100%, 100%)" fill-opacity="1"/>
<path fill="none" stroke-width="1.066978" stroke-linecap="round" stroke-linejoin="round" stroke="rgb(100%, 100%, 100%)" stroke-opacity="1" stroke-miterlimit="10" d="M 0 432 L 504 432 L 504 0 L 0 0 Z M 0 432 "/>
<g clip-path="url(#clip-0)">
<path fill-rule="nonzero" fill="rgb(100%, 100%, 100%)" fill-opacity="1" d="M 50.152344 99.460938 L 498.523438 99.460938 L 498.523438 23.246094 L 50.152344 23.246094 Z M 50.152344 99.460938 "/>
</g>
<g clip-path="url(#clip-1)">
<path fill="none" stroke-width="0.533489" stroke-linecap="butt" stroke-linejoin="round" stroke="rgb(92.156863%, 92.156863%, 92.156863%)" stroke-opacity="1" stroke-miterlimit="10" d="M 50.152344 90.171875 L 498.519531 90.171875 "/>
</g>
<g clip-path="url(#clip-2)">
<path fill="none" stroke-width="0.533489" stroke-linecap="butt" stroke-linejoin="round" stroke="rgb(92.156863%, 92.156863%, 92.156863%)" stroke-opacity="1" stroke-miterlimit="10" d="M 50.152344 75.617188 L 498.519531 75.617188 "/>
</g>
<g clip-path="url(#clip-3)">
<path fill="none" stroke-width="0.533489" stroke-linecap="butt" stroke-linejoin="round" stroke="rgb(92.156863%, 92.156863%, 92.156863%)" stroke-opacity="1" stroke-miterlimit="10" d="M 50.152344 61.058594 L 498.519531 61.058594 "/>
</g>
<g clip-path="url(#clip-4)">
<path fill="none" stroke-width="0.533489" stroke-linecap="butt" stroke-linejoin="round" stroke="rgb(92.156863%, 92.156863%, 92.156863%)" stroke-opacity="1" stroke-miterlimit="10" d="M 50.152344 46.5 L 498.519531 46.5 "/>
</g>
<g clip-path="url(#clip-5)">
<path fill="none" stroke-width="0.533489" stroke-linecap="butt" stroke-linejoin="round" stroke="rgb(92.156863%, 92.156863%, 92.156863%)" stroke-opacity="1" stroke-miterlimit="10" d="M 50.152344 31.941406 L 498.519531 31.941406 "/>
</g>
<g clip-path="url(#clip-6)">
<path fill="none" stroke-width="0.533489" stroke-linecap="butt" stroke-linejoin="round" stroke="rgb(92.156863%, 92.156863%, 92.156863%)" stroke-opacity="1" stroke-miterlimit="10" d="M 121.480469 99.460938 L 121.480469 23.246094 "/>
</g>
<g clip-path="url(#clip-7)">
<path fill="none" stroke-width="0.533489" stroke-linecap="butt" stroke-linejoin="round" stroke="rgb(92.156863%, 92.156863%, 92.156863%)" stroke-opacity="1" stroke-miterlimit="10" d="M 223.382812 99.460938 L 223.382812 23.246094 "/>
</g>
<g clip-path="url(#clip-8)">
<path fill="none" stroke-width="0.533489" stroke-linecap="butt" stroke-linejoin="round" stroke="rgb(92.156863%, 92.156863%, 92.156863%)" stroke-opacity="1" stroke-miterlimit="10" d="M 325.285156 99.460938 L 325.285156 23.246094 "/>
</g>
<g clip-path="url(#clip-9)">
<path fill="none" stroke-width="0.533489" stroke-linecap="butt" stroke-linejoin="round" stroke="rgb(92.156863%, 92.156863%, 92.156863%)" stroke-opacity="1" stroke-miterlimit="10" d="M 427.1875 99.460938 L 427.1875 23.246094 "/>
</g>
<g clip-path="url(#clip-10)">
<path fill="none" stroke-width="1.066978" stroke-linecap="butt" stroke-linejoin="round" stroke="rgb(92.156863%, 92.156863%, 92.156863%)" stroke-opacity="1" stroke-miterlimit="10" d="M 50.152344 97.453125 L 498.519531 97.453125 "/>
</g>
<g clip-path="url(#clip-11)">
<path fill="none" stroke-width="1.066978" stroke-linecap="butt" stroke-linejoin="round" stroke="rgb(92.156863%, 92.156863%, 92.156863%)" stroke-opacity="1" stroke-miterlimit="10" d="M 50.152344 82.894531 L 498.519531 82.894531 "/>
</g>
<g clip-path="url(#clip-12)">
<path fill="none" stroke-width="1.066978" stroke-linecap="butt" stroke-linejoin="round" stroke="rgb(92.156863%, 92.156863%, 92.156863%)" stroke-opacity="1" stroke-miterlimit="10" d="M 50.152344 68.335938 L 498.519531 68.335938 "/>
</g>
<g clip-path="url(#clip-13)">
<path fill="none" stroke-width="1.066978" stroke-linecap="butt" stroke-linejoin="round" stroke="rgb(92.156863%, 92.156863%, 92.156863%)" stroke-opacity="1" stroke-miterlimit="10" d="M 50.152344 53.78125 L 498.519531 53.78125 "/>
</g>
<g clip-path="url(#clip-14)">
<path fill="none" stroke-width="1.066978" stroke-linecap="butt" stroke-linejoin="round" stroke="rgb(92.156863%, 92.156863%, 92.156863%)" stroke-opacity="1" stroke-miterlimit="10" d="M 50.152344 39.222656 L 498.519531 39.222656 "/>
</g>
<g clip-path="url(#clip-15)">
<path fill="none" stroke-width="1.066978" stroke-linecap="butt" stroke-linejoin="round" stroke="rgb(92.156863%, 92.156863%, 92.156863%)" stroke-opacity="1" stroke-miterlimit="10" d="M 50.152344 24.664062 L 498.519531 24.664062 "/>
</g>
<g clip-path="url(#clip-16)">
<path fill="none" stroke-width="1.066978" stroke-linecap="butt" stroke-linejoin="round" stroke="rgb(92.156863%, 92.156863%, 92.156863%)" stroke-opacity="1" stroke-miterlimit="10" d="M 70.53125 99.460938 L 70.53125 23.246094 "/>
</g>
<g clip-path="url(#clip-17)">
<path fill="none" stroke-width="1.066978" stroke-linecap="butt" stroke-linejoin="round" stroke="rgb(92.156863%, 92.156863%, 92.156863%)" stroke-opacity="1" stroke-miterlimit="10" d="M 172.433594 99.460938 L 172.433594 23.246094 "/>
</g>
<g clip-path="url(#clip-18)">
<path fill="none" stroke-width="1.066978" stroke-linecap="butt" stroke-linejoin="round" stroke="rgb(92.156863%, 92.156863%, 92.156863%)" stroke-opacity="1" stroke-miterlimit="10" d="M 274.335938 99.460938 L 274.335938 23.246094 "/>
</g>
<g clip-path="url(#clip-19)">
<path fill="none" stroke-width="1.066978" stroke-linecap="butt" stroke-linejoin="round" stroke="rgb(92.156863%, 92.156863%, 92.156863%)" stroke-opacity="1" stroke-miterlimit="10" d="M 376.238281 99.460938 L 376.238281 23.246094 "/>
</g>
<g clip-path="url(#clip-20)">
<path fill="none" stroke-width="1.066978" stroke-linecap="butt" stroke-linejoin="round" stroke="rgb(92.156863%, 92.156863%, 92.156863%)" stroke-opacity="1" stroke-miterlimit="10" d="M 478.140625 99.460938 L 478.140625 23.246094 "/>
</g>
<path fill="none" stroke-width="1.066978" stroke-linecap="butt" stroke-linejoin="round" stroke="rgb(0%, 0%, 0%)" stroke-opacity="1" stroke-miterlimit="10" d="M 70.53125 78.984375 L 71.550781 85.273438 L 72.570312 90.09375 L 73.589844 91.59375 L 74.605469 93.269531 L 75.625 92.09375 L 76.644531 90.113281 L 77.664062 87.234375 L 78.683594 78.121094 L 79.703125 67.960938 L 80.722656 54.464844 L 81.742188 57.660156 L 82.757812 46.742188 L 83.777344 40.976562 L 84.796875 41.785156 L 85.816406 43.367188 L 86.835938 39.039062 L 87.855469 44.355469 L 88.875 43.421875 L 89.890625 49.710938 L 90.910156 46.851562 L 91.929688 52.152344 L 92.949219 46.488281 L 93.96875 55.210938 L 94.988281 53.484375 L 96.007812 53.875 L 97.027344 61.4375 L 98.042969 65.351562 L 99.0625 62.753906 L 100.082031 69.613281 L 101.101562 75.046875 L 102.121094 80.207031 L 103.140625 81.90625 L 104.160156 88.796875 L 105.179688 91.496094 L 106.195312 93.398438 L 107.214844 93.058594 L 108.234375 92.617188 L 109.253906 89.597656 L 110.273438 83.316406 L 111.292969 73.519531 L 112.3125 56.582031 L 113.328125 53.863281 L 114.347656 39.351562 L 115.367188 49.214844 L 116.386719 49.152344 L 117.40625 26.710938 L 118.425781 37.914062 L 119.445312 38.472656 L 120.464844 45.144531 L 121.480469 37.867188 L 122.5 43.046875 L 123.519531 47.703125 L 124.539062 44.859375 L 125.558594 34.300781 L 126.578125 46.433594 L 127.597656 55.675781 L 128.617188 46.113281 L 129.632812 50.210938 L 130.652344 56.890625 L 131.671875 57.097656 L 132.691406 60.695312 L 133.710938 56.238281 L 134.730469 64.3125 L 135.75 64.445312 L 136.769531 64.8125 L 137.785156 71.710938 L 138.804688 69.125 L 139.824219 75.605469 L 140.84375 79.269531 L 141.863281 82 L 142.882812 86.980469 L 143.902344 87.742188 L 144.917969 90.820312 L 145.9375 92.316406 L 146.957031 90.777344 L 147.976562 85.875 L 148.996094 82.125 L 150.015625 69.195312 L 151.035156 60.804688 L 152.054688 51.808594 L 153.070312 51.402344 L 154.089844 48.789062 L 155.109375 45.230469 L 156.128906 47.289062 L 157.148438 48.785156 L 158.167969 50.089844 L 159.1875 53.488281 L 160.207031 55.875 L 161.222656 51.113281 L 162.242188 53.324219 L 163.261719 61.445312 L 164.28125 53.460938 L 165.300781 59.464844 L 166.320312 57.980469 L 167.339844 66.800781 L 168.355469 66 L 169.375 60.515625 L 170.394531 71.433594 L 171.414062 72.210938 L 172.433594 67.96875 L 173.453125 65.523438 L 174.472656 72.9375 L 175.492188 66.464844 L 176.507812 70.519531 L 177.527344 64.292969 L 178.546875 66.640625 L 179.566406 65.304688 L 180.585938 68.792969 L 181.605469 64.570312 L 182.625 67.976562 L 183.644531 72.277344 L 184.660156 76.617188 L 185.679688 76.585938 L 186.699219 78.257812 L 187.71875 78.871094 L 188.738281 82.695312 L 189.757812 80.734375 L 190.777344 86.75 L 191.792969 86.441406 L 192.8125 86.527344 L 193.832031 85.859375 L 194.851562 81.710938 L 195.871094 82.628906 L 196.890625 77.34375 L 197.910156 70.742188 L 198.929688 65.046875 L 199.945312 61.003906 L 200.964844 60.875 L 201.984375 62.855469 L 203.003906 50.894531 L 204.023438 56.78125 L 205.042969 72.636719 L 206.0625 65.007812 L 207.082031 65.957031 L 208.097656 70.625 L 209.117188 79.058594 L 210.136719 81.390625 L 211.15625 82.578125 L 212.175781 85.199219 L 213.195312 86.363281 L 214.214844 87.113281 L 215.230469 85.644531 L 216.25 82.375 L 217.269531 80.144531 L 218.289062 71.363281 L 219.308594 65.308594 L 220.328125 59.085938 L 221.347656 54.425781 L 222.367188 55.570312 L 223.382812 48.582031 L 224.402344 47.277344 L 225.421875 53.65625 L 226.441406 56.902344 L 227.460938 54.074219 L 228.480469 54.714844 L 229.5 63.757812 L 230.519531 57.347656 L 231.535156 62.683594 L 232.554688 65.390625 L 233.574219 74.003906 L 234.59375 76.164062 L 235.613281 81.851562 L 236.632812 85.179688 L 237.652344 89.332031 L 238.667969 90.371094 L 239.6875 90.082031 L 240.707031 87.753906 L 241.726562 80.875 L 242.746094 76.632812 L 243.765625 65.277344 L 244.785156 58.785156 L 245.804688 59.238281 L 246.820312 49.957031 L 247.839844 46.621094 L 248.859375 56.832031 L 249.878906 47.75 L 250.898438 48.648438 L 251.917969 57.816406 L 252.9375 54.628906 L 253.957031 55.53125 L 254.972656 63.378906 L 255.992188 66.566406 L 257.011719 56.097656 L 258.03125 63.109375 L 259.050781 76.675781 L 260.070312 78.777344 L 261.089844 83.152344 L 262.105469 92.382812 L 263.125 94.734375 L 264.144531 95.996094 L 265.164062 95.804688 L 266.183594 94.800781 L 267.203125 92.8125 L 268.222656 86.964844 L 269.242188 74.21875 L 270.257812 61.894531 L 271.277344 49.0625 L 272.296875 40.6875 L 273.316406 51.71875 L 274.335938 39.472656 L 275.355469 48.859375 L 276.375 49.226562 L 277.394531 50.609375 L 278.410156 47.851562 L 279.429688 43.566406 L 280.449219 51.707031 L 281.46875 44.710938 L 282.488281 31.105469 L 283.507812 43.269531 L 284.527344 50.429688 L 285.542969 45.316406 L 286.5625 57.597656 L 287.582031 51.269531 L 288.601562 65.625 L 289.621094 59.230469 L 290.640625 66.871094 L 291.660156 64.605469 L 292.679688 69.402344 L 293.695312 67.828125 L 294.714844 77.429688 L 295.734375 80.132812 L 296.753906 81.230469 L 297.773438 87.738281 L 298.792969 90.226562 L 299.8125 92.660156 L 300.832031 92.523438 L 301.847656 91.042969 L 302.867188 86.914062 L 303.886719 79.695312 L 304.90625 66.382812 L 305.925781 64.304688 L 306.945312 44.578125 L 307.964844 45.296875 L 308.980469 33.777344 L 310 42.476562 L 311.019531 46.503906 L 312.039062 48.066406 L 313.058594 31.765625 L 314.078125 44.425781 L 315.097656 39.023438 L 316.117188 45.226562 L 317.132812 40.328125 L 318.152344 29.273438 L 319.171875 49.699219 L 320.191406 44.878906 L 321.210938 41.96875 L 322.230469 41.789062 L 323.25 45.1875 L 324.269531 45.203125 L 325.285156 46.105469 L 326.304688 51.492188 L 327.324219 47.664062 L 328.34375 50.898438 L 329.363281 44.878906 L 330.382812 45.816406 L 331.402344 51.601562 L 332.417969 62.679688 L 333.4375 54.097656 L 334.457031 58.898438 L 335.476562 67.535156 L 336.496094 69.125 L 337.515625 75.945312 L 338.535156 73.632812 L 339.554688 78.101562 L 340.570312 86.324219 L 341.589844 85.15625 L 342.609375 87.152344 L 343.628906 83.371094 L 344.648438 81.613281 L 345.667969 78.363281 L 346.6875 70.007812 L 347.707031 66.863281 L 348.722656 65.152344 L 349.742188 61.410156 L 350.761719 53.628906 L 351.78125 54.796875 L 352.800781 50.382812 L 353.820312 55.550781 L 354.839844 57.457031 L 355.855469 56.960938 L 356.875 66.457031 L 357.894531 62.949219 L 358.914062 67.183594 L 359.933594 68.074219 L 360.953125 69.667969 L 361.972656 72.859375 L 362.992188 73.25 L 364.007812 77.980469 L 365.027344 81.140625 L 366.046875 79.878906 L 367.066406 79.566406 L 368.085938 76.96875 L 369.105469 74.996094 L 370.125 70.496094 L 371.144531 68.511719 L 372.160156 73.367188 L 373.179688 72.765625 L 374.199219 72.210938 L 375.21875 68.90625 L 376.238281 76.847656 L 377.257812 78.160156 L 378.277344 82.179688 L 379.296875 85.285156 L 380.3125 83.328125 L 381.332031 83.53125 L 382.351562 79.15625 L 383.371094 76.199219 L 384.390625 72.105469 L 385.410156 68.574219 L 386.429688 64.183594 L 387.445312 50.027344 L 388.464844 59.273438 L 389.484375 51.355469 L 390.503906 54.757812 L 391.523438 51.355469 L 392.542969 53.804688 L 393.5625 63.054688 L 394.582031 61.289062 L 395.597656 68.261719 L 396.617188 67.371094 L 397.636719 65.609375 L 398.65625 71.230469 L 399.675781 71.671875 L 400.695312 76.644531 L 401.714844 73.539062 L 402.734375 68.945312 L 403.75 73.980469 L 404.769531 66.6875 L 405.789062 73.796875 L 406.808594 73.207031 L 407.828125 69.636719 L 408.847656 69.589844 L 409.867188 73.792969 L 410.882812 69.972656 L 411.902344 72.832031 L 412.921875 71.496094 L 413.941406 75.542969 L 414.960938 77.574219 L 415.980469 79.527344 L 417 79.378906 L 418.019531 78.921875 L 419.035156 81.714844 L 420.054688 82.570312 L 421.074219 86.105469 L 422.09375 83.847656 L 423.113281 81.4375 L 424.132812 76.144531 L 425.152344 71.96875 L 426.171875 70.246094 L 427.1875 59.78125 L 428.207031 59.089844 L 429.226562 51.9375 L 430.246094 57.636719 L 431.265625 58.121094 L 432.285156 56.925781 L 433.304688 65.253906 L 434.320312 64.925781 L 435.339844 65.371094 L 436.359375 66.6875 L 437.378906 72.847656 L 438.398438 74.8125 L 439.417969 81.699219 L 440.4375 83.621094 L 441.457031 88.035156 L 442.472656 85.933594 L 443.492188 85.636719 L 444.511719 81.453125 L 445.53125 81.265625 L 446.550781 68.757812 L 447.570312 63.578125 L 448.589844 66.46875 L 449.609375 63.164062 L 450.625 67.171875 L 451.644531 60.796875 L 452.664062 59.578125 L 453.683594 65.144531 L 454.703125 65.035156 L 455.722656 67.789062 L 456.742188 63.402344 L 457.757812 67.035156 L 458.777344 70.515625 L 459.796875 76.84375 L 460.816406 78.4375 L 461.835938 82.890625 L 462.855469 83.894531 L 463.875 86.746094 L 464.894531 89.105469 L 465.910156 85.195312 L 466.929688 82.234375 L 467.949219 74.757812 L 468.96875 64.394531 L 469.988281 54.753906 L 471.007812 50.316406 L 472.027344 55.878906 L 473.046875 43.238281 L 474.0625 52.566406 L 475.082031 47.023438 L 476.101562 56.113281 L 477.121094 51.65625 L 478.140625 51.542969 "/>
<g clip-path="url(#clip-21)">
<path fill="none" stroke-width="1.066978" stroke-linecap="round" stroke-linejoin="round" stroke="rgb(20%, 20%, 20%)" stroke-opacity="1" stroke-miterlimit="10" d="M 50.152344 99.460938 L 498.523438 99.460938 L 498.523438 23.246094 L 50.152344 23.246094 Z M 50.152344 99.460938 "/>
</g>
<g clip-path="url(#clip-22)">
<path fill-rule="nonzero" fill="rgb(100%, 100%, 100%)" fill-opacity="1" d="M 50.152344 198.925781 L 498.523438 198.925781 L 498.523438 122.710938 L 50.152344 122.710938 Z M 50.152344 198.925781 "/>
</g>
<g clip-path="url(#clip-23)">
<path fill="none" stroke-width="0.533489" stroke-linecap="butt" stroke-linejoin="round" stroke="rgb(92.156863%, 92.156863%, 92.156863%)" stroke-opacity="1" stroke-miterlimit="10" d="M 50.152344 191.113281 L 498.519531 191.113281 "/>
</g>
<g clip-path="url(#clip-24)">
<path fill="none" stroke-width="0.533489" stroke-linecap="butt" stroke-linejoin="round" stroke="rgb(92.156863%, 92.156863%, 92.156863%)" stroke-opacity="1" stroke-miterlimit="10" d="M 50.152344 176.851562 L 498.519531 176.851562 "/>
</g>
<g clip-path="url(#clip-25)">
<path fill="none" stroke-width="0.533489" stroke-linecap="butt" stroke-linejoin="round" stroke="rgb(92.156863%, 92.156863%, 92.156863%)" stroke-opacity="1" stroke-miterlimit="10" d="M 50.152344 162.589844 L 498.519531 162.589844 "/>
</g>
<g clip-path="url(#clip-26)">
<path fill="none" stroke-width="0.533489" stroke-linecap="butt" stroke-linejoin="round" stroke="rgb(92.156863%, 92.156863%, 92.156863%)" stroke-opacity="1" stroke-miterlimit="10" d="M 50.152344 148.328125 L 498.519531 148.328125 "/>
</g>
<g clip-path="url(#clip-27)">
<path fill="none" stroke-width="0.533489" stroke-linecap="butt" stroke-linejoin="round" stroke="rgb(92.156863%, 92.156863%, 92.156863%)" stroke-opacity="1" stroke-miterlimit="10" d="M 50.152344 134.066406 L 498.519531 134.066406 "/>
</g>
<g clip-path="url(#clip-28)">
<path fill="none" stroke-width="0.533489" stroke-linecap="butt" stroke-linejoin="round" stroke="rgb(92.156863%, 92.156863%, 92.156863%)" stroke-opacity="1" stroke-miterlimit="10" d="M 121.480469 198.925781 L 121.480469 122.707031 "/>
</g>
<g clip-path="url(#clip-29)">
<path fill="none" stroke-width="0.533489" stroke-linecap="butt" stroke-linejoin="round" stroke="rgb(92.156863%, 92.156863%, 92.156863%)" stroke-opacity="1" stroke-miterlimit="10" d="M 223.382812 198.925781 L 223.382812 122.707031 "/>
</g>
<g clip-path="url(#clip-30)">
<path fill="none" stroke-width="0.533489" stroke-linecap="butt" stroke-linejoin="round" stroke="rgb(92.156863%, 92.156863%, 92.156863%)" stroke-opacity="1" stroke-miterlimit="10" d="M 325.285156 198.925781 L 325.285156 122.707031 "/>
</g>
<g clip-path="url(#clip-31)">
<path fill="none" stroke-width="0.533489" stroke-linecap="butt" stroke-linejoin="round" stroke="rgb(92.156863%, 92.156863%, 92.156863%)" stroke-opacity="1" stroke-miterlimit="10" d="M 427.1875 198.925781 L 427.1875 122.707031 "/>
</g>
<g clip-path="url(#clip-32)">
<path fill="none" stroke-width="1.066978" stroke-linecap="butt" stroke-linejoin="round" stroke="rgb(92.156863%, 92.156863%, 92.156863%)" stroke-opacity="1" stroke-miterlimit="10" d="M 50.152344 198.242188 L 498.519531 198.242188 "/>
</g>
<g clip-path="url(#clip-33)">
<path fill="none" stroke-width="1.066978" stroke-linecap="butt" stroke-linejoin="round" stroke="rgb(92.156863%, 92.156863%, 92.156863%)" stroke-opacity="1" stroke-miterlimit="10" d="M 50.152344 183.980469 L 498.519531 183.980469 "/>
</g>
<g clip-path="url(#clip-34)">
<path fill="none" stroke-width="1.066978" stroke-linecap="butt" stroke-linejoin="round" stroke="rgb(92.156863%, 92.156863%, 92.156863%)" stroke-opacity="1" stroke-miterlimit="10" d="M 50.152344 169.71875 L 498.519531 169.71875 "/>
</g>
<g clip-path="url(#clip-35)">
<path fill="none" stroke-width="1.066978" stroke-linecap="butt" stroke-linejoin="round" stroke="rgb(92.156863%, 92.156863%, 92.156863%)" stroke-opacity="1" stroke-miterlimit="10" d="M 50.152344 155.457031 L 498.519531 155.457031 "/>
</g>
<g clip-path="url(#clip-36)">
<path fill="none" stroke-width="1.066978" stroke-linecap="butt" stroke-linejoin="round" stroke="rgb(92.156863%, 92.156863%, 92.156863%)" stroke-opacity="1" stroke-miterlimit="10" d="M 50.152344 141.195312 L 498.519531 141.195312 "/>
</g>
<g clip-path="url(#clip-37)">
<path fill="none" stroke-width="1.066978" stroke-linecap="butt" stroke-linejoin="round" stroke="rgb(92.156863%, 92.156863%, 92.156863%)" stroke-opacity="1" stroke-miterlimit="10" d="M 50.152344 126.933594 L 498.519531 126.933594 "/>
</g>
<g clip-path="url(#clip-38)">
<path fill="none" stroke-width="1.066978" stroke-linecap="butt" stroke-linejoin="round" stroke="rgb(92.156863%, 92.156863%, 92.156863%)" stroke-opacity="1" stroke-miterlimit="10" d="M 70.53125 198.925781 L 70.53125 122.707031 "/>
</g>
<g clip-path="url(#clip-39)">
<path fill="none" stroke-width="1.066978" stroke-linecap="butt" stroke-linejoin="round" stroke="rgb(92.156863%, 92.156863%, 92.156863%)" stroke-opacity="1" stroke-miterlimit="10" d="M 172.433594 198.925781 L 172.433594 122.707031 "/>
</g>
<g clip-path="url(#clip-40)">
<path fill="none" stroke-width="1.066978" stroke-linecap="butt" stroke-linejoin="round" stroke="rgb(92.156863%, 92.156863%, 92.156863%)" stroke-opacity="1" stroke-miterlimit="10" d="M 274.335938 198.925781 L 274.335938 122.707031 "/>
</g>
<g clip-path="url(#clip-41)">
<path fill="none" stroke-width="1.066978" stroke-linecap="butt" stroke-linejoin="round" stroke="rgb(92.156863%, 92.156863%, 92.156863%)" stroke-opacity="1" stroke-miterlimit="10" d="M 376.238281 198.925781 L 376.238281 122.707031 "/>
</g>
<g clip-path="url(#clip-42)">
<path fill="none" stroke-width="1.066978" stroke-linecap="butt" stroke-linejoin="round" stroke="rgb(92.156863%, 92.156863%, 92.156863%)" stroke-opacity="1" stroke-miterlimit="10" d="M 478.140625 198.925781 L 478.140625 122.707031 "/>
</g>
<path fill="none" stroke-width="1.066978" stroke-linecap="butt" stroke-linejoin="round" stroke="rgb(0%, 0%, 0%)" stroke-opacity="1" stroke-miterlimit="10" d="M 70.53125 150.914062 L 71.550781 150.960938 L 72.570312 155.324219 L 73.589844 166.820312 L 74.605469 171.574219 L 75.625 181.792969 L 76.644531 185.25 L 77.664062 190.050781 L 78.683594 186.894531 L 79.703125 188.386719 L 80.722656 189.457031 L 81.742188 186.253906 L 82.757812 184.609375 L 83.777344 188.867188 L 84.796875 184.375 L 85.816406 187.992188 L 86.835938 184.070312 L 87.855469 180.804688 L 88.875 178.773438 L 89.890625 177.183594 L 90.910156 173.320312 L 91.929688 171.324219 L 92.949219 168.910156 L 93.96875 169.511719 L 94.988281 159.855469 L 96.007812 160.738281 L 97.027344 155.664062 L 98.042969 149.792969 L 99.0625 150.6875 L 100.082031 126.171875 L 101.101562 141.078125 L 102.121094 149.988281 L 103.140625 136.394531 L 104.160156 159.445312 L 105.179688 157.261719 L 106.195312 171.039062 L 107.214844 177.828125 L 108.234375 185.65625 L 109.253906 187.273438 L 110.273438 191.957031 L 111.292969 192 L 112.3125 192.851562 L 113.328125 191.574219 L 114.347656 192.613281 L 115.367188 190.878906 L 116.386719 187.75 L 117.40625 188.210938 L 118.425781 188.007812 L 119.445312 183.890625 L 120.464844 183.757812 L 121.480469 184.140625 L 122.5 182.253906 L 123.519531 181.734375 L 124.539062 174.285156 L 125.558594 176.945312 L 126.578125 174.078125 L 127.597656 169.660156 L 128.617188 172.148438 L 129.632812 166.238281 L 130.652344 165.238281 L 131.671875 169.59375 L 132.691406 159.613281 L 133.710938 158.265625 L 134.730469 148.8125 L 135.75 150.84375 L 136.769531 147.945312 L 137.785156 145.875 L 138.804688 146.972656 L 139.824219 139.929688 L 140.84375 135.402344 L 141.863281 142.199219 L 142.882812 148.390625 L 143.902344 152.953125 L 144.917969 164.152344 L 145.9375 172.21875 L 146.957031 180.949219 L 147.976562 183.539062 L 148.996094 186.886719 L 150.015625 186.230469 L 151.035156 187.46875 L 152.054688 186.894531 L 153.070312 181.769531 L 154.089844 179.511719 L 155.109375 179.585938 L 156.128906 173.582031 L 157.148438 171.691406 L 158.167969 169.335938 L 159.1875 172.445312 L 160.207031 167.859375 L 161.222656 167.882812 L 162.242188 162.539062 L 163.261719 161.0625 L 164.28125 156.472656 L 165.300781 156.566406 L 166.320312 144.988281 L 167.339844 149.898438 L 168.355469 146.101562 L 169.375 156.148438 L 170.394531 153.488281 L 171.414062 143.949219 L 172.433594 149.613281 L 173.453125 160.507812 L 174.472656 156.175781 L 175.492188 151.890625 L 176.507812 155.390625 L 177.527344 154.535156 L 178.546875 151.53125 L 179.566406 149.910156 L 180.585938 156.1875 L 181.605469 155.425781 L 182.625 151.71875 L 183.644531 149.738281 L 184.660156 140.355469 L 185.679688 144.078125 L 186.699219 157.75 L 187.71875 156.890625 L 188.738281 152.414062 L 189.757812 148.917969 L 190.777344 162.035156 L 191.792969 163.648438 L 192.8125 160.496094 L 193.832031 173.699219 L 194.851562 169.109375 L 195.871094 171.460938 L 196.890625 170.609375 L 197.910156 169.289062 L 198.929688 171.585938 L 199.945312 164.988281 L 200.964844 155.078125 L 201.984375 160.058594 L 203.003906 154.761719 L 204.023438 157.632812 L 205.042969 153.964844 L 206.0625 145.417969 L 207.082031 148.980469 L 208.097656 151.542969 L 209.117188 150.988281 L 210.136719 158.300781 L 211.15625 149.257812 L 212.175781 152.9375 L 213.195312 162.253906 L 214.214844 162.539062 L 215.230469 164.679688 L 216.25 170.667969 L 217.269531 174.347656 L 218.289062 177.832031 L 219.308594 169.414062 L 220.328125 175.996094 L 221.347656 166.710938 L 222.367188 173.605469 L 223.382812 172.78125 L 224.402344 169.398438 L 225.421875 171.261719 L 226.441406 164.941406 L 227.460938 161.949219 L 228.480469 156.953125 L 229.5 151.550781 L 230.519531 156.808594 L 231.535156 139.410156 L 232.554688 144.214844 L 233.574219 139.695312 L 234.59375 138.863281 L 235.613281 143.707031 L 236.632812 155.664062 L 237.652344 158.933594 L 238.667969 167.910156 L 239.6875 171.070312 L 240.707031 169.355469 L 241.726562 178.101562 L 242.746094 182.367188 L 243.765625 178.335938 L 244.785156 176.566406 L 245.804688 174.695312 L 246.820312 176.777344 L 247.839844 174.492188 L 248.859375 170.015625 L 249.878906 169.320312 L 250.898438 167.65625 L 251.917969 160.378906 L 252.9375 160.375 L 253.957031 164.066406 L 254.972656 161.757812 L 255.992188 150.726562 L 257.011719 149.925781 L 258.03125 144.378906 L 259.050781 127.5625 L 260.070312 139.652344 L 261.089844 142.628906 L 262.105469 151.28125 L 263.125 161.984375 L 264.144531 177.082031 L 265.164062 185.148438 L 266.183594 189.507812 L 267.203125 192.773438 L 268.222656 195.460938 L 269.242188 194.507812 L 270.257812 193.988281 L 271.277344 192.519531 L 272.296875 192.085938 L 273.316406 190.664062 L 274.335938 186.347656 L 275.355469 185.535156 L 276.375 185.679688 L 277.394531 180.9375 L 278.410156 180.144531 L 279.429688 182.960938 L 280.449219 181.851562 L 281.46875 175.457031 L 282.488281 176.742188 L 283.507812 172.027344 L 284.527344 169.878906 L 285.542969 169.175781 L 286.5625 163.757812 L 287.582031 155.546875 L 288.601562 150.46875 L 289.621094 136.925781 L 290.640625 157.707031 L 291.660156 147.898438 L 292.679688 145.476562 L 293.695312 152.304688 L 294.714844 142.933594 L 295.734375 147.773438 L 296.753906 147.261719 L 297.773438 149.980469 L 298.792969 159.652344 L 299.8125 171.082031 L 300.832031 175.636719 L 301.847656 183.570312 L 302.867188 187.5 L 303.886719 189.644531 L 304.90625 189.070312 L 305.925781 191.011719 L 306.945312 191.160156 L 307.964844 190.773438 L 308.980469 192.8125 L 310 191.949219 L 311.019531 192.53125 L 312.039062 190.917969 L 313.058594 190.984375 L 314.078125 188.316406 L 315.097656 188.289062 L 316.117188 188.867188 L 317.132812 187.375 L 318.152344 186.324219 L 319.171875 184.648438 L 320.191406 185.878906 L 321.210938 181.550781 L 322.230469 178.671875 L 323.25 177.644531 L 324.269531 180.519531 L 325.285156 179.496094 L 326.304688 173.671875 L 327.324219 168.472656 L 328.34375 170.308594 L 329.363281 170.132812 L 330.382812 162.796875 L 331.402344 164.25 L 332.417969 161.261719 L 333.4375 160.765625 L 334.457031 157.371094 L 335.476562 157.574219 L 336.496094 149.289062 L 337.515625 139.988281 L 338.535156 141.027344 L 339.554688 147.367188 L 340.570312 156.441406 L 341.589844 160.011719 L 342.609375 163.929688 L 343.628906 175.582031 L 344.648438 174.859375 L 345.667969 174.453125 L 346.6875 175.015625 L 347.707031 174.492188 L 348.722656 173.894531 L 349.742188 170.421875 L 350.761719 160.664062 L 351.78125 167.863281 L 352.800781 164.101562 L 353.820312 157.777344 L 354.839844 157.792969 L 355.855469 157.410156 L 356.875 150.476562 L 357.894531 154.984375 L 358.914062 152.929688 L 359.933594 145.121094 L 360.953125 143.011719 L 361.972656 156.222656 L 362.992188 145.929688 L 364.007812 138.863281 L 365.027344 164.234375 L 366.046875 155.101562 L 367.066406 160.0625 L 368.085938 156.351562 L 369.105469 164.871094 L 370.125 152.410156 L 371.144531 164.257812 L 372.160156 156 L 373.179688 150.480469 L 374.199219 148.855469 L 375.21875 145.339844 L 376.238281 146.933594 L 377.257812 144.933594 L 378.277344 154.304688 L 379.296875 155.441406 L 380.3125 164.019531 L 381.332031 161.746094 L 382.351562 169.578125 L 383.371094 166.566406 L 384.390625 176.886719 L 385.410156 173.007812 L 386.429688 174.027344 L 387.445312 173.6875 L 388.464844 168.738281 L 389.484375 168.5625 L 390.503906 164.179688 L 391.523438 159.109375 L 392.542969 153.6875 L 393.5625 157.964844 L 394.582031 155.28125 L 395.597656 155.632812 L 396.617188 154.40625 L 397.636719 143.703125 L 398.65625 136.742188 L 399.675781 144.867188 L 400.695312 151.308594 L 401.714844 153.554688 L 402.734375 156.367188 L 403.75 156.125 L 404.769531 159.671875 L 405.789062 158.496094 L 406.808594 153.496094 L 407.828125 151.445312 L 408.847656 159.246094 L 409.867188 150.171875 L 410.882812 156.210938 L 411.902344 150.976562 L 412.921875 148.296875 L 413.941406 152.902344 L 414.960938 150.53125 L 415.980469 151.199219 L 417 152.371094 L 418.019531 154.183594 L 419.035156 154.746094 L 420.054688 161.964844 L 421.074219 156.082031 L 422.09375 169.589844 L 423.113281 171.722656 L 424.132812 166.855469 L 425.152344 168.742188 L 426.171875 170.640625 L 427.1875 161.640625 L 428.207031 166.246094 L 429.226562 161.769531 L 430.246094 160.296875 L 431.265625 161.605469 L 432.285156 154.390625 L 433.304688 157.9375 L 434.320312 149.292969 L 435.339844 146.761719 L 436.359375 158.570312 L 437.378906 145.953125 L 438.398438 143.441406 L 439.417969 149.234375 L 440.4375 141.9375 L 441.457031 157.210938 L 442.472656 164.21875 L 443.492188 171.367188 L 444.511719 168.3125 L 445.53125 167.957031 L 446.550781 176.089844 L 447.570312 171.726562 L 448.589844 169.851562 L 449.609375 163.101562 L 450.625 165.703125 L 451.644531 161.074219 L 452.664062 162.679688 L 453.683594 160.101562 L 454.703125 153.121094 L 455.722656 150.964844 L 456.742188 139.550781 L 457.757812 149.617188 L 458.777344 145.878906 L 459.796875 147.148438 L 460.816406 147.234375 L 461.835938 152.484375 L 462.855469 160.730469 L 463.875 160.019531 L 464.894531 173.828125 L 465.910156 169.710938 L 466.929688 177.574219 L 467.949219 180.683594 L 468.96875 181.304688 L 469.988281 181.894531 L 471.007812 182.007812 L 472.027344 175.96875 L 473.046875 175.070312 L 474.0625 177.703125 L 475.082031 173.621094 L 476.101562 172.660156 L 477.121094 169.21875 L 478.140625 167.945312 "/>
<g clip-path="url(#clip-43)">
<path fill="none" stroke-width="1.066978" stroke-linecap="round" stroke-linejoin="round" stroke="rgb(20%, 20%, 20%)" stroke-opacity="1" stroke-miterlimit="10" d="M 50.152344 198.925781 L 498.523438 198.925781 L 498.523438 122.710938 L 50.152344 122.710938 Z M 50.152344 198.925781 "/>
</g>
<g clip-path="url(#clip-44)">
<path fill-rule="nonzero" fill="rgb(100%, 100%, 100%)" fill-opacity="1" d="M 50.152344 298.386719 L 498.523438 298.386719 L 498.523438 222.171875 L 50.152344 222.171875 Z M 50.152344 298.386719 "/>
</g>
<g clip-path="url(#clip-45)">
<path fill="none" stroke-width="0.533489" stroke-linecap="butt" stroke-linejoin="round" stroke="rgb(92.156863%, 92.156863%, 92.156863%)" stroke-opacity="1" stroke-miterlimit="10" d="M 50.152344 297.054688 L 498.519531 297.054688 "/>
</g>
<g clip-path="url(#clip-46)">
<path fill="none" stroke-width="0.533489" stroke-linecap="butt" stroke-linejoin="round" stroke="rgb(92.156863%, 92.156863%, 92.156863%)" stroke-opacity="1" stroke-miterlimit="10" d="M 50.152344 277.558594 L 498.519531 277.558594 "/>
</g>
<g clip-path="url(#clip-47)">
<path fill="none" stroke-width="0.533489" stroke-linecap="butt" stroke-linejoin="round" stroke="rgb(92.156863%, 92.156863%, 92.156863%)" stroke-opacity="1" stroke-miterlimit="10" d="M 50.152344 258.0625 L 498.519531 258.0625 "/>
</g>
<g clip-path="url(#clip-48)">
<path fill="none" stroke-width="0.533489" stroke-linecap="butt" stroke-linejoin="round" stroke="rgb(92.156863%, 92.156863%, 92.156863%)" stroke-opacity="1" stroke-miterlimit="10" d="M 50.152344 238.570312 L 498.519531 238.570312 "/>
</g>
<g clip-path="url(#clip-49)">
<path fill="none" stroke-width="0.533489" stroke-linecap="butt" stroke-linejoin="round" stroke="rgb(92.156863%, 92.156863%, 92.156863%)" stroke-opacity="1" stroke-miterlimit="10" d="M 121.480469 298.386719 L 121.480469 222.171875 "/>
</g>
<g clip-path="url(#clip-50)">
<path fill="none" stroke-width="0.533489" stroke-linecap="butt" stroke-linejoin="round" stroke="rgb(92.156863%, 92.156863%, 92.156863%)" stroke-opacity="1" stroke-miterlimit="10" d="M 223.382812 298.386719 L 223.382812 222.171875 "/>
</g>
<g clip-path="url(#clip-51)">
<path fill="none" stroke-width="0.533489" stroke-linecap="butt" stroke-linejoin="round" stroke="rgb(92.156863%, 92.156863%, 92.156863%)" stroke-opacity="1" stroke-miterlimit="10" d="M 325.285156 298.386719 L 325.285156 222.171875 "/>
</g>
<g clip-path="url(#clip-52)">
<path fill="none" stroke-width="0.533489" stroke-linecap="butt" stroke-linejoin="round" stroke="rgb(92.156863%, 92.156863%, 92.156863%)" stroke-opacity="1" stroke-miterlimit="10" d="M 427.1875 298.386719 L 427.1875 222.171875 "/>
</g>
<g clip-path="url(#clip-53)">
<path fill="none" stroke-width="1.066978" stroke-linecap="butt" stroke-linejoin="round" stroke="rgb(92.156863%, 92.156863%, 92.156863%)" stroke-opacity="1" stroke-miterlimit="10" d="M 50.152344 287.308594 L 498.519531 287.308594 "/>
</g>
<g clip-path="url(#clip-54)">
<path fill="none" stroke-width="1.066978" stroke-linecap="butt" stroke-linejoin="round" stroke="rgb(92.156863%, 92.156863%, 92.156863%)" stroke-opacity="1" stroke-miterlimit="10" d="M 50.152344 267.8125 L 498.519531 267.8125 "/>
</g>
<g clip-path="url(#clip-55)">
<path fill="none" stroke-width="1.066978" stroke-linecap="butt" stroke-linejoin="round" stroke="rgb(92.156863%, 92.156863%, 92.156863%)" stroke-opacity="1" stroke-miterlimit="10" d="M 50.152344 248.316406 L 498.519531 248.316406 "/>
</g>
<g clip-path="url(#clip-56)">
<path fill="none" stroke-width="1.066978" stroke-linecap="butt" stroke-linejoin="round" stroke="rgb(92.156863%, 92.156863%, 92.156863%)" stroke-opacity="1" stroke-miterlimit="10" d="M 50.152344 228.820312 L 498.519531 228.820312 "/>
</g>
<g clip-path="url(#clip-57)">
<path fill="none" stroke-width="1.066978" stroke-linecap="butt" stroke-linejoin="round" stroke="rgb(92.156863%, 92.156863%, 92.156863%)" stroke-opacity="1" stroke-miterlimit="10" d="M 70.53125 298.386719 L 70.53125 222.171875 "/>
</g>
<g clip-path="url(#clip-58)">
<path fill="none" stroke-width="1.066978" stroke-linecap="butt" stroke-linejoin="round" stroke="rgb(92.156863%, 92.156863%, 92.156863%)" stroke-opacity="1" stroke-miterlimit="10" d="M 172.433594 298.386719 L 172.433594 222.171875 "/>
</g>
<g clip-path="url(#clip-59)">
<path fill="none" stroke-width="1.066978" stroke-linecap="butt" stroke-linejoin="round" stroke="rgb(92.156863%, 92.156863%, 92.156863%)" stroke-opacity="1" stroke-miterlimit="10" d="M 274.335938 298.386719 L 274.335938 222.171875 "/>
</g>
<g clip-path="url(#clip-60)">
<path fill="none" stroke-width="1.066978" stroke-linecap="butt" stroke-linejoin="round" stroke="rgb(92.156863%, 92.156863%, 92.156863%)" stroke-opacity="1" stroke-miterlimit="10" d="M 376.238281 298.386719 L 376.238281 222.171875 "/>
</g>
<g clip-path="url(#clip-61)">
<path fill="none" stroke-width="1.066978" stroke-linecap="butt" stroke-linejoin="round" stroke="rgb(92.156863%, 92.156863%, 92.156863%)" stroke-opacity="1" stroke-miterlimit="10" d="M 478.140625 298.386719 L 478.140625 222.171875 "/>
</g>
<path fill="none" stroke-width="1.066978" stroke-linecap="butt" stroke-linejoin="round" stroke="rgb(0%, 0%, 0%)" stroke-opacity="1" stroke-miterlimit="10" d="M 70.53125 248.191406 L 71.550781 254.585938 L 72.570312 262.320312 L 73.589844 271.152344 L 74.605469 276.464844 L 75.625 274.804688 L 76.644531 266.890625 L 77.664062 256.453125 L 78.683594 245.996094 L 79.703125 237.503906 L 80.722656 231.984375 L 81.742188 228.894531 L 82.757812 227.519531 L 83.777344 226.800781 L 84.796875 226.578125 L 85.816406 226.554688 L 86.835938 226.71875 L 87.855469 226.828125 L 88.875 227.15625 L 89.890625 227.445312 L 90.910156 227.816406 L 91.929688 228.480469 L 92.949219 228.921875 L 93.96875 229.40625 L 94.988281 230.085938 L 96.007812 231.214844 L 97.027344 232.769531 L 98.042969 234.609375 L 99.0625 236.617188 L 100.082031 239.472656 L 101.101562 243.074219 L 102.121094 246.691406 L 103.140625 251.902344 L 104.160156 259.976562 L 105.179688 268.714844 L 106.195312 275.601562 L 107.214844 277.738281 L 108.234375 273.34375 L 109.253906 263.410156 L 110.273438 251.65625 L 111.292969 240.84375 L 112.3125 233.25 L 113.328125 229.011719 L 114.347656 227.050781 L 115.367188 226.210938 L 116.386719 226.042969 L 117.40625 226.070312 L 118.425781 226.109375 L 119.445312 226.273438 L 120.464844 226.445312 L 121.480469 226.5625 L 122.5 226.78125 L 123.519531 227.074219 L 124.539062 227.496094 L 125.558594 227.851562 L 126.578125 228.210938 L 127.597656 228.398438 L 128.617188 228.777344 L 129.632812 229.347656 L 130.652344 230.082031 L 131.671875 230.5625 L 132.691406 231.253906 L 133.710938 232.066406 L 134.730469 233.082031 L 135.75 234.855469 L 136.769531 236.917969 L 137.785156 238.722656 L 138.804688 240.429688 L 139.824219 242.648438 L 140.84375 246.40625 L 141.863281 250.816406 L 142.882812 256.484375 L 143.902344 262.625 L 144.917969 268.378906 L 145.9375 269.375 L 146.957031 265.917969 L 147.976562 258.621094 L 148.996094 249.121094 L 150.015625 240.328125 L 151.035156 233.90625 L 152.054688 230.101562 L 153.070312 228.40625 L 154.089844 227.730469 L 155.109375 227.546875 L 156.128906 227.632812 L 157.148438 227.9375 L 158.167969 228.386719 L 159.1875 228.8125 L 160.207031 229.277344 L 161.222656 229.855469 L 162.242188 230.390625 L 163.261719 231.199219 L 164.28125 232.167969 L 165.300781 233.164062 L 166.320312 234.101562 L 167.339844 235.230469 L 168.355469 236.546875 L 169.375 237.625 L 170.394531 238.671875 L 171.414062 239.480469 L 172.433594 239.617188 L 173.453125 239.203125 L 174.472656 238.199219 L 175.492188 237.75 L 176.507812 237.625 L 177.527344 237.675781 L 178.546875 237.730469 L 179.566406 237.957031 L 180.585938 237.925781 L 181.605469 237.824219 L 182.625 237.933594 L 183.644531 238.960938 L 184.660156 240.894531 L 185.679688 243.605469 L 186.699219 245.621094 L 187.71875 247.707031 L 188.738281 250.355469 L 189.757812 252.976562 L 190.777344 255.257812 L 191.792969 255.957031 L 192.8125 256.160156 L 193.832031 254.546875 L 194.851562 251.398438 L 195.871094 247.125 L 196.890625 242.722656 L 197.910156 238.875 L 198.929688 236.144531 L 199.945312 234.257812 L 200.964844 233.566406 L 201.984375 233.738281 L 203.003906 233.96875 L 204.023438 234.601562 L 205.042969 235.878906 L 206.0625 237.644531 L 207.082031 239.625 L 208.097656 242.199219 L 209.117188 245.050781 L 210.136719 247.226562 L 211.15625 251.144531 L 212.175781 254.722656 L 213.195312 257.96875 L 214.214844 258.601562 L 215.230469 256.308594 L 216.25 251.691406 L 217.269531 245.460938 L 218.289062 239.542969 L 219.308594 235.402344 L 220.328125 232.703125 L 221.347656 231.003906 L 222.367188 230.316406 L 223.382812 229.960938 L 225.421875 230.03125 L 226.441406 230.277344 L 227.460938 231.207031 L 228.480469 232.335938 L 229.5 233.253906 L 230.519531 234.066406 L 231.535156 235.507812 L 232.554688 237.730469 L 233.574219 240.773438 L 234.59375 244.714844 L 235.613281 250.292969 L 236.632812 256.097656 L 237.652344 260.753906 L 238.667969 263.269531 L 239.6875 262.773438 L 240.707031 258.453125 L 241.726562 251.722656 L 242.746094 244.085938 L 243.765625 237.671875 L 244.785156 233.5625 L 245.804688 231.011719 L 246.820312 229.734375 L 247.839844 229.125 L 248.859375 228.859375 L 249.878906 228.925781 L 250.898438 229.359375 L 251.917969 230.015625 L 252.9375 230.867188 L 253.957031 231.582031 L 254.972656 232.21875 L 255.992188 233.0625 L 257.011719 234.746094 L 258.03125 237.128906 L 259.050781 240.65625 L 260.070312 246.683594 L 261.089844 256.183594 L 262.105469 269.796875 L 263.125 285.363281 L 264.144531 294.921875 L 265.164062 294.371094 L 266.183594 285.933594 L 267.203125 272.789062 L 268.222656 258.441406 L 269.242188 245.199219 L 270.257812 235.582031 L 271.277344 230.015625 L 272.296875 227.425781 L 273.316406 226.433594 L 274.335938 226.230469 L 275.355469 226.261719 L 276.375 226.398438 L 277.394531 226.609375 L 278.410156 226.804688 L 279.429688 226.976562 L 280.449219 227.101562 L 281.46875 227.332031 L 282.488281 227.726562 L 283.507812 228.28125 L 284.527344 228.851562 L 285.542969 229.617188 L 286.5625 230.441406 L 287.582031 231.753906 L 288.601562 233.203125 L 289.621094 234.636719 L 290.640625 236.375 L 291.660156 237.601562 L 292.679688 238.972656 L 293.695312 241.144531 L 294.714844 243.988281 L 295.734375 247.714844 L 296.753906 252.558594 L 297.773438 259.070312 L 298.792969 267.449219 L 299.8125 273.996094 L 300.832031 274.730469 L 301.847656 269.613281 L 302.867188 260.257812 L 303.886719 249.328125 L 304.90625 239.632812 L 305.925781 232.730469 L 306.945312 228.800781 L 307.964844 226.957031 L 308.980469 226.125 L 310 225.824219 L 311.019531 225.636719 L 312.039062 225.707031 L 313.058594 225.761719 L 314.078125 225.894531 L 315.097656 226.023438 L 316.117188 226.042969 L 317.132812 226.140625 L 318.152344 226.210938 L 319.171875 226.332031 L 320.191406 226.425781 L 321.210938 226.75 L 322.230469 227.082031 L 323.25 227.484375 L 324.269531 227.5625 L 325.285156 227.644531 L 326.304688 227.96875 L 327.324219 228.433594 L 328.34375 228.910156 L 329.363281 229.421875 L 330.382812 229.964844 L 331.402344 230.433594 L 332.417969 231.15625 L 333.4375 232.34375 L 334.457031 233.90625 L 335.476562 235.753906 L 336.496094 238.261719 L 337.515625 241.429688 L 338.535156 245.003906 L 339.554688 248.800781 L 340.570312 252.769531 L 341.589844 256.195312 L 342.609375 257.035156 L 343.628906 254.855469 L 344.648438 250.804688 L 345.667969 245.324219 L 346.6875 239.980469 L 347.707031 235.917969 L 348.722656 233.085938 L 349.742188 231.5 L 350.761719 230.804688 L 351.78125 230.816406 L 352.800781 231.144531 L 353.820312 231.925781 L 354.839844 232.875 L 355.855469 233.964844 L 356.875 234.882812 L 357.894531 235.667969 L 358.914062 237.242188 L 359.933594 239.320312 L 360.953125 240.984375 L 361.972656 242.132812 L 362.992188 243.875 L 364.007812 246.414062 L 365.027344 247.554688 L 366.046875 247.296875 L 367.066406 246.257812 L 368.085938 244.625 L 369.105469 242.855469 L 370.125 241.015625 L 371.144531 239.695312 L 372.160156 239.042969 L 373.179688 239.25 L 374.199219 239.875 L 375.21875 241.730469 L 376.238281 244.121094 L 377.257812 247.046875 L 378.277344 249.375 L 379.296875 251.203125 L 380.3125 251.695312 L 381.332031 250.890625 L 382.351562 248.804688 L 383.371094 245.082031 L 384.390625 240.320312 L 385.410156 236.042969 L 386.429688 233.09375 L 387.445312 231.207031 L 388.464844 230.355469 L 389.484375 230.175781 L 390.503906 230.175781 L 391.523438 230.601562 L 392.542969 231.6875 L 393.5625 232.945312 L 394.582031 234.125 L 395.597656 235.257812 L 396.617188 236.554688 L 397.636719 238.230469 L 398.65625 239.875 L 399.675781 241.304688 L 400.695312 242.265625 L 401.714844 242.546875 L 402.734375 242.128906 L 403.75 240.507812 L 404.769531 239.886719 L 405.789062 239.996094 L 406.808594 239.707031 L 407.828125 239.976562 L 408.847656 240.257812 L 409.867188 240.175781 L 410.882812 240.5 L 411.902344 240.421875 L 412.921875 240.886719 L 413.941406 241.863281 L 414.960938 243.515625 L 415.980469 245.183594 L 417 246.683594 L 418.019531 247.972656 L 419.035156 250.132812 L 420.054688 252.347656 L 421.074219 253.3125 L 422.09375 252.457031 L 423.113281 248.65625 L 424.132812 245.015625 L 425.152344 241.339844 L 426.171875 237.835938 L 427.1875 234.992188 L 428.207031 233.488281 L 429.226562 233.234375 L 430.246094 233.46875 L 431.265625 233.664062 L 432.285156 233.992188 L 433.304688 234.648438 L 434.320312 235.601562 L 435.339844 236.851562 L 436.359375 238.445312 L 437.378906 240.789062 L 438.398438 244.390625 L 439.417969 248.414062 L 440.4375 252.34375 L 441.457031 255.492188 L 442.472656 256.808594 L 443.492188 255.925781 L 444.511719 252.867188 L 445.53125 247.90625 L 446.550781 242.628906 L 447.570312 238.089844 L 448.589844 235.488281 L 449.609375 234.324219 L 450.625 233.765625 L 451.644531 233.453125 L 452.664062 233.492188 L 453.683594 233.601562 L 454.703125 234.136719 L 455.722656 235.285156 L 456.742188 236.660156 L 457.757812 238.140625 L 458.777344 241.183594 L 459.796875 244.914062 L 460.816406 248.839844 L 461.835938 251.882812 L 462.855469 255.882812 L 463.875 258.542969 L 464.894531 259.609375 L 465.910156 257.1875 L 466.929688 251.578125 L 467.949219 243.945312 L 468.96875 237.285156 L 469.988281 232.734375 L 471.007812 230.21875 L 472.027344 228.933594 L 473.046875 228.667969 L 474.0625 228.523438 L 475.082031 228.621094 L 476.101562 228.835938 L 477.121094 229.023438 L 478.140625 229.527344 "/>
<g clip-path="url(#clip-62)">
<path fill="none" stroke-width="1.066978" stroke-linecap="round" stroke-linejoin="round" stroke="rgb(20%, 20%, 20%)" stroke-opacity="1" stroke-miterlimit="10" d="M 50.152344 298.386719 L 498.523438 298.386719 L 498.523438 222.171875 L 50.152344 222.171875 Z M 50.152344 298.386719 "/>
</g>
<g clip-path="url(#clip-63)">
<path fill-rule="nonzero" fill="rgb(100%, 100%, 100%)" fill-opacity="1" d="M 50.152344 397.847656 L 498.523438 397.847656 L 498.523438 321.632812 L 50.152344 321.632812 Z M 50.152344 397.847656 "/>
</g>
<g clip-path="url(#clip-64)">
<path fill="none" stroke-width="0.533489" stroke-linecap="butt" stroke-linejoin="round" stroke="rgb(92.156863%, 92.156863%, 92.156863%)" stroke-opacity="1" stroke-miterlimit="10" d="M 50.152344 395.125 L 498.519531 395.125 "/>
</g>
<g clip-path="url(#clip-65)">
<path fill="none" stroke-width="0.533489" stroke-linecap="butt" stroke-linejoin="round" stroke="rgb(92.156863%, 92.156863%, 92.156863%)" stroke-opacity="1" stroke-miterlimit="10" d="M 50.152344 371.753906 L 498.519531 371.753906 "/>
</g>
<g clip-path="url(#clip-66)">
<path fill="none" stroke-width="0.533489" stroke-linecap="butt" stroke-linejoin="round" stroke="rgb(92.156863%, 92.156863%, 92.156863%)" stroke-opacity="1" stroke-miterlimit="10" d="M 50.152344 348.382812 L 498.519531 348.382812 "/>
</g>
<g clip-path="url(#clip-67)">
<path fill="none" stroke-width="0.533489" stroke-linecap="butt" stroke-linejoin="round" stroke="rgb(92.156863%, 92.156863%, 92.156863%)" stroke-opacity="1" stroke-miterlimit="10" d="M 50.152344 325.007812 L 498.519531 325.007812 "/>
</g>
<g clip-path="url(#clip-68)">
<path fill="none" stroke-width="0.533489" stroke-linecap="butt" stroke-linejoin="round" stroke="rgb(92.156863%, 92.156863%, 92.156863%)" stroke-opacity="1" stroke-miterlimit="10" d="M 121.480469 397.847656 L 121.480469 321.632812 "/>
</g>
<g clip-path="url(#clip-69)">
<path fill="none" stroke-width="0.533489" stroke-linecap="butt" stroke-linejoin="round" stroke="rgb(92.156863%, 92.156863%, 92.156863%)" stroke-opacity="1" stroke-miterlimit="10" d="M 223.382812 397.847656 L 223.382812 321.632812 "/>
</g>
<g clip-path="url(#clip-70)">
<path fill="none" stroke-width="0.533489" stroke-linecap="butt" stroke-linejoin="round" stroke="rgb(92.156863%, 92.156863%, 92.156863%)" stroke-opacity="1" stroke-miterlimit="10" d="M 325.285156 397.847656 L 325.285156 321.632812 "/>
</g>
<g clip-path="url(#clip-71)">
<path fill="none" stroke-width="0.533489" stroke-linecap="butt" stroke-linejoin="round" stroke="rgb(92.156863%, 92.156863%, 92.156863%)" stroke-opacity="1" stroke-miterlimit="10" d="M 427.1875 397.847656 L 427.1875 321.632812 "/>
</g>
<g clip-path="url(#clip-72)">
<path fill="none" stroke-width="1.066978" stroke-linecap="butt" stroke-linejoin="round" stroke="rgb(92.156863%, 92.156863%, 92.156863%)" stroke-opacity="1" stroke-miterlimit="10" d="M 50.152344 383.441406 L 498.519531 383.441406 "/>
</g>
<g clip-path="url(#clip-73)">
<path fill="none" stroke-width="1.066978" stroke-linecap="butt" stroke-linejoin="round" stroke="rgb(92.156863%, 92.156863%, 92.156863%)" stroke-opacity="1" stroke-miterlimit="10" d="M 50.152344 360.066406 L 498.519531 360.066406 "/>
</g>
<g clip-path="url(#clip-74)">
<path fill="none" stroke-width="1.066978" stroke-linecap="butt" stroke-linejoin="round" stroke="rgb(92.156863%, 92.156863%, 92.156863%)" stroke-opacity="1" stroke-miterlimit="10" d="M 50.152344 336.695312 L 498.519531 336.695312 "/>
</g>
<g clip-path="url(#clip-75)">
<path fill="none" stroke-width="1.066978" stroke-linecap="butt" stroke-linejoin="round" stroke="rgb(92.156863%, 92.156863%, 92.156863%)" stroke-opacity="1" stroke-miterlimit="10" d="M 70.53125 397.847656 L 70.53125 321.632812 "/>
</g>
<g clip-path="url(#clip-76)">
<path fill="none" stroke-width="1.066978" stroke-linecap="butt" stroke-linejoin="round" stroke="rgb(92.156863%, 92.156863%, 92.156863%)" stroke-opacity="1" stroke-miterlimit="10" d="M 172.433594 397.847656 L 172.433594 321.632812 "/>
</g>
<g clip-path="url(#clip-77)">
<path fill="none" stroke-width="1.066978" stroke-linecap="butt" stroke-linejoin="round" stroke="rgb(92.156863%, 92.156863%, 92.156863%)" stroke-opacity="1" stroke-miterlimit="10" d="M 274.335938 397.847656 L 274.335938 321.632812 "/>
</g>
<g clip-path="url(#clip-78)">
<path fill="none" stroke-width="1.066978" stroke-linecap="butt" stroke-linejoin="round" stroke="rgb(92.156863%, 92.156863%, 92.156863%)" stroke-opacity="1" stroke-miterlimit="10" d="M 376.238281 397.847656 L 376.238281 321.632812 "/>
</g>
<g clip-path="url(#clip-79)">
<path fill="none" stroke-width="1.066978" stroke-linecap="butt" stroke-linejoin="round" stroke="rgb(92.156863%, 92.156863%, 92.156863%)" stroke-opacity="1" stroke-miterlimit="10" d="M 478.140625 397.847656 L 478.140625 321.632812 "/>
</g>
<path fill="none" stroke-width="1.066978" stroke-linecap="butt" stroke-linejoin="round" stroke="rgb(0%, 0%, 0%)" stroke-opacity="1" stroke-miterlimit="10" d="M 70.53125 327.667969 L 71.550781 330.75 L 72.570312 332.941406 L 73.589844 337.824219 L 74.605469 346.800781 L 75.625 357.753906 L 76.644531 363.5 L 77.664062 367.828125 L 78.683594 368.523438 L 79.703125 366.777344 L 80.722656 367.085938 L 81.742188 363.957031 L 82.757812 365.007812 L 83.777344 365.054688 L 84.796875 362.769531 L 85.816406 362.546875 L 86.835938 357.535156 L 87.855469 358.007812 L 88.875 353.835938 L 89.890625 352.386719 L 90.910156 348.082031 L 91.929688 345.835938 L 92.949219 345.28125 L 93.96875 341.414062 L 94.988281 339.296875 L 96.007812 335.4375 L 97.027344 332.792969 L 98.042969 330.371094 L 99.0625 329.890625 L 100.082031 327.234375 L 101.101562 328.074219 L 102.121094 329.386719 L 103.140625 329.183594 L 104.160156 332.058594 L 105.179688 337.523438 L 106.195312 342.75 L 107.214844 351.90625 L 108.234375 361.5625 L 109.253906 370.175781 L 110.273438 377.453125 L 111.292969 379.839844 L 112.3125 380.042969 L 113.328125 377.511719 L 114.347656 377.617188 L 115.367188 374.234375 L 116.386719 368.949219 L 117.40625 368.0625 L 118.425781 364.671875 L 119.445312 360.5625 L 120.464844 361.890625 L 121.480469 360.164062 L 122.5 356.445312 L 123.519531 354.472656 L 124.539062 350.910156 L 125.558594 349.417969 L 126.578125 348.226562 L 127.597656 347.894531 L 128.617188 344.609375 L 129.632812 341.421875 L 130.652344 340.664062 L 131.671875 339.546875 L 132.691406 336.859375 L 133.710938 336.367188 L 134.730469 332.53125 L 135.75 330.792969 L 136.769531 329.503906 L 137.785156 330.804688 L 138.804688 329.917969 L 139.824219 329.523438 L 140.84375 328.519531 L 141.863281 331.121094 L 142.882812 332 L 143.902344 334.585938 L 144.917969 341.246094 L 145.9375 347.785156 L 146.957031 354.027344 L 147.976562 359.277344 L 148.996094 364.472656 L 150.015625 361.996094 L 151.035156 365.535156 L 152.054688 362.652344 L 153.070312 357.429688 L 154.089844 355.921875 L 155.109375 354.070312 L 156.128906 352.132812 L 157.148438 348.207031 L 158.167969 346.300781 L 159.1875 345.636719 L 160.207031 342.492188 L 161.222656 340.855469 L 162.242188 338.53125 L 163.261719 336.328125 L 164.28125 336.144531 L 165.300781 333.648438 L 166.320312 333.707031 L 167.339844 332.296875 L 168.355469 332.546875 L 169.375 331.332031 L 170.394531 332.148438 L 171.414062 332.667969 L 172.433594 334.222656 L 173.453125 337.042969 L 174.472656 336.292969 L 175.492188 336.023438 L 176.507812 334.019531 L 177.527344 334.433594 L 178.546875 334.457031 L 179.566406 334.59375 L 180.585938 334.960938 L 181.605469 334.277344 L 182.625 333.347656 L 183.644531 330.578125 L 184.660156 329.9375 L 185.679688 330.308594 L 186.699219 332.097656 L 187.71875 331.699219 L 188.738281 332.777344 L 189.757812 333.519531 L 190.777344 337.511719 L 191.792969 339.328125 L 192.8125 340.082031 L 193.832031 344.023438 L 194.851562 345.015625 L 195.871094 344.792969 L 196.890625 345.023438 L 197.910156 343.132812 L 198.929688 342.296875 L 199.945312 340.902344 L 200.964844 337.445312 L 201.984375 335.988281 L 203.003906 336.15625 L 204.023438 333.40625 L 205.042969 331.105469 L 206.0625 330.523438 L 207.082031 329.75 L 208.097656 328.484375 L 209.117188 330.96875 L 210.136719 330.917969 L 211.15625 331.855469 L 212.175781 334.382812 L 213.195312 337.183594 L 214.214844 342.222656 L 215.230469 345.40625 L 216.25 348.953125 L 217.269531 351.628906 L 218.289062 350.234375 L 219.308594 346.640625 L 220.328125 348.300781 L 221.347656 345.136719 L 222.367188 344.503906 L 223.382812 344.253906 L 224.402344 342.6875 L 225.421875 342.625 L 226.441406 340.007812 L 227.460938 336.722656 L 228.480469 334.210938 L 229.5 334.675781 L 230.519531 333.167969 L 231.535156 330.242188 L 232.554688 328.347656 L 233.574219 328.511719 L 234.59375 327.703125 L 235.613281 328.40625 L 236.632812 332.347656 L 237.652344 336.988281 L 238.667969 341.589844 L 239.6875 346.882812 L 240.707031 351.546875 L 241.726562 355.046875 L 242.746094 356.835938 L 243.765625 352.609375 L 244.785156 351.902344 L 245.804688 350.039062 L 246.820312 350.484375 L 247.839844 348.183594 L 248.859375 348.371094 L 249.878906 345.574219 L 250.898438 342.609375 L 251.917969 338.683594 L 252.9375 338.503906 L 253.957031 336.855469 L 254.972656 336.183594 L 255.992188 333.972656 L 257.011719 330.347656 L 258.03125 328.089844 L 259.050781 326.359375 L 260.070312 325.097656 L 261.089844 326.292969 L 262.105469 331.671875 L 263.125 340.3125 L 264.144531 349.675781 L 265.164062 363.046875 L 266.183594 375.171875 L 267.203125 383.914062 L 268.222656 394.136719 L 269.242188 394.386719 L 270.257812 388.640625 L 271.277344 384.871094 L 272.296875 378.9375 L 273.316406 373.480469 L 274.335938 364.738281 L 275.355469 365.53125 L 276.375 361.492188 L 277.394531 358.921875 L 278.410156 357.382812 L 279.429688 356.105469 L 280.449219 355.476562 L 281.46875 352.792969 L 282.488281 350.6875 L 283.507812 345.382812 L 284.527344 343.785156 L 285.542969 340.484375 L 286.5625 337.191406 L 287.582031 334.171875 L 288.601562 333.09375 L 289.621094 331.625 L 290.640625 331.46875 L 291.660156 331.308594 L 292.679688 330.789062 L 293.695312 329.996094 L 294.714844 328.890625 L 295.734375 329.527344 L 296.753906 331.125 L 297.773438 331.863281 L 298.792969 337.082031 L 299.8125 344.257812 L 300.832031 351.457031 L 301.847656 359.480469 L 302.867188 367.027344 L 303.886719 369.523438 L 304.90625 372.394531 L 305.925781 377.714844 L 306.945312 377.628906 L 307.964844 377.996094 L 308.980469 380.019531 L 310 378.441406 L 311.019531 378.230469 L 312.039062 372.90625 L 313.058594 373.417969 L 314.078125 368.3125 L 315.097656 367.746094 L 316.117188 368.09375 L 317.132812 366.601562 L 318.152344 365.148438 L 319.171875 362.984375 L 320.191406 360.664062 L 321.210938 356.3125 L 322.230469 353.546875 L 323.25 351.707031 L 324.269531 354.238281 L 325.285156 351.960938 L 326.304688 348.039062 L 327.324219 346.25 L 328.34375 343.832031 L 329.363281 341.835938 L 330.382812 341.144531 L 331.402344 338.914062 L 332.417969 336.835938 L 333.4375 333.785156 L 334.457031 331.96875 L 335.476562 330.042969 L 336.496094 329.121094 L 337.515625 328.496094 L 338.535156 328.695312 L 339.554688 330.601562 L 340.570312 332.40625 L 341.589844 337.378906 L 342.609375 342.113281 L 343.628906 344.722656 L 344.648438 346.902344 L 345.667969 348.847656 L 346.6875 348.246094 L 347.707031 346.84375 L 348.722656 346.277344 L 349.742188 345.777344 L 350.761719 342.792969 L 351.78125 339.761719 L 352.800781 338.367188 L 353.820312 336.277344 L 354.839844 334.195312 L 355.855469 333.953125 L 356.875 333.964844 L 357.894531 332.730469 L 358.914062 330.222656 L 359.933594 330.644531 L 360.953125 331.460938 L 361.972656 332.464844 L 362.992188 330.636719 L 364.007812 332.027344 L 365.027344 335.410156 L 366.046875 337.167969 L 367.066406 338.15625 L 368.085938 337.890625 L 369.105469 337.964844 L 370.125 338.09375 L 371.144531 336.285156 L 372.160156 335.308594 L 373.179688 333.007812 L 374.199219 331.765625 L 375.21875 329.707031 L 376.238281 329.949219 L 377.257812 331.289062 L 378.277344 333.5 L 379.296875 335.050781 L 380.3125 337.933594 L 381.332031 339.535156 L 382.351562 341.609375 L 383.371094 344.058594 L 384.390625 347.773438 L 385.410156 347.367188 L 386.429688 347.253906 L 387.445312 348.4375 L 388.464844 344.1875 L 389.484375 343.804688 L 390.503906 342.140625 L 391.523438 337.894531 L 392.542969 335.539062 L 393.5625 333.71875 L 394.582031 333.425781 L 395.597656 332.277344 L 396.617188 330.875 L 397.636719 330.734375 L 398.65625 330.230469 L 399.675781 331.367188 L 400.695312 332.863281 L 401.714844 334.503906 L 402.734375 336.460938 L 403.75 337.636719 L 404.769531 333.871094 L 405.789062 335.105469 L 406.808594 334.894531 L 407.828125 332.882812 L 408.847656 335.046875 L 409.867188 334.335938 L 410.882812 333.84375 L 411.902344 334.144531 L 412.921875 331.308594 L 413.941406 332.507812 L 414.960938 331.234375 L 415.980469 332.136719 L 417 333.476562 L 418.019531 332.992188 L 419.035156 333.058594 L 420.054688 335.453125 L 421.074219 337.433594 L 422.09375 343.265625 L 423.113281 343.671875 L 424.132812 342.894531 L 425.152344 344.0625 L 426.171875 343.5625 L 427.1875 344.332031 L 428.207031 339.875 L 429.226562 336.96875 L 430.246094 337.039062 L 431.265625 336.699219 L 432.285156 334.84375 L 433.304688 333.613281 L 434.320312 332.863281 L 435.339844 331.429688 L 436.359375 330.054688 L 437.378906 328.5 L 438.398438 328.289062 L 439.417969 330.59375 L 440.4375 332.484375 L 441.457031 336.949219 L 442.472656 338.910156 L 443.492188 343.390625 L 444.511719 345.527344 L 445.53125 347.144531 L 446.550781 348.421875 L 447.570312 346.054688 L 448.589844 340.429688 L 449.609375 337.976562 L 450.625 338.429688 L 451.644531 337.699219 L 452.664062 336.78125 L 453.683594 335.734375 L 454.703125 335.117188 L 455.722656 331.945312 L 456.742188 331.425781 L 457.757812 330.144531 L 458.777344 327.820312 L 459.796875 327.855469 L 460.816406 330.851562 L 461.835938 332.167969 L 462.855469 335.210938 L 463.875 337.96875 L 464.894531 342.351562 L 465.910156 347.324219 L 466.929688 353.480469 L 467.949219 355.875 L 468.96875 357.144531 L 469.988281 354.96875 L 471.007812 354.949219 L 472.027344 350.699219 L 473.046875 348.949219 L 474.0625 348.140625 L 475.082031 347.398438 L 476.101562 346.011719 L 477.121094 343.335938 L 478.140625 341.851562 "/>
<g clip-path="url(#clip-80)">
<path fill="none" stroke-width="1.066978" stroke-linecap="round" stroke-linejoin="round" stroke="rgb(20%, 20%, 20%)" stroke-opacity="1" stroke-miterlimit="10" d="M 50.152344 397.847656 L 498.523438 397.847656 L 498.523438 321.632812 L 50.152344 321.632812 Z M 50.152344 397.847656 "/>
</g>
<g clip-path="url(#clip-81)">
<path fill-rule="nonzero" fill="rgb(85.098039%, 85.098039%, 85.098039%)" fill-opacity="1" stroke-width="1.066978" stroke-linecap="round" stroke-linejoin="round" stroke="rgb(20%, 20%, 20%)" stroke-opacity="1" stroke-miterlimit="10" d="M 50.152344 321.632812 L 498.523438 321.632812 L 498.523438 303.867188 L 50.152344 303.867188 Z M 50.152344 321.632812 "/>
</g>
<g fill="rgb(10.196078%, 10.196078%, 10.196078%)" fill-opacity="1">
<use xlink:href="#glyph-0-0" x="271.335938" y="315.665039"/>
</g>
<g clip-path="url(#clip-82)">
<path fill-rule="nonzero" fill="rgb(85.098039%, 85.098039%, 85.098039%)" fill-opacity="1" stroke-width="1.066978" stroke-linecap="round" stroke-linejoin="round" stroke="rgb(20%, 20%, 20%)" stroke-opacity="1" stroke-miterlimit="10" d="M 50.152344 222.171875 L 498.523438 222.171875 L 498.523438 204.40625 L 50.152344 204.40625 Z M 50.152344 222.171875 "/>
</g>
<g fill="rgb(10.196078%, 10.196078%, 10.196078%)" fill-opacity="1">
<use xlink:href="#glyph-0-1" x="271.335938" y="216.204102"/>
</g>
<g clip-path="url(#clip-83)">
<path fill-rule="nonzero" fill="rgb(85.098039%, 85.098039%, 85.098039%)" fill-opacity="1" stroke-width="1.066978" stroke-linecap="round" stroke-linejoin="round" stroke="rgb(20%, 20%, 20%)" stroke-opacity="1" stroke-miterlimit="10" d="M 50.152344 122.707031 L 498.523438 122.707031 L 498.523438 104.941406 L 50.152344 104.941406 Z M 50.152344 122.707031 "/>
</g>
<g fill="rgb(10.196078%, 10.196078%, 10.196078%)" fill-opacity="1">
<use xlink:href="#glyph-0-2" x="271.835938" y="116.739258"/>
</g>
<g clip-path="url(#clip-84)">
<path fill-rule="nonzero" fill="rgb(85.098039%, 85.098039%, 85.098039%)" fill-opacity="1" stroke-width="1.066978" stroke-linecap="round" stroke-linejoin="round" stroke="rgb(20%, 20%, 20%)" stroke-opacity="1" stroke-miterlimit="10" d="M 50.152344 23.246094 L 498.523438 23.246094 L 498.523438 5.480469 L 50.152344 5.480469 Z M 50.152344 23.246094 "/>
</g>
<g fill="rgb(10.196078%, 10.196078%, 10.196078%)" fill-opacity="1">
<use xlink:href="#glyph-0-3" x="271.835938" y="17.27832"/>
</g>
<path fill="none" stroke-width="1.066978" stroke-linecap="butt" stroke-linejoin="round" stroke="rgb(20%, 20%, 20%)" stroke-opacity="1" stroke-miterlimit="10" d="M 70.53125 400.589844 L 70.53125 397.847656 "/>
<path fill="none" stroke-width="1.066978" stroke-linecap="butt" stroke-linejoin="round" stroke="rgb(20%, 20%, 20%)" stroke-opacity="1" stroke-miterlimit="10" d="M 172.433594 400.589844 L 172.433594 397.847656 "/>
<path fill="none" stroke-width="1.066978" stroke-linecap="butt" stroke-linejoin="round" stroke="rgb(20%, 20%, 20%)" stroke-opacity="1" stroke-miterlimit="10" d="M 274.335938 400.589844 L 274.335938 397.847656 "/>
<path fill="none" stroke-width="1.066978" stroke-linecap="butt" stroke-linejoin="round" stroke="rgb(20%, 20%, 20%)" stroke-opacity="1" stroke-miterlimit="10" d="M 376.238281 400.589844 L 376.238281 397.847656 "/>
<path fill="none" stroke-width="1.066978" stroke-linecap="butt" stroke-linejoin="round" stroke="rgb(20%, 20%, 20%)" stroke-opacity="1" stroke-miterlimit="10" d="M 478.140625 400.589844 L 478.140625 397.847656 "/>
<g fill="rgb(30.196078%, 30.196078%, 30.196078%)" fill-opacity="1">
<use xlink:href="#glyph-0-4" x="68.03125" y="409.196289"/>
</g>
<g fill="rgb(30.196078%, 30.196078%, 30.196078%)" fill-opacity="1">
<use xlink:href="#glyph-0-5" x="164.933594" y="409.196289"/>
<use xlink:href="#glyph-0-4" x="169.933594" y="409.196289"/>
<use xlink:href="#glyph-0-4" x="174.933594" y="409.196289"/>
</g>
<g fill="rgb(30.196078%, 30.196078%, 30.196078%)" fill-opacity="1">
<use xlink:href="#glyph-0-6" x="266.835938" y="409.196289"/>
<use xlink:href="#glyph-0-4" x="271.835938" y="409.196289"/>
<use xlink:href="#glyph-0-4" x="276.835938" y="409.196289"/>
</g>
<g fill="rgb(30.196078%, 30.196078%, 30.196078%)" fill-opacity="1">
<use xlink:href="#glyph-0-7" x="368.738281" y="409.196289"/>
<use xlink:href="#glyph-0-4" x="373.738281" y="409.196289"/>
<use xlink:href="#glyph-0-4" x="378.738281" y="409.196289"/>
</g>
<g fill="rgb(30.196078%, 30.196078%, 30.196078%)" fill-opacity="1">
<use xlink:href="#glyph-0-8" x="470.640625" y="409.196289"/>
<use xlink:href="#glyph-0-4" x="475.640625" y="409.196289"/>
<use xlink:href="#glyph-0-4" x="480.640625" y="409.196289"/>
</g>
<g fill="rgb(30.196078%, 30.196078%, 30.196078%)" fill-opacity="1">
<use xlink:href="#glyph-0-4" x="40.21875" y="100.368164"/>
</g>
<g fill="rgb(30.196078%, 30.196078%, 30.196078%)" fill-opacity="1">
<use xlink:href="#glyph-0-6" x="25.21875" y="85.80957"/>
<use xlink:href="#glyph-0-9" x="30.21875" y="85.80957"/>
<use xlink:href="#glyph-0-4" x="35.21875" y="85.80957"/>
<use xlink:href="#glyph-0-4" x="40.21875" y="85.80957"/>
</g>
<g fill="rgb(30.196078%, 30.196078%, 30.196078%)" fill-opacity="1">
<use xlink:href="#glyph-0-9" x="25.21875" y="71.250977"/>
<use xlink:href="#glyph-0-4" x="30.21875" y="71.250977"/>
<use xlink:href="#glyph-0-4" x="35.21875" y="71.250977"/>
<use xlink:href="#glyph-0-4" x="40.21875" y="71.250977"/>
</g>
<g fill="rgb(30.196078%, 30.196078%, 30.196078%)" fill-opacity="1">
<use xlink:href="#glyph-0-10" x="25.21875" y="56.696289"/>
<use xlink:href="#glyph-0-9" x="30.21875" y="56.696289"/>
<use xlink:href="#glyph-0-4" x="35.21875" y="56.696289"/>
<use xlink:href="#glyph-0-4" x="40.21875" y="56.696289"/>
</g>
<g fill="rgb(30.196078%, 30.196078%, 30.196078%)" fill-opacity="1">
<use xlink:href="#glyph-0-5" x="20.21875" y="42.137695"/>
<use xlink:href="#glyph-0-4" x="25.21875" y="42.137695"/>
<use xlink:href="#glyph-0-4" x="30.21875" y="42.137695"/>
<use xlink:href="#glyph-0-4" x="35.21875" y="42.137695"/>
<use xlink:href="#glyph-0-4" x="40.21875" y="42.137695"/>
</g>
<g fill="rgb(30.196078%, 30.196078%, 30.196078%)" fill-opacity="1">
<use xlink:href="#glyph-0-5" x="20.21875" y="27.579102"/>
<use xlink:href="#glyph-0-6" x="25.21875" y="27.579102"/>
<use xlink:href="#glyph-0-9" x="30.21875" y="27.579102"/>
<use xlink:href="#glyph-0-4" x="35.21875" y="27.579102"/>
<use xlink:href="#glyph-0-4" x="40.21875" y="27.579102"/>
</g>
<path fill="none" stroke-width="1.066978" stroke-linecap="butt" stroke-linejoin="round" stroke="rgb(20%, 20%, 20%)" stroke-opacity="1" stroke-miterlimit="10" d="M 47.410156 97.453125 L 50.152344 97.453125 "/>
<path fill="none" stroke-width="1.066978" stroke-linecap="butt" stroke-linejoin="round" stroke="rgb(20%, 20%, 20%)" stroke-opacity="1" stroke-miterlimit="10" d="M 47.410156 82.894531 L 50.152344 82.894531 "/>
<path fill="none" stroke-width="1.066978" stroke-linecap="butt" stroke-linejoin="round" stroke="rgb(20%, 20%, 20%)" stroke-opacity="1" stroke-miterlimit="10" d="M 47.410156 68.335938 L 50.152344 68.335938 "/>
<path fill="none" stroke-width="1.066978" stroke-linecap="butt" stroke-linejoin="round" stroke="rgb(20%, 20%, 20%)" stroke-opacity="1" stroke-miterlimit="10" d="M 47.410156 53.78125 L 50.152344 53.78125 "/>
<path fill="none" stroke-width="1.066978" stroke-linecap="butt" stroke-linejoin="round" stroke="rgb(20%, 20%, 20%)" stroke-opacity="1" stroke-miterlimit="10" d="M 47.410156 39.222656 L 50.152344 39.222656 "/>
<path fill="none" stroke-width="1.066978" stroke-linecap="butt" stroke-linejoin="round" stroke="rgb(20%, 20%, 20%)" stroke-opacity="1" stroke-miterlimit="10" d="M 47.410156 24.664062 L 50.152344 24.664062 "/>
<g fill="rgb(30.196078%, 30.196078%, 30.196078%)" fill-opacity="1">
<use xlink:href="#glyph-0-4" x="40.21875" y="201.157227"/>
</g>
<g fill="rgb(30.196078%, 30.196078%, 30.196078%)" fill-opacity="1">
<use xlink:href="#glyph-0-5" x="40.21875" y="186.895508"/>
</g>
<g fill="rgb(30.196078%, 30.196078%, 30.196078%)" fill-opacity="1">
<use xlink:href="#glyph-0-6" x="40.21875" y="172.633789"/>
</g>
<g fill="rgb(30.196078%, 30.196078%, 30.196078%)" fill-opacity="1">
<use xlink:href="#glyph-0-7" x="40.21875" y="158.37207"/>
</g>
<g fill="rgb(30.196078%, 30.196078%, 30.196078%)" fill-opacity="1">
<use xlink:href="#glyph-0-8" x="40.21875" y="144.110352"/>
</g>
<g fill="rgb(30.196078%, 30.196078%, 30.196078%)" fill-opacity="1">
<use xlink:href="#glyph-0-9" x="40.21875" y="129.848633"/>
</g>
<path fill="none" stroke-width="1.066978" stroke-linecap="butt" stroke-linejoin="round" stroke="rgb(20%, 20%, 20%)" stroke-opacity="1" stroke-miterlimit="10" d="M 47.410156 198.242188 L 50.152344 198.242188 "/>
<path fill="none" stroke-width="1.066978" stroke-linecap="butt" stroke-linejoin="round" stroke="rgb(20%, 20%, 20%)" stroke-opacity="1" stroke-miterlimit="10" d="M 47.410156 183.980469 L 50.152344 183.980469 "/>
<path fill="none" stroke-width="1.066978" stroke-linecap="butt" stroke-linejoin="round" stroke="rgb(20%, 20%, 20%)" stroke-opacity="1" stroke-miterlimit="10" d="M 47.410156 169.71875 L 50.152344 169.71875 "/>
<path fill="none" stroke-width="1.066978" stroke-linecap="butt" stroke-linejoin="round" stroke="rgb(20%, 20%, 20%)" stroke-opacity="1" stroke-miterlimit="10" d="M 47.410156 155.457031 L 50.152344 155.457031 "/>
<path fill="none" stroke-width="1.066978" stroke-linecap="butt" stroke-linejoin="round" stroke="rgb(20%, 20%, 20%)" stroke-opacity="1" stroke-miterlimit="10" d="M 47.410156 141.195312 L 50.152344 141.195312 "/>
<path fill="none" stroke-width="1.066978" stroke-linecap="butt" stroke-linejoin="round" stroke="rgb(20%, 20%, 20%)" stroke-opacity="1" stroke-miterlimit="10" d="M 47.410156 126.933594 L 50.152344 126.933594 "/>
<g fill="rgb(30.196078%, 30.196078%, 30.196078%)" fill-opacity="1">
<use xlink:href="#glyph-0-11" x="40.21875" y="290.223633"/>
</g>
<g fill="rgb(30.196078%, 30.196078%, 30.196078%)" fill-opacity="1">
<use xlink:href="#glyph-0-10" x="40.21875" y="270.727539"/>
</g>
<g fill="rgb(30.196078%, 30.196078%, 30.196078%)" fill-opacity="1">
<use xlink:href="#glyph-0-12" x="40.21875" y="251.231445"/>
</g>
<g fill="rgb(30.196078%, 30.196078%, 30.196078%)" fill-opacity="1">
<use xlink:href="#glyph-0-13" x="40.21875" y="231.735352"/>
</g>
<path fill="none" stroke-width="1.066978" stroke-linecap="butt" stroke-linejoin="round" stroke="rgb(20%, 20%, 20%)" stroke-opacity="1" stroke-miterlimit="10" d="M 47.410156 287.308594 L 50.152344 287.308594 "/>
<path fill="none" stroke-width="1.066978" stroke-linecap="butt" stroke-linejoin="round" stroke="rgb(20%, 20%, 20%)" stroke-opacity="1" stroke-miterlimit="10" d="M 47.410156 267.8125 L 50.152344 267.8125 "/>
<path fill="none" stroke-width="1.066978" stroke-linecap="butt" stroke-linejoin="round" stroke="rgb(20%, 20%, 20%)" stroke-opacity="1" stroke-miterlimit="10" d="M 47.410156 248.316406 L 50.152344 248.316406 "/>
<path fill="none" stroke-width="1.066978" stroke-linecap="butt" stroke-linejoin="round" stroke="rgb(20%, 20%, 20%)" stroke-opacity="1" stroke-miterlimit="10" d="M 47.410156 228.820312 L 50.152344 228.820312 "/>
<g fill="rgb(30.196078%, 30.196078%, 30.196078%)" fill-opacity="1">
<use xlink:href="#glyph-0-14" x="37.21875" y="386.356445"/>
<use xlink:href="#glyph-0-5" x="40.21875" y="386.356445"/>
</g>
<g fill="rgb(30.196078%, 30.196078%, 30.196078%)" fill-opacity="1">
<use xlink:href="#glyph-0-4" x="40.21875" y="362.981445"/>
</g>
<g fill="rgb(30.196078%, 30.196078%, 30.196078%)" fill-opacity="1">
<use xlink:href="#glyph-0-5" x="40.21875" y="339.610352"/>
</g>
<path fill="none" stroke-width="1.066978" stroke-linecap="butt" stroke-linejoin="round" stroke="rgb(20%, 20%, 20%)" stroke-opacity="1" stroke-miterlimit="10" d="M 47.410156 383.441406 L 50.152344 383.441406 "/>
<path fill="none" stroke-width="1.066978" stroke-linecap="butt" stroke-linejoin="round" stroke="rgb(20%, 20%, 20%)" stroke-opacity="1" stroke-miterlimit="10" d="M 47.410156 360.066406 L 50.152344 360.066406 "/>
<path fill="none" stroke-width="1.066978" stroke-linecap="butt" stroke-linejoin="round" stroke="rgb(20%, 20%, 20%)" stroke-opacity="1" stroke-miterlimit="10" d="M 47.410156 336.695312 L 50.152344 336.695312 "/>
<g fill="rgb(0%, 0%, 0%)" fill-opacity="1">
<use xlink:href="#glyph-1-0" x="264.335938" y="422.538086"/>
<use xlink:href="#glyph-1-1" x="267.335938" y="422.538086"/>
<use xlink:href="#glyph-1-2" x="269.335938" y="422.538086"/>
<use xlink:href="#glyph-1-3" x="278.335938" y="422.538086"/>
</g>
</svg>
